<?xml version='1.0' encoding='UTF-8' standalone='no'?>
<svg xmlns="http://www.w3.org/2000/svg" version="1.1" xmlns:xml="http://www.w3.org/XML/1998/namespace" gorn="0" id="svg2"  height="247.5" width="153" xml:space="preserve" viewBox="0 0 153 247.5">
    <desc >
        <referenceFile >28BYJ-48.svg</referenceFile>
    </desc>
    <metadata id="metadata8" >
        <rdf:RDF xmlns:rdf="http://www.w3.org/1999/02/22-rdf-syntax-ns#">
            <cc:Work xmlns:rdf="http://www.w3.org/1999/02/22-rdf-syntax-ns#" xmlns:cc="http://creativecommons.org/ns#" rdf:about="">
                <dc:format xmlns:dc="http://purl.org/dc/elements/1.1/">image/svg+xml</dc:format>
                <dc:type xmlns:dc="http://purl.org/dc/elements/1.1/" xmlns:rdf="http://www.w3.org/1999/02/22-rdf-syntax-ns#" rdf:resource="http://purl.org/dc/dcmitype/StillImage"/>
            </cc:Work>
        </rdf:RDF>
    </metadata>
    <defs id="defs6" />
    <g transform="matrix(1.25,0,0,-1.25,0,247.5)" >
        <g >
            <g >
                <g gorn="0.3.0.0.0" id="g10" >
                    <g transform="translate(46.8,7.2)" >
                        <g >
                            <g >
                                <g gorn="0.3.0.0.0.0.0.0.0" id="g12" >
                                    <path style="stroke-linecap:butt;stroke-linejoin:miter;stroke-miterlimit:4;stroke-dasharray:none;" gorn="0.3.0.0.0.0.0.0.0.0" id="path14"  stroke-width="3.5999999" stroke="#e12323" stroke-opacity="1" fill="none" d="m 0,0 0,7.2 7.2,7.2 0,3.6 0,32.4 0,39.6"/>
                                </g>
                            </g>
                        </g>
                    </g>
                    <g transform="translate(54,7.2)" >
                        <g >
                            <g >
                                <g gorn="0.3.0.0.0.1.0.0.0" id="g16" >
                                    <path style="stroke-linecap:butt;stroke-linejoin:round;stroke-miterlimit:4;stroke-dasharray:none;" gorn="0.3.0.0.0.1.0.0.0.0" id="path18"  stroke-width="3.5999999" stroke="#e38e28" stroke-opacity="1" fill="none" d="m 0,0 0,7.2 3.6,3.6 0,7.2 0,32.4 0,39.6"/>
                                </g>
                            </g>
                        </g>
                    </g>
                    <g transform="translate(61.2,7.2)" >
                        <g >
                            <g >
                                <g gorn="0.3.0.0.0.2.0.0.0" id="g20" >
                                    <path style="stroke-linecap:butt;stroke-linejoin:round;stroke-miterlimit:4;stroke-dasharray:none;" gorn="0.3.0.0.0.2.0.0.0.0" id="path22"  stroke-width="3.5999999" stroke="#eed145" stroke-opacity="1" fill="none" d="M 0,0 0,50.4 0,90"/>
                                </g>
                            </g>
                        </g>
                    </g>
                    <g transform="translate(68.4,7.2)" >
                        <g >
                            <g >
                                <g gorn="0.3.0.0.0.3.0.0.0" id="g24" >
                                    <path style="stroke-linecap:butt;stroke-linejoin:round;stroke-miterlimit:4;stroke-dasharray:none;" gorn="0.3.0.0.0.3.0.0.0.0" id="path26"  stroke-width="3.5999999" stroke="#ff99ff" stroke-opacity="1" fill="none" d="m 0,0 0,7.2 -3.6,3.6 0,7.2 0,32.4 0,39.6"/>
                                </g>
                            </g>
                        </g>
                    </g>
                    <g transform="translate(75.6,7.2)" >
                        <g >
                            <g >
                                <g gorn="0.3.0.0.0.4.0.0.0" id="g28" >
                                    <path style="stroke-linecap:butt;stroke-linejoin:round;stroke-miterlimit:4;stroke-dasharray:none;" gorn="0.3.0.0.0.4.0.0.0.0" id="path30"  stroke-width="3.5999999" stroke="#4877ed" stroke-opacity="1" fill="none" d="m 0,0 0,7.2 -7.2,7.2 0,3.6 0,32.4 0,39.6"/>
                                </g>
                            </g>
                        </g>
                    </g>
                    <path style="fill-rule:nonzero;" gorn="0.3.0.0.0.5" id="connector3pin"  stroke="none" fill="#b3b3b3" d="m 46.08,7.2 1.44,0 0,-3.6 -1.44,0 0,3.6 z" fill-opacity="1"/>
                    <path style="fill-rule:nonzero;" gorn="0.3.0.0.0.6" id="connector4pin"  stroke="none" fill="#b3b3b3" d="m 53.28,7.2 1.44,0 0,-3.6 -1.44,0 0,3.6 z" fill-opacity="1"/>
                    <path style="fill-rule:nonzero;" gorn="0.3.0.0.0.7" id="connector5pin"  stroke="none" fill="#b3b3b3" d="m 60.48,7.2 1.44,0 0,-3.6 -1.44,0 0,3.6 z" fill-opacity="1"/>
                    <path style="fill-rule:nonzero;" gorn="0.3.0.0.0.8" id="connector2pin"  stroke="none" fill="#b3b3b3" d="m 67.68,7.2 1.44,0 0,-3.6 -1.44,0 0,3.6 z" fill-opacity="1"/>
                    <path style="fill-rule:nonzero;" gorn="0.3.0.0.0.9" id="connector1pin"  stroke="none" fill="#b3b3b3" d="m 74.88,7.2 1.44,0 0,-3.6 -1.44,0 0,3.6 z" fill-opacity="1"/>
                    <g transform="translate(36,108)" >
                        <g >
                            <g >
                                <g gorn="0.3.0.0.0.10.0.0.0" id="g42" >
                                    <path style="fill-rule:nonzero;" gorn="0.3.0.0.0.10.0.0.0.0" id="path44"  stroke="none" fill="#54b0e0" d="m 0,0 -3.6,3.6 0,10.8 57.6,0 L 54,3.6 50.4,0 0,0" fill-opacity="1"/>
                                </g>
                            </g>
                        </g>
                    </g>
                    <g gorn="0.3.0.0.0.11" id="g46" >
                        <g gorn="0.3.0.0.0.11.0" id="g48"  clip-path="url(#clipPath50)">
                            <g transform="translate(39.6044,122.4)" >
                                <g >
                                    <g >
                                        <g gorn="0.3.0.0.0.11.0.0.0.0.0" id="g54" >
                                            <path style="fill-rule:nonzero;" gorn="0.3.0.0.0.11.0.0.0.0.0.0" id="path56"  stroke="none" fill="#54b0e0" d="m 0,0 43.196,0 c 1.988,0 3.6,-1.612 3.6,-3.6 l 0,-21.6 c 0,-1.988 -1.612,-3.6 -3.6,-3.6 L 0,-28.8 c -1.988,0 -3.6,1.612 -3.6,3.6 l 0,21.6 C -3.6,-1.612 -1.988,0 0,0" fill-opacity="1"/>
                                        </g>
                                    </g>
                                </g>
                            </g>
                            <g transform="translate(39.6044,122.4)" >
                                <g >
                                    <g >
                                        <g gorn="0.3.0.0.0.11.0.1.0.0.0" id="g58" >
                                            <path style="stroke-linecap:butt;stroke-linejoin:miter;stroke-miterlimit:4;stroke-dasharray:none;" gorn="0.3.0.0.0.11.0.1.0.0.0.0" id="path60"  stroke-width="0.38499999" stroke="#c4baba" stroke-opacity="1" fill="none" d="m 0,0 43.196,0 c 1.988,0 3.6,-1.612 3.6,-3.6 l 0,-21.6 c 0,-1.988 -1.612,-3.6 -3.6,-3.6 L 0,-28.8 c -1.988,0 -3.6,1.612 -3.6,3.6 l 0,21.6 C -3.6,-1.612 -1.988,0 0,0 Z"/>
                                        </g>
                                    </g>
                                </g>
                            </g>
                            <g transform="translate(111.6,154.7897)" >
                                <g >
                                    <g >
                                        <g gorn="0.3.0.0.0.11.0.2.0.0.0" id="g62" >
                                            <path style="fill-rule:nonzero;" gorn="0.3.0.0.0.11.0.2.0.0.0.0" id="path64"  stroke="none" fill="#b3b3b3" d="m 0,0 c 1.988,0 3.6,-1.612 3.6,-3.6 0,-1.988 -1.612,-3.6 -3.6,-3.6 -1.988,0 -3.6,1.612 -3.6,3.6 0,1.988 1.612,3.6 3.6,3.6 m -100.8,0 c 1.988,0 3.6,-1.612 3.6,-3.6 0,-1.988 -1.612,-3.6 -3.6,-3.6 -1.988,0 -3.6,1.612 -3.6,3.6 0,1.988 1.612,3.6 3.6,3.6 m 50.4,39.6 c -21.412,0 -39.18,-15.56 -42.6,-36 l -7.8,0 c -3.976,0 -7.2,-3.224 -7.2,-7.2 0,-3.976 3.224,-7.2 7.2,-7.2 l 7.8,0 c 2.169,-12.918 10.07,-23.878 21,-30.2 l 0,-13 43.2,0 0,13 c 10.93,6.322 18.831,17.282 21,30.2 l 7.8,0 c 3.976,0 7.2,3.224 7.2,7.2 0,3.976 -3.224,7.2 -7.2,7.2 l -7.8,0 c -3.42,20.44 -21.188,36 -42.6,36" fill-opacity="1"/>
                                        </g>
                                    </g>
                                </g>
                            </g>
                            <g transform="translate(104.4,151.2)" >
                                <g >
                                    <g >
                                        <g gorn="0.3.0.0.0.11.0.3.0.0.0" id="g66" >
                                            <path style="stroke-linecap:butt;stroke-linejoin:miter;stroke-miterlimit:4;stroke-dasharray:none;" gorn="0.3.0.0.0.11.0.3.0.0.0.0" id="path68"  stroke-width="1.44000006" stroke="#b6b6b6" stroke-opacity="1" fill="none" d="M 0,0 C -0.004,-23.859 -19.348,-43.197 -43.207,-43.193 -67.06,-43.189 -86.396,-23.853 -86.4,0 -86.404,23.859 -67.066,43.203 -43.207,43.207 -19.348,43.211 -0.004,23.872 0,0.014 L 0,0 Z"/>
                                        </g>
                                    </g>
                                </g>
                            </g>
                            <g transform="translate(76.31,191.6713)" >
                                <g >
                                    <g >
                                        <g gorn="0.3.0.0.0.11.0.4.0.0.0" id="g70" >
                                            <path style="stroke-linecap:butt;stroke-linejoin:miter;stroke-miterlimit:4;stroke-dasharray:none;" gorn="0.3.0.0.0.11.0.4.0.0.0.0" id="path72"  stroke-width="1.44000006" stroke="#9c9c9c" stroke-opacity="1" fill="none" d="M 0,0 C 14.339,-5.354 24.775,-17.895 27.433,-32.968"/>
                                        </g>
                                    </g>
                                </g>
                            </g>
                            <g transform="translate(18.5771,158.2375)" >
                                <g >
                                    <g >
                                        <g gorn="0.3.0.0.0.11.0.5.0.0.0" id="g74" >
                                            <path style="stroke-linecap:butt;stroke-linejoin:miter;stroke-miterlimit:4;stroke-dasharray:none;" gorn="0.3.0.0.0.11.0.5.0.0.0.0" id="path76"  stroke-width="1.44000006" stroke="#9c9c9c" stroke-opacity="1" fill="none" d="M 0,0 C 2.537,15.365 13.147,28.175 27.771,33.529"/>
                                        </g>
                                    </g>
                                </g>
                            </g>
                            <g transform="translate(32.5739,118.8459)" >
                                <g >
                                    <g >
                                        <g gorn="0.3.0.0.0.11.0.6.0.0.0" id="g78" >
                                            <path style="stroke-linecap:butt;stroke-linejoin:miter;stroke-miterlimit:4;stroke-dasharray:none;" gorn="0.3.0.0.0.11.0.6.0.0.0.0" id="path80"  stroke-width="1.44000006" stroke="#9c9c9c" stroke-opacity="1" fill="none" d="M 0,0 C -7.193,6.364 -12.06,14.943 -13.832,24.382"/>
                                        </g>
                                    </g>
                                </g>
                            </g>
                            <g transform="translate(103.668,143.2791)" >
                                <g >
                                    <g >
                                        <g gorn="0.3.0.0.0.11.0.7.0.0.0" id="g82" >
                                            <path style="stroke-linecap:butt;stroke-linejoin:miter;stroke-miterlimit:4;stroke-dasharray:none;" gorn="0.3.0.0.0.11.0.7.0.0.0.0" id="path84"  stroke-width="1.44000006" stroke="#9c9c9c" stroke-opacity="1" fill="none" d="M 0,0 C -1.762,-9.444 -6.621,-18.031 -13.809,-24.404"/>
                                        </g>
                                    </g>
                                </g>
                            </g>
                            <g transform="translate(74.2858,178.9695)" >
                                <g >
                                    <g >
                                        <g gorn="0.3.0.0.0.11.0.8.0.0.0" id="g86" >
                                            <path style="fill-rule:nonzero;" gorn="0.3.0.0.0.11.0.8.0.0.0.0" id="path88"  stroke="none" fill="#a8a8a8" d="m 0,0 c 3.361,-7.208 0.243,-15.776 -6.965,-19.137 -7.208,-3.361 -15.776,-0.242 -19.137,6.966 -3.361,7.207 -0.242,15.775 6.965,19.136 C -11.929,10.326 -3.361,7.208 0,0" fill-opacity="1"/>
                                        </g>
                                    </g>
                                </g>
                            </g>
                            <g transform="translate(74.2858,178.9695)" >
                                <g >
                                    <g >
                                        <g gorn="0.3.0.0.0.11.0.9.0.0.0" id="g90" >
                                            <path style="stroke-linecap:butt;stroke-linejoin:miter;stroke-miterlimit:4;stroke-dasharray:none;" gorn="0.3.0.0.0.11.0.9.0.0.0.0" id="path92"  stroke-width="1" stroke="#ededed" stroke-opacity="1" fill="none" d="m 0,0 c 3.361,-7.208 0.243,-15.776 -6.965,-19.137 -7.208,-3.361 -15.776,-0.242 -19.137,6.966 -3.361,7.207 -0.242,15.775 6.965,19.136 C -11.929,10.326 -3.361,7.208 0,0 Z"/>
                                        </g>
                                    </g>
                                </g>
                            </g>
                            <g transform="translate(68.4129,176.2348)" >
                                <g >
                                    <g >
                                        <g gorn="0.3.0.0.0.11.0.10.0.0.0" id="g94" >
                                            <path style="fill-rule:nonzero;" gorn="0.3.0.0.0.11.0.10.0.0.0.0" id="path96"  stroke="none" fill="#ecd384" d="m 0,0 c 1.851,-3.963 0.14,-8.676 -3.823,-10.528 -3.963,-1.851 -8.677,-0.139 -10.528,3.824 -0.002,0.003 -0.003,0.006 -0.005,0.01 -1.851,3.963 -0.14,8.676 3.823,10.527 C -6.57,5.685 -1.856,3.973 -0.005,0.01 -0.003,0.007 -0.002,0.003 0,0" fill-opacity="1"/>
                                        </g>
                                    </g>
                                </g>
                            </g>
                            <g transform="translate(68.4129,176.2348)" >
                                <g >
                                    <g >
                                        <g gorn="0.3.0.0.0.11.0.11.0.0.0" id="g98" >
                                            <path style="stroke-linecap:square;stroke-linejoin:round;stroke-miterlimit:4;stroke-dasharray:none;" gorn="0.3.0.0.0.11.0.11.0.0.0.0" id="path100"  stroke-width="0.36000001" stroke="#585858" stroke-opacity="1" fill="none" d="m 0,0 c 1.851,-3.963 0.14,-8.676 -3.823,-10.528 -3.963,-1.851 -8.677,-0.139 -10.528,3.824 -0.002,0.003 -0.003,0.006 -0.005,0.01 -1.851,3.963 -0.14,8.676 3.823,10.527 C -6.57,5.685 -1.856,3.973 -0.005,0.01 -0.003,0.007 -0.002,0.003 0,0 Z"/>
                                        </g>
                                    </g>
                                </g>
                            </g>
                            <g transform="translate(53.5363,174.0643)" >
                                <g >
                                    <g >
                                        <g gorn="0.3.0.0.0.11.0.12.0.0.0" id="g102" >
                                            <path style="stroke-linecap:round;stroke-linejoin:miter;stroke-miterlimit:4;stroke-dasharray:none;" gorn="0.3.0.0.0.11.0.12.0.0.0.0" id="path104"  stroke-width="0.18000001" stroke="#585858" stroke-opacity="1" fill="none" d="M 0,0 11.746,5.477"/>
                                        </g>
                                    </g>
                                </g>
                            </g>
                            <g transform="translate(57.1877,166.2338)" >
                                <g >
                                    <g >
                                        <g gorn="0.3.0.0.0.11.0.13.0.0.0" id="g106" >
                                            <path style="stroke-linecap:round;stroke-linejoin:miter;stroke-miterlimit:4;stroke-dasharray:none;" gorn="0.3.0.0.0.11.0.13.0.0.0.0" id="path108"  stroke-width="0.18000001" stroke="#585858" stroke-opacity="1" fill="none" d="M 0,0 11.746,5.477"/>
                                        </g>
                                    </g>
                                </g>
                            </g>
                            <g transform="translate(63.394,172.8911)" >
                                <g >
                                    <g >
                                        <g gorn="0.3.0.0.0.11.0.14.0.0.0" id="g110" >
                                            <path style="stroke-linecap:round;stroke-linejoin:round;stroke-miterlimit:4;stroke-dasharray:none;" gorn="0.3.0.0.0.11.0.14.0.0.0.0" id="path112"  stroke-width="0.072" stroke="#96814d" stroke-opacity="1" fill="none" d="m 0,0 c 0,-1.193 -0.967,-2.16 -2.16,-2.16 -1.193,0 -2.16,0.967 -2.16,2.16 0,1.193 0.967,2.16 2.16,2.16 C -0.967,2.16 0,1.193 0,0 Z"/>
                                        </g>
                                    </g>
                                </g>
                            </g>
                            <g transform="translate(42.468,117.5446)" >
                                <g >
                                    <g >
                                        <g gorn="0.3.0.0.0.11.0.15.0.0.0" id="g114" >
                                            <path style="fill-rule:nonzero;" gorn="0.3.0.0.0.11.0.15.0.0.0.0" id="path116"  stroke="none" fill="#ffffff" d="m 0,0 -0.516,1.577 c -0.033,0.107 -0.076,0.263 -0.128,0.47 l -0.013,0 L -0.703,1.887 -0.8,1.572 -1.325,0 l -0.213,0 -0.674,2.357 0.23,0 0.377,-1.366 c 0.088,-0.338 0.146,-0.587 0.174,-0.746 l 0.013,0 c 0.085,0.338 0.147,0.563 0.186,0.675 l 0.486,1.437 0.195,0 0.462,-1.433 C 0.015,0.584 0.079,0.359 0.102,0.249 l 0.013,0 c 0.011,0.094 0.069,0.346 0.173,0.755 l 0.36,1.353 0.217,0 L 0.226,0 0,0 Z" fill-opacity="1"/>
                                        </g>
                                    </g>
                                </g>
                            </g>
                            <g transform="translate(45.6798,117.5446)" >
                                <g >
                                    <g >
                                        <g gorn="0.3.0.0.0.11.0.16.0.0.0" id="g118" >
                                            <path style="fill-rule:nonzero;" gorn="0.3.0.0.0.11.0.16.0.0.0.0" id="path120"  stroke="none" fill="#ffffff" d="m 0,0 -0.516,1.577 c -0.033,0.107 -0.076,0.263 -0.128,0.47 l -0.013,0 L -0.703,1.887 -0.8,1.572 -1.325,0 l -0.213,0 -0.674,2.357 0.23,0 0.377,-1.366 c 0.088,-0.338 0.146,-0.587 0.174,-0.746 l 0.013,0 c 0.085,0.338 0.147,0.563 0.186,0.675 l 0.486,1.437 0.195,0 0.462,-1.433 C 0.015,0.584 0.079,0.359 0.102,0.249 l 0.013,0 c 0.012,0.094 0.069,0.346 0.173,0.755 l 0.36,1.353 0.217,0 L 0.226,0 0,0 Z" fill-opacity="1"/>
                                        </g>
                                    </g>
                                </g>
                            </g>
                            <g transform="translate(48.8916,117.5446)" >
                                <g >
                                    <g >
                                        <g gorn="0.3.0.0.0.11.0.17.0.0.0" id="g122" >
                                            <path style="fill-rule:nonzero;" gorn="0.3.0.0.0.11.0.17.0.0.0.0" id="path124"  stroke="none" fill="#ffffff" d="m 0,0 -0.516,1.577 c -0.033,0.107 -0.076,0.263 -0.128,0.47 l -0.013,0 L -0.703,1.887 -0.8,1.572 -1.325,0 l -0.213,0 -0.674,2.357 0.23,0 0.377,-1.366 c 0.088,-0.338 0.146,-0.587 0.174,-0.746 l 0.013,0 c 0.085,0.338 0.147,0.563 0.186,0.675 l 0.486,1.437 0.195,0 0.462,-1.433 C 0.015,0.584 0.079,0.359 0.102,0.249 l 0.013,0 c 0.012,0.094 0.069,0.346 0.173,0.755 l 0.36,1.353 0.217,0 L 0.226,0 0,0 Z" fill-opacity="1"/>
                                        </g>
                                    </g>
                                </g>
                            </g>
                            <g transform="translate(50.1754,117.7138)" >
                                <g >
                                    <g >
                                        <g gorn="0.3.0.0.0.11.0.18.0.0.0" id="g126" >
                                            <path style="fill-rule:nonzero;" gorn="0.3.0.0.0.11.0.18.0.0.0.0" id="path128"  stroke="none" fill="#ffffff" d="M 0,0 C 0,0.142 0.058,0.213 0.173,0.213 0.292,0.213 0.351,0.142 0.351,0 0.351,-0.142 0.292,-0.213 0.173,-0.213 0.058,-0.213 0,-0.142 0,0" fill-opacity="1"/>
                                        </g>
                                    </g>
                                </g>
                            </g>
                            <g transform="translate(52.7366,118.1584)" >
                                <g >
                                    <g >
                                        <g gorn="0.3.0.0.0.11.0.19.0.0.0" id="g130" >
                                            <path style="fill-rule:nonzero;" gorn="0.3.0.0.0.11.0.19.0.0.0.0" id="path132"  stroke="none" fill="#ffffff" d="m 0,0 c 0,-0.211 -0.08,-0.373 -0.241,-0.487 -0.16,-0.113 -0.388,-0.17 -0.683,-0.17 -0.315,0 -0.565,0.048 -0.75,0.145 l 0,0.232 c 0.237,-0.118 0.487,-0.178 0.75,-0.178 0.233,0 0.41,0.039 0.53,0.116 0.121,0.078 0.181,0.181 0.181,0.309 0,0.119 -0.048,0.219 -0.144,0.3 -0.096,0.081 -0.254,0.16 -0.474,0.238 -0.235,0.086 -0.401,0.159 -0.496,0.22 -0.096,0.062 -0.168,0.131 -0.216,0.209 -0.048,0.077 -0.073,0.171 -0.073,0.283 0,0.176 0.074,0.316 0.223,0.418 0.148,0.103 0.355,0.154 0.621,0.154 0.254,0 0.496,-0.048 0.724,-0.143 l -0.08,-0.195 c -0.231,0.095 -0.446,0.143 -0.644,0.143 -0.192,0 -0.345,-0.032 -0.458,-0.095 -0.112,-0.064 -0.169,-0.152 -0.169,-0.265 0,-0.123 0.044,-0.221 0.131,-0.295 0.088,-0.074 0.259,-0.156 0.513,-0.247 0.213,-0.077 0.368,-0.146 0.464,-0.207 0.097,-0.062 0.17,-0.131 0.218,-0.21 C -0.024,0.197 0,0.106 0,0" fill-opacity="1"/>
                                        </g>
                                    </g>
                                </g>
                            </g>
                            <g transform="translate(53.9663,117.6921)" >
                                <g >
                                    <g >
                                        <g gorn="0.3.0.0.0.11.0.20.0.0.0" id="g134" >
                                            <path style="fill-rule:nonzero;" gorn="0.3.0.0.0.11.0.20.0.0.0.0" id="path136"  stroke="none" fill="#ffffff" d="m 0,0 c 0.136,0 0.254,0.012 0.356,0.035 l 0,-0.174 c -0.104,-0.034 -0.224,-0.052 -0.36,-0.052 -0.209,0 -0.362,0.056 -0.461,0.167 -0.099,0.111 -0.149,0.286 -0.149,0.525 l 0,1.522 -0.349,0 0,0.126 0.349,0.098 0.109,0.533 0.11,0 0,-0.57 0.692,0 0,-0.187 -0.692,0 0,-1.492 c 0,-0.18 0.032,-0.314 0.096,-0.401 C -0.236,0.043 -0.136,0 0,0" fill-opacity="1"/>
                                        </g>
                                    </g>
                                </g>
                            </g>
                            <g transform="translate(55.0181,119.902)" >
                                <g >
                                    <g >
                                        <g gorn="0.3.0.0.0.11.0.21.0.0.0" id="g138" >
                                            <path style="fill-rule:nonzero;" gorn="0.3.0.0.0.11.0.21.0.0.0.0" id="path140"  stroke="none" fill="#ffffff" d="m 0,0 0,-1.527 c 0,-0.237 0.05,-0.409 0.15,-0.517 0.099,-0.108 0.254,-0.162 0.464,-0.162 0.28,0 0.487,0.071 0.619,0.213 0.132,0.142 0.198,0.372 0.198,0.692 l 0,1.301 0.213,0 0,-2.357 -0.182,0 -0.039,0.325 -0.013,0 C 1.256,-2.278 0.984,-2.401 0.592,-2.401 c -0.536,0 -0.805,0.287 -0.805,0.861 L -0.213,0 0,0 Z" fill-opacity="1"/>
                                        </g>
                                    </g>
                                </g>
                            </g>
                            <g transform="translate(58.3145,119.7524)" >
                                <g >
                                    <g >
                                        <g gorn="0.3.0.0.0.11.0.22.0.0.0" id="g142" >
                                            <path style="fill-rule:nonzero;" gorn="0.3.0.0.0.11.0.22.0.0.0.0" id="path144"  stroke="none" fill="#ffffff" d="m 0,0 c -0.257,0 -0.451,-0.09 -0.58,-0.271 -0.13,-0.181 -0.194,-0.443 -0.194,-0.787 0,-0.668 0.259,-1.002 0.778,-1.002 0.266,0 0.462,0.077 0.586,0.232 0.124,0.155 0.186,0.41 0.186,0.765 l 0,0.037 c 0,0.365 -0.061,0.627 -0.183,0.786 C 0.471,-0.08 0.273,0 0,0 m 0,0.195 c 0.171,0 0.318,-0.031 0.442,-0.093 0.125,-0.062 0.236,-0.169 0.334,-0.319 l 0.013,0 C 0.781,-0.035 0.776,0.144 0.776,0.319 l 0,0.848 0.213,0 0,-3.375 -0.141,0 -0.054,0.36 -0.018,0 C 0.597,-2.117 0.34,-2.251 0.004,-2.251 c -0.325,0 -0.574,0.101 -0.746,0.304 C -0.914,-1.745 -1,-1.45 -1,-1.063 c 0,0.408 0.086,0.72 0.256,0.935 0.171,0.215 0.419,0.323 0.744,0.323" fill-opacity="1"/>
                                        </g>
                                    </g>
                                </g>
                            </g>
                            <path style="fill-rule:nonzero;" gorn="0.3.0.0.0.11.0.23" id="path146"  stroke="none" fill="#ffffff" d="m 60.31,117.545 -0.215,0 0,2.357 0.215,0 0,-2.357 z m -0.245,3.012 c 0,0.139 0.045,0.208 0.136,0.208 0.045,0 0.08,-0.018 0.105,-0.054 0.026,-0.036 0.038,-0.088 0.038,-0.154 0,-0.065 -0.012,-0.116 -0.038,-0.154 -0.025,-0.038 -0.06,-0.056 -0.105,-0.056 -0.091,0 -0.136,0.07 -0.136,0.21" fill-opacity="1"/>
                            <g transform="translate(61.188,118.7266)" >
                                <g >
                                    <g >
                                        <g gorn="0.3.0.0.0.11.0.24.0.0.0" id="g148" >
                                            <path style="fill-rule:nonzero;" gorn="0.3.0.0.0.11.0.24.0.0.0.0" id="path150"  stroke="none" fill="#ffffff" d="m 0,0 c 0,-0.324 0.071,-0.577 0.214,-0.758 0.142,-0.181 0.343,-0.272 0.604,-0.272 0.26,0 0.461,0.091 0.604,0.272 C 1.564,-0.577 1.635,-0.324 1.635,0 1.635,0.325 1.563,0.578 1.419,0.757 1.276,0.936 1.073,1.026 0.813,1.026 0.553,1.026 0.352,0.937 0.211,0.758 0.07,0.579 0,0.327 0,0 m 1.861,0 c 0,-0.385 -0.094,-0.685 -0.28,-0.901 -0.187,-0.216 -0.444,-0.324 -0.772,-0.324 -0.207,0 -0.389,0.05 -0.547,0.149 -0.157,0.1 -0.278,0.243 -0.362,0.43 -0.084,0.186 -0.126,0.402 -0.126,0.646 0,0.385 0.094,0.684 0.28,0.899 C 0.241,1.114 0.497,1.221 0.822,1.221 1.146,1.221 1.4,1.112 1.584,0.895 1.769,0.677 1.861,0.379 1.861,0" fill-opacity="1"/>
                                        </g>
                                    </g>
                                </g>
                            </g>
                            <g transform="translate(64.7055,117.6921)" >
                                <g >
                                    <g >
                                        <g gorn="0.3.0.0.0.11.0.25.0.0.0" id="g152" >
                                            <path style="fill-rule:nonzero;" gorn="0.3.0.0.0.11.0.25.0.0.0.0" id="path154"  stroke="none" fill="#ffffff" d="m 0,0 c 0.241,0 0.428,0.09 0.561,0.269 0.132,0.179 0.198,0.43 0.198,0.752 0,0.693 -0.25,1.039 -0.75,1.039 -0.275,0 -0.477,-0.075 -0.605,-0.226 C -0.725,1.683 -0.789,1.436 -0.789,1.095 l 0,-0.069 c 0,-0.369 0.061,-0.632 0.185,-0.79 C -0.48,0.079 -0.279,0 0,0 m 0.004,-0.191 c -0.363,0 -0.627,0.136 -0.793,0.408 l -0.016,0 0.007,-0.182 c 0.006,-0.107 0.009,-0.224 0.009,-0.352 l 0,-0.897 -0.215,0 0,3.424 0.182,0 0.041,-0.336 0.013,0 c 0.162,0.254 0.421,0.381 0.777,0.381 0.318,0 0.56,-0.104 0.727,-0.313 C 0.903,1.733 0.987,1.429 0.987,1.03 0.987,0.643 0.899,0.342 0.723,0.129 0.548,-0.084 0.308,-0.191 0.004,-0.191" fill-opacity="1"/>
                                        </g>
                                    </g>
                                </g>
                            </g>
                            <path style="fill-rule:nonzero;" gorn="0.3.0.0.0.11.0.26" id="path156"  stroke="none" fill="#ffffff" d="m 66.56,117.545 -0.215,0 0,2.357 0.215,0 0,-2.357 z m -0.245,3.012 c 0,0.139 0.045,0.208 0.136,0.208 0.045,0 0.08,-0.018 0.106,-0.054 0.025,-0.036 0.037,-0.088 0.037,-0.154 0,-0.065 -0.012,-0.116 -0.037,-0.154 -0.026,-0.038 -0.061,-0.056 -0.106,-0.056 -0.091,0 -0.136,0.07 -0.136,0.21" fill-opacity="1"/>
                            <g transform="translate(68.2383,119.7567)" >
                                <g >
                                    <g >
                                        <g gorn="0.3.0.0.0.11.0.27.0.0.0" id="g158" >
                                            <path style="fill-rule:nonzero;" gorn="0.3.0.0.0.11.0.27.0.0.0.0" id="path160"  stroke="none" fill="#ffffff" d="m 0,0 c -0.227,0 -0.409,-0.075 -0.547,-0.224 -0.137,-0.15 -0.217,-0.366 -0.24,-0.648 l 1.457,0 c 0,0.273 -0.059,0.487 -0.178,0.641 C 0.374,-0.077 0.21,0 0,0 m 0.063,-2.255 c -0.343,0 -0.61,0.105 -0.801,0.316 -0.192,0.211 -0.288,0.507 -0.288,0.887 0,0.376 0.093,0.677 0.278,0.903 0.185,0.227 0.434,0.34 0.748,0.34 0.278,0 0.497,-0.097 0.657,-0.291 0.161,-0.193 0.241,-0.457 0.241,-0.789 l 0,-0.174 -1.698,0 c 0.003,-0.324 0.078,-0.571 0.226,-0.741 0.149,-0.171 0.361,-0.256 0.637,-0.256 0.134,0 0.253,0.009 0.354,0.028 0.102,0.019 0.231,0.059 0.388,0.121 l 0,-0.195 C 0.672,-2.164 0.549,-2.203 0.436,-2.224 0.323,-2.245 0.199,-2.255 0.063,-2.255" fill-opacity="1"/>
                                        </g>
                                    </g>
                                </g>
                            </g>
                            <g transform="translate(70.4091,117.6921)" >
                                <g >
                                    <g >
                                        <g gorn="0.3.0.0.0.11.0.28.0.0.0" id="g162" >
                                            <path style="fill-rule:nonzero;" gorn="0.3.0.0.0.11.0.28.0.0.0.0" id="path164"  stroke="none" fill="#ffffff" d="m 0,0 c 0.136,0 0.254,0.012 0.356,0.035 l 0,-0.174 c -0.104,-0.034 -0.224,-0.052 -0.36,-0.052 -0.209,0 -0.362,0.056 -0.461,0.167 -0.099,0.111 -0.149,0.286 -0.149,0.525 l 0,1.522 -0.349,0 0,0.126 0.349,0.098 0.109,0.533 0.11,0 0,-0.57 0.692,0 0,-0.187 -0.692,0 0,-1.492 c 0,-0.18 0.032,-0.314 0.096,-0.401 C -0.236,0.043 -0.136,0 0,0" fill-opacity="1"/>
                                        </g>
                                    </g>
                                </g>
                            </g>
                            <g transform="translate(72.1636,119.7567)" >
                                <g >
                                    <g >
                                        <g gorn="0.3.0.0.0.11.0.29.0.0.0" id="g166" >
                                            <path style="fill-rule:nonzero;" gorn="0.3.0.0.0.11.0.29.0.0.0.0" id="path168"  stroke="none" fill="#ffffff" d="m 0,0 c -0.227,0 -0.409,-0.075 -0.547,-0.224 -0.137,-0.15 -0.217,-0.366 -0.24,-0.648 l 1.457,0 c 0,0.273 -0.059,0.487 -0.178,0.641 C 0.374,-0.077 0.21,0 0,0 m 0.063,-2.255 c -0.343,0 -0.61,0.105 -0.801,0.316 -0.192,0.211 -0.288,0.507 -0.288,0.887 0,0.376 0.093,0.677 0.278,0.903 0.185,0.227 0.434,0.34 0.748,0.34 0.278,0 0.497,-0.097 0.657,-0.291 0.161,-0.193 0.241,-0.457 0.241,-0.789 l 0,-0.174 -1.698,0 c 0.003,-0.324 0.078,-0.571 0.226,-0.741 0.149,-0.171 0.361,-0.256 0.637,-0.256 0.134,0 0.253,0.009 0.354,0.028 0.102,0.019 0.231,0.059 0.388,0.121 l 0,-0.195 C 0.672,-2.164 0.549,-2.203 0.436,-2.224 0.323,-2.245 0.199,-2.255 0.063,-2.255" fill-opacity="1"/>
                                        </g>
                                    </g>
                                </g>
                            </g>
                            <g transform="translate(74.6402,119.9475)" >
                                <g >
                                    <g >
                                        <g gorn="0.3.0.0.0.11.0.30.0.0.0" id="g170" >
                                            <path style="fill-rule:nonzero;" gorn="0.3.0.0.0.11.0.30.0.0.0.0" id="path172"  stroke="none" fill="#ffffff" d="M 0,0 C 0.1,0 0.207,-0.01 0.321,-0.03 L 0.28,-0.236 c -0.099,0.024 -0.2,0.036 -0.306,0.036 -0.201,0 -0.366,-0.085 -0.494,-0.255 -0.129,-0.171 -0.193,-0.386 -0.193,-0.647 l 0,-1.301 -0.215,0 0,2.357 0.182,0 0.022,-0.425 0.015,0 c 0.097,0.174 0.2,0.296 0.31,0.366 C -0.289,-0.035 -0.156,0 0,0" fill-opacity="1"/>
                                        </g>
                                    </g>
                                </g>
                            </g>
                            <g transform="translate(76.9022,118.1584)" >
                                <g >
                                    <g >
                                        <g gorn="0.3.0.0.0.11.0.31.0.0.0" id="g174" >
                                            <path style="fill-rule:nonzero;" gorn="0.3.0.0.0.11.0.31.0.0.0.0" id="path176"  stroke="none" fill="#ffffff" d="m 0,0 c 0,-0.211 -0.08,-0.373 -0.241,-0.487 -0.16,-0.113 -0.388,-0.17 -0.683,-0.17 -0.315,0 -0.565,0.048 -0.75,0.145 l 0,0.232 c 0.237,-0.118 0.487,-0.178 0.75,-0.178 0.233,0 0.41,0.039 0.53,0.116 0.121,0.078 0.181,0.181 0.181,0.309 0,0.119 -0.048,0.219 -0.144,0.3 -0.096,0.081 -0.254,0.16 -0.474,0.238 -0.235,0.086 -0.401,0.159 -0.496,0.22 -0.096,0.062 -0.168,0.131 -0.216,0.209 -0.048,0.077 -0.073,0.171 -0.073,0.283 0,0.176 0.074,0.316 0.223,0.418 0.148,0.103 0.355,0.154 0.621,0.154 0.254,0 0.496,-0.048 0.724,-0.143 l -0.08,-0.195 c -0.231,0.095 -0.446,0.143 -0.644,0.143 -0.192,0 -0.345,-0.032 -0.458,-0.095 -0.112,-0.064 -0.169,-0.152 -0.169,-0.265 0,-0.123 0.044,-0.221 0.131,-0.295 0.088,-0.074 0.259,-0.156 0.513,-0.247 0.213,-0.077 0.368,-0.146 0.464,-0.207 0.097,-0.062 0.17,-0.131 0.218,-0.21 C -0.024,0.197 0,0.106 0,0" fill-opacity="1"/>
                                        </g>
                                    </g>
                                </g>
                            </g>
                            <g transform="translate(77.466,117.7138)" >
                                <g >
                                    <g >
                                        <g gorn="0.3.0.0.0.11.0.32.0.0.0" id="g178" >
                                            <path style="fill-rule:nonzero;" gorn="0.3.0.0.0.11.0.32.0.0.0.0" id="path180"  stroke="none" fill="#ffffff" d="M 0,0 C 0,0.142 0.058,0.213 0.173,0.213 0.292,0.213 0.351,0.142 0.351,0 0.351,-0.142 0.292,-0.213 0.173,-0.213 0.058,-0.213 0,-0.142 0,0" fill-opacity="1"/>
                                        </g>
                                    </g>
                                </g>
                            </g>
                            <g transform="translate(80.2094,117.5446)" >
                                <g >
                                    <g >
                                        <g gorn="0.3.0.0.0.11.0.33.0.0.0" id="g182" >
                                            <path style="fill-rule:nonzero;" gorn="0.3.0.0.0.11.0.33.0.0.0.0" id="path184"  stroke="none" fill="#ffffff" d="M 0,0 0,1.529 C 0,1.766 -0.05,1.938 -0.15,2.046 -0.249,2.154 -0.404,2.208 -0.614,2.208 -0.896,2.208 -1.102,2.137 -1.233,1.994 -1.364,1.852 -1.429,1.621 -1.429,1.301 l 0,-1.301 -0.215,0 0,2.357 0.182,0 0.042,-0.323 0.013,0 c 0.153,0.246 0.425,0.369 0.817,0.369 0.535,0 0.803,-0.287 0.803,-0.861 L 0.213,0 0,0 Z" fill-opacity="1"/>
                                        </g>
                                    </g>
                                </g>
                            </g>
                            <path style="fill-rule:nonzero;" gorn="0.3.0.0.0.11.0.34" id="path186"  stroke="none" fill="#ffffff" d="m 81.4,117.545 -0.215,0 0,3.374 0.215,0 0,-3.374 z" fill-opacity="1"/>
                        </g>
                    </g>
                </g>
            </g>
        </g>
    </g>
</svg>
