<?xml version='1.0' encoding='UTF-8' standalone='no'?>
<svg xmlns="http://www.w3.org/2000/svg" version="1.1" width="12.999722mm" height="15.000118mm" id="svg8" viewBox="0 0 12.999722 15.000118"  gorn="0">
    <desc >
        <referenceFile >levelshift.svg</referenceFile>
    </desc>
    <defs id="defs2" />
    <metadata id="metadata5" >
        <rdf:RDF xmlns:rdf="http://www.w3.org/1999/02/22-rdf-syntax-ns#">
            <cc:Work rdf:about="" xmlns:cc="http://creativecommons.org/ns#" xmlns:rdf="http://www.w3.org/1999/02/22-rdf-syntax-ns#">
                <dc:format xmlns:dc="http://purl.org/dc/elements/1.1/">image/svg+xml</dc:format>
                <dc:type xmlns:dc="http://purl.org/dc/elements/1.1/" xmlns:rdf="http://www.w3.org/1999/02/22-rdf-syntax-ns#" rdf:resource="http://purl.org/dc/dcmitype/StillImage"/>
                <dc:title xmlns:dc="http://purl.org/dc/elements/1.1/"/>
            </cc:Work>
        </rdf:RDF>
    </metadata>
    <g transform="translate(-77.714119,-34.603055)" >
        <g >
            <g id="breadboard"  gorn="0.3.0.0">
                <g transform="scale(0.26458333)" >
                    <g >
                        <path id="rect4136" stroke-opacity="1"  style="opacity:1;vector-effect:none;fill-rule:evenodd;stroke-linecap:round;stroke-linejoin:round;stroke-miterlimit:4;stroke-dasharray:none;stroke-dashoffset:0;paint-order:fill markers stroke" d="m 293.72266,130.7832 v 56.69336 h 49.13281 V 130.7832 Z m 3.95312,1.61133 a 2.7360001,2.7360001 0 0 1 2.73438,2.73633 2.7360001,2.7360001 0 0 1 -2.73438,2.73633 2.7360001,2.7360001 0 0 1 -2.73633,-2.73633 2.7360001,2.7360001 0 0 1 2.73633,-2.73633 z m 41.30274,0 a 2.7360001,2.7360001 0 0 1 2.73437,2.73438 2.7360001,2.7360001 0 0 1 -2.73437,2.73632 2.7360001,2.7360001 0 0 1 -2.73633,-2.73632 2.7360001,2.7360001 0 0 1 2.73633,-2.73438 z m -41.30274,9.59961 a 2.7360001,2.7360001 0 0 1 2.73438,2.73633 2.7360001,2.7360001 0 0 1 -2.73438,2.73633 2.7360001,2.7360001 0 0 1 -2.73633,-2.73633 2.7360001,2.7360001 0 0 1 2.73633,-2.73633 z m 41.30274,0 a 2.7360001,2.7360001 0 0 1 2.73437,2.73633 2.7360001,2.7360001 0 0 1 -2.73437,2.73633 2.7360001,2.7360001 0 0 1 -2.73633,-2.73633 2.7360001,2.7360001 0 0 1 2.73633,-2.73633 z m -41.30274,9.59961 a 2.7360001,2.7360001 0 0 1 2.73438,2.73633 2.7360001,2.7360001 0 0 1 -2.73438,2.73633 2.7360001,2.7360001 0 0 1 -2.73633,-2.73633 2.7360001,2.7360001 0 0 1 2.73633,-2.73633 z m 41.30274,0 a 2.7360001,2.7360001 0 0 1 2.73437,2.73633 2.7360001,2.7360001 0 0 1 -2.73437,2.73633 2.7360001,2.7360001 0 0 1 -2.73633,-2.73633 2.7360001,2.7360001 0 0 1 2.73633,-2.73633 z m 0,9.59961 a 2.7360001,2.7360001 0 0 1 2.73437,2.73633 2.7360001,2.7360001 0 0 1 -2.73437,2.73633 2.7360001,2.7360001 0 0 1 -2.73633,-2.73633 2.7360001,2.7360001 0 0 1 2.73633,-2.73633 z m -41.30274,0.002 a 2.7360001,2.7360001 0 0 1 2.73438,2.73438 2.7360001,2.7360001 0 0 1 -2.73438,2.73633 2.7360001,2.7360001 0 0 1 -2.73633,-2.73633 2.7360001,2.7360001 0 0 1 2.73633,-2.73438 z m 41.30274,9.59766 a 2.7360001,2.7360001 0 0 1 2.73437,2.73633 2.7360001,2.7360001 0 0 1 -2.73437,2.73632 2.7360001,2.7360001 0 0 1 -2.73633,-2.73632 2.7360001,2.7360001 0 0 1 2.73633,-2.73633 z m -41.30274,0.002 a 2.7360001,2.7360001 0 0 1 2.73438,2.73633 2.7360001,2.7360001 0 0 1 -2.73438,2.73437 2.7360001,2.7360001 0 0 1 -2.73633,-2.73437 2.7360001,2.7360001 0 0 1 2.73633,-2.73633 z m 0,9.59961 a 2.7360001,2.7360001 0 0 1 2.73438,2.73633 2.7360001,2.7360001 0 0 1 -2.73438,2.73633 2.7360001,2.7360001 0 0 1 -2.73633,-2.73633 2.7360001,2.7360001 0 0 1 2.73633,-2.73633 z m 41.30274,0 a 2.7360001,2.7360001 0 0 1 2.73437,2.73438 2.7360001,2.7360001 0 0 1 -2.73437,2.73632 2.7360001,2.7360001 0 0 1 -2.73633,-2.73632 2.7360001,2.7360001 0 0 1 2.73633,-2.73438 z" stroke="none" fill="#af2025" fill-opacity="1" gorn="0.3.0.0.0.0.0" stroke-width="1.849"/>
                    </g>
                </g>
                <g transform="matrix(0,-0.35277799,0.35277799,0,79.010882,48.19314)" >
                    <g >
                        <g id="g915"  gorn="0.3.0.0.1.0.0">
                            <rect width="4.1170001" y="6.2740002" x="32.158001" height="2.266" id="rect909"  fill="#020202" gorn="0.3.0.0.1.0.0.0"/>
                            <rect width="0.65399998" y="6.2740002" x="32.16" height="2.266" id="rect911"  fill="#c1c0bf" gorn="0.3.0.0.1.0.0.1"/>
                            <rect width="0.65799999" y="6.2740002" x="35.617001" height="2.266" id="rect913"  fill="#c1c0bf" gorn="0.3.0.0.1.0.0.2"/>
                        </g>
                    </g>
                </g>
                <g transform="matrix(0.26458333,0,0,0.26458333,26.875914,29.047729)" >
                    <g >
                        <g id="g2013"  gorn="0.3.0.0.2.0.0">
                            <g id="g2011"  gorn="0.3.0.0.2.0.0.0">
                                <g id="g2009"  gorn="0.3.0.0.2.0.0.0.0">
                                    <g id="layer2"  style="display:inline" gorn="0.3.0.0.2.0.0.0.0.0"/>
                                </g>
                            </g>
                        </g>
                    </g>
                </g>
                <g transform="matrix(0.29505632,0,0,0.26006415,26.311523,28.849609)" >
                    <g >
                        <g id="g2020"  gorn="0.3.0.0.3.0.0">
                            <g id="g2018"  gorn="0.3.0.0.3.0.0.0">
                                <g id="g2016"  gorn="0.3.0.0.3.0.0.0.0">
                                    <g id="layer4"  style="display:inline" gorn="0.3.0.0.3.0.0.0.0.0" stroke="none" fill="#0d4079" fill-opacity="1"/>
                                </g>
                            </g>
                        </g>
                    </g>
                </g>
                <g transform="scale(-1)" >
                    <g >
                        <circle connectorname="SDA" r="0.72390002" id="connector7pin" cx="-89.687889" cy="-43.373108"  fill="none" stroke="#9a916c" gorn="0.3.0.0.4.0.0" stroke-width="0.4318"/>
                    </g>
                </g>
                <g transform="scale(-1)" >
                    <g >
                        <circle connectorname="SCL" r="0.72390002" id="connector14pin" cx="-89.687889" cy="-45.913116"  fill="none" stroke="#9a916c" gorn="0.3.0.0.5.0.0" stroke-width="0.4318"/>
                    </g>
                </g>
                <g transform="scale(-1)" >
                    <g >
                        <circle connectorname="INT1" r="0.72390002" id="connector13pin" cx="-89.687889" cy="-48.45311"  fill="none" stroke="#9a916c" gorn="0.3.0.0.6.0.0" stroke-width="0.4318"/>
                    </g>
                </g>
                <g transform="scale(-1)" >
                    <g >
                        <circle connectorname="SDA" r="0.72390002" id="connector15pin" cx="-89.687889" cy="-38.293106"  fill="none" stroke="#9a916c" gorn="0.3.0.0.7.0.0" stroke-width="0.4318"/>
                    </g>
                </g>
                <g transform="scale(-1)" >
                    <g >
                        <circle connectorname="SCL" r="0.72390002" id="connector6pin" cx="-89.687889" cy="-40.833115"  fill="none" stroke="#9a916c" gorn="0.3.0.0.8.0.0" stroke-width="0.4318"/>
                    </g>
                </g>
                <g transform="scale(-1)" >
                    <g >
                        <circle connectorname="SCL" r="0.72390002" id="connector16pin" cx="-89.687889" cy="-35.753113"  fill="none" stroke="#9a916c" gorn="0.3.0.0.9.0.0" stroke-width="0.4318"/>
                    </g>
                </g>
                <g transform="matrix(0.35277799,0,0,0.35277799,75.565099,32.571425)" >
                    <g >
                        <g id="g2706"  gorn="0.3.0.0.10.0.0">
                            <rect width="2.973" y="6.8600001" x="23.184999" height="6.4130001" id="rect2684"  fill="#303030" gorn="0.3.0.0.10.0.0.0"/>
                            <polyline id="polyline2686"  points="26.158,13.273 26.306,13.64 22.917,13.641 23.185,13.273 " fill="#1f1f1f" gorn="0.3.0.0.10.0.0.1"/>
                            <polygon id="polygon2688"  points="26.306,6.49 22.917,6.49 23.185,6.86 26.158,6.86 " fill="#1f1f1f" gorn="0.3.0.0.10.0.0.2"/>
                            <polygon id="polygon2690"  points="22.917,13.641 22.917,6.582 22.917,6.49 23.185,6.86 23.185,13.273 " fill="#262626" gorn="0.3.0.0.10.0.0.3"/>
                            <polygon id="polygon2692"  points="26.306,13.64 26.306,6.582 26.306,6.49 26.158,6.86 26.158,13.273 " gorn="0.3.0.0.10.0.0.4"/>
                            <rect width="1.423" y="9.3879995" x="21.493999" height="1.233" id="rect2694"  fill="#999999" gorn="0.3.0.0.10.0.0.5"/>
                            <rect width="1.233" y="11.868" x="26.306" height="1.11" id="rect2696"  fill="#999999" gorn="0.3.0.0.10.0.0.6"/>
                            <rect width="1.233" y="7.0209999" x="26.306" height="1.073" id="rect2698"  fill="#999999" gorn="0.3.0.0.10.0.0.7"/>
                            <rect width="0.43200001" y="9.3879995" x="22.110001" height="1.233" id="rect2700"  fill="#6d6d6d" gorn="0.3.0.0.10.0.0.8"/>
                            <rect width="0.40099999" y="11.868" x="26.636" height="1.11" id="rect2702"  fill="#6d6d6d" gorn="0.3.0.0.10.0.0.9"/>
                            <rect width="0.40099999" y="7.0209999" x="26.636" height="1.073" id="rect2704"  fill="#6d6d6d" gorn="0.3.0.0.10.0.0.10"/>
                        </g>
                    </g>
                </g>
                <g transform="matrix(0.35277799,0,0,0.35277799,75.565099,36.575839)" >
                    <g >
                        <g id="g3364"  gorn="0.3.0.0.11.0.0">
                            <rect width="2.973" y="6.8600001" x="23.184999" height="6.4130001" id="rect3342"  fill="#303030" gorn="0.3.0.0.11.0.0.0"/>
                            <polyline id="polyline3344"  points="26.158,13.273 26.306,13.64 22.917,13.641 23.185,13.273 " fill="#1f1f1f" gorn="0.3.0.0.11.0.0.1"/>
                            <polygon id="polygon3346"  points="26.158,6.86 26.306,6.49 22.917,6.49 23.185,6.86 " fill="#1f1f1f" gorn="0.3.0.0.11.0.0.2"/>
                            <polygon id="polygon3348"  points="23.185,6.86 23.185,13.273 22.917,13.641 22.917,6.582 22.917,6.49 " fill="#262626" gorn="0.3.0.0.11.0.0.3"/>
                            <polygon id="polygon3350"  points="26.158,6.86 26.158,13.273 26.306,13.64 26.306,6.582 26.306,6.49 " gorn="0.3.0.0.11.0.0.4"/>
                            <rect width="1.423" y="9.3879995" x="21.493999" height="1.233" id="rect3352"  fill="#999999" gorn="0.3.0.0.11.0.0.5"/>
                            <rect width="1.233" y="11.868" x="26.306" height="1.11" id="rect3354"  fill="#999999" gorn="0.3.0.0.11.0.0.6"/>
                            <rect width="1.233" y="7.0209999" x="26.306" height="1.073" id="rect3356"  fill="#999999" gorn="0.3.0.0.11.0.0.7"/>
                            <rect width="0.43200001" y="9.3879995" x="22.110001" height="1.233" id="rect3358"  fill="#6d6d6d" gorn="0.3.0.0.11.0.0.8"/>
                            <rect width="0.40099999" y="11.868" x="26.636" height="1.11" id="rect3360"  fill="#6d6d6d" gorn="0.3.0.0.11.0.0.9"/>
                            <rect width="0.40099999" y="7.0209999" x="26.636" height="1.073" id="rect3362"  fill="#6d6d6d" gorn="0.3.0.0.11.0.0.10"/>
                        </g>
                    </g>
                </g>
                <g transform="matrix(0.35277799,0,0,0.35277799,75.565099,40.580248)" >
                    <g >
                        <g id="g3388"  gorn="0.3.0.0.12.0.0">
                            <rect width="2.973" y="6.8600001" x="23.184999" height="6.4130001" id="rect3366"  fill="#303030" gorn="0.3.0.0.12.0.0.0"/>
                            <polyline id="polyline3368"  points="26.158,13.273 26.306,13.64 22.917,13.641 23.185,13.273 " fill="#1f1f1f" gorn="0.3.0.0.12.0.0.1"/>
                            <polygon id="polygon3370"  points="23.185,6.86 26.158,6.86 26.306,6.49 22.917,6.49 " fill="#1f1f1f" gorn="0.3.0.0.12.0.0.2"/>
                            <polygon id="polygon3372"  points="22.917,6.582 22.917,6.49 23.185,6.86 23.185,13.273 22.917,13.641 " fill="#262626" gorn="0.3.0.0.12.0.0.3"/>
                            <polygon id="polygon3374"  points="26.306,6.582 26.306,6.49 26.158,6.86 26.158,13.273 26.306,13.64 " gorn="0.3.0.0.12.0.0.4"/>
                            <rect width="1.423" y="9.3879995" x="21.493999" height="1.233" id="rect3376"  fill="#999999" gorn="0.3.0.0.12.0.0.5"/>
                            <rect width="1.233" y="11.868" x="26.306" height="1.11" id="rect3378"  fill="#999999" gorn="0.3.0.0.12.0.0.6"/>
                            <rect width="1.233" y="7.0209999" x="26.306" height="1.073" id="rect3380"  fill="#999999" gorn="0.3.0.0.12.0.0.7"/>
                            <rect width="0.43200001" y="9.3879995" x="22.110001" height="1.233" id="rect3382"  fill="#6d6d6d" gorn="0.3.0.0.12.0.0.8"/>
                            <rect width="0.40099999" y="11.868" x="26.636" height="1.11" id="rect3384"  fill="#6d6d6d" gorn="0.3.0.0.12.0.0.9"/>
                            <rect width="0.40099999" y="7.0209999" x="26.636" height="1.073" id="rect3386"  fill="#6d6d6d" gorn="0.3.0.0.12.0.0.10"/>
                        </g>
                    </g>
                </g>
                <g transform="matrix(0.35277799,0,0,0.35277799,75.565099,44.584666)" >
                    <g >
                        <g id="g3412"  gorn="0.3.0.0.13.0.0">
                            <rect width="2.973" y="6.8600001" x="23.184999" height="6.4130001" id="rect3390"  fill="#303030" gorn="0.3.0.0.13.0.0.0"/>
                            <polyline id="polyline3392"  points="26.158,13.273 26.306,13.64 22.917,13.641 23.185,13.273 " fill="#1f1f1f" gorn="0.3.0.0.13.0.0.1"/>
                            <polygon id="polygon3394"  points="23.185,6.86 26.158,6.86 26.306,6.49 22.917,6.49 " fill="#1f1f1f" gorn="0.3.0.0.13.0.0.2"/>
                            <polygon id="polygon3396"  points="22.917,6.582 22.917,6.49 23.185,6.86 23.185,13.273 22.917,13.641 " fill="#262626" gorn="0.3.0.0.13.0.0.3"/>
                            <polygon id="polygon3398"  points="26.306,6.582 26.306,6.49 26.158,6.86 26.158,13.273 26.306,13.64 " gorn="0.3.0.0.13.0.0.4"/>
                            <rect width="1.423" y="9.3879995" x="21.493999" height="1.233" id="rect3400"  fill="#999999" gorn="0.3.0.0.13.0.0.5"/>
                            <rect width="1.233" y="11.868" x="26.306" height="1.11" id="rect3402"  fill="#999999" gorn="0.3.0.0.13.0.0.6"/>
                            <rect width="1.233" y="7.0209999" x="26.306" height="1.073" id="rect3404"  fill="#999999" gorn="0.3.0.0.13.0.0.7"/>
                            <rect width="0.43200001" y="9.3879995" x="22.110001" height="1.233" id="rect3406"  fill="#6d6d6d" gorn="0.3.0.0.13.0.0.8"/>
                            <rect width="0.40099999" y="11.868" x="26.636" height="1.11" id="rect3408"  fill="#6d6d6d" gorn="0.3.0.0.13.0.0.9"/>
                            <rect width="0.40099999" y="7.0209999" x="26.636" height="1.073" id="rect3410"  fill="#6d6d6d" gorn="0.3.0.0.13.0.0.10"/>
                        </g>
                    </g>
                </g>
                <g transform="matrix(0,-0.35277799,0.35277799,0,79.010882,52.197554)" >
                    <g >
                        <g id="g3470"  gorn="0.3.0.0.14.0.0">
                            <rect width="4.1170001" y="6.2740002" x="32.158001" height="2.266" id="rect3464"  fill="#020202" gorn="0.3.0.0.14.0.0.0"/>
                            <rect width="0.65399998" y="6.2740002" x="32.16" height="2.266" id="rect3466"  fill="#c1c0bf" gorn="0.3.0.0.14.0.0.1"/>
                            <rect width="0.65799999" y="6.2740002" x="35.617001" height="2.266" id="rect3468"  fill="#c1c0bf" gorn="0.3.0.0.14.0.0.2"/>
                        </g>
                    </g>
                </g>
                <g transform="matrix(0,-0.35277799,0.35277799,0,79.010882,56.201963)" >
                    <g >
                        <g id="g3478"  gorn="0.3.0.0.15.0.0">
                            <rect width="4.1170001" y="6.2740002" x="32.158001" height="2.266" id="rect3472"  fill="#020202" gorn="0.3.0.0.15.0.0.0"/>
                            <rect width="0.65399998" y="6.2740002" x="32.16" height="2.266" id="rect3474"  fill="#c1c0bf" gorn="0.3.0.0.15.0.0.1"/>
                            <rect width="0.65799999" y="6.2740002" x="35.617001" height="2.266" id="rect3476"  fill="#c1c0bf" gorn="0.3.0.0.15.0.0.2"/>
                        </g>
                    </g>
                </g>
                <g transform="matrix(0,-0.35277799,0.35277799,0,79.010882,60.206381)" >
                    <g >
                        <g id="g3486"  gorn="0.3.0.0.16.0.0">
                            <rect width="4.1170001" y="6.2740002" x="32.158001" height="2.266" id="rect3480"  fill="#020202" gorn="0.3.0.0.16.0.0.0"/>
                            <rect width="0.65399998" y="6.2740002" x="32.16" height="2.266" id="rect3482"  fill="#c1c0bf" gorn="0.3.0.0.16.0.0.1"/>
                            <rect width="0.65799999" y="6.2740002" x="35.617001" height="2.266" id="rect3484"  fill="#c1c0bf" gorn="0.3.0.0.16.0.0.2"/>
                        </g>
                    </g>
                </g>
                <g transform="matrix(0,-0.35277799,0.35277799,0,84.350101,48.19314)" >
                    <g >
                        <g id="g3542"  gorn="0.3.0.0.17.0.0">
                            <rect width="4.1170001" y="6.2740002" x="32.158001" height="2.266" id="rect3536"  fill="#020202" gorn="0.3.0.0.17.0.0.0"/>
                            <rect width="0.65399998" y="6.2740002" x="32.16" height="2.266" id="rect3538"  fill="#c1c0bf" gorn="0.3.0.0.17.0.0.1"/>
                            <rect width="0.65799999" y="6.2740002" x="35.617001" height="2.266" id="rect3540"  fill="#c1c0bf" gorn="0.3.0.0.17.0.0.2"/>
                        </g>
                    </g>
                </g>
                <g transform="matrix(0,-0.35277799,0.35277799,0,84.350101,52.197554)" >
                    <g >
                        <g id="g3550"  gorn="0.3.0.0.18.0.0">
                            <rect width="4.1170001" y="6.2740002" x="32.158001" height="2.266" id="rect3544"  fill="#020202" gorn="0.3.0.0.18.0.0.0"/>
                            <rect width="0.65399998" y="6.2740002" x="32.16" height="2.266" id="rect3546"  fill="#c1c0bf" gorn="0.3.0.0.18.0.0.1"/>
                            <rect width="0.65799999" y="6.2740002" x="35.617001" height="2.266" id="rect3548"  fill="#c1c0bf" gorn="0.3.0.0.18.0.0.2"/>
                        </g>
                    </g>
                </g>
                <g transform="matrix(0,-0.35277799,0.35277799,0,84.350101,56.201963)" >
                    <g >
                        <g id="g3558"  gorn="0.3.0.0.19.0.0">
                            <rect width="4.1170001" y="6.2740002" x="32.158001" height="2.266" id="rect3552"  fill="#020202" gorn="0.3.0.0.19.0.0.0"/>
                            <rect width="0.65399998" y="6.2740002" x="32.16" height="2.266" id="rect3554"  fill="#c1c0bf" gorn="0.3.0.0.19.0.0.1"/>
                            <rect width="0.65799999" y="6.2740002" x="35.617001" height="2.266" id="rect3556"  fill="#c1c0bf" gorn="0.3.0.0.19.0.0.2"/>
                        </g>
                    </g>
                </g>
                <g transform="matrix(0,-0.35277799,0.35277799,0,84.350101,60.206381)" >
                    <g >
                        <g id="g3566"  gorn="0.3.0.0.20.0.0">
                            <rect width="4.1170001" y="6.2740002" x="32.158001" height="2.266" id="rect3560"  fill="#020202" gorn="0.3.0.0.20.0.0.0"/>
                            <rect width="0.65399998" y="6.2740002" x="32.16" height="2.266" id="rect3562"  fill="#c1c0bf" gorn="0.3.0.0.20.0.0.1"/>
                            <rect width="0.65799999" y="6.2740002" x="35.617001" height="2.266" id="rect3564"  fill="#c1c0bf" gorn="0.3.0.0.20.0.0.2"/>
                        </g>
                    </g>
                </g>
                <g transform="rotate(-90)" >
                    <g >
                        <g aria-label="HV1" font-size="0.298684" id="text3570" stroke-opacity="1"  style="font-style:normal;font-variant:normal;font-weight:normal;font-stretch:normal;line-height:125%;font-family:Droid Sans;-inkscape-font-specification:'Droid Sans, Normal';font-variant-ligatures:normal;font-variant-caps:normal;font-variant-numeric:normal;font-variant-east-asian:normal;text-align:start;letter-spacing:0px;word-spacing:0px;writing-mode:lr-tb;text-anchor:start;stroke-linecap:butt;stroke-linejoin:miter;" stroke="none" fill="#000000" fill-opacity="1" gorn="0.3.0.0.21.0.0" stroke-width="0.0746712">
                            <path font-size="0.298684" id="path3638"  style="font-style:normal;font-variant:normal;font-weight:normal;font-stretch:normal;font-family:Droid Sans;-inkscape-font-specification:'Droid Sans, Normal';font-variant-ligatures:normal;font-variant-caps:normal;font-variant-numeric:normal;font-variant-east-asian:normal;" d="m -49.310586,80.615222 v -0.599961 q 0,-0.01757 0.0124,-0.03049 0.01292,-0.01292 0.03101,-0.01292 0.01757,0 0.03049,0.01292 0.01292,0.01292 0.01292,0.03049 v 0.255797 h 0.264582 v -0.255797 q 0,-0.01757 0.0124,-0.03049 0.01292,-0.01292 0.03101,-0.01292 0.01809,0 0.03049,0.01292 0.01292,0.01292 0.01292,0.03152 v 0.598928 q 0,0.01757 -0.01344,0.03049 -0.01292,0.01292 -0.02997,0.01292 -0.0186,0 -0.03101,-0.0124 -0.0124,-0.01292 -0.0124,-0.03101 v -0.257348 h -0.263549 v 0.257348 q 0,0.01757 -0.01344,0.03049 -0.01292,0.01292 -0.03101,0.01292 -0.01757,0 -0.03049,-0.0124 -0.01292,-0.01292 -0.01292,-0.03101 z" fill="#ffffff" gorn="0.3.0.0.21.0.0.0" stroke-width="0.0746712"/>
                            <path font-size="0.298684" id="path3640"  style="font-style:normal;font-variant:normal;font-weight:normal;font-stretch:normal;font-family:Droid Sans;-inkscape-font-specification:'Droid Sans, Normal';font-variant-ligatures:normal;font-variant-caps:normal;font-variant-numeric:normal;font-variant-east-asian:normal;" d="m -48.230036,80.016294 v 0.15968 l -0.176732,0.4501 q -0.01344,0.03256 -0.04237,0.03256 -0.03049,0 -0.04341,-0.03256 l -0.175699,-0.4501 v -0.15968 q 0,-0.0186 0.0124,-0.03152 0.01292,-0.01292 0.03101,-0.01292 0.01809,0 0.03049,0.01292 0.01292,0.01292 0.01292,0.03152 v 0.141593 l 0.132291,0.33693 0.132291,-0.335896 v -0.142627 q 0,-0.0186 0.0124,-0.03152 0.01292,-0.01292 0.03101,-0.01292 0.01809,0 0.03049,0.01292 0.01292,0.01292 0.01292,0.03152 z" fill="#ffffff" gorn="0.3.0.0.21.0.0.1" stroke-width="0.0746712"/>
                            <path font-size="0.298684" id="path3642"  style="font-style:normal;font-variant:normal;font-weight:normal;font-stretch:normal;font-family:Droid Sans;-inkscape-font-specification:'Droid Sans, Normal';font-variant-ligatures:normal;font-variant-caps:normal;font-variant-numeric:normal;font-variant-east-asian:normal;" d="m -47.989741,80.570781 h 0.133325 v -0.512112 h -0.131258 q -0.01809,0 -0.03101,-0.0124 -0.0124,-0.01292 -0.0124,-0.03101 0,-0.01809 0.0124,-0.03049 0.01292,-0.01292 0.03101,-0.01292 h 0.218074 v 0.598928 h 0.08682 V 80.38991 q 0,-0.01757 0.0124,-0.03049 0.01292,-0.01292 0.03101,-0.01292 0.01809,0 0.03049,0.01292 0.01292,0.0124 0.01292,0.03049 v 0.224275 q 0,0.01809 -0.01292,0.03101 -0.0124,0.0124 -0.03049,0.0124 h -0.350365 q -0.01809,0 -0.03101,-0.01292 -0.0124,-0.01344 -0.0124,-0.03152 0,-0.01757 0.0124,-0.02997 0.01292,-0.0124 0.03101,-0.0124 z" fill="#ffffff" gorn="0.3.0.0.21.0.0.2" stroke-width="0.0746712"/>
                        </g>
                    </g>
                </g>
                <g transform="rotate(-90)" >
                    <g >
                        <g aria-label="HV2" font-size="0.298684" id="text3574" stroke-opacity="1"  style="font-style:normal;font-variant:normal;font-weight:normal;font-stretch:normal;line-height:125%;font-family:Droid Sans;-inkscape-font-specification:'Droid Sans, Normal';font-variant-ligatures:normal;font-variant-caps:normal;font-variant-numeric:normal;font-variant-east-asian:normal;text-align:start;letter-spacing:0px;word-spacing:0px;writing-mode:lr-tb;text-anchor:start;stroke-linecap:butt;stroke-linejoin:miter;" stroke="none" fill="#000000" fill-opacity="1" gorn="0.3.0.0.22.0.0" stroke-width="0.0746712">
                            <path font-size="0.298684" id="path3645"  style="font-style:normal;font-variant:normal;font-weight:normal;font-stretch:normal;font-family:Droid Sans;-inkscape-font-specification:'Droid Sans, Normal';font-variant-ligatures:normal;font-variant-caps:normal;font-variant-numeric:normal;font-variant-east-asian:normal;" d="m -46.772146,80.615222 v -0.599961 q 0,-0.01757 0.0124,-0.03049 0.01292,-0.01292 0.03101,-0.01292 0.01757,0 0.03049,0.01292 0.01292,0.01292 0.01292,0.03049 v 0.255797 h 0.264583 v -0.255797 q 0,-0.01757 0.0124,-0.03049 0.01292,-0.01292 0.03101,-0.01292 0.01809,0 0.03049,0.01292 0.01292,0.01292 0.01292,0.03152 v 0.598928 q 0,0.01757 -0.01344,0.03049 -0.01292,0.01292 -0.02997,0.01292 -0.0186,0 -0.03101,-0.0124 -0.0124,-0.01292 -0.0124,-0.03101 v -0.257348 h -0.263549 v 0.257348 q 0,0.01757 -0.01344,0.03049 -0.01292,0.01292 -0.03101,0.01292 -0.01757,0 -0.03049,-0.0124 -0.01292,-0.01292 -0.01292,-0.03101 z" fill="#ffffff" gorn="0.3.0.0.22.0.0.0" stroke-width="0.0746712"/>
                            <path font-size="0.298684" id="path3647"  style="font-style:normal;font-variant:normal;font-weight:normal;font-stretch:normal;font-family:Droid Sans;-inkscape-font-specification:'Droid Sans, Normal';font-variant-ligatures:normal;font-variant-caps:normal;font-variant-numeric:normal;font-variant-east-asian:normal;" d="m -45.691595,80.016294 v 0.15968 l -0.176733,0.4501 q -0.01344,0.03256 -0.04237,0.03256 -0.03049,0 -0.04341,-0.03256 l -0.1757,-0.4501 v -0.15968 q 0,-0.0186 0.0124,-0.03152 0.01292,-0.01292 0.03101,-0.01292 0.01809,0 0.03049,0.01292 0.01292,0.01292 0.01292,0.03152 v 0.141593 l 0.132291,0.33693 0.132291,-0.335896 v -0.142627 q 0,-0.0186 0.0124,-0.03152 0.01292,-0.01292 0.03101,-0.01292 0.01809,0 0.03049,0.01292 0.01292,0.01292 0.01292,0.03152 z" fill="#ffffff" gorn="0.3.0.0.22.0.0.1" stroke-width="0.0746712"/>
                            <path font-size="0.298684" id="path3649"  style="font-style:normal;font-variant:normal;font-weight:normal;font-stretch:normal;font-family:Droid Sans;-inkscape-font-specification:'Droid Sans, Normal';font-variant-ligatures:normal;font-variant-caps:normal;font-variant-numeric:normal;font-variant-east-asian:normal;" d="m -45.097834,80.657597 h -0.394807 v -0.299723 q 0,-0.03617 0.02532,-0.06201 0.02584,-0.02584 0.0615,-0.02584 h 0.263549 v -0.211356 h -0.310058 q -0.0186,0 -0.03101,-0.0124 -0.0124,-0.01292 -0.0124,-0.03101 0,-0.01809 0.0124,-0.03049 0.0124,-0.01292 0.03101,-0.01292 h 0.310058 q 0.03617,0 0.06201,0.02584 0.02584,0.02532 0.02584,0.06098 v 0.211356 q 0,0.03669 -0.02584,0.06253 -0.02584,0.02532 -0.06201,0.02532 h -0.263549 v 0.212907 h 0.307991 q 0.01757,0 0.03049,0.01292 0.01292,0.0124 0.01292,0.03049 0,0.01809 -0.01292,0.03101 -0.01292,0.0124 -0.03049,0.0124 z" fill="#ffffff" gorn="0.3.0.0.22.0.0.2" stroke-width="0.0746712"/>
                        </g>
                    </g>
                </g>
                <g transform="rotate(-90)" >
                    <g >
                        <g aria-label="HV" font-size="0.298684" id="text3578" stroke-opacity="1"  style="font-style:normal;font-variant:normal;font-weight:normal;font-stretch:normal;line-height:125%;font-family:Droid Sans;-inkscape-font-specification:'Droid Sans, Normal';font-variant-ligatures:normal;font-variant-caps:normal;font-variant-numeric:normal;font-variant-east-asian:normal;text-align:start;letter-spacing:0px;word-spacing:0px;writing-mode:lr-tb;text-anchor:start;stroke-linecap:butt;stroke-linejoin:miter;" stroke="none" fill="#000000" fill-opacity="1" gorn="0.3.0.0.23.0.0" stroke-width="0.0746712">
                            <path font-size="0.298684" id="path3652"  style="font-style:normal;font-variant:normal;font-weight:normal;font-stretch:normal;font-family:Droid Sans;-inkscape-font-specification:'Droid Sans, Normal';font-variant-ligatures:normal;font-variant-caps:normal;font-variant-numeric:normal;font-variant-east-asian:normal;" d="m -43.913553,80.615222 v -0.599961 q 0,-0.01757 0.0124,-0.03049 0.01292,-0.01292 0.03101,-0.01292 0.01757,0 0.03049,0.01292 0.01292,0.01292 0.01292,0.03049 v 0.255797 h 0.264583 v -0.255797 q 0,-0.01757 0.0124,-0.03049 0.01292,-0.01292 0.03101,-0.01292 0.01809,0 0.03049,0.01292 0.01292,0.01292 0.01292,0.03152 v 0.598928 q 0,0.01757 -0.01344,0.03049 -0.01292,0.01292 -0.02997,0.01292 -0.0186,0 -0.03101,-0.0124 -0.0124,-0.01292 -0.0124,-0.03101 v -0.257348 h -0.263549 v 0.257348 q 0,0.01757 -0.01344,0.03049 -0.01292,0.01292 -0.03101,0.01292 -0.01757,0 -0.03049,-0.0124 -0.01292,-0.01292 -0.01292,-0.03101 z" fill="#ffffff" gorn="0.3.0.0.23.0.0.0" stroke-width="0.0746712"/>
                            <path font-size="0.298684" id="path3654"  style="font-style:normal;font-variant:normal;font-weight:normal;font-stretch:normal;font-family:Droid Sans;-inkscape-font-specification:'Droid Sans, Normal';font-variant-ligatures:normal;font-variant-caps:normal;font-variant-numeric:normal;font-variant-east-asian:normal;" d="m -42.833002,80.016294 v 0.15968 l -0.176733,0.4501 q -0.01344,0.03256 -0.04237,0.03256 -0.03049,0 -0.04341,-0.03256 l -0.1757,-0.4501 v -0.15968 q 0,-0.0186 0.0124,-0.03152 0.01292,-0.01292 0.03101,-0.01292 0.01809,0 0.03049,0.01292 0.01292,0.01292 0.01292,0.03152 v 0.141593 l 0.132291,0.33693 0.132291,-0.335896 v -0.142627 q 0,-0.0186 0.0124,-0.03152 0.01292,-0.01292 0.03101,-0.01292 0.01809,0 0.03049,0.01292 0.01292,0.01292 0.01292,0.03152 z" fill="#ffffff" gorn="0.3.0.0.23.0.0.1" stroke-width="0.0746712"/>
                        </g>
                    </g>
                </g>
                <g transform="rotate(-90)" >
                    <g >
                        <g aria-label="GND" font-size="0.298684" id="text3582" stroke-opacity="1"  style="font-style:normal;font-variant:normal;font-weight:normal;font-stretch:normal;line-height:125%;font-family:Droid Sans;-inkscape-font-specification:'Droid Sans, Normal';font-variant-ligatures:normal;font-variant-caps:normal;font-variant-numeric:normal;font-variant-east-asian:normal;text-align:start;letter-spacing:0px;word-spacing:0px;writing-mode:lr-tb;text-anchor:start;stroke-linecap:butt;stroke-linejoin:miter;" stroke="none" fill="#000000" fill-opacity="1" gorn="0.3.0.0.24.0.0" stroke-width="0.0746712">
                            <path font-size="0.298684" id="path3657"  style="font-style:normal;font-variant:normal;font-weight:normal;font-stretch:normal;font-family:Droid Sans;-inkscape-font-specification:'Droid Sans, Normal';font-variant-ligatures:normal;font-variant-caps:normal;font-variant-numeric:normal;font-variant-east-asian:normal;" d="m -41.437895,79.971853 h 0.144177 q 0.01809,0 0.03049,0.01292 0.01292,0.0124 0.01292,0.03049 0,0.01912 -0.01395,0.03204 -0.01344,0.0124 -0.02946,0.0124 h -0.137459 q -0.02015,0 -0.03514,0.01912 l -0.121956,0.156579 q -0.0155,0.0186 -0.0155,0.05168 v 0.240295 q 0,0.0186 0.0124,0.03152 0.01292,0.01292 0.03101,0.01292 h 0.176733 q 0.01757,0 0.03049,-0.01292 0.01292,-0.01292 0.01292,-0.03049 v -0.09405 h -0.08992 q -0.0186,0 -0.03101,-0.0124 -0.0124,-0.01292 -0.0124,-0.03101 0,-0.01809 0.0124,-0.03049 0.0124,-0.01292 0.03101,-0.01292 h 0.176733 v 0.180867 q 0,0.05374 -0.03824,0.09198 -0.03824,0.03824 -0.09198,0.03824 h -0.176733 q -0.05426,0 -0.09302,-0.03824 -0.03824,-0.03824 -0.03824,-0.09198 v -0.240295 q 0,-0.06459 0.03462,-0.109036 l 0.128157,-0.162781 q 0.01395,-0.0186 0.03876,-0.03152 0.02532,-0.01292 0.05219,-0.01292 z" fill="#ffffff" gorn="0.3.0.0.24.0.0.0" stroke-width="0.0746712"/>
                            <path font-size="0.298684" id="path3659"  style="font-style:normal;font-variant:normal;font-weight:normal;font-stretch:normal;font-family:Droid Sans;-inkscape-font-specification:'Droid Sans, Normal';font-variant-ligatures:normal;font-variant-caps:normal;font-variant-numeric:normal;font-variant-east-asian:normal;" d="m -40.613141,80.016294 v 0.642336 h -0.116789 l -0.233576,-0.533299 v 0.489891 q 0,0.01809 -0.01292,0.03101 -0.0124,0.0124 -0.03049,0.0124 -0.01809,0 -0.03101,-0.0124 -0.0124,-0.01292 -0.0124,-0.03101 v -0.643369 h 0.115238 l 0.234093,0.532265 v -0.487824 q 0,-0.01809 0.01292,-0.03101 0.01344,-0.01344 0.03152,-0.01344 0.01809,0 0.03049,0.01292 0.01292,0.01292 0.01292,0.03152 z" fill="#ffffff" gorn="0.3.0.0.24.0.0.1" stroke-width="0.0746712"/>
                            <path font-size="0.298684" id="path3661"  style="font-style:normal;font-variant:normal;font-weight:normal;font-stretch:normal;font-family:Droid Sans;-inkscape-font-specification:'Droid Sans, Normal';font-variant-ligatures:normal;font-variant-caps:normal;font-variant-numeric:normal;font-variant-east-asian:normal;" d="m -40.368712,79.971853 h 0.171565 q 0.03359,5.16e-4 0.06511,0.0217 0.03204,0.02119 0.04703,0.05116 l 0.08578,0.173633 q 0.02429,0.04702 0.02429,0.09818 0,0.04754 -0.02584,0.09767 l -0.0863,0.171565 q -0.01654,0.03307 -0.04754,0.05323 -0.03101,0.01964 -0.06925,0.01964 h -0.165881 q -0.01809,0 -0.03101,-0.01292 -0.0124,-0.01292 -0.0124,-0.03049 0,-0.01809 0.0124,-0.03101 0.01292,-0.01344 0.03101,-0.01344 h 0.04547 v -0.511079 h -0.04444 q -0.01809,0 -0.03101,-0.01292 -0.0124,-0.01344 -0.0124,-0.03152 0,-0.01757 0.0124,-0.03049 0.01292,-0.01292 0.03101,-0.01292 z m 0.131257,0.08785 v 0.512112 h 0.03049 q 0.02894,0 0.04341,-0.02842 l 0.08578,-0.170531 q 0.01602,-0.03359 0.01602,-0.05633 0,-0.02842 -0.01292,-0.05374 l -0.08888,-0.176733 q -0.01395,-0.02635 -0.04547,-0.02635 z" fill="#ffffff" gorn="0.3.0.0.24.0.0.2" stroke-width="0.0746712"/>
                        </g>
                    </g>
                </g>
                <g transform="rotate(-90)" >
                    <g >
                        <g aria-label="HV3" font-size="0.298684" id="text3586" stroke-opacity="1"  style="font-style:normal;font-variant:normal;font-weight:normal;font-stretch:normal;line-height:125%;font-family:Droid Sans;-inkscape-font-specification:'Droid Sans, Normal';font-variant-ligatures:normal;font-variant-caps:normal;font-variant-numeric:normal;font-variant-east-asian:normal;text-align:start;letter-spacing:0px;word-spacing:0px;writing-mode:lr-tb;text-anchor:start;stroke-linecap:butt;stroke-linejoin:miter;" stroke="none" fill="#000000" fill-opacity="1" gorn="0.3.0.0.25.0.0" stroke-width="0.0746712">
                            <path font-size="0.298684" id="path3664"  style="font-style:normal;font-variant:normal;font-weight:normal;font-stretch:normal;font-family:Droid Sans;-inkscape-font-specification:'Droid Sans, Normal';font-variant-ligatures:normal;font-variant-caps:normal;font-variant-numeric:normal;font-variant-east-asian:normal;" d="m -39.15265,80.615222 v -0.599961 q 0,-0.01757 0.0124,-0.03049 0.01292,-0.01292 0.03101,-0.01292 0.01757,0 0.03049,0.01292 0.01292,0.01292 0.01292,0.03049 v 0.255797 h 0.264582 v -0.255797 q 0,-0.01757 0.0124,-0.03049 0.01292,-0.01292 0.03101,-0.01292 0.01809,0 0.03049,0.01292 0.01292,0.01292 0.01292,0.03152 v 0.598928 q 0,0.01757 -0.01344,0.03049 -0.01292,0.01292 -0.02997,0.01292 -0.0186,0 -0.03101,-0.0124 -0.0124,-0.01292 -0.0124,-0.03101 v -0.257348 h -0.263549 v 0.257348 q 0,0.01757 -0.01343,0.03049 -0.01292,0.01292 -0.03101,0.01292 -0.01757,0 -0.03049,-0.0124 -0.01292,-0.01292 -0.01292,-0.03101 z" fill="#ffffff" gorn="0.3.0.0.25.0.0.0" stroke-width="0.0746712"/>
                            <path font-size="0.298684" id="path3666"  style="font-style:normal;font-variant:normal;font-weight:normal;font-stretch:normal;font-family:Droid Sans;-inkscape-font-specification:'Droid Sans, Normal';font-variant-ligatures:normal;font-variant-caps:normal;font-variant-numeric:normal;font-variant-east-asian:normal;" d="m -38.072099,80.016294 v 0.15968 l -0.176733,0.4501 q -0.01344,0.03256 -0.04237,0.03256 -0.03049,0 -0.04341,-0.03256 l -0.175699,-0.4501 v -0.15968 q 0,-0.0186 0.0124,-0.03152 0.01292,-0.01292 0.03101,-0.01292 0.01809,0 0.03049,0.01292 0.01292,0.01292 0.01292,0.03152 v 0.141593 l 0.132291,0.33693 0.132291,-0.335896 v -0.142627 q 0,-0.0186 0.0124,-0.03152 0.01292,-0.01292 0.03101,-0.01292 0.01809,0 0.03049,0.01292 0.01292,0.01292 0.01292,0.03152 z" fill="#ffffff" gorn="0.3.0.0.25.0.0.1" stroke-width="0.0746712"/>
                            <path font-size="0.298684" id="path3668"  style="font-style:normal;font-variant:normal;font-weight:normal;font-stretch:normal;font-family:Droid Sans;-inkscape-font-specification:'Droid Sans, Normal';font-variant-ligatures:normal;font-variant-caps:normal;font-variant-numeric:normal;font-variant-east-asian:normal;" d="m -37.434931,80.058669 v 0.16278 q 0,0.05684 -0.03514,0.09198 0.03617,0.04031 0.03617,0.08785 v 0.169498 q 0,0.03566 -0.02584,0.06149 -0.02584,0.02532 -0.06201,0.02532 h -0.306957 q -0.01809,0 -0.03101,-0.0124 -0.0124,-0.01292 -0.0124,-0.03101 0,-0.01809 0.0124,-0.03049 0.01292,-0.01292 0.03101,-0.01292 h 0.305923 v -0.169498 q 0,-0.01809 -0.01292,-0.03101 -0.0124,-0.01344 -0.03049,-0.01344 h -0.174665 q -0.01809,0 -0.03101,-0.0124 -0.0124,-0.0124 -0.0124,-0.03101 0,-0.01809 0.0124,-0.03049 0.01292,-0.01292 0.03101,-0.01292 h 0.175699 q 0.01757,0 0.03049,-0.0124 0.01292,-0.01292 0.01292,-0.031 v -0.167948 h -0.310058 q -0.01809,0 -0.03101,-0.0124 -0.0124,-0.01292 -0.0124,-0.03101 0,-0.01809 0.0124,-0.03049 0.01292,-0.01292 0.03101,-0.01292 h 0.310058 q 0.03617,0 0.0615,0.02584 0.02532,0.02532 0.02532,0.06098 z" fill="#ffffff" gorn="0.3.0.0.25.0.0.2" stroke-width="0.0746712"/>
                        </g>
                    </g>
                </g>
                <g transform="rotate(-90)" >
                    <g >
                        <g aria-label="HV4" font-size="0.298684" id="text3590" stroke-opacity="1"  style="font-style:normal;font-variant:normal;font-weight:normal;font-stretch:normal;line-height:125%;font-family:Droid Sans;-inkscape-font-specification:'Droid Sans, Normal';font-variant-ligatures:normal;font-variant-caps:normal;font-variant-numeric:normal;font-variant-east-asian:normal;text-align:start;letter-spacing:0px;word-spacing:0px;writing-mode:lr-tb;text-anchor:start;stroke-linecap:butt;stroke-linejoin:miter;" stroke="none" fill="#000000" fill-opacity="1" gorn="0.3.0.0.26.0.0" stroke-width="0.0746712">
                            <path font-size="0.298684" id="path3671"  style="font-style:normal;font-variant:normal;font-weight:normal;font-stretch:normal;font-family:Droid Sans;-inkscape-font-specification:'Droid Sans, Normal';font-variant-ligatures:normal;font-variant-caps:normal;font-variant-numeric:normal;font-variant-east-asian:normal;" d="M -36.600515,80.615741 V 80.01578 q 0,-0.01757 0.0124,-0.03049 0.01292,-0.01292 0.03101,-0.01292 0.01757,0 0.03049,0.01292 0.01292,0.01292 0.01292,0.03049 v 0.255797 h 0.264583 V 80.01578 q 0,-0.01757 0.0124,-0.03049 0.01292,-0.01292 0.03101,-0.01292 0.01809,0 0.03049,0.01292 0.01292,0.01292 0.01292,0.03152 v 0.598928 q 0,0.01757 -0.01344,0.03049 -0.01292,0.01292 -0.02997,0.01292 -0.0186,0 -0.03101,-0.0124 -0.0124,-0.01292 -0.0124,-0.03101 V 80.35839 h -0.263549 v 0.257348 q 0,0.01757 -0.01344,0.03049 -0.01292,0.01292 -0.03101,0.01292 -0.01757,0 -0.03049,-0.0124 -0.01292,-0.01292 -0.01292,-0.03101 z" fill="#ffffff" gorn="0.3.0.0.26.0.0.0" stroke-width="0.0746712"/>
                            <path font-size="0.298684" id="path3673"  style="font-style:normal;font-variant:normal;font-weight:normal;font-stretch:normal;font-family:Droid Sans;-inkscape-font-specification:'Droid Sans, Normal';font-variant-ligatures:normal;font-variant-caps:normal;font-variant-numeric:normal;font-variant-east-asian:normal;" d="m -35.519964,80.016813 v 0.15968 l -0.176733,0.4501 q -0.01344,0.03256 -0.04237,0.03256 -0.03049,0 -0.04341,-0.03256 l -0.1757,-0.4501 v -0.15968 q 0,-0.0186 0.0124,-0.03152 0.01292,-0.01292 0.03101,-0.01292 0.01809,0 0.03049,0.01292 0.01292,0.01292 0.01292,0.03152 v 0.141593 l 0.132292,0.336929 0.132291,-0.335895 v -0.142627 q 0,-0.0186 0.0124,-0.03152 0.01292,-0.01292 0.03101,-0.01292 0.01809,0 0.03049,0.01292 0.01292,0.01292 0.01292,0.03152 z" fill="#ffffff" gorn="0.3.0.0.26.0.0.1" stroke-width="0.0746712"/>
                            <path font-size="0.298684" id="path3675"  style="font-style:normal;font-variant:normal;font-weight:normal;font-stretch:normal;font-family:Droid Sans;-inkscape-font-specification:'Droid Sans, Normal';font-variant-ligatures:normal;font-variant-caps:normal;font-variant-numeric:normal;font-variant-east-asian:normal;" d="m -35.036274,80.614708 v -0.180867 h -0.261482 V 80.01578 q 0,-0.01809 0.01292,-0.03101 0.01344,-0.01344 0.03152,-0.01344 0.01757,0 0.03049,0.01344 0.01292,0.01292 0.01292,0.03101 v 0.330211 h 0.173632 v -0.254247 q 0,-0.01809 0.0124,-0.03101 0.01292,-0.01344 0.03101,-0.01344 0.01809,0 0.03049,0.01344 0.01292,0.01292 0.01292,0.03101 v 0.254247 q 0.01809,0 0.03049,0.01292 0.01292,0.0124 0.01292,0.03049 0,0.01809 -0.01292,0.03101 -0.0124,0.0124 -0.03049,0.0124 v 0.181901 q 0,0.01809 -0.01292,0.03101 -0.01292,0.0124 -0.03049,0.0124 -0.01809,0 -0.03101,-0.0124 -0.0124,-0.01292 -0.0124,-0.03101 z" fill="#ffffff" gorn="0.3.0.0.26.0.0.2" stroke-width="0.0746712"/>
                        </g>
                    </g>
                </g>
                <g transform="rotate(-90)" >
                    <g >
                        <g aria-label="LV1" font-size="0.298684" id="text3594" stroke-opacity="1"  style="font-style:normal;font-variant:normal;font-weight:normal;font-stretch:normal;line-height:125%;font-family:Droid Sans;-inkscape-font-specification:'Droid Sans, Normal';font-variant-ligatures:normal;font-variant-caps:normal;font-variant-numeric:normal;font-variant-east-asian:normal;text-align:start;letter-spacing:0px;word-spacing:0px;writing-mode:lr-tb;text-anchor:start;stroke-linecap:butt;stroke-linejoin:miter;" stroke="none" fill="#000000" fill-opacity="1" gorn="0.3.0.0.27.0.0" stroke-width="0.0746712">
                            <path font-size="0.298684" id="path3678"  style="font-style:normal;font-variant:normal;font-weight:normal;font-stretch:normal;font-family:Droid Sans;-inkscape-font-specification:'Droid Sans, Normal';font-variant-ligatures:normal;font-variant-caps:normal;font-variant-numeric:normal;font-variant-east-asian:normal;" d="m -49.309385,88.502342 v -0.643369 q 0,-0.01757 0.01292,-0.03049 0.01292,-0.01292 0.03049,-0.01292 0.01757,0 0.03049,0.01292 0.01292,0.01292 0.01292,0.03049 v 0.556553 h 0.306957 q 0.01809,0 0.03101,0.01292 0.01344,0.0124 0.01344,0.03049 0,0.01809 -0.01344,0.03101 -0.01292,0.0124 -0.03101,0.0124 z" fill="#ffffff" gorn="0.3.0.0.27.0.0.0" stroke-width="0.0746712"/>
                            <path font-size="0.298684" id="path3680"  style="font-style:normal;font-variant:normal;font-weight:normal;font-stretch:normal;font-family:Droid Sans;-inkscape-font-specification:'Droid Sans, Normal';font-variant-ligatures:normal;font-variant-caps:normal;font-variant-numeric:normal;font-variant-east-asian:normal;" d="m -48.230901,87.860006 v 0.15968 l -0.176733,0.4501 q -0.01344,0.03256 -0.04237,0.03256 -0.03049,0 -0.04341,-0.03256 l -0.175699,-0.4501 v -0.15968 q 0,-0.0186 0.0124,-0.03152 0.01292,-0.01292 0.03101,-0.01292 0.01809,0 0.03049,0.01292 0.01292,0.01292 0.01292,0.03152 v 0.141593 l 0.132291,0.336929 0.132291,-0.335895 v -0.142627 q 0,-0.0186 0.0124,-0.03152 0.01292,-0.01292 0.03101,-0.01292 0.01809,0 0.03049,0.01292 0.01292,0.01292 0.01292,0.03152 z" fill="#ffffff" gorn="0.3.0.0.27.0.0.1" stroke-width="0.0746712"/>
                            <path font-size="0.298684" id="path3682"  style="font-style:normal;font-variant:normal;font-weight:normal;font-stretch:normal;font-family:Droid Sans;-inkscape-font-specification:'Droid Sans, Normal';font-variant-ligatures:normal;font-variant-caps:normal;font-variant-numeric:normal;font-variant-east-asian:normal;" d="m -47.990607,88.414493 h 0.133325 v -0.512112 h -0.131258 q -0.01809,0 -0.03101,-0.0124 -0.0124,-0.01292 -0.0124,-0.031 0,-0.01809 0.0124,-0.03049 0.01292,-0.01292 0.03101,-0.01292 h 0.218074 v 0.598928 h 0.08682 v -0.180867 q 0,-0.01757 0.0124,-0.03049 0.01292,-0.01292 0.03101,-0.01292 0.01809,0 0.03049,0.01292 0.01292,0.0124 0.01292,0.03049 v 0.224275 q 0,0.01809 -0.01292,0.031 -0.0124,0.0124 -0.03049,0.0124 h -0.350365 q -0.01809,0 -0.03101,-0.01292 -0.0124,-0.01344 -0.0124,-0.03152 0,-0.01757 0.0124,-0.02997 0.01292,-0.0124 0.03101,-0.0124 z" fill="#ffffff" gorn="0.3.0.0.27.0.0.2" stroke-width="0.0746712"/>
                        </g>
                    </g>
                </g>
                <g transform="rotate(-90)" >
                    <g >
                        <g aria-label="LV2" font-size="0.298684" id="text3598" stroke-opacity="1"  style="font-style:normal;font-variant:normal;font-weight:normal;font-stretch:normal;line-height:125%;font-family:Droid Sans;-inkscape-font-specification:'Droid Sans, Normal';font-variant-ligatures:normal;font-variant-caps:normal;font-variant-numeric:normal;font-variant-east-asian:normal;text-align:start;letter-spacing:0px;word-spacing:0px;writing-mode:lr-tb;text-anchor:start;stroke-linecap:butt;stroke-linejoin:miter;" stroke="none" fill="#000000" fill-opacity="1" gorn="0.3.0.0.28.0.0" stroke-width="0.0746712">
                            <path font-size="0.298684" id="path3685"  style="font-style:normal;font-variant:normal;font-weight:normal;font-stretch:normal;font-family:Droid Sans;-inkscape-font-specification:'Droid Sans, Normal';font-variant-ligatures:normal;font-variant-caps:normal;font-variant-numeric:normal;font-variant-east-asian:normal;" d="m -46.770941,88.502342 v -0.643369 q 0,-0.01757 0.01292,-0.03049 0.01292,-0.01292 0.03049,-0.01292 0.01757,0 0.03049,0.01292 0.01292,0.01292 0.01292,0.03049 v 0.556553 h 0.306957 q 0.01809,0 0.03101,0.01292 0.01344,0.0124 0.01344,0.03049 0,0.01809 -0.01344,0.03101 -0.01292,0.0124 -0.03101,0.0124 z" fill="#ffffff" gorn="0.3.0.0.28.0.0.0" stroke-width="0.0746712"/>
                            <path font-size="0.298684" id="path3687"  style="font-style:normal;font-variant:normal;font-weight:normal;font-stretch:normal;font-family:Droid Sans;-inkscape-font-specification:'Droid Sans, Normal';font-variant-ligatures:normal;font-variant-caps:normal;font-variant-numeric:normal;font-variant-east-asian:normal;" d="m -45.692457,87.860006 v 0.15968 l -0.176733,0.4501 q -0.01344,0.03256 -0.04237,0.03256 -0.03049,0 -0.04341,-0.03256 l -0.1757,-0.4501 v -0.15968 q 0,-0.0186 0.0124,-0.03152 0.01292,-0.01292 0.03101,-0.01292 0.01809,0 0.03049,0.01292 0.01292,0.01292 0.01292,0.03152 v 0.141593 l 0.132292,0.336929 0.132291,-0.335895 v -0.142627 q 0,-0.0186 0.0124,-0.03152 0.01292,-0.01292 0.03101,-0.01292 0.01809,0 0.03049,0.01292 0.01292,0.01292 0.01292,0.03152 z" fill="#ffffff" gorn="0.3.0.0.28.0.0.1" stroke-width="0.0746712"/>
                            <path font-size="0.298684" id="path3689"  style="font-style:normal;font-variant:normal;font-weight:normal;font-stretch:normal;font-family:Droid Sans;-inkscape-font-specification:'Droid Sans, Normal';font-variant-ligatures:normal;font-variant-caps:normal;font-variant-numeric:normal;font-variant-east-asian:normal;" d="m -45.098697,88.501309 h -0.394806 v -0.299723 q 0,-0.03617 0.02532,-0.06201 0.02584,-0.02584 0.0615,-0.02584 h 0.263549 V 87.90238 h -0.310058 q -0.0186,0 -0.03101,-0.0124 -0.0124,-0.01292 -0.0124,-0.031 0,-0.01809 0.0124,-0.03049 0.0124,-0.01292 0.03101,-0.01292 h 0.310058 q 0.03617,0 0.06201,0.02584 0.02584,0.02532 0.02584,0.06098 v 0.211356 q 0,0.03669 -0.02584,0.06253 -0.02584,0.02532 -0.06201,0.02532 h -0.263549 v 0.212907 h 0.30799 q 0.01757,0 0.03049,0.01292 0.01292,0.0124 0.01292,0.03049 0,0.01809 -0.01292,0.031 -0.01292,0.0124 -0.03049,0.0124 z" fill="#ffffff" gorn="0.3.0.0.28.0.0.2" stroke-width="0.0746712"/>
                        </g>
                    </g>
                </g>
                <g transform="rotate(-90)" >
                    <g >
                        <g aria-label="LV" font-size="0.298684" id="text3602" stroke-opacity="1"  style="font-style:normal;font-variant:normal;font-weight:normal;font-stretch:normal;line-height:125%;font-family:Droid Sans;-inkscape-font-specification:'Droid Sans, Normal';font-variant-ligatures:normal;font-variant-caps:normal;font-variant-numeric:normal;font-variant-east-asian:normal;text-align:start;letter-spacing:0px;word-spacing:0px;writing-mode:lr-tb;text-anchor:start;stroke-linecap:butt;stroke-linejoin:miter;" stroke="none" fill="#000000" fill-opacity="1" gorn="0.3.0.0.29.0.0" stroke-width="0.0746712">
                            <path font-size="0.298684" id="path3692"  style="font-style:normal;font-variant:normal;font-weight:normal;font-stretch:normal;font-family:Droid Sans;-inkscape-font-specification:'Droid Sans, Normal';font-variant-ligatures:normal;font-variant-caps:normal;font-variant-numeric:normal;font-variant-east-asian:normal;" d="m -43.912352,88.502342 v -0.643369 q 0,-0.01757 0.01292,-0.03049 0.01292,-0.01292 0.03049,-0.01292 0.01757,0 0.03049,0.01292 0.01292,0.01292 0.01292,0.03049 v 0.556553 h 0.306957 q 0.01809,0 0.03101,0.01292 0.01344,0.0124 0.01344,0.03049 0,0.01809 -0.01344,0.03101 -0.01292,0.0124 -0.03101,0.0124 z" fill="#ffffff" gorn="0.3.0.0.29.0.0.0" stroke-width="0.0746712"/>
                            <path font-size="0.298684" id="path3694"  style="font-style:normal;font-variant:normal;font-weight:normal;font-stretch:normal;font-family:Droid Sans;-inkscape-font-specification:'Droid Sans, Normal';font-variant-ligatures:normal;font-variant-caps:normal;font-variant-numeric:normal;font-variant-east-asian:normal;" d="m -42.833868,87.860006 v 0.15968 l -0.176733,0.4501 q -0.01344,0.03256 -0.04237,0.03256 -0.03049,0 -0.04341,-0.03256 l -0.1757,-0.4501 v -0.15968 q 0,-0.0186 0.0124,-0.03152 0.01292,-0.01292 0.03101,-0.01292 0.01809,0 0.03049,0.01292 0.01292,0.01292 0.01292,0.03152 v 0.141593 l 0.132291,0.336929 0.132291,-0.335895 v -0.142627 q 0,-0.0186 0.0124,-0.03152 0.01292,-0.01292 0.03101,-0.01292 0.01809,0 0.03049,0.01292 0.01292,0.01292 0.01292,0.03152 z" fill="#ffffff" gorn="0.3.0.0.29.0.0.1" stroke-width="0.0746712"/>
                        </g>
                    </g>
                </g>
                <g transform="rotate(-90)" >
                    <g >
                        <g aria-label="GND" font-size="0.298684" id="text3606" stroke-opacity="1"  style="font-style:normal;font-variant:normal;font-weight:normal;font-stretch:normal;line-height:125%;font-family:Droid Sans;-inkscape-font-specification:'Droid Sans, Normal';font-variant-ligatures:normal;font-variant-caps:normal;font-variant-numeric:normal;font-variant-east-asian:normal;text-align:start;letter-spacing:0px;word-spacing:0px;writing-mode:lr-tb;text-anchor:start;stroke-linecap:butt;stroke-linejoin:miter;" stroke="none" fill="#000000" fill-opacity="1" gorn="0.3.0.0.30.0.0" stroke-width="0.0746712">
                            <path font-size="0.298684" id="path3697"  style="font-style:normal;font-variant:normal;font-weight:normal;font-stretch:normal;font-family:Droid Sans;-inkscape-font-specification:'Droid Sans, Normal';font-variant-ligatures:normal;font-variant-caps:normal;font-variant-numeric:normal;font-variant-east-asian:normal;" d="m -41.437727,87.815565 h 0.144177 q 0.01809,0 0.03049,0.01292 0.01292,0.0124 0.01292,0.03049 0,0.01912 -0.01395,0.03204 -0.01344,0.0124 -0.02946,0.0124 h -0.137459 q -0.02015,0 -0.03514,0.01912 l -0.121956,0.15658 q -0.0155,0.0186 -0.0155,0.05168 v 0.240294 q 0,0.0186 0.0124,0.03152 0.01292,0.01292 0.03101,0.01292 h 0.176732 q 0.01757,0 0.03049,-0.01292 0.01292,-0.01292 0.01292,-0.03049 v -0.09405 h -0.08992 q -0.0186,0 -0.03101,-0.0124 -0.0124,-0.01292 -0.0124,-0.03101 0,-0.01809 0.0124,-0.03049 0.0124,-0.01292 0.03101,-0.01292 h 0.176733 v 0.180867 q 0,0.05374 -0.03824,0.09198 -0.03824,0.03824 -0.09198,0.03824 h -0.176732 q -0.05426,0 -0.09302,-0.03824 -0.03824,-0.03824 -0.03824,-0.09198 v -0.240295 q 0,-0.06459 0.03462,-0.109037 l 0.128157,-0.16278 q 0.01395,-0.0186 0.03876,-0.03152 0.02532,-0.01292 0.05219,-0.01292 z" fill="#ffffff" gorn="0.3.0.0.30.0.0.0" stroke-width="0.0746712"/>
                            <path font-size="0.298684" id="path3699"  style="font-style:normal;font-variant:normal;font-weight:normal;font-stretch:normal;font-family:Droid Sans;-inkscape-font-specification:'Droid Sans, Normal';font-variant-ligatures:normal;font-variant-caps:normal;font-variant-numeric:normal;font-variant-east-asian:normal;" d="m -40.612973,87.860006 v 0.642336 h -0.116789 l -0.233576,-0.533299 v 0.489891 q 0,0.01809 -0.01292,0.03101 -0.0124,0.0124 -0.03049,0.0124 -0.01809,0 -0.03101,-0.0124 -0.0124,-0.01292 -0.0124,-0.03101 v -0.643369 h 0.115238 l 0.234094,0.532265 v -0.487824 q 0,-0.01809 0.01292,-0.03101 0.01344,-0.01343 0.03152,-0.01343 0.01809,0 0.03049,0.01292 0.01292,0.01292 0.01292,0.03152 z" fill="#ffffff" gorn="0.3.0.0.30.0.0.1" stroke-width="0.0746712"/>
                            <path font-size="0.298684" id="path3701"  style="font-style:normal;font-variant:normal;font-weight:normal;font-stretch:normal;font-family:Droid Sans;-inkscape-font-specification:'Droid Sans, Normal';font-variant-ligatures:normal;font-variant-caps:normal;font-variant-numeric:normal;font-variant-east-asian:normal;" d="m -40.368545,87.815565 h 0.171566 q 0.03359,5.16e-4 0.06511,0.0217 0.03204,0.02119 0.04702,0.05116 l 0.08578,0.173632 q 0.02429,0.04703 0.02429,0.09819 0,0.04754 -0.02584,0.09767 l -0.0863,0.171566 q -0.01654,0.03307 -0.04754,0.05323 -0.03101,0.01964 -0.06925,0.01964 h -0.165881 q -0.01809,0 -0.03101,-0.01292 -0.0124,-0.01292 -0.0124,-0.03049 0,-0.01809 0.0124,-0.03101 0.01292,-0.01344 0.03101,-0.01344 h 0.04547 v -0.511079 h -0.04444 q -0.01809,0 -0.03101,-0.01292 -0.0124,-0.01344 -0.0124,-0.03152 0,-0.01757 0.0124,-0.03049 0.01292,-0.01292 0.03101,-0.01292 z m 0.131258,0.08785 v 0.512112 h 0.03049 q 0.02894,0 0.04341,-0.02842 l 0.08578,-0.170532 q 0.01602,-0.03359 0.01602,-0.05633 0,-0.02842 -0.01292,-0.05374 l -0.08888,-0.176733 q -0.01395,-0.02635 -0.04548,-0.02635 z" fill="#ffffff" gorn="0.3.0.0.30.0.0.2" stroke-width="0.0746712"/>
                        </g>
                    </g>
                </g>
                <g transform="rotate(-90)" >
                    <g >
                        <g aria-label="LV3" font-size="0.298684" id="text3610" stroke-opacity="1"  style="font-style:normal;font-variant:normal;font-weight:normal;font-stretch:normal;line-height:125%;font-family:Droid Sans;-inkscape-font-specification:'Droid Sans, Normal';font-variant-ligatures:normal;font-variant-caps:normal;font-variant-numeric:normal;font-variant-east-asian:normal;text-align:start;letter-spacing:0px;word-spacing:0px;writing-mode:lr-tb;text-anchor:start;stroke-linecap:butt;stroke-linejoin:miter;" stroke="none" fill="#000000" fill-opacity="1" gorn="0.3.0.0.31.0.0" stroke-width="0.0746712">
                            <path font-size="0.298684" id="path3704"  style="font-style:normal;font-variant:normal;font-weight:normal;font-stretch:normal;font-family:Droid Sans;-inkscape-font-specification:'Droid Sans, Normal';font-variant-ligatures:normal;font-variant-caps:normal;font-variant-numeric:normal;font-variant-east-asian:normal;" d="m -39.151449,88.502342 v -0.643369 q 0,-0.01757 0.01292,-0.03049 0.01292,-0.01292 0.03049,-0.01292 0.01757,0 0.03049,0.01292 0.01292,0.01292 0.01292,0.03049 v 0.556553 h 0.306957 q 0.01809,0 0.03101,0.01292 0.01344,0.0124 0.01344,0.03049 0,0.01809 -0.01344,0.03101 -0.01292,0.0124 -0.03101,0.0124 z" fill="#ffffff" gorn="0.3.0.0.31.0.0.0" stroke-width="0.0746712"/>
                            <path font-size="0.298684" id="path3706"  style="font-style:normal;font-variant:normal;font-weight:normal;font-stretch:normal;font-family:Droid Sans;-inkscape-font-specification:'Droid Sans, Normal';font-variant-ligatures:normal;font-variant-caps:normal;font-variant-numeric:normal;font-variant-east-asian:normal;" d="m -38.072965,87.860006 v 0.15968 l -0.176733,0.4501 q -0.01344,0.03256 -0.04237,0.03256 -0.03049,0 -0.04341,-0.03256 l -0.175699,-0.4501 v -0.15968 q 0,-0.0186 0.0124,-0.03152 0.01292,-0.01292 0.03101,-0.01292 0.01809,0 0.03049,0.01292 0.01292,0.01292 0.01292,0.03152 v 0.141593 l 0.132291,0.336929 0.132292,-0.335895 v -0.142627 q 0,-0.0186 0.0124,-0.03152 0.01292,-0.01292 0.03101,-0.01292 0.01809,0 0.03049,0.01292 0.01292,0.01292 0.01292,0.03152 z" fill="#ffffff" gorn="0.3.0.0.31.0.0.1" stroke-width="0.0746712"/>
                            <path font-size="0.298684" id="path3708"  style="font-style:normal;font-variant:normal;font-weight:normal;font-stretch:normal;font-family:Droid Sans;-inkscape-font-specification:'Droid Sans, Normal';font-variant-ligatures:normal;font-variant-caps:normal;font-variant-numeric:normal;font-variant-east-asian:normal;" d="m -37.435797,87.902381 v 0.16278 q 0,0.05684 -0.03514,0.09198 0.03617,0.04031 0.03617,0.08785 v 0.169499 q 0,0.03566 -0.02584,0.06149 -0.02584,0.02532 -0.06201,0.02532 h -0.306957 q -0.01809,0 -0.03101,-0.0124 -0.0124,-0.01292 -0.0124,-0.031 0,-0.01809 0.0124,-0.03049 0.01292,-0.01292 0.03101,-0.01292 h 0.305923 v -0.169499 q 0,-0.01809 -0.01292,-0.03101 -0.0124,-0.01344 -0.03049,-0.01344 h -0.174665 q -0.01809,0 -0.03101,-0.0124 -0.0124,-0.0124 -0.0124,-0.031 0,-0.01809 0.0124,-0.03049 0.01292,-0.01292 0.03101,-0.01292 h 0.175699 q 0.01757,0 0.03049,-0.0124 0.01292,-0.01292 0.01292,-0.031 v -0.167948 h -0.310058 q -0.01809,0 -0.03101,-0.0124 -0.0124,-0.01292 -0.0124,-0.031 0,-0.01809 0.0124,-0.03049 0.01292,-0.01292 0.03101,-0.01292 h 0.310058 q 0.03617,0 0.0615,0.02584 0.02532,0.02532 0.02532,0.06098 z" fill="#ffffff" gorn="0.3.0.0.31.0.0.2" stroke-width="0.0746712"/>
                        </g>
                    </g>
                </g>
                <g transform="rotate(-90)" >
                    <g >
                        <g aria-label="LV4" font-size="0.298684" id="text3614" stroke-opacity="1"  style="font-style:normal;font-variant:normal;font-weight:normal;font-stretch:normal;line-height:125%;font-family:Droid Sans;-inkscape-font-specification:'Droid Sans, Normal';font-variant-ligatures:normal;font-variant-caps:normal;font-variant-numeric:normal;font-variant-east-asian:normal;text-align:start;letter-spacing:0px;word-spacing:0px;writing-mode:lr-tb;text-anchor:start;stroke-linecap:butt;stroke-linejoin:miter;" stroke="none" fill="#000000" fill-opacity="1" gorn="0.3.0.0.32.0.0" stroke-width="0.0746712">
                            <path font-size="0.298684" id="path3711"  style="font-style:normal;font-variant:normal;font-weight:normal;font-stretch:normal;font-family:Droid Sans;-inkscape-font-specification:'Droid Sans, Normal';font-variant-ligatures:normal;font-variant-caps:normal;font-variant-numeric:normal;font-variant-east-asian:normal;" d="m -36.59931,88.502861 v -0.64337 q 0,-0.01757 0.01292,-0.03049 0.01292,-0.01292 0.03049,-0.01292 0.01757,0 0.03049,0.01292 0.01292,0.01292 0.01292,0.03049 v 0.556554 h 0.306957 q 0.01809,0 0.03101,0.01292 0.01344,0.0124 0.01344,0.03049 0,0.01809 -0.01344,0.03101 -0.01292,0.0124 -0.03101,0.0124 z" fill="#ffffff" gorn="0.3.0.0.32.0.0.0" stroke-width="0.0746712"/>
                            <path font-size="0.298684" id="path3713"  style="font-style:normal;font-variant:normal;font-weight:normal;font-stretch:normal;font-family:Droid Sans;-inkscape-font-specification:'Droid Sans, Normal';font-variant-ligatures:normal;font-variant-caps:normal;font-variant-numeric:normal;font-variant-east-asian:normal;" d="m -35.520826,87.860525 v 0.15968 l -0.176733,0.4501 q -0.01344,0.03256 -0.04237,0.03256 -0.03049,0 -0.04341,-0.03256 l -0.175699,-0.4501 v -0.15968 q 0,-0.0186 0.0124,-0.03152 0.01292,-0.01292 0.03101,-0.01292 0.01809,0 0.03049,0.01292 0.01292,0.01292 0.01292,0.03152 v 0.141593 l 0.132292,0.336929 0.132291,-0.335896 v -0.142626 q 0,-0.0186 0.0124,-0.03152 0.01292,-0.01292 0.03101,-0.01292 0.01809,0 0.03049,0.01292 0.01292,0.01292 0.01292,0.03152 z" fill="#ffffff" gorn="0.3.0.0.32.0.0.1" stroke-width="0.0746712"/>
                            <path font-size="0.298684" id="path3715"  style="font-style:normal;font-variant:normal;font-weight:normal;font-stretch:normal;font-family:Droid Sans;-inkscape-font-specification:'Droid Sans, Normal';font-variant-ligatures:normal;font-variant-caps:normal;font-variant-numeric:normal;font-variant-east-asian:normal;" d="m -35.037136,88.458419 v -0.180867 h -0.261482 v -0.418061 q 0,-0.01809 0.01292,-0.03101 0.01344,-0.01344 0.03152,-0.01344 0.01757,0 0.03049,0.01344 0.01292,0.01292 0.01292,0.03101 v 0.330212 h 0.173632 v -0.254247 q 0,-0.01809 0.0124,-0.03101 0.01292,-0.01344 0.03101,-0.01344 0.01809,0 0.03049,0.01344 0.01292,0.01292 0.01292,0.03101 v 0.254247 q 0.01809,0 0.03049,0.01292 0.01292,0.0124 0.01292,0.03049 0,0.01809 -0.01292,0.03101 -0.0124,0.0124 -0.03049,0.0124 v 0.1819 q 0,0.01809 -0.01292,0.03101 -0.01292,0.0124 -0.03049,0.0124 -0.01809,0 -0.03101,-0.0124 -0.0124,-0.01292 -0.0124,-0.03101 z" fill="#ffffff" gorn="0.3.0.0.32.0.0.2" stroke-width="0.0746712"/>
                        </g>
                    </g>
                </g>
                <g transform="scale(-1)" >
                    <g >
                        <circle connectorname="SDA" r="0.72390002" id="connector8pin" cx="-78.759827" cy="-43.373276"  fill="none" stroke="#9a916c" gorn="0.3.0.0.33.0.0" stroke-width="0.4318"/>
                    </g>
                </g>
                <g transform="scale(-1)" >
                    <g >
                        <circle connectorname="SCL" r="0.72390002" id="connector10pin" cx="-78.759827" cy="-45.913284"  fill="none" stroke="#9a916c" gorn="0.3.0.0.34.0.0" stroke-width="0.4318"/>
                    </g>
                </g>
                <g transform="scale(-1)" >
                    <g >
                        <circle connectorname="INT1" r="0.72390002" id="connector9pin" cx="-78.759827" cy="-48.453278"  fill="none" stroke="#9a916c" gorn="0.3.0.0.35.0.0" stroke-width="0.4318"/>
                    </g>
                </g>
                <g transform="scale(-1)" >
                    <g >
                        <circle connectorname="SDA" r="0.72390002" id="connector11pin" cx="-78.759827" cy="-38.293274"  fill="none" stroke="#9a916c" gorn="0.3.0.0.36.0.0" stroke-width="0.4318"/>
                    </g>
                </g>
                <g transform="scale(-1)" >
                    <g >
                        <circle connectorname="SCL" r="0.72390002" id="connector5pin" cx="-78.759827" cy="-40.833282"  fill="none" stroke="#9a916c" gorn="0.3.0.0.37.0.0" stroke-width="0.4318"/>
                    </g>
                </g>
                <g transform="scale(-1)" >
                    <g >
                        <circle connectorname="SCL" r="0.72390002" id="connector12pin" cx="-78.759827" cy="-35.753281"  fill="none" stroke="#9a916c" gorn="0.3.0.0.38.0.0" stroke-width="0.4318"/>
                    </g>
                </g>
                <g aria-label="Level Shift" font-size="0.398247" id="text3636" stroke-opacity="1"  style="font-style:normal;font-variant:normal;font-weight:normal;font-stretch:normal;line-height:125%;font-family:Droid Sans;-inkscape-font-specification:'Droid Sans, Normal';font-variant-ligatures:normal;font-variant-caps:normal;font-variant-numeric:normal;font-variant-east-asian:normal;text-align:start;letter-spacing:0px;word-spacing:0px;writing-mode:lr-tb;text-anchor:start;stroke-linecap:butt;stroke-linejoin:miter;" stroke="none" fill="#ffffff" fill-opacity="1" gorn="0.3.0.0.39" stroke-width="0.0746712">
                    <path font-size="0.398247" id="path3718"  style="font-style:normal;font-variant:normal;font-weight:normal;font-stretch:normal;font-family:Droid Sans;-inkscape-font-specification:'Droid Sans, Normal';font-variant-ligatures:normal;font-variant-caps:normal;font-variant-numeric:normal;font-variant-east-asian:normal;" d="m 81.054832,42.576954 v -1.007345 h 0.128157 v 0.892968 h 0.394808 v 0.114377 z" fill="#ffffff" gorn="0.3.0.0.39.0" stroke-width="0.0746712"/>
                    <path font-size="0.398247" id="path3720"  style="font-style:normal;font-variant:normal;font-weight:normal;font-stretch:normal;font-family:Droid Sans;-inkscape-font-specification:'Droid Sans, Normal';font-variant-ligatures:normal;font-variant-caps:normal;font-variant-numeric:normal;font-variant-east-asian:normal;" d="m 82.029793,42.590734 q -0.07579,0 -0.138493,-0.02549 -0.0627,-0.02549 -0.108176,-0.07441 -0.04479,-0.04892 -0.06959,-0.121268 -0.0248,-0.07235 -0.0248,-0.165364 0,-0.09371 0.02274,-0.167432 0.02274,-0.07373 0.06408,-0.124712 0.04134,-0.05168 0.09853,-0.07855 0.05788,-0.02687 0.127468,-0.02687 0.06821,0 0.122645,0.0248 0.05443,0.02412 0.09233,0.0689 0.0379,0.0441 0.05788,0.106798 0.02067,0.06201 0.02067,0.137803 v 0.07786 h -0.476801 q 0.0034,0.132981 0.05581,0.195682 0.05305,0.0627 0.157096,0.0627 0.03514,0 0.06477,-0.0034 0.03032,-0.0034 0.05788,-0.0096 0.02825,-0.0069 0.05443,-0.01654 0.02618,-0.01034 0.05305,-0.02274 v 0.111621 q -0.02756,0.01309 -0.05443,0.02274 -0.02618,0.0096 -0.05443,0.01585 -0.02756,0.0062 -0.05788,0.009 -0.02963,0.0028 -0.06477,0.0028 z m -0.03101,-0.680061 q -0.07855,0 -0.124712,0.05374 -0.04548,0.05374 -0.05306,0.156408 h 0.338997 q 0,-0.04685 -0.0096,-0.08544 -0.009,-0.03927 -0.02894,-0.06683 -0.01929,-0.02756 -0.04961,-0.04272 -0.03032,-0.01516 -0.07304,-0.01516 z" fill="#ffffff" gorn="0.3.0.0.39.1" stroke-width="0.0746712"/>
                    <path font-size="0.398247" id="path3722"  style="font-style:normal;font-variant:normal;font-weight:normal;font-stretch:normal;font-family:Droid Sans;-inkscape-font-specification:'Droid Sans, Normal';font-variant-ligatures:normal;font-variant-caps:normal;font-variant-numeric:normal;font-variant-east-asian:normal;" d="m 82.624416,42.576954 -0.258382,-0.756543 h 0.129536 l 0.137114,0.420991 q 0.0076,0.02274 0.01792,0.05857 0.01033,0.03583 0.02067,0.07304 0.01034,0.03721 0.0186,0.07028 0.009,0.03307 0.01171,0.0503 h 0.0048 q 0.0034,-0.01723 0.01171,-0.0503 0.0083,-0.03307 0.0186,-0.07028 0.01033,-0.03721 0.02067,-0.07304 0.01033,-0.03583 0.01791,-0.05857 l 0.137115,-0.420991 h 0.129535 l -0.258382,0.756543 z" fill="#ffffff" gorn="0.3.0.0.39.2" stroke-width="0.0746712"/>
                    <path font-size="0.398247" id="path3724"  style="font-style:normal;font-variant:normal;font-weight:normal;font-stretch:normal;font-family:Droid Sans;-inkscape-font-specification:'Droid Sans, Normal';font-variant-ligatures:normal;font-variant-caps:normal;font-variant-numeric:normal;font-variant-east-asian:normal;" d="m 83.460884,42.590734 q -0.07579,0 -0.138492,-0.02549 -0.0627,-0.02549 -0.108176,-0.07441 -0.04479,-0.04892 -0.06959,-0.121268 -0.02481,-0.07235 -0.02481,-0.165364 0,-0.09371 0.02274,-0.167432 0.02274,-0.07373 0.06408,-0.124712 0.04134,-0.05168 0.09853,-0.07855 0.05788,-0.02687 0.127469,-0.02687 0.06821,0 0.122645,0.0248 0.05443,0.02412 0.09233,0.0689 0.0379,0.0441 0.05788,0.106798 0.02067,0.06201 0.02067,0.137803 v 0.07786 h -0.476801 q 0.0034,0.132981 0.05581,0.195682 0.05306,0.0627 0.157097,0.0627 0.03514,0 0.06477,-0.0034 0.03032,-0.0034 0.05788,-0.0096 0.02825,-0.0069 0.05443,-0.01654 0.02618,-0.01034 0.05306,-0.02274 v 0.111621 q -0.02756,0.01309 -0.05443,0.02274 -0.02618,0.0096 -0.05443,0.01585 -0.02756,0.0062 -0.05788,0.009 -0.02963,0.0028 -0.06477,0.0028 z m -0.031,-0.680061 q -0.07855,0 -0.124713,0.05374 -0.04547,0.05374 -0.05305,0.156408 h 0.338997 q 0,-0.04685 -0.0096,-0.08544 -0.009,-0.03927 -0.02894,-0.06683 -0.01929,-0.02756 -0.04961,-0.04272 -0.03032,-0.01516 -0.07304,-0.01516 z" fill="#ffffff" gorn="0.3.0.0.39.3" stroke-width="0.0746712"/>
                    <path font-size="0.398247" id="path3726"  style="font-style:normal;font-variant:normal;font-weight:normal;font-stretch:normal;font-family:Droid Sans;-inkscape-font-specification:'Droid Sans, Normal';font-variant-ligatures:normal;font-variant-caps:normal;font-variant-numeric:normal;font-variant-east-asian:normal;" d="m 84.042416,42.576954 h -0.125401 v -1.072113 h 0.125401 z" fill="#ffffff" gorn="0.3.0.0.39.4" stroke-width="0.0746712"/>
                    <path font-size="0.398247" id="path3728"  style="font-style:normal;font-variant:normal;font-weight:normal;font-stretch:normal;font-family:Droid Sans;-inkscape-font-specification:'Droid Sans, Normal';font-variant-ligatures:normal;font-variant-caps:normal;font-variant-numeric:normal;font-variant-east-asian:normal;" d="m 85.196522,42.307548 q 0,0.06683 -0.02411,0.119889 -0.02343,0.05237 -0.06752,0.08888 -0.0441,0.03652 -0.107487,0.05581 -0.06339,0.0186 -0.142627,0.0186 -0.07648,0 -0.143316,-0.0124 -0.06615,-0.01171 -0.110932,-0.03514 v -0.122645 q 0.02343,0.01102 0.05306,0.02205 0.03032,0.01034 0.06339,0.0186 0.03307,0.0083 0.06821,0.01378 0.03514,0.0048 0.06959,0.0048 0.110243,0 0.162609,-0.04134 0.05305,-0.04134 0.05305,-0.118511 0,-0.03721 -0.01033,-0.06477 -0.0096,-0.02756 -0.03514,-0.0503 -0.02481,-0.02343 -0.06683,-0.04479 -0.04203,-0.02205 -0.106109,-0.04754 -0.06132,-0.02412 -0.106798,-0.05237 -0.04479,-0.02894 -0.07441,-0.06477 -0.02894,-0.03583 -0.04341,-0.0813 -0.01378,-0.04548 -0.01378,-0.103353 0,-0.06063 0.02205,-0.108176 0.02205,-0.04754 0.06201,-0.07993 0.03996,-0.03307 0.09509,-0.0503 0.05581,-0.01723 0.122645,-0.01723 0.08199,0 0.14745,0.01585 0.06546,0.01516 0.116444,0.03927 l -0.04616,0.107487 q -0.04479,-0.01998 -0.101975,-0.03445 -0.0565,-0.01516 -0.117133,-0.01516 -0.08406,0 -0.130225,0.03927 -0.04616,0.03859 -0.04616,0.104731 0,0.03927 0.01034,0.06821 0.01034,0.02825 0.03445,0.05168 0.02412,0.02274 0.06339,0.04341 0.03996,0.01998 0.09784,0.04272 0.0627,0.0248 0.109554,0.05099 0.04754,0.02618 0.07924,0.05926 0.03169,0.03307 0.04754,0.07648 0.01654,0.04341 0.01654,0.102664 z" fill="#ffffff" gorn="0.3.0.0.39.5" stroke-width="0.0746712"/>
                    <path font-size="0.398247" id="path3730"  style="font-style:normal;font-variant:normal;font-weight:normal;font-stretch:normal;font-family:Droid Sans;-inkscape-font-specification:'Droid Sans, Normal';font-variant-ligatures:normal;font-variant-caps:normal;font-variant-numeric:normal;font-variant-east-asian:normal;" d="m 85.853846,42.576954 v -0.487136 q 0,-0.08957 -0.03652,-0.134359 -0.03583,-0.04479 -0.112999,-0.04479 -0.05581,0 -0.09371,0.01791 -0.0379,0.01792 -0.06132,0.05306 -0.02274,0.03514 -0.03307,0.08613 -0.0096,0.05099 -0.0096,0.117133 v 0.392052 h -0.125402 v -1.072113 h 0.125402 v 0.318327 l -0.0055,0.09922 h 0.0069 q 0.01722,-0.02963 0.04065,-0.05099 0.02412,-0.02205 0.05237,-0.03652 0.02825,-0.01447 0.05994,-0.02136 0.03169,-0.0069 0.06477,-0.0069 0.12609,0 0.18948,0.06615 0.06408,0.06546 0.06408,0.210151 v 0.494026 z" fill="#ffffff" gorn="0.3.0.0.39.6" stroke-width="0.0746712"/>
                    <path font-size="0.398247" id="path3732"  style="font-style:normal;font-variant:normal;font-weight:normal;font-stretch:normal;font-family:Droid Sans;-inkscape-font-specification:'Droid Sans, Normal';font-variant-ligatures:normal;font-variant-caps:normal;font-variant-numeric:normal;font-variant-east-asian:normal;" d="m 86.337537,42.576954 h -0.125401 v -0.756543 h 0.125401 z M 86.20249,41.615773 q 0,-0.04134 0.02067,-0.05994 0.02136,-0.0186 0.05237,-0.0186 0.01516,0 0.02825,0.0048 0.01378,0.0041 0.02343,0.01378 0.01033,0.0096 0.01585,0.02481 0.0062,0.01447 0.0062,0.03514 0,0.03996 -0.02205,0.05995 -0.02136,0.01929 -0.05168,0.01929 -0.03101,0 -0.05237,-0.01929 -0.02067,-0.01929 -0.02067,-0.05995 z" fill="#ffffff" gorn="0.3.0.0.39.7" stroke-width="0.0746712"/>
                    <path font-size="0.398247" id="path3734"  style="font-style:normal;font-variant:normal;font-weight:normal;font-stretch:normal;font-family:Droid Sans;-inkscape-font-specification:'Droid Sans, Normal';font-variant-ligatures:normal;font-variant-caps:normal;font-variant-numeric:normal;font-variant-east-asian:normal;" d="m 86.905978,41.914807 h -0.16881 v 0.662147 h -0.12609 v -0.662147 h -0.13367 v -0.05168 l 0.13367,-0.04685 v -0.06614 q 0,-0.07373 0.01516,-0.121957 0.01585,-0.04892 0.04479,-0.07786 0.02963,-0.02894 0.07235,-0.04065 0.04272,-0.0124 0.09646,-0.0124 0.04065,0 0.07441,0.0083 0.03445,0.0076 0.06132,0.01722 l -0.03238,0.09715 q -0.02136,-0.0076 -0.04685,-0.01309 -0.0248,-0.0062 -0.05237,-0.0062 -0.02756,0 -0.04754,0.0069 -0.01998,0.0062 -0.03307,0.02274 -0.01309,0.01654 -0.01998,0.04548 -0.0062,0.02825 -0.0062,0.07304 v 0.07166 h 0.16881 z" fill="#ffffff" gorn="0.3.0.0.39.8" stroke-width="0.0746712"/>
                    <path font-size="0.398247" id="path3736"  style="font-style:normal;font-variant:normal;font-weight:normal;font-stretch:normal;font-family:Droid Sans;-inkscape-font-specification:'Droid Sans, Normal';font-variant-ligatures:normal;font-variant-caps:normal;font-variant-numeric:normal;font-variant-east-asian:normal;" d="m 87.270468,42.48807 q 0.0124,0 0.02756,-0.0014 0.01585,-0.0014 0.03032,-0.0034 0.01447,-0.0021 0.02618,-0.0048 0.0124,-0.0028 0.0186,-0.0048 v 0.09508 q -0.009,0.0041 -0.02274,0.0083 -0.01378,0.0041 -0.03032,0.0069 -0.01654,0.0034 -0.03445,0.0048 -0.01792,0.0021 -0.03514,0.0021 -0.04272,0 -0.07924,-0.01102 -0.03652,-0.01102 -0.06339,-0.0379 -0.02618,-0.02687 -0.04134,-0.07235 -0.01516,-0.04616 -0.01516,-0.115755 V 41.91492 h -0.106797 v -0.05581 l 0.106797,-0.05374 0.05374,-0.158474 h 0.07235 v 0.173632 h 0.190169 v 0.0944 h -0.190169 v 0.438905 q 0,0.06683 0.02136,0.100597 0.02205,0.03376 0.07166,0.03376 z" fill="#ffffff" gorn="0.3.0.0.39.9" stroke-width="0.0746712"/>
                </g>
            </g>
        </g>
    </g>
</svg>
