<?xml version='1.0' encoding='utf-8'?>
<!DOCTYPE svg>
<!-- Generator: Adobe Illustrator 18.0.0, SVG Export Plug-In . SVG Version: 6.00 Build 0)  -->
<svg xmlns="http://www.w3.org/2000/svg" id="Layer_2" viewBox="0 0 28.4 35.4" xml:space="preserve" x="0in" y="0in" xmlns:xml="http://www.w3.org/XML/1998/namespace" gorn="0" version="1.1" width="0.39375in" enable-background="new 0 0 28.4 35.4" height="0.492083in" >
    <desc >
        <referenceFile >BMP180_BREADBOARD_v3.svg</referenceFile>
    </desc>
    <path d="M28.4,35.4H0V0h28.4V35.4z M2.2,4.8C2.2,5.5,2.7,6,3.4,6s1.2-0.5,1.2-1.2c0-0.7-0.5-1.2-1.2-1.2S2.2,4.2,2.2,4.8z M9.4,4.8C9.4,5.5,9.9,6,10.6,6s1.2-0.5,1.2-1.2c0-0.7-0.5-1.2-1.2-1.2S9.4,4.2,9.4,4.8z M16.6,4.8c0,0.7,0.5,1.2,1.2,1.2S19,5.5,19,4.8c0-0.7-0.5-1.2-1.2-1.2S16.6,4.2,16.6,4.8z M23.8,4.8C23.8,5.5,24.3,6,25,6s1.2-0.5,1.2-1.2c0-0.7-0.5-1.2-1.2-1.2S23.8,4.2,23.8,4.8z M21,23.5c-2.3,0-4.2,1.9-4.2,4.2s1.9,4.2,4.2,4.2s4.2-1.9,4.2-4.2S23.3,23.5,21,23.5z" fill="#0E84CC" />
    <g >
        <rect x="15.7" y="9" width="3.6" fill="#303030" height="6.5" />
        <polyline points="15.7,9 15.6,8.6 19.6,8.6 19.3,9 " fill="#1F1F1F" />
        <polygon points="15.6,15.9 19.6,15.9 19.3,15.5 15.7,15.5 " fill="#1F1F1F" />
        <polygon points="19.6,15.9 19.3,15.5 19.3,9 19.6,8.6 19.6,15.8 " fill="#3D3D3D" />
        <polygon points="15.6,15.9 15.7,15.5 15.7,9 15.6,8.6 15.6,15.8 " />
        <rect x="19.6" y="11.7" width="1.4" fill="#999999" height="1.3" />
        <rect x="14.3" y="9.3" width="1.3" fill="#999999" height="1.1" />
        <rect x="14.3" y="14.2" width="1.3" fill="#999999" height="1.1" />
    </g>
    <g transform="matrix(1, 0, 0, 1, 48.9942, 58.6635)" >
        <g >
            <g >
                <g id="_x30_603-cap_3_" gorn="0.3.0.0.0" >
                    <g transform="matrix(1, 0, 0, 1, 10.275, 76.1789)" >
                        <g >
                            <g >
                                <g id="_x30_402-cap_3_" gorn="0.3.0.0.0.0.0.0.0" >
                                    <g transform="matrix(0, 1, -1, 0, 4.1105, -1.5595)" >
                                        <g >
                                            <g >
                                                <g >
                                                    <g >
                                                        <g >
                                                            <g transform="matrix(2.578893e-006 1 -1 2.578893e-006 -58.499 170.5992)" >
                                                                <g >
                                                                    <g >
                                                                        <rect x="-116.8" y="54.9" width="4.5" fill="#64534B" height="2.3" />
                                                                    </g>
                                                                </g>
                                                            </g>
                                                            <polygon opacity="0.2" points="-115.6,53.9 -115.6,58.4 -115.6,58.4 " enable-background="new    " fill="#010101" />
                                                            <polygon opacity="0.2" points="-113.3,53.9 -113.3,58.4 -113.3,58.4 " enable-background="new    " fill="#FFFFFF" />
                                                        </g>
                                                        <g >
                                                            <path d="M-113.4,57.8L-113.4,57.8L-113.4,57.8L-113.4,57.8L-113.4,57.8c-0.2-0.1-0.7-0.1-0.9-0.1c-0.2,0-1.2,0-1.4,0.1v0.7h2.3V57.8z" fill="#DDDDDC" />
                                                            <path d="M-113.5,54.6L-113.5,54.6l0.1-0.7h-2.3v0.7c0.2,0.1,1.2,0.1,1.4,0.1C-114.1,54.7-113.7,54.7-113.5,54.6z" fill="#DDDDDC" />
                                                            <polygon opacity="0.15" points="-115.6,53.9 -115.6,54.6 -115.6,54.6 " enable-background="new    " fill="#010101" />
                                                            <polygon opacity="0.5" points="-113.4,53.8 -113.4,54.5 -113.4,54.5 " enable-background="new    " fill="#FFFFFF" />
                                                            <path d="M-115.7,58.4v-0.7" fill="#D1C690" />
                                                            <polygon opacity="0.15" points="-115.6,57.7 -115.6,58.4 -115.6,58.4 " enable-background="new    " fill="#010101" />
                                                            <polygon opacity="0.5" points="-113.4,57.7 -113.4,58.4 -113.4,58.4 " enable-background="new    " fill="#FFFFFF" />
                                                            <line y1="54.3" y2="54.3" x1="-115.7" x2="-115.7" fill="none" />
                                                        </g>
                                                    </g>
                                                </g>
                                            </g>
                                        </g>
                                    </g>
                                </g>
                            </g>
                        </g>
                    </g>
                    <rect x="-44" y="-41" opacity="0.1" width="0.1" enable-background="new    " fill="#010101" height="2.2" />
                    <rect x="-39.6" y="-41" opacity="0.2" width="0.1" enable-background="new    " fill="#FFFFFF" height="2.2" />
                </g>
            </g>
        </g>
    </g>
    <g transform="matrix(1, 0, 0, 1, 48.9942, 58.6635)" >
        <g >
            <g >
                <g id="_x30_603-cap_1_" gorn="0.4.0.0.0" >
                    <g transform="matrix(1, 0, 0, 1, 10.275, 76.1789)" >
                        <g >
                            <g >
                                <g id="_x30_402-cap_1_" gorn="0.4.0.0.0.0.0.0.0" >
                                    <g transform="matrix(0, 1, -1, 0, 4.1105, -1.5595)" >
                                        <g >
                                            <g >
                                                <g >
                                                    <g >
                                                        <g >
                                                            <g transform="matrix(2.578893e-006 1 -1 2.578893e-006 -82.1642 159.6022)" >
                                                                <g >
                                                                    <g >
                                                                        <rect x="-122" y="36.5" width="2.3" fill="#64534B" height="4.5" />
                                                                    </g>
                                                                </g>
                                                            </g>
                                                            <polygon opacity="0.2" points="-123.1,39.8 -118.6,39.8 -118.6,39.8 " enable-background="new    " fill="#010101" />
                                                            <polygon opacity="0.2" points="-123.1,37.5 -118.6,37.5 -118.6,37.5 " enable-background="new    " fill="#FFFFFF" />
                                                        </g>
                                                        <g >
                                                            <path d="M-119.2,37.6L-119.2,37.6L-119.2,37.6L-119.2,37.6L-119.2,37.6c-0.1,0.2-0.1,0.7-0.1,0.9s0,1.2,0.1,1.4h0.7v-2.3H-119.2z" fill="#DDDDDC" />
                                                            <path d="M-122.4,37.7L-122.4,37.7l-0.7-0.1v2.3h0.7c0.1-0.2,0.1-1.2,0.1-1.4S-122.3,37.9-122.4,37.7z" fill="#DDDDDC" />
                                                            <polygon opacity="0.15" points="-123.1,39.8 -122.4,39.8 -122.4,39.8 " enable-background="new    " fill="#010101" />
                                                            <polygon opacity="0.5" points="-123.2,37.6 -122.5,37.6 -122.5,37.6 " enable-background="new    " fill="#FFFFFF" />
                                                            <path d="M-118.6,39.9h-0.7" fill="#D1C690" />
                                                            <polygon opacity="0.15" points="-119.3,39.8 -118.6,39.8 -118.6,39.8 " enable-background="new    " fill="#010101" />
                                                            <polygon opacity="0.5" points="-119.3,37.6 -118.6,37.6 -118.6,37.6 " enable-background="new    " fill="#FFFFFF" />
                                                            <line y1="39.9" y2="39.9" x1="-122.7" x2="-122.7" fill="none" />
                                                        </g>
                                                    </g>
                                                </g>
                                            </g>
                                        </g>
                                    </g>
                                </g>
                            </g>
                        </g>
                    </g>
                    <rect x="-25.4" y="-44.1" opacity="0.1" width="2.2" enable-background="new    " fill="#010101" height="0.1" />
                    <rect x="-25.4" y="-48.5" opacity="0.2" width="2.2" enable-background="new    " fill="#FFFFFF" height="0.1" />
                </g>
            </g>
        </g>
    </g>
    <g transform="matrix(1, 0, 0, 1, 48.9942, 58.6635)" >
        <g >
            <g >
                <g id="_x30_603-cap_2_" gorn="0.5.0.0.0" >
                    <g transform="matrix(1, 0, 0, 1, 10.275, 76.1789)" >
                        <g >
                            <g >
                                <g id="_x30_402-cap_2_" gorn="0.5.0.0.0.0.0.0.0" >
                                    <g transform="matrix(0, 1, -1, 0, 4.1105, -1.5595)" >
                                        <g >
                                            <g >
                                                <g >
                                                    <g >
                                                        <g >
                                                            <g transform="matrix(2.578893e-006 1 -1 2.578893e-006 -67.6934 173.7896)" >
                                                                <g >
                                                                    <g >
                                                                        <rect x="-121.9" y="50.8" width="2.3" fill="#64534B" height="4.5" />
                                                                    </g>
                                                                </g>
                                                            </g>
                                                            <polygon opacity="0.2" points="-122.9,54.1 -118.4,54.1 -118.4,54.1 " enable-background="new    " fill="#010101" />
                                                            <polygon opacity="0.2" points="-122.9,51.8 -118.4,51.8 -118.4,51.8 " enable-background="new    " fill="#FFFFFF" />
                                                        </g>
                                                        <g >
                                                            <path d="M-119,51.9L-119,51.9L-119,51.9L-119,51.9L-119,51.9c-0.1,0.2-0.1,0.7-0.1,0.9s0,1.2,0.1,1.4h0.7v-2.3H-119z" fill="#DDDDDC" />
                                                            <path d="M-122.2,52L-122.2,52l-0.7-0.1v2.3h0.7c0.1-0.2,0.1-1.2,0.1-1.4S-122.1,52.2-122.2,52z" fill="#DDDDDC" />
                                                            <polygon opacity="0.15" points="-122.9,54.1 -122.2,54.1 -122.2,54.1 " enable-background="new    " fill="#010101" />
                                                            <polygon opacity="0.5" points="-123,51.9 -122.3,51.9 -122.3,51.9 " enable-background="new    " fill="#FFFFFF" />
                                                            <path d="M-118.4,54.2h-0.7" fill="#D1C690" />
                                                            <polygon opacity="0.15" points="-119.1,54.1 -118.4,54.1 -118.4,54.1 " enable-background="new    " fill="#010101" />
                                                            <polygon opacity="0.5" points="-119.1,51.9 -118.4,51.9 -118.4,51.9 " enable-background="new    " fill="#FFFFFF" />
                                                            <line y1="54.2" y2="54.2" x1="-122.5" x2="-122.5" fill="none" />
                                                        </g>
                                                    </g>
                                                </g>
                                            </g>
                                        </g>
                                    </g>
                                </g>
                            </g>
                        </g>
                    </g>
                    <rect x="-39.7" y="-43.9" opacity="0.1" width="2.2" enable-background="new    " fill="#010101" height="0.1" />
                    <rect x="-39.7" y="-48.3" opacity="0.2" width="2.2" enable-background="new    " fill="#FFFFFF" height="0.1" />
                </g>
            </g>
        </g>
    </g>
    <g transform="matrix(1, 0, 0, 1, 16.5942, 98.2634)" >
        <g >
            <g >
                <g id="_x30_603-res_1_" gorn="0.6.0.0.0" >
                    <g transform="matrix(1, 0, 0, 1, 10.275, 83.3789)" >
                        <g >
                            <g >
                                <g id="_x30_402-res_1_" gorn="0.6.0.0.0.0.0.0.0" >
                                    <g transform="matrix(0, 1, -1, 0, 4.1105, -1.5595)" >
                                        <g >
                                            <g >
                                                <g >
                                                    <g >
                                                        <g >
                                                            <g transform="matrix(2.578893e-006 1 -1 2.578893e-006 -143.3193 192.0997)" >
                                                                <g >
                                                                    <g >
                                                                        <rect x="-168.9" y="22.1" width="2.3" fill="#333333" height="4.5" />
                                                                    </g>
                                                                </g>
                                                            </g>
                                                            <polygon opacity="0.2" points="-169.9,25.5 -165.4,25.5 -165.4,25.5 " enable-background="new    " fill="#010101" />
                                                        </g>
                                                        <g >
                                                            <path d="M-166,23.3L-166,23.3L-166,23.3L-166,23.3L-166,23.3c-0.1,0.2-0.1,0.7-0.1,0.9c0,0.2,0,1.2,0.1,1.4h0.7v-2.3H-166z" fill="#CDCCCC" />
                                                            <path d="M-169.2,23.4L-169.2,23.4l-0.7-0.1v2.3h0.7c0.1-0.2,0.1-1,0.1-1.1C-169.1,24.2-169.1,23.6-169.2,23.4z" fill="#CDCCCC" />
                                                            <polygon opacity="0.15" points="-169.9,25.5 -169.2,25.5 -169.2,25.5 " enable-background="new    " fill="#010101" />
                                                            <polygon opacity="0.5" points="-169.9,23.3 -169.2,23.3 -169.2,23.3 " enable-background="new    " fill="#FFFFFF" />
                                                            <polygon opacity="0.15" points="-166.1,25.6 -165.4,25.6 -165.4,25.6 " enable-background="new    " fill="#010101" />
                                                            <polygon opacity="0.5" points="-166.1,23.3 -165.4,23.3 -165.4,23.3 " enable-background="new    " fill="#FFFFFF" />
                                                            <line y1="25.6" y2="25.6" x1="-169.5" x2="-169.5" fill="none" />
                                                        </g>
                                                    </g>
                                                </g>
                                            </g>
                                        </g>
                                    </g>
                                </g>
                            </g>
                        </g>
                    </g>
                    <rect x="-11.1" y="-83.7" opacity="0.1" width="2.3" enable-background="new    " fill="#010101" height="0.1" />
                    <rect x="-11.1" y="-88.1" opacity="0.2" width="2.3" enable-background="new    " fill="#FFFFFF" height="0.1" />
                    <g transform="matrix(4.489659e-011 -1 1 4.489659e-011 -9.608 -84.7717)" >
                        <g >
                            <g >
                                <text font-family="OCRA" fill="#FFFFFF"  font-size="1.0004">103</text>
                            </g>
                        </g>
                    </g>
                </g>
            </g>
        </g>
    </g>
    <g transform="matrix(1, 0, 0, 1, 16.5942, 98.2634)" >
        <g >
            <g >
                <g id="_x30_603-res_2_" gorn="0.7.0.0.0" >
                    <g transform="matrix(1, 0, 0, 1, 10.275, 83.3789)" >
                        <g >
                            <g >
                                <g id="_x30_402-res_2_" gorn="0.7.0.0.0.0.0.0.0" >
                                    <g transform="matrix(0, 1, -1, 0, 4.1105, -1.5595)" >
                                        <g >
                                            <g >
                                                <g >
                                                    <g >
                                                        <g >
                                                            <g transform="matrix(2.578893e-006 1 -1 2.578893e-006 -139.4075 196.0115)" >
                                                                <g >
                                                                    <g >
                                                                        <rect x="-168.9" y="26.1" width="2.3" fill="#333333" height="4.5" />
                                                                    </g>
                                                                </g>
                                                            </g>
                                                            <polygon opacity="0.2" points="-169.9,29.4 -165.4,29.4 -165.4,29.4 " enable-background="new    " fill="#010101" />
                                                        </g>
                                                        <g >
                                                            <path d="M-166,27.2L-166,27.2L-166,27.2L-166,27.2L-166,27.2c-0.1,0.2-0.1,0.7-0.1,0.9c0,0.2,0,1.2,0.1,1.4h0.7v-2.3H-166z" fill="#CDCCCC" />
                                                            <path d="M-169.2,27.3L-169.2,27.3l-0.7-0.1v2.3h0.7c0.1-0.2,0.1-1,0.1-1.1C-169.1,28.1-169.1,27.5-169.2,27.3z" fill="#CDCCCC" />
                                                            <polygon opacity="0.15" points="-169.9,29.4 -169.2,29.4 -169.2,29.4 " enable-background="new    " fill="#010101" />
                                                            <polygon opacity="0.5" points="-169.9,27.2 -169.2,27.2 -169.2,27.2 " enable-background="new    " fill="#FFFFFF" />
                                                            <polygon opacity="0.15" points="-166.1,29.5 -165.4,29.5 -165.4,29.5 " enable-background="new    " fill="#010101" />
                                                            <polygon opacity="0.5" points="-166.1,27.2 -165.4,27.2 -165.4,27.2 " enable-background="new    " fill="#FFFFFF" />
                                                            <line y1="29.5" y2="29.5" x1="-169.5" x2="-169.5" fill="none" />
                                                        </g>
                                                    </g>
                                                </g>
                                            </g>
                                        </g>
                                    </g>
                                </g>
                            </g>
                        </g>
                    </g>
                    <rect x="-15" y="-83.7" opacity="0.1" width="2.3" enable-background="new    " fill="#010101" height="0.1" />
                    <rect x="-15" y="-88.1" opacity="0.2" width="2.3" enable-background="new    " fill="#FFFFFF" height="0.1" />
                    <g transform="matrix(4.489659e-011 -1 1 4.489659e-011 -13.5199 -84.7717)" >
                        <g >
                            <g >
                                <text font-family="OCRA" fill="#FFFFFF"  font-size="1.0004">103</text>
                            </g>
                        </g>
                    </g>
                </g>
            </g>
        </g>
    </g>
    <path d="M21,22c-3.1,0-5.7,2.5-5.7,5.7s2.5,5.7,5.7,5.7s5.7-2.5,5.7-5.7S24.2,22,21,22z M21,31.8c-2.3,0-4.2-1.9-4.2-4.2s1.9-4.2,4.2-4.2s4.2,1.9,4.2,4.2S23.3,31.8,21,31.8z" fill="#999999" />
    <g id="BMP180" gorn="0.9" >
        <rect x="2.6" y="21.2" width="9.8" fill="#E0E0E0" height="10.6" />
        <g >
            <path d="M11.8,29.6c0,0.8-0.6,1.4-1.4,1.4H4.5c-0.8,0-1.4-0.6-1.4-1.4v-6.2c0-0.8,0.6-1.4,1.4-1.4h5.9c0.8,0,1.4,0.6,1.4,1.4V29.6z" fill="#999999" />
        </g>
        <circle cx="4.6" cy="24.7" fill="#414141"  r="0.6"/>
    </g>
    <g id="silkscreen" gorn="0.10" >
        <path d="M12,17.5h0.6h0.6l0,0c0.2,0,0.3,0.1,0.4,0.2c0,0,0.1,0.1,0.1,0.1c0.1,0.1,0.1,0.2,0.1,0.4c0,0,0,0.2,0,0.3c0,0.2-0.1,0.4-0.2,0.5l0,0l0,0c0,0,0.1,0.1,0.1,0.1c0.1,0.1,0.1,0.2,0.1,0.3c0,0,0,0,0,0.2c0,0.1,0,0.1,0,0.2c0,0.1-0.1,0.3-0.2,0.4c0,0-0.1,0.1-0.1,0.1c-0.1,0.1-0.2,0.1-0.3,0.2c-0.1,0-0.1,0-0.7,0H12v-1.6V17.5z M13.1,17.9h-0.4l-0.4,0v0.5v0.5l0.4,0h0.4l0,0c0.1,0,0.3-0.1,0.3-0.3c0,0,0-0.1,0-0.2c0-0.1,0-0.1,0-0.1c0-0.1-0.1-0.2-0.2-0.3C13.2,18,13.2,17.9,13.1,17.9L13.1,17.9z M13.1,19.3h-0.4l-0.4,0v0.5v0.5l0.4,0l0.4,0l0,0c0.1,0,0.2-0.1,0.3-0.2c0,0,0-0.1,0-0.1c0,0,0,0,0-0.1s0-0.1,0-0.1c0-0.1-0.1-0.2-0.2-0.3C13.2,19.3,13.2,19.3,13.1,19.3L13.1,19.3z" fill="#FFFFFF" />
        <path d="M14.4,17.5h0.2h0.2l0,0l0.2,0.3l0.2,0.3l0,0l0.2-0.3l0.2-0.3H16h0.2l0,1.5c0,1.4,0,1.5,0,1.5c0,0.1-0.1,0.1-0.1,0.1c0,0-0.1,0-0.1,0c0,0,0,0-0.1,0c0,0,0-0.1-0.1-0.1c0,0,0-0.1,0-1.2l0-1.2l-0.2,0.3l-0.2,0.3v0.1c0,0.1,0,0.1,0,0.1c0,0,0,0.1-0.1,0.1c0,0-0.1,0-0.1,0c0,0-0.1,0-0.1,0c0,0-0.1-0.1-0.1-0.1s0,0,0-0.1l0-0.1l-0.2-0.3l-0.2-0.3l0,1.2c0,1.1,0,1.2,0,1.2c0,0.1-0.1,0.1-0.1,0.1c0,0-0.1,0-0.1,0c0,0,0,0-0.1,0c0,0,0,0,0-0.1c0,0,0,0.1,0-1.5L14.4,17.5L14.4,17.5z" fill="#FFFFFF" />
        <path d="M16.8,17.5h0.7c0.8,0,0.7,0,0.8,0c0.2,0.1,0.4,0.3,0.4,0.5c0,0,0,0.8,0,0.8c0,0.3-0.2,0.5-0.5,0.5c0,0-0.1,0-0.5,0h-0.5l0,0.5c0,0.6,0,0.5,0,0.6c0,0,0,0.1-0.1,0.1c0,0-0.1,0-0.1,0c0,0,0,0-0.1,0s0,0,0-0.1c0,0,0,0.1,0-1.5C16.8,19,16.8,17.5,16.8,17.5z M17.6,17.9h-0.5v0.6V19l0.5,0c0.5,0,0.5,0,0.5,0c0,0,0.1-0.1,0.1-0.1c0,0,0,0,0-0.4v-0.4l0,0c0-0.1-0.1-0.1-0.1-0.1C18.1,17.9,18.1,17.9,17.6,17.9z" fill="#FFFFFF" />
        <path d="M19.8,17.5h0.5v1.4v1.4h0.2h0.2v-0.4c0-0.4,0-0.4,0-0.5c0,0,0,0,0,0c0,0,0-0.1,0.1-0.1c0,0,0,0,0.1,0c0,0,0.1,0,0.1,0c0,0,0,0,0.1,0.1c0,0,0,0,0,0.1c0,0,0,0.2,0,0.5c0,0.6,0,0.5,0,0.6c0,0,0,0.1-0.1,0.1c0,0,0,0,0,0c0,0-0.1,0-0.8,0h-0.8l0,0c-0.1,0-0.1-0.1-0.1-0.2s0.1-0.2,0.1-0.2l0,0l0.3,0l0.3,0v-1.1v-1.1h-0.3l-0.3,0l0,0c-0.1,0-0.1-0.1-0.1-0.1c0-0.1,0-0.1,0-0.2c0-0.1,0.1-0.1,0.1-0.1C19.3,17.5,19.5,17.5,19.8,17.5z" fill="#FFFFFF" />
        <path d="M22.5,17.5c0.4,0,0.4,0,0.4,0c0,0,0.1,0,0.1,0.1c0,0,0,0,0,0.6l0,0.6h0c0,0,0.1,0,0.1,0c0.1,0,0.2,0.2,0.3,0.3c0,0,0,0,0,0.6l0,0.5l0,0c0,0.1,0,0.1-0.1,0.2c-0.1,0.1-0.2,0.1-0.3,0.1c0,0-0.2,0-0.6,0l-0.6,0l0,0c-0.1,0-0.2-0.1-0.2-0.1c0,0-0.1-0.1-0.1-0.2c0,0,0,0,0-0.6c0-0.5,0-0.5,0-0.6c0-0.2,0.2-0.3,0.3-0.3l0,0v-0.6c0-0.6,0-0.6,0-0.6c0,0,0,0,0-0.1c0,0,0.1,0,0.1-0.1C22.1,17.5,22.2,17.5,22.5,17.5z M23,19.3h-0.6h-0.6v0.5v0.5h0.6H23v-0.5V19.3z M22.7,17.9h-0.2h-0.2v0.5v0.5h0.2h0.2v-0.5V17.9z" fill="#FFFFFF" />
        <path d="M24.9,17.5c0.6,0,0.6,0,0.6,0c0.2,0,0.3,0.2,0.3,0.3c0,0,0,0.3,0,1.2v1.2l0,0c0,0.1,0,0.1-0.1,0.2c-0.1,0.1-0.2,0.1-0.3,0.1c0,0-0.2,0-0.6,0l-0.6,0l0,0c-0.1,0-0.2-0.1-0.2-0.1c0,0-0.1-0.1-0.1-0.2c0-0.1,0,0,0-1.2s0-1.2,0-1.2c0-0.2,0.2-0.3,0.3-0.3C24.3,17.5,24.6,17.5,24.9,17.5z M25.4,17.9h-0.6h-0.6v1.1v1.1h0.6h0.6v-1.1V17.9z" fill="#FFFFFF" />
    </g>
    <g id="Connector_group" gorn="0.11" >
        <path id="connector10pin" d="M3.4,2.4C2.1,2.4,1,3.5,1,4.8s1.1,2.4,2.4,2.4s2.4-1.1,2.4-2.4C5.8,3.5,4.7,2.4,3.4,2.4z M3.4,6C2.7,6,2.2,5.5,2.2,4.8s0.5-1.2,1.2-1.2s1.2,0.5,1.2,1.2S4,6,3.4,6z" gorn="0.11.0" fill="#9A916C" />
        <path id="connector9pin" d="M10.6,2.4c-1.3,0-2.4,1.1-2.4,2.4s1.1,2.4,2.4,2.4S13,6.1,13,4.8C13,3.5,11.9,2.4,10.6,2.4z M10.6,6C9.9,6,9.4,5.5,9.4,4.8s0.5-1.2,1.2-1.2s1.2,0.5,1.2,1.2S11.2,6,10.6,6z" gorn="0.11.1" fill="#9A916C" />
        <path id="connector6pin" d="M17.8,2.4c-1.3,0-2.4,1.1-2.4,2.4s1.1,2.4,2.4,2.4s2.4-1.1,2.4-2.4C20.2,3.5,19.1,2.4,17.8,2.4z M17.8,6c-0.7,0-1.2-0.5-1.2-1.2s0.5-1.2,1.2-1.2S19,4.2,19,4.8S18.4,6,17.8,6z" gorn="0.11.2" fill="#9A916C" />
        <path id="connector5pin" d="M25,2.4c-1.3,0-2.4,1.1-2.4,2.4s1.1,2.4,2.4,2.4s2.4-1.1,2.4-2.4C27.4,3.5,26.3,2.4,25,2.4z M25,6c-0.7,0-1.2-0.5-1.2-1.2s0.5-1.2,1.2-1.2s1.2,0.5,1.2,1.2S25.6,6,25,6z" gorn="0.11.3" fill="#9A916C" />
    </g>
</svg>
