<?xml version='1.0' encoding='UTF-8' standalone='no'?>
<svg xmlns="http://www.w3.org/2000/svg"  x="0px" id="Layer_1" enable-background="new -45.8 -159.3 117.1 232" version="1.1" viewBox="0 0 39.339441 79.423376" xmlns:xml="http://www.w3.org/XML/1998/namespace" y="0px" height="1.0969977in" xml:space="preserve" gorn="0" width="0.5328185in">
    <desc >
        <referenceFile >svg.breadboard.custom_light_bulb_b93e04d392a8a8730c070a12e1a72558_8_breadboard.svg</referenceFile>
    </desc>
    <metadata  id="metadata63">
        <rdf:RDF xmlns:rdf="http://www.w3.org/1999/02/22-rdf-syntax-ns#">
            <cc:Work rdf:about="" xmlns:cc="http://creativecommons.org/ns#" xmlns:rdf="http://www.w3.org/1999/02/22-rdf-syntax-ns#">
                <dc:format xmlns:dc="http://purl.org/dc/elements/1.1/">image/svg+xml</dc:format>
                <dc:type xmlns:dc="http://purl.org/dc/elements/1.1/" rdf:resource="http://purl.org/dc/dcmitype/StillImage" xmlns:rdf="http://www.w3.org/1999/02/22-rdf-syntax-ns#"/>
                <dc:title xmlns:dc="http://purl.org/dc/elements/1.1/"/>
            </cc:Work>
        </rdf:RDF>
    </metadata>
    <defs  id="defs61"/>
    <g  transform="translate(4.9679614,11.659853)">
        <g >
            <g  id="breadboard" gorn="0.3.0.0">
                <g  transform="matrix(0.33565821,0,0,0.33565821,9.9689776,36.073759)">
                    <g >
                        <g  id="light" stroke-width="2.97922111" gorn="0.3.0.0.0.0.0">
                            <g  id="g28" stroke-width="2.97922111" gorn="0.3.0.0.0.0.0.0">
                                <path  id="path24" d="m 14,-144.54909 c -28.6,0.7 -56.6,23.8 -58.4,52.899997 -1.9,30.5 23.7,35.9 30.7,64.5 3.1,12.5 1.9,24.8000003 2.3,37.3 H 14 Z" stroke-width="2.97922111" gorn="0.3.0.0.0.0.0.0.0" fill="#fcc038"/>
                                <path  id="path26" d="m 14.2,-144.54909 c 28.6,0.7 56.6,23.8 58.4,52.899997 1.9,30.5 -23.7,35.9 -30.7,64.5 -3.2,12.6 -2,24.8000003 -2.4,37.3 H 14.2 Z" stroke-width="2.97922111" gorn="0.3.0.0.0.0.0.0.1" fill="#ffe91d"/>
                            </g>
                            <g  id="g48" stroke-width="2.97922111" gorn="0.3.0.0.0.0.0.1">
                                <g  id="g34" stroke-width="2.97922111" gorn="0.3.0.0.0.0.0.1.0">
                                    <path  id="path30" d="m -7.6,22.3 v 19.9 c 0,6.7 6.8,12.1 15.1,12.1 h 12.8 c 8.3,0 15.1,-5.4 15.1,-12.1 V 22.3 Z" stroke-width="2.97922111" gorn="0.3.0.0.0.0.0.1.0.0" fill="#8e8e8e"/>
                                    <path  id="path32" d="M 13.8,22.3 H -7.6 v 19.9 c 0,6.7 6.8,12.1 15.1,12.1 h 6.4 v -32 z" stroke-width="2.97922111" gorn="0.3.0.0.0.0.0.1.0.1" fill="#656565"/>
                                </g>
                                <g  id="g40" stroke-width="2.97922111" gorn="0.3.0.0.0.0.0.1.1">
                                    <rect  id="rect36" x="-7.5999999" y="22.299999" height="16.1" stroke-width="2.97922111" gorn="0.3.0.0.0.0.0.1.1.0" fill="#747474" width="43"/>
                                    <rect  id="rect38" x="-7.5999999" y="22.299999" height="16.1" stroke-width="2.97922111" gorn="0.3.0.0.0.0.0.1.1.1" fill="#4b4b4b" width="21.4"/>
                                </g>
                                <g  id="g46" stroke-width="2.97922111" gorn="0.3.0.0.0.0.0.1.2">
                                    <path  id="path42" d="m -15.8,-1.5 v 19.9 c 0,6.7 9.4,12.1 21,12.1 H 23 c 11.6,0 21,-5.4 21,-12.1 V -1.5 Z" stroke-width="2.97922111" gorn="0.3.0.0.0.0.0.1.2.0" fill="#8e8e8e"/>
                                    <path  id="path44" d="m 13.8,-1.5 h -29.7 v 19.9 c 0,6.7 9.4,12.1 21,12.1 h 8.7 z" stroke-width="2.97922111" gorn="0.3.0.0.0.0.0.1.2.1" fill="#656565"/>
                                </g>
                            </g>
                        </g>
                    </g>
                </g>
                <g  transform="matrix(1,0,0,0.57919071,0,28.846054)">
                    <g >
                        <g  id="connector0leg" stroke-width="1.31398129" gorn="0.3.0.0.1.0.0">
                            <path  id="path10" d="m 11.18,68.549 c -0.825,0 -1.494,-0.669 -1.494,-1.494 V 42.44 c 0,-0.825 0.669,-1.494 1.494,-1.494 0.825,0 1.494,0.669 1.494,1.494 v 24.615 c 0,0.825 -0.669,1.494 -1.494,1.494 z" stroke-width="1.31398129" gorn="0.3.0.0.1.0.0.0" fill="#8c8c8c"/>
                        </g>
                    </g>
                </g>
                <g  transform="matrix(1,0,0,0.57919071,0,28.846055)">
                    <g >
                        <g  id="connector1leg" stroke-width="1.31398141" gorn="0.3.0.0.2.0.0">
                            <path  id="path13" d="m 18.381,68.549 c -0.825,0 -1.494,-0.669 -1.494,-1.494 V 42.44 c 0,-0.825 0.669,-1.494 1.494,-1.494 0.825,0 1.494,0.669 1.494,1.494 v 24.615 c 0,0.825 -0.669,1.494 -1.494,1.494 z" stroke-width="1.31398141" gorn="0.3.0.0.2.0.0.0" fill="#8c8c8c"/>
                        </g>
                    </g>
                </g>
                <g  transform="matrix(1.3507436,0,0,4.026039,-4.0818739,-203.38578)">
                    <g >
                        <g  id="connector0pin" stroke-width="0.42881951" gorn="0.3.0.0.3.0.0">
                            <rect  id="rect4" x="10.104" y="66.821999" height="0.722" stroke-width="0.42881951" gorn="0.3.0.0.3.0.0.0" fill="none" width="2.152"/>
                        </g>
                    </g>
                </g>
                <g  transform="matrix(1.3494894,0,0,4.026039,-6.5171744,-203.38578)">
                    <g >
                        <g  id="connector1pin" stroke-width="0.42901874" gorn="0.3.0.0.4.0.0">
                            <rect  id="rect7" x="17.302999" y="66.821999" height="0.722" stroke-width="0.42901874" gorn="0.3.0.0.4.0.0.0" fill="none" width="2.154"/>
                        </g>
                    </g>
                </g>
            </g>
        </g>
    </g>
</svg>
