<?xml version='1.0' encoding='UTF-8' standalone='no'?>
<svg xmlns="http://www.w3.org/2000/svg"  width="32.959999mm" gorn="0" version="1.1" viewBox="0 0 32.959999 19.700161" id="svg8" height="19.700161mm">
    <desc >
        <referenceFile >mh-z19c.svg</referenceFile>
    </desc>
    <defs  id="defs2"/>
    <metadata  id="metadata5">
        <rdf:RDF xmlns:rdf="http://www.w3.org/1999/02/22-rdf-syntax-ns#">
            <cc:Work xmlns:rdf="http://www.w3.org/1999/02/22-rdf-syntax-ns#" rdf:about="" xmlns:cc="http://creativecommons.org/ns#">
                <dc:format xmlns:dc="http://purl.org/dc/elements/1.1/">image/svg+xml</dc:format>
                <dc:type xmlns:rdf="http://www.w3.org/1999/02/22-rdf-syntax-ns#" xmlns:dc="http://purl.org/dc/elements/1.1/" rdf:resource="http://purl.org/dc/dcmitype/StillImage"/>
                <dc:title xmlns:dc="http://purl.org/dc/elements/1.1/"/>
            </cc:Work>
        </rdf:RDF>
    </metadata>
    <g  transform="translate(-24.52,-59.999885)">
        <g >
            <g  gorn="0.3.0.0" id="breadboard">
                <path  style="opacity:1;vector-effect:none;fill-rule:evenodd;stroke-linecap:square;stroke-linejoin:miter;stroke-miterlimit:4;stroke-dasharray:none;stroke-dashoffset:0;paint-order:markers stroke fill" d="M 25.42,63.205471 H 28 v 13.3 h -2.58 c -0.4986,0 -0.9,-0.4014 -0.9,-0.9 v -11.5 c 0,-0.4986 0.4014,-0.9 0.9,-0.9 z" fill-opacity="1" gorn="0.3.0.0.0" fill="#1f7a34" id="rect3062" stroke-opacity="1" stroke-width="0.2" stroke="none"/>
                <g  transform="scale(0.26458333)">
                    <g >
                        <path  style="opacity:1;vector-effect:none;fill-rule:evenodd;stroke-linecap:square;stroke-linejoin:miter;stroke-miterlimit:4;stroke-dasharray:none;stroke-dashoffset:0;paint-order:markers stroke fill" d="m 170.14844,226.77148 h -62.89258 c -0.79143,0 -1.42969,0.63827 -1.42969,1.42969 v 71.59766 c 0,0.79142 0.63826,1.42969 1.42969,1.42969 h 95.41016 c 0.79142,0 1.42773,-0.63827 1.42773,-1.42969 v -61.73828 l -0.35742,0.21484 c 0,0 0.0409,-1.75033 -0.5918,-3.72656 -0.31635,-0.98812 -0.80135,-2.03372 -1.54297,-2.94336 -0.37081,-0.45482 -0.80589,-0.8766 -1.3164,-1.24024 -0.51052,-0.36363 -1.09706,-0.66783 -1.76954,-0.89257 -1.08907,-0.36398 -2.23463,-0.60028 -3.41406,-0.73243 -1.17943,-0.13214 -2.39201,-0.1618 -3.61523,-0.11132 -2.44645,0.10094 -4.93506,0.5186 -7.27735,1.05468 -4.68456,1.07217 -8.7873,2.62009 -10.82031,3.07032 -0.5201,0.11518 -0.96414,0.10925 -1.34179,0.01 -0.37766,-0.0995 -0.68994,-0.29188 -0.94727,-0.54883 -0.51466,-0.51389 -0.81046,-1.28556 -0.97656,-2.08593 -0.33222,-1.60075 -0.14453,-3.31641 -0.14453,-3.31641 0.0632,-0.0186 0.10685,-0.0225 0.16992,-0.041 z" fill-opacity="1" gorn="0.3.0.0.1.0.0" fill="#ffd42a" id="rect3058" stroke-opacity="1" stroke-width="0.755906" stroke="none"/>
                    </g>
                </g>
                <g  transform="scale(0.26458333)">
                    <g >
                        <path  style="opacity:1;vector-effect:none;fill-rule:evenodd;stroke-linecap:square;stroke-linejoin:miter;stroke-miterlimit:4;stroke-dasharray:none;stroke-dashoffset:0;paint-order:markers stroke fill" d="m 170.14844,226.77148 c -0.0631,0.0185 -0.10671,0.0224 -0.16992,0.041 0,0 -0.18769,1.71566 0.14453,3.31641 0.1661,0.80037 0.4619,1.57204 0.97656,2.08593 0.25733,0.25695 0.56961,0.44934 0.94727,0.54883 0.37765,0.0995 0.82169,0.10542 1.34179,-0.01 2.03301,-0.45023 6.13575,-1.99815 10.82031,-3.07032 2.34229,-0.53608 4.8309,-0.95374 7.27735,-1.05468 1.22322,-0.0505 2.4358,-0.0208 3.61523,0.11132 1.17943,0.13215 2.32499,0.36845 3.41406,0.73243 0.67248,0.22474 1.25902,0.52894 1.76954,0.89257 0.51051,0.36364 0.94559,0.78542 1.3164,1.24024 0.74162,0.90964 1.22662,1.95524 1.54297,2.94336 0.6327,1.97623 0.5918,3.72656 0.5918,3.72656 l 0.35742,-0.21484 v -9.85938 c 0,-0.79142 -0.63631,-1.42969 -1.42773,-1.42969 z" fill-opacity="1" gorn="0.3.0.0.2.0.0" fill="#d4aa00" id="path3327" stroke-opacity="1" stroke-width="0.755906" stroke="none"/>
                    </g>
                </g>
                <g  transform="translate(-32.109799,-38.567463)">
                    <g >
                        <g  gorn="0.3.0.0.3.0.0" id="g3082">
                            <path  d="m 57.964268,102.93781 h 0.811022 v 0.81026 h -0.811022 z" gorn="0.3.0.0.3.0.0.0" fill="#8d8c8c" id="rect1224" stroke-width="0"/>
                            <path  d="m 58.162205,103.13428 h 0.417682 v 0.41694 h -0.417682 z" gorn="0.3.0.0.3.0.0.1" fill="#8c8663" id="connector5pin" stroke-width="0"/>
                            <g  transform="matrix(0.352778,0,0,0.352778,57.964295,102.93779)">
                                <g >
                                    <path  d="M 0,2.2968 0.56099,1.73785 V 0.501957 L 0,0 Z" gorn="0.3.0.0.3.0.0.2.0.0" fill="#b8af82" id="polygon1228" stroke-width="0"/>
                                </g>
                            </g>
                            <g  transform="matrix(0.352778,0,0,0.352778,57.964295,102.93779)">
                                <g >
                                    <path  d="M 1.74297,0.558951 H 0.56899 L 0,0 h 2.29896 z" gorn="0.3.0.0.3.0.0.3.0.0" fill="#80795b" id="polygon1230" stroke-width="0"/>
                                </g>
                            </g>
                            <g  transform="matrix(0.352778,0,0,0.352778,57.964295,102.93779)">
                                <g >
                                    <path  d="M 1.74297,1.73785 V 0.558951 L 2.29896,0 v 2.2968 z" gorn="0.3.0.0.3.0.0.4.0.0" fill="#5e5b43" id="polygon1232" stroke-width="0"/>
                                </g>
                            </g>
                            <g  transform="matrix(0.352778,0,0,0.352778,57.964295,102.93779)">
                                <g >
                                    <path  d="M 0,2.2968 0.56699,1.73785 H 1.74297 L 2.29896,2.2968 Z" gorn="0.3.0.0.3.0.0.5.0.0" fill="#9a916c" id="polygon1234" stroke-width="0"/>
                                </g>
                            </g>
                        </g>
                    </g>
                </g>
                <g  transform="translate(-32.109785,-36.027458)">
                    <g >
                        <g  gorn="0.3.0.0.4.0.0" id="g3096">
                            <path  d="m 57.964268,102.93781 h 0.811022 v 0.81026 h -0.811022 z" gorn="0.3.0.0.4.0.0.0" fill="#8d8c8c" id="rect3084" stroke-width="0"/>
                            <path  d="m 58.162205,103.13428 h 0.417682 v 0.41694 h -0.417682 z" gorn="0.3.0.0.4.0.0.1" fill="#8c8663" id="connector4pin" stroke-width="0"/>
                            <g  transform="matrix(0.352778,0,0,0.352778,57.964295,102.93779)">
                                <g >
                                    <path  d="M 0.56099,0.501957 0,0 V 2.2968 L 0.56099,1.73785 Z" gorn="0.3.0.0.4.0.0.2.0.0" fill="#b8af82" id="polygon3088" stroke-width="0"/>
                                </g>
                            </g>
                            <g  transform="matrix(0.352778,0,0,0.352778,57.964295,102.93779)">
                                <g >
                                    <path  d="M 0,0 H 2.29896 L 1.74297,0.558951 H 0.56899 Z" gorn="0.3.0.0.4.0.0.3.0.0" fill="#80795b" id="polygon3090" stroke-width="0"/>
                                </g>
                            </g>
                            <g  transform="matrix(0.352778,0,0,0.352778,57.964295,102.93779)">
                                <g >
                                    <path  d="M 2.29896,0 V 2.2968 L 1.74297,1.73785 V 0.558951 Z" gorn="0.3.0.0.4.0.0.4.0.0" fill="#5e5b43" id="polygon3092" stroke-width="0"/>
                                </g>
                            </g>
                            <g  transform="matrix(0.352778,0,0,0.352778,57.964295,102.93779)">
                                <g >
                                    <path  d="M 1.74297,1.73785 2.29896,2.2968 H 0 L 0.56699,1.73785 Z" gorn="0.3.0.0.4.0.0.5.0.0" fill="#9a916c" id="polygon3094" stroke-width="0"/>
                                </g>
                            </g>
                        </g>
                    </g>
                </g>
                <g  transform="translate(-32.109799,-28.407458)">
                    <g >
                        <g  gorn="0.3.0.0.5.0.0" id="g3110">
                            <path  d="m 57.964268,102.93781 h 0.811022 v 0.81026 h -0.811022 z" gorn="0.3.0.0.5.0.0.0" fill="#8d8c8c" id="rect3098" stroke-width="0"/>
                            <path  d="m 58.162205,103.13428 h 0.417682 v 0.41694 h -0.417682 z" gorn="0.3.0.0.5.0.0.1" fill="#8c8663" id="connector1pin" stroke-width="0"/>
                            <g  transform="matrix(0.352778,0,0,0.352778,57.964295,102.93779)">
                                <g >
                                    <path  d="M 0,2.2968 0.56099,1.73785 V 0.501957 L 0,0 Z" gorn="0.3.0.0.5.0.0.2.0.0" fill="#b8af82" id="polygon3102" stroke-width="0"/>
                                </g>
                            </g>
                            <g  transform="matrix(0.352778,0,0,0.352778,57.964295,102.93779)">
                                <g >
                                    <path  d="M 1.74297,0.558951 H 0.56899 L 0,0 h 2.29896 z" gorn="0.3.0.0.5.0.0.3.0.0" fill="#80795b" id="polygon3104" stroke-width="0"/>
                                </g>
                            </g>
                            <g  transform="matrix(0.352778,0,0,0.352778,57.964295,102.93779)">
                                <g >
                                    <path  d="M 1.74297,1.73785 V 0.558951 L 2.29896,0 v 2.2968 z" gorn="0.3.0.0.5.0.0.4.0.0" fill="#5e5b43" id="polygon3106" stroke-width="0"/>
                                </g>
                            </g>
                            <g  transform="matrix(0.352778,0,0,0.352778,57.964295,102.93779)">
                                <g >
                                    <path  d="M 0,2.2968 0.56699,1.73785 H 1.74297 L 2.29896,2.2968 Z" gorn="0.3.0.0.5.0.0.5.0.0" fill="#9a916c" id="polygon3108" stroke-width="0"/>
                                </g>
                            </g>
                        </g>
                    </g>
                </g>
                <g  transform="translate(-32.109799,-33.487458)">
                    <g >
                        <g  gorn="0.3.0.0.6.0.0" id="g3124">
                            <path  d="m 57.964268,102.93781 h 0.811022 v 0.81026 h -0.811022 z" gorn="0.3.0.0.6.0.0.0" fill="#8d8c8c" id="rect3112" stroke-width="0"/>
                            <path  d="m 58.162205,103.13428 h 0.417682 v 0.41694 h -0.417682 z" gorn="0.3.0.0.6.0.0.1" fill="#8c8663" id="connector3pin" stroke-width="0"/>
                            <g  transform="matrix(0.352778,0,0,0.352778,57.964295,102.93779)">
                                <g >
                                    <path  d="M 0.56099,0.501957 0,0 V 2.2968 L 0.56099,1.73785 Z" gorn="0.3.0.0.6.0.0.2.0.0" fill="#b8af82" id="polygon3116" stroke-width="0"/>
                                </g>
                            </g>
                            <g  transform="matrix(0.352778,0,0,0.352778,57.964295,102.93779)">
                                <g >
                                    <path  d="M 0,0 H 2.29896 L 1.74297,0.558951 H 0.56899 Z" gorn="0.3.0.0.6.0.0.3.0.0" fill="#80795b" id="polygon3118" stroke-width="0"/>
                                </g>
                            </g>
                            <g  transform="matrix(0.352778,0,0,0.352778,57.964295,102.93779)">
                                <g >
                                    <path  d="M 2.29896,0 V 2.2968 L 1.74297,1.73785 V 0.558951 Z" gorn="0.3.0.0.6.0.0.4.0.0" fill="#5e5b43" id="polygon3120" stroke-width="0"/>
                                </g>
                            </g>
                            <g  transform="matrix(0.352778,0,0,0.352778,57.964295,102.93779)">
                                <g >
                                    <path  d="M 1.74297,1.73785 2.29896,2.2968 H 0 L 0.56699,1.73785 Z" gorn="0.3.0.0.6.0.0.5.0.0" fill="#9a916c" id="polygon3122" stroke-width="0"/>
                                </g>
                            </g>
                        </g>
                    </g>
                </g>
                <g  transform="translate(-32.109799,-30.947458)">
                    <g >
                        <g  gorn="0.3.0.0.7.0.0" id="g3138">
                            <path  d="m 57.964268,102.93781 h 0.811022 v 0.81026 h -0.811022 z" gorn="0.3.0.0.7.0.0.0" fill="#8d8c8c" id="rect3126" stroke-width="0"/>
                            <path  d="m 58.162205,103.13428 h 0.417682 v 0.41694 h -0.417682 z" gorn="0.3.0.0.7.0.0.1" fill="#8c8663" id="connector2pin" stroke-width="0"/>
                            <g  transform="matrix(0.352778,0,0,0.352778,57.964295,102.93779)">
                                <g >
                                    <path  d="M 0.56099,1.73785 V 0.501957 L 0,0 v 2.2968 z" gorn="0.3.0.0.7.0.0.2.0.0" fill="#b8af82" id="polygon3130" stroke-width="0"/>
                                </g>
                            </g>
                            <g  transform="matrix(0.352778,0,0,0.352778,57.964295,102.93779)">
                                <g >
                                    <path  d="M 0.56899,0.558951 0,0 H 2.29896 L 1.74297,0.558951 Z" gorn="0.3.0.0.7.0.0.3.0.0" fill="#80795b" id="polygon3132" stroke-width="0"/>
                                </g>
                            </g>
                            <g  transform="matrix(0.352778,0,0,0.352778,57.964295,102.93779)">
                                <g >
                                    <path  d="M 1.74297,0.558951 2.29896,0 V 2.2968 L 1.74297,1.73785 Z" gorn="0.3.0.0.7.0.0.4.0.0" fill="#5e5b43" id="polygon3134" stroke-width="0"/>
                                </g>
                            </g>
                            <g  transform="matrix(0.352778,0,0,0.352778,57.964295,102.93779)">
                                <g >
                                    <path  d="M 0.56699,1.73785 H 1.74297 L 2.29896,2.2968 H 0 Z" gorn="0.3.0.0.7.0.0.5.0.0" fill="#9a916c" id="polygon3136" stroke-width="0"/>
                                </g>
                            </g>
                        </g>
                    </g>
                </g>
                <path  style="opacity:1;vector-effect:none;fill-rule:evenodd;stroke-linecap:square;stroke-linejoin:miter;stroke-miterlimit:4;stroke-dasharray:none;stroke-dashoffset:0;paint-order:markers stroke fill" d="M 56.58,76.500001 H 54 v -13.3 h 2.58 c 0.4986,0 0.9,0.4014 0.9,0.9 v 11.5 c 0,0.4986 -0.4014,0.9 -0.9,0.9 z" fill-opacity="1" gorn="0.3.0.0.8" fill="#1f7a34" id="path3180" stroke-opacity="1" stroke-width="0.2" stroke="none"/>
                <g  transform="rotate(180,57.054892,87.866465)">
                    <g >
                        <g  gorn="0.3.0.0.9.0.0" id="g3208">
                            <path  d="m 57.964268,102.93781 h 0.811022 v 0.81026 h -0.811022 z" gorn="0.3.0.0.9.0.0.0" fill="#8d8c8c" id="rect3196" stroke-width="0"/>
                            <path  d="m 58.162205,103.13428 h 0.417682 v 0.41694 h -0.417682 z" gorn="0.3.0.0.9.0.0.1" fill="#8c8663" id="connector6pin" stroke-width="0"/>
                            <g  transform="matrix(0.352778,0,0,0.352778,57.964295,102.93779)">
                                <g >
                                    <path  d="M 0.56099,1.73785 V 0.501957 L 0,0 v 2.2968 z" gorn="0.3.0.0.9.0.0.2.0.0" fill="#b8af82" id="polygon3200" stroke-width="0"/>
                                </g>
                            </g>
                            <g  transform="matrix(0.352778,0,0,0.352778,57.964295,102.93779)">
                                <g >
                                    <path  d="M 0.56899,0.558951 0,0 H 2.29896 L 1.74297,0.558951 Z" gorn="0.3.0.0.9.0.0.3.0.0" fill="#80795b" id="polygon3202" stroke-width="0"/>
                                </g>
                            </g>
                            <g  transform="matrix(0.352778,0,0,0.352778,57.964295,102.93779)">
                                <g >
                                    <path  d="M 1.74297,0.558951 2.29896,0 V 2.2968 L 1.74297,1.73785 Z" gorn="0.3.0.0.9.0.0.4.0.0" fill="#5e5b43" id="polygon3204" stroke-width="0"/>
                                </g>
                            </g>
                            <g  transform="matrix(0.352778,0,0,0.352778,57.964295,102.93779)">
                                <g >
                                    <path  d="M 0.56699,1.73785 H 1.74297 L 2.29896,2.2968 H 0 Z" gorn="0.3.0.0.9.0.0.5.0.0" fill="#9a916c" id="polygon3206" stroke-width="0"/>
                                </g>
                            </g>
                        </g>
                    </g>
                </g>
                <g  transform="rotate(180,57.0549,84.056466)">
                    <g >
                        <g  gorn="0.3.0.0.10.0.0" id="g3222">
                            <path  d="m 57.964268,102.93781 h 0.811022 v 0.81026 h -0.811022 z" gorn="0.3.0.0.10.0.0.0" fill="#8d8c8c" id="rect3210" stroke-width="0"/>
                            <path  d="m 58.162205,103.13428 h 0.417682 v 0.41694 h -0.417682 z" gorn="0.3.0.0.10.0.0.1" fill="#8c8663" id="connector9pin" stroke-width="0"/>
                            <g  transform="matrix(0.352778,0,0,0.352778,57.964295,102.93779)">
                                <g >
                                    <path  d="M 0,0 V 2.2968 L 0.56099,1.73785 V 0.501957 Z" gorn="0.3.0.0.10.0.0.2.0.0" fill="#b8af82" id="polygon3214" stroke-width="0"/>
                                </g>
                            </g>
                            <g  transform="matrix(0.352778,0,0,0.352778,57.964295,102.93779)">
                                <g >
                                    <path  d="M 2.29896,0 1.74297,0.558951 H 0.56899 L 0,0 Z" gorn="0.3.0.0.10.0.0.3.0.0" fill="#80795b" id="polygon3216" stroke-width="0"/>
                                </g>
                            </g>
                            <g  transform="matrix(0.352778,0,0,0.352778,57.964295,102.93779)">
                                <g >
                                    <path  d="M 2.29896,2.2968 1.74297,1.73785 V 0.558951 L 2.29896,0 Z" gorn="0.3.0.0.10.0.0.4.0.0" fill="#5e5b43" id="polygon3218" stroke-width="0"/>
                                </g>
                            </g>
                            <g  transform="matrix(0.352778,0,0,0.352778,57.964295,102.93779)">
                                <g >
                                    <path  d="M 2.29896,2.2968 H 0 L 0.56699,1.73785 h 1.17598 z" gorn="0.3.0.0.10.0.0.5.0.0" fill="#9a916c" id="polygon3220" stroke-width="0"/>
                                </g>
                            </g>
                        </g>
                    </g>
                </g>
                <g  transform="rotate(180,57.0549,86.596465)">
                    <g >
                        <g  gorn="0.3.0.0.11.0.0" id="g3236">
                            <path  d="m 57.964268,102.93781 h 0.811022 v 0.81026 h -0.811022 z" gorn="0.3.0.0.11.0.0.0" fill="#8d8c8c" id="rect3224" stroke-width="0"/>
                            <path  d="m 58.162205,103.13428 h 0.417682 v 0.41694 h -0.417682 z" gorn="0.3.0.0.11.0.0.1" fill="#8c8663" id="connector7pin" stroke-width="0"/>
                            <g  transform="matrix(0.352778,0,0,0.352778,57.964295,102.93779)">
                                <g >
                                    <path  d="M 0,0 V 2.2968 L 0.56099,1.73785 V 0.501957 Z" gorn="0.3.0.0.11.0.0.2.0.0" fill="#b8af82" id="polygon3228" stroke-width="0"/>
                                </g>
                            </g>
                            <g  transform="matrix(0.352778,0,0,0.352778,57.964295,102.93779)">
                                <g >
                                    <path  d="M 2.29896,0 1.74297,0.558951 H 0.56899 L 0,0 Z" gorn="0.3.0.0.11.0.0.3.0.0" fill="#80795b" id="polygon3230" stroke-width="0"/>
                                </g>
                            </g>
                            <g  transform="matrix(0.352778,0,0,0.352778,57.964295,102.93779)">
                                <g >
                                    <path  d="M 2.29896,2.2968 1.74297,1.73785 V 0.558951 L 2.29896,0 Z" gorn="0.3.0.0.11.0.0.4.0.0" fill="#5e5b43" id="polygon3232" stroke-width="0"/>
                                </g>
                            </g>
                            <g  transform="matrix(0.352778,0,0,0.352778,57.964295,102.93779)">
                                <g >
                                    <path  d="M 2.29896,2.2968 H 0 L 0.56699,1.73785 h 1.17598 z" gorn="0.3.0.0.11.0.0.5.0.0" fill="#9a916c" id="polygon3234" stroke-width="0"/>
                                </g>
                            </g>
                        </g>
                    </g>
                </g>
                <g  transform="rotate(180,57.0549,85.326465)">
                    <g >
                        <g  gorn="0.3.0.0.12.0.0" id="g3250">
                            <path  d="m 57.964268,102.93781 h 0.811022 v 0.81026 h -0.811022 z" gorn="0.3.0.0.12.0.0.0" fill="#8d8c8c" id="rect3238" stroke-width="0"/>
                            <path  d="m 58.162205,103.13428 h 0.417682 v 0.41694 h -0.417682 z" gorn="0.3.0.0.12.0.0.1" fill="#8c8663" id="connector8pin" stroke-width="0"/>
                            <g  transform="matrix(0.352778,0,0,0.352778,57.964295,102.93779)">
                                <g >
                                    <path  d="M 0,2.2968 0.56099,1.73785 V 0.501957 L 0,0 Z" gorn="0.3.0.0.12.0.0.2.0.0" fill="#b8af82" id="polygon3242" stroke-width="0"/>
                                </g>
                            </g>
                            <g  transform="matrix(0.352778,0,0,0.352778,57.964295,102.93779)">
                                <g >
                                    <path  d="M 1.74297,0.558951 H 0.56899 L 0,0 h 2.29896 z" gorn="0.3.0.0.12.0.0.3.0.0" fill="#80795b" id="polygon3244" stroke-width="0"/>
                                </g>
                            </g>
                            <g  transform="matrix(0.352778,0,0,0.352778,57.964295,102.93779)">
                                <g >
                                    <path  d="M 1.74297,1.73785 V 0.558951 L 2.29896,0 v 2.2968 z" gorn="0.3.0.0.12.0.0.4.0.0" fill="#5e5b43" id="polygon3246" stroke-width="0"/>
                                </g>
                            </g>
                            <g  transform="matrix(0.352778,0,0,0.352778,57.964295,102.93779)">
                                <g >
                                    <path  d="M 0,2.2968 0.56699,1.73785 H 1.74297 L 2.29896,2.2968 Z" gorn="0.3.0.0.12.0.0.5.0.0" fill="#9a916c" id="polygon3248" stroke-width="0"/>
                                </g>
                            </g>
                        </g>
                    </g>
                </g>
                <path  style="display:inline;opacity:1;vector-effect:none;fill-rule:evenodd;stroke-linecap:round;stroke-linejoin:round;stroke-miterlimit:4;stroke-dasharray:none;stroke-dashoffset:0;paint-order:fill markers stroke" d="m 45.652977,67.351929 h 8.12 v 12.149999 h -8.12 z" fill-opacity="1" gorn="0.3.0.0.13" fill="#f7e5d8" id="rect3289" stroke-opacity="1" stroke-width="0.489215" stroke="none"/>
                <path  style="opacity:1;vector-effect:none;fill-rule:evenodd;stroke-linecap:round;stroke-linejoin:round;stroke-miterlimit:4;stroke-dasharray:none;stroke-dashoffset:0;paint-order:fill markers stroke" d="m 37.892113,78.666298 h 6.472841 v 1.033701 h -6.472841 z" fill-opacity="1" gorn="0.3.0.0.14" fill="#d4aa00" id="rect3295" stroke-opacity="1" stroke-width="0.489215" stroke="none"/>
                <g  aria-label="MH-Z19C" style="font-style:normal;font-variant:normal;font-weight:normal;font-stretch:normal;line-height:125%;font-family:Droid Sans;-inkscape-font-specification:'Droid Sans, Normal';font-variant-ligatures:normal;font-variant-caps:normal;font-variant-numeric:normal;font-variant-east-asian:normal;text-align:start;letter-spacing:0px;word-spacing:0px;writing-mode:lr-tb;text-anchor:start;stroke-linecap:butt;stroke-linejoin:miter;" font-size="0.796493" fill-opacity="1" gorn="0.3.0.0.15" fill="#000000" id="text3332" stroke-opacity="1" stroke-width="0.0746712" stroke="none">
                    <path  style="font-style:normal;font-variant:normal;font-weight:normal;font-stretch:normal;font-family:Droid Sans;-inkscape-font-specification:'Droid Sans, Normal';font-variant-ligatures:normal;font-variant-caps:normal;font-variant-numeric:normal;font-variant-east-asian:normal;" font-size="0.796493" d="m 29.275252,62.398495 -0.610471,-1.763888 h -0.01102 q 0.0083,0.101975 0.01378,0.202572 0.0055,0.08682 0.0083,0.183279 0.0041,0.09508 0.0041,0.173632 v 1.204405 h -0.237023 v -2.014691 h 0.380338 l 0.567752,1.642621 h 0.0083 l 0.570507,-1.642621 h 0.380339 v 2.014691 h -0.256315 v -1.222319 q 0,-0.07166 0.0028,-0.163987 0.0028,-0.09233 0.0069,-0.176388 0.0055,-0.09784 0.0096,-0.198438 h -0.01102 l -0.615983,1.761132 z" gorn="0.3.0.0.15.0" id="path3458" stroke-width="0.0746712"/>
                    <path  style="font-style:normal;font-variant:normal;font-weight:normal;font-stretch:normal;font-family:Droid Sans;-inkscape-font-specification:'Droid Sans, Normal';font-variant-ligatures:normal;font-variant-caps:normal;font-variant-numeric:normal;font-variant-east-asian:normal;" font-size="0.796493" d="m 32.328982,62.398495 h -0.256315 v -0.939822 h -0.917773 v 0.939822 h -0.256315 v -2.014691 h 0.256315 v 0.848871 h 0.917773 v -0.848871 h 0.256315 z" gorn="0.3.0.0.15.1" id="path3460" stroke-width="0.0746712"/>
                    <path  style="font-style:normal;font-variant:normal;font-weight:normal;font-stretch:normal;font-family:Droid Sans;-inkscape-font-specification:'Droid Sans, Normal';font-variant-ligatures:normal;font-variant-caps:normal;font-variant-numeric:normal;font-variant-east-asian:normal;" font-size="0.796493" d="m 32.71621,61.757707 v -0.23151 h 0.683507 v 0.23151 z" gorn="0.3.0.0.15.2" id="path3462" stroke-width="0.0746712"/>
                    <path  style="font-style:normal;font-variant:normal;font-weight:normal;font-stretch:normal;font-family:Droid Sans;-inkscape-font-specification:'Droid Sans, Normal';font-variant-ligatures:normal;font-variant-caps:normal;font-variant-numeric:normal;font-variant-east-asian:normal;" font-size="0.796493" d="m 34.919692,62.398495 h -1.295355 v -0.199816 l 0.979784,-1.58612 h -0.952223 v -0.228755 h 1.238855 v 0.199816 l -0.978406,1.586121 h 1.007345 z" gorn="0.3.0.0.15.3" id="path3464" stroke-width="0.0746712"/>
                    <path  style="font-style:normal;font-variant:normal;font-weight:normal;font-stretch:normal;font-family:Droid Sans;-inkscape-font-specification:'Droid Sans, Normal';font-variant-ligatures:normal;font-variant-caps:normal;font-variant-numeric:normal;font-variant-east-asian:normal;" font-size="0.796493" d="m 36.012475,62.398495 h -0.242534 v -1.258148 q 0,-0.05926 0,-0.12678 0.0014,-0.06752 0.0028,-0.133669 0.0028,-0.06752 0.0041,-0.128158 0.0028,-0.06201 0.0041,-0.108865 -0.02343,0.02481 -0.04134,0.04272 -0.01791,0.01791 -0.03721,0.03445 -0.01791,0.01654 -0.03858,0.03583 -0.02067,0.01792 -0.04961,0.04272 l -0.20395,0.166742 -0.132291,-0.169498 0.527788,-0.412034 h 0.206705 z" gorn="0.3.0.0.15.4" id="path3466" stroke-width="0.0746712"/>
                    <path  style="font-style:normal;font-variant:normal;font-weight:normal;font-stretch:normal;font-family:Droid Sans;-inkscape-font-specification:'Droid Sans, Normal';font-variant-ligatures:normal;font-variant-caps:normal;font-variant-numeric:normal;font-variant-east-asian:normal;" font-size="0.796493" d="m 38.003739,61.2437 q 0,0.144693 -0.01516,0.289387 -0.01378,0.143316 -0.05099,0.27423 -0.03583,0.130913 -0.09922,0.24529 -0.06339,0.112999 -0.16123,0.195682 -0.09784,0.08268 -0.234267,0.130913 -0.136425,0.04685 -0.319704,0.04685 -0.02618,0 -0.05788,-0.0014 -0.03169,-0.0014 -0.06339,-0.0055 -0.03169,-0.0028 -0.06201,-0.0069 -0.03032,-0.0041 -0.05374,-0.01102 v -0.214974 q 0.04823,0.01791 0.108865,0.02618 0.06063,0.0083 0.119889,0.0083 0.186035,0 0.305925,-0.06477 0.119889,-0.06477 0.190169,-0.175011 0.07028,-0.111621 0.09922,-0.259071 0.03032,-0.147449 0.03721,-0.311436 h -0.01791 q -0.02756,0.04961 -0.06615,0.09233 -0.03859,0.04272 -0.09095,0.07441 -0.05237,0.03169 -0.118511,0.04961 -0.06615,0.01791 -0.14745,0.01791 -0.130914,0 -0.237023,-0.03996 -0.106109,-0.04134 -0.180523,-0.119889 -0.07441,-0.07855 -0.115755,-0.191547 -0.03996,-0.114377 -0.03996,-0.260449 0,-0.157096 0.04272,-0.282498 0.0441,-0.126779 0.122646,-0.213595 0.07993,-0.08819 0.192925,-0.135048 0.114377,-0.04685 0.254937,-0.04685 0.139181,0 0.259071,0.05374 0.119889,0.05374 0.208083,0.163986 0.08819,0.110243 0.139182,0.278364 0.05099,0.166742 0.05099,0.392741 z m -0.654567,-0.676617 q -0.08268,0 -0.151584,0.02756 -0.06752,0.02756 -0.117134,0.08544 -0.04961,0.05788 -0.07717,0.146072 -0.02618,0.08682 -0.02618,0.206706 0,0.09646 0.02205,0.173633 0.02343,0.07579 0.0689,0.129535 0.04547,0.05374 0.112999,0.08268 0.0689,0.02894 0.159853,0.02894 0.09371,0 0.169498,-0.03169 0.07579,-0.03307 0.129536,-0.08406 0.05374,-0.05237 0.08268,-0.118511 0.03032,-0.06615 0.03032,-0.132292 0,-0.09233 -0.02618,-0.183279 -0.02481,-0.09233 -0.07579,-0.165364 -0.04961,-0.07441 -0.125402,-0.119889 -0.07579,-0.04548 -0.176388,-0.04548 z" gorn="0.3.0.0.15.5" id="path3468" stroke-width="0.0746712"/>
                    <path  style="font-style:normal;font-variant:normal;font-weight:normal;font-stretch:normal;font-family:Droid Sans;-inkscape-font-specification:'Droid Sans, Normal';font-variant-ligatures:normal;font-variant-caps:normal;font-variant-numeric:normal;font-variant-east-asian:normal;" font-size="0.796493" d="m 39.234326,60.580864 q -0.14745,0 -0.267339,0.0565 -0.11989,0.05512 -0.205328,0.159853 -0.08406,0.10473 -0.130913,0.254936 -0.04548,0.150206 -0.04548,0.338998 0,0.194303 0.03996,0.345887 0.04134,0.150206 0.122646,0.253559 0.0813,0.103353 0.202571,0.157096 0.121268,0.05374 0.283876,0.05374 0.122645,0 0.232888,-0.02343 0.110243,-0.02481 0.21773,-0.0565 v 0.223242 q -0.05374,0.02067 -0.107487,0.03721 -0.05374,0.01516 -0.112999,0.02481 -0.05788,0.0096 -0.125401,0.01378 -0.06615,0.0055 -0.14745,0.0055 -0.225998,0 -0.391363,-0.07441 -0.165364,-0.07441 -0.274229,-0.210839 -0.107487,-0.136426 -0.159853,-0.327973 -0.05237,-0.191547 -0.05237,-0.424436 0,-0.228754 0.05926,-0.418923 0.06063,-0.190169 0.176388,-0.326595 0.117134,-0.136425 0.289388,-0.212217 0.172255,-0.07579 0.395497,-0.07579 0.148828,0 0.283876,0.03032 0.135047,0.03032 0.243912,0.08819 l -0.107487,0.214974 q -0.08682,-0.0441 -0.188791,-0.07579 -0.101975,-0.03169 -0.23151,-0.03169 z" gorn="0.3.0.0.15.6" id="path3470" stroke-width="0.0746712"/>
                </g>
                <g  aria-label="PWM" style="font-style:normal;font-variant:normal;font-weight:normal;font-stretch:normal;line-height:125%;font-family:Droid Sans;-inkscape-font-specification:'OCR-A BT, Normal';font-variant-ligatures:normal;font-variant-caps:normal;font-variant-numeric:normal;font-variant-east-asian:normal;text-align:start;letter-spacing:0px;word-spacing:0px;writing-mode:lr-tb;text-anchor:start;stroke-linecap:butt;stroke-linejoin:miter;" font-size="0.796493" fill-opacity="1" gorn="0.3.0.0.16" fill="#000000" id="text3336" stroke-opacity="1" stroke-width="0.0746712" stroke="none">
                    <path  style="font-style:normal;font-variant:normal;font-weight:normal;font-stretch:normal;font-family:Droid Sans;-inkscape-font-specification:'OCR-A BT, Normal';font-variant-ligatures:normal;font-variant-caps:normal;font-variant-numeric:normal;font-variant-east-asian:normal;" font-size="0.796493" d="m 48.597756,71.712692 v 0.657324 h 0.573263 q 0.04823,0 0.08268,-0.03583 0.03583,-0.03583 0.03583,-0.08268 v -0.420302 q 0,-0.04685 -0.03583,-0.08268 -0.03445,-0.03583 -0.08268,-0.03583 z M 48.360733,71.47567 h 0.810286 q 0.146072,0 0.252181,0.104731 0.106109,0.10473 0.106109,0.250802 v 0.420302 q 0,0.14745 -0.104731,0.253559 -0.104731,0.10473 -0.253559,0.10473 h -0.573263 v 0.56224 q 0,0.05926 -0.03307,0.09508 -0.03307,0.03721 -0.08544,0.03721 -0.05237,0 -0.08544,-0.03721 -0.03307,-0.03721 -0.03307,-0.09508 z" gorn="0.3.0.0.16.0" id="path3451" stroke-width="0.0746712"/>
                    <path  style="font-style:normal;font-variant:normal;font-weight:normal;font-stretch:normal;font-family:Droid Sans;-inkscape-font-specification:'OCR-A BT, Normal';font-variant-ligatures:normal;font-variant-caps:normal;font-variant-numeric:normal;font-variant-east-asian:normal;" font-size="0.796493" d="m 50.342351,71.607961 v 1.349099 l 0.06752,0.110243 h 0.09922 l 0.06201,-0.110243 v -0.753787 q 0,-0.05925 0.03169,-0.09371 0.03307,-0.03583 0.08682,-0.03583 0.05237,0 0.08544,0.03583 0.03307,0.03583 0.03307,0.09371 v 0.753787 l 0.06201,0.110243 h 0.09922 l 0.06752,-0.110243 v -1.349099 q 0,-0.05788 0.03307,-0.09508 0.03307,-0.03721 0.08544,-0.03721 0.05237,0 0.08544,0.03721 0.03307,0.03583 0.03307,0.09508 v 1.368391 q 0,0.02205 -0.0055,0.04134 -0.0041,0.01792 -0.01102,0.02894 l -0.08819,0.155718 q -0.02894,0.05237 -0.06201,0.07717 -0.03169,0.02481 -0.07028,0.02481 h -0.228754 q -0.05099,0 -0.08544,-0.03583 -0.03307,-0.03583 -0.03307,-0.09095 v -0.0055 0.0055 q 0,0.05512 -0.03445,0.09095 -0.03307,0.03583 -0.08406,0.03583 h -0.228754 q -0.03858,0 -0.07028,-0.02481 -0.03032,-0.02343 -0.05926,-0.07717 l -0.09095,-0.15434 q -0.0083,-0.01516 -0.0124,-0.03169 -0.0041,-0.01791 -0.0041,-0.03996 v -1.368391 q 0,-0.06063 0.03169,-0.09646 0.03307,-0.03583 0.08682,-0.03583 0.05099,0 0.08406,0.03721 0.03445,0.03721 0.03445,0.09508 z" gorn="0.3.0.0.16.1" id="path3453" stroke-width="0.0746712"/>
                    <path  style="font-style:normal;font-variant:normal;font-weight:normal;font-stretch:normal;font-family:Droid Sans;-inkscape-font-specification:'OCR-A BT, Normal';font-variant-ligatures:normal;font-variant-caps:normal;font-variant-numeric:normal;font-variant-east-asian:normal;" font-size="0.796493" d="m 51.849923,71.47567 h 0.293522 l 0.290766,0.412033 0.290766,-0.412033 h 0.293522 v 1.696364 q 0,0.05926 -0.03307,0.09508 -0.03307,0.03721 -0.08544,0.03721 -0.05237,0 -0.08544,-0.03721 -0.03307,-0.03721 -0.03307,-0.09508 v -1.360123 l -0.228754,0.31557 v 0.05099 q 0,0.05925 -0.03307,0.09646 -0.03307,0.03583 -0.08544,0.03583 -0.05236,0 -0.08544,-0.03721 -0.03307,-0.03721 -0.03307,-0.09508 v -0.05099 l -0.228754,-0.31557 v 1.360123 q 0,0.05926 -0.03307,0.09508 -0.03307,0.03721 -0.08544,0.03721 -0.05237,0 -0.08544,-0.03721 -0.03307,-0.03721 -0.03307,-0.09508 z" gorn="0.3.0.0.16.2" id="path3455" stroke-width="0.0746712"/>
                </g>
                <g  aria-label="AOT" style="font-style:normal;font-variant:normal;font-weight:normal;font-stretch:normal;line-height:125%;font-family:Droid Sans;-inkscape-font-specification:'OCR-A BT, Normal';font-variant-ligatures:normal;font-variant-caps:normal;font-variant-numeric:normal;font-variant-east-asian:normal;text-align:start;letter-spacing:0px;word-spacing:0px;writing-mode:lr-tb;text-anchor:start;stroke-linecap:butt;stroke-linejoin:miter;" font-size="0.796493" fill-opacity="1" gorn="0.3.0.0.17" fill="#000000" id="text3340" stroke-opacity="1" stroke-width="0.0746712" stroke="none">
                    <path  style="font-style:normal;font-variant:normal;font-weight:normal;font-stretch:normal;font-family:Droid Sans;-inkscape-font-specification:'OCR-A BT, Normal';font-variant-ligatures:normal;font-variant-caps:normal;font-variant-numeric:normal;font-variant-east-asian:normal;" font-size="0.796493" d="m 48.945021,69.477237 -0.191547,0.651812 h 0.380338 z m 0.126779,-0.409277 0.446484,1.533756 q 0.0041,0.0124 0.0055,0.0248 0.0028,0.0124 0.0028,0.02205 0,0.04823 -0.03445,0.0813 -0.03445,0.03445 -0.08131,0.03445 -0.04134,0 -0.07441,-0.02756 -0.03169,-0.02618 -0.0441,-0.07028 l -0.08819,-0.300413 H 48.68736 l -0.08957,0.299035 q -0.01654,0.05099 -0.04685,0.07441 -0.02894,0.0248 -0.07441,0.0248 -0.04548,0 -0.07993,-0.03445 -0.03307,-0.03307 -0.03307,-0.07855 0,-0.02067 0.0014,-0.03032 0.0014,-0.01102 0.0041,-0.02067 l 0.446484,-1.532378 q 0.02067,-0.07441 0.04961,-0.103352 0.03032,-0.02894 0.07993,-0.02894 0.04823,0 0.07717,0.02756 0.02894,0.02756 0.04961,0.10473 z" gorn="0.3.0.0.17.0" id="path3444" stroke-width="0.0746712"/>
                    <path  style="font-style:normal;font-variant:normal;font-weight:normal;font-stretch:normal;font-family:Droid Sans;-inkscape-font-specification:'OCR-A BT, Normal';font-variant-ligatures:normal;font-variant-caps:normal;font-variant-numeric:normal;font-variant-east-asian:normal;" font-size="0.796493" d="m 50.751628,69.218166 q -0.01516,-0.02618 -0.02894,-0.03583 -0.0124,-0.0096 -0.03307,-0.0096 -0.01929,0 -0.03721,0.0124 -0.01792,0.0124 -0.02756,0.03169 l -0.254937,0.501606 q -0.0124,0.02481 -0.02067,0.06063 -0.0069,0.03583 -0.0069,0.07028 0,0.03583 0.0069,0.07166 0.0083,0.03583 0.02067,0.06063 l 0.257693,0.500228 q 0.01378,0.02618 0.02756,0.03583 0.01378,0.0096 0.03445,0.0096 0.01929,0 0.03721,-0.01103 0.01791,-0.0124 0.02756,-0.03445 l 0.253559,-0.49885 q 0.0124,-0.02481 0.02067,-0.06063 0.0083,-0.03721 0.0083,-0.07304 0,-0.03583 -0.0083,-0.07304 -0.0083,-0.03721 -0.02067,-0.05926 z m 0.225998,-0.08268 0.24529,0.483691 q 0.02343,0.04548 0.03721,0.106109 0.01378,0.06063 0.01378,0.124024 0,0.06477 -0.01378,0.125401 -0.01378,0.06063 -0.03721,0.106109 l -0.24529,0.483691 q -0.05788,0.108865 -0.124024,0.15434 -0.06614,0.04547 -0.163986,0.04547 -0.09922,0 -0.165365,-0.04547 -0.06614,-0.04548 -0.122645,-0.15434 l -0.24529,-0.483691 q -0.0248,-0.04823 -0.03858,-0.107487 -0.0124,-0.06063 -0.0124,-0.124023 0,-0.06339 0.0124,-0.124024 0.01378,-0.06063 0.03858,-0.106109 l 0.24529,-0.483691 q 0.0565,-0.108865 0.122645,-0.15434 0.06615,-0.04547 0.165365,-0.04547 0.09784,0 0.163986,0.04547 0.06615,0.04547 0.124024,0.15434 z" gorn="0.3.0.0.17.1" id="path3446" stroke-width="0.0746712"/>
                    <path  style="font-style:normal;font-variant:normal;font-weight:normal;font-stretch:normal;font-family:Droid Sans;-inkscape-font-specification:'OCR-A BT, Normal';font-variant-ligatures:normal;font-variant-caps:normal;font-variant-numeric:normal;font-variant-east-asian:normal;" font-size="0.796493" d="m 51.849923,68.935669 h 1.168576 v 0.304546 q 0,0.05926 -0.03307,0.09646 -0.03307,0.03583 -0.08544,0.03583 -0.05237,0 -0.08544,-0.03721 -0.03307,-0.03721 -0.03307,-0.09508 v -0.06752 h -0.228754 v 1.459342 q 0,0.05925 -0.03307,0.09508 -0.03307,0.03721 -0.08544,0.03721 -0.05236,0 -0.08544,-0.03721 -0.03307,-0.03721 -0.03307,-0.09508 v -1.459342 h -0.228754 v 0.06752 q 0,0.05926 -0.03307,0.09646 -0.03307,0.03583 -0.08544,0.03583 -0.05237,0 -0.08544,-0.03721 -0.03307,-0.03721 -0.03307,-0.09508 z" gorn="0.3.0.0.17.2" id="path3448" stroke-width="0.0746712"/>
                </g>
                <g  aria-label="GND" style="font-style:normal;font-variant:normal;font-weight:normal;font-stretch:normal;line-height:125%;font-family:Droid Sans;-inkscape-font-specification:'OCR-A BT, Normal';font-variant-ligatures:normal;font-variant-caps:normal;font-variant-numeric:normal;font-variant-east-asian:normal;text-align:start;letter-spacing:0px;word-spacing:0px;writing-mode:lr-tb;text-anchor:start;stroke-linecap:butt;stroke-linejoin:miter;" font-size="0.796493" fill-opacity="1" gorn="0.3.0.0.18" fill="#000000" id="text3344" stroke-opacity="1" stroke-width="0.0746712" stroke="none">
                    <path  style="font-style:normal;font-variant:normal;font-weight:normal;font-stretch:normal;font-family:Droid Sans;-inkscape-font-specification:'OCR-A BT, Normal';font-variant-ligatures:normal;font-variant-caps:normal;font-variant-numeric:normal;font-variant-east-asian:normal;" font-size="0.796493" d="m 49.055264,66.395668 h 0.341753 q 0.05926,0 0.09509,0.03307 0.03721,0.03307 0.03721,0.08544 0,0.05099 -0.03721,0.08544 -0.03721,0.03307 -0.09509,0.03307 H 49.05802 q -0.02343,0 -0.04961,0.0124 -0.02618,0.01102 -0.03583,0.0248 l -0.304547,0.394119 q -0.04134,0.05512 -0.0565,0.09233 -0.01378,0.03583 -0.01378,0.07717 v 0.635275 q 0,0.04823 0.03583,0.08406 0.03583,0.03445 0.08268,0.03445 h 0.454752 q 0.04685,0 0.08268,-0.03445 0.03583,-0.03583 0.03583,-0.08406 v -0.239779 h -0.214974 q -0.06063,0 -0.09646,-0.03169 -0.03583,-0.03307 -0.03583,-0.08682 0,-0.05236 0.03721,-0.08544 0.03721,-0.03307 0.09508,-0.03307 h 0.454753 v 0.476801 q 0,0.146072 -0.104731,0.250802 -0.104731,0.104731 -0.250803,0.104731 h -0.454752 q -0.148828,0 -0.253559,-0.104731 -0.104731,-0.103352 -0.104731,-0.250802 v -0.635275 q 0,-0.08131 0.02756,-0.154341 0.02756,-0.07304 0.107487,-0.181901 l 0.274229,-0.363801 q 0.04548,-0.05926 0.125402,-0.09784 0.07993,-0.03996 0.159852,-0.03996 z" gorn="0.3.0.0.18.0" id="path3437" stroke-width="0.0746712"/>
                    <path  style="font-style:normal;font-variant:normal;font-weight:normal;font-stretch:normal;font-family:Droid Sans;-inkscape-font-specification:'OCR-A BT, Normal';font-variant-ligatures:normal;font-variant-caps:normal;font-variant-numeric:normal;font-variant-east-asian:normal;" font-size="0.796493" d="m 50.105328,66.395668 h 0.312815 l 0.618738,1.408354 V 66.52796 q 0,-0.06063 0.03169,-0.09646 0.03307,-0.03583 0.08682,-0.03583 0.05099,0 0.08406,0.03721 0.03445,0.03721 0.03445,0.09508 v 1.696363 h -0.314193 l -0.61736,-1.402842 v 1.270551 q 0,0.05925 -0.03307,0.09508 -0.03307,0.03721 -0.08544,0.03721 -0.05236,0 -0.08544,-0.03721 -0.03307,-0.03721 -0.03307,-0.09508 z" gorn="0.3.0.0.18.1" id="path3439" stroke-width="0.0746712"/>
                    <path  style="font-style:normal;font-variant:normal;font-weight:normal;font-stretch:normal;font-family:Droid Sans;-inkscape-font-specification:'OCR-A BT, Normal';font-variant-ligatures:normal;font-variant-caps:normal;font-variant-numeric:normal;font-variant-east-asian:normal;" font-size="0.796493" d="m 52.39976,66.63269 h -0.07855 v 1.354611 h 0.07855 q 0.03583,0 0.06615,-0.01929 0.03032,-0.01929 0.04685,-0.05374 l 0.242535,-0.491959 q 0.0124,-0.02481 0.01791,-0.05237 0.0055,-0.02756 0.0055,-0.06063 0,-0.03169 -0.0055,-0.05926 -0.0055,-0.02756 -0.01791,-0.05236 L 52.51276,66.708488 q -0.01791,-0.03445 -0.04823,-0.05512 -0.03032,-0.02067 -0.06477,-0.02067 z m 0,-0.237022 q 0.111621,0 0.191547,0.05374 0.07993,0.05374 0.139182,0.169499 l 0.245291,0.487825 q 0.02067,0.04272 0.03169,0.09371 0.01102,0.04961 0.01102,0.108865 0,0.05925 -0.01102,0.110243 -0.01102,0.05099 -0.03169,0.09371 l -0.245291,0.487825 q -0.0565,0.114377 -0.137804,0.168121 -0.07993,0.05512 -0.192925,0.05512 h -0.417545 q -0.05926,0 -0.09646,-0.03307 -0.03583,-0.03307 -0.03583,-0.08544 0,-0.05236 0.03721,-0.08544 0.03721,-0.03307 0.09508,-0.03307 H 52.08419 V 66.63269 h -0.101975 q -0.05926,0 -0.09646,-0.03307 -0.03583,-0.03307 -0.03583,-0.08544 0,-0.05236 0.03721,-0.08544 0.03721,-0.03307 0.09508,-0.03307 z" gorn="0.3.0.0.18.2" id="path3441" stroke-width="0.0746712"/>
                </g>
                <g  aria-label="Vin" style="font-style:normal;font-variant:normal;font-weight:normal;font-stretch:normal;line-height:125%;font-family:Droid Sans;-inkscape-font-specification:'OCR-A BT, Normal';font-variant-ligatures:normal;font-variant-caps:normal;font-variant-numeric:normal;font-variant-east-asian:normal;text-align:start;letter-spacing:0px;word-spacing:0px;writing-mode:lr-tb;text-anchor:start;stroke-linecap:butt;stroke-linejoin:miter;" font-size="0.796493" fill-opacity="1" gorn="0.3.0.0.19" fill="#000000" id="text3348" stroke-opacity="1" stroke-width="0.0746712" stroke="none">
                    <path  style="font-style:normal;font-variant:normal;font-weight:normal;font-stretch:normal;font-family:Droid Sans;-inkscape-font-specification:'OCR-A BT, Normal';font-variant-ligatures:normal;font-variant-caps:normal;font-variant-numeric:normal;font-variant-east-asian:normal;" font-size="0.796493" d="m 48.597756,64.037573 v 0.358289 l 0.347265,0.912261 0.347265,-0.912261 v -0.358289 q 0,-0.05788 0.03307,-0.09508 0.03307,-0.03721 0.08544,-0.03721 0.05237,0 0.08544,0.03721 0.03307,0.03583 0.03307,0.09508 v 0.403764 l -0.465777,1.190625 q -0.02205,0.05925 -0.04961,0.07993 -0.02618,0.02205 -0.0689,0.02205 -0.0441,0 -0.07304,-0.02343 -0.02894,-0.02343 -0.04823,-0.07855 l -0.463021,-1.190625 v -0.403764 q 0,-0.06063 0.03169,-0.09646 0.03307,-0.03583 0.08682,-0.03583 0.05099,0 0.08406,0.03721 0.03445,0.03721 0.03445,0.09508 z" gorn="0.3.0.0.19.0" id="path3430" stroke-width="0.0746712"/>
                    <path  style="font-style:normal;font-variant:normal;font-weight:normal;font-stretch:normal;font-family:Droid Sans;-inkscape-font-specification:'OCR-A BT, Normal';font-variant-ligatures:normal;font-variant-caps:normal;font-variant-numeric:normal;font-variant-east-asian:normal;" font-size="0.796493" d="m 50.353375,64.401374 h 0.322461 q 0.05926,0 0.09508,0.03307 0.03721,0.03307 0.03721,0.08544 v 0.977028 h 0.21773 q 0.05788,0 0.09371,0.03307 0.03583,0.03169 0.03583,0.08544 0,0.05237 -0.03721,0.08544 -0.03583,0.03307 -0.09233,0.03307 h -0.672482 q -0.05926,0 -0.09646,-0.03307 -0.03583,-0.03307 -0.03583,-0.08544 0,-0.05237 0.03721,-0.08544 0.03721,-0.03307 0.09508,-0.03307 h 0.214974 v -0.858517 h -0.214974 q -0.06063,0 -0.09646,-0.03169 -0.03583,-0.03307 -0.03583,-0.08682 0,-0.05099 0.03721,-0.08406 0.03721,-0.03445 0.09508,-0.03445 z m 0.23151,-0.595312 h 0.115755 q 0.03996,0 0.07304,0.03583 0.03445,0.03583 0.03445,0.08268 v 0.09922 q 0,0.05099 -0.03721,0.08544 -0.03721,0.03307 -0.09508,0.03307 h -0.09095 q -0.06063,0 -0.09646,-0.03169 -0.03583,-0.03307 -0.03583,-0.08682 v -0.09922 q 0,-0.05237 0.03583,-0.08544 0.03721,-0.03307 0.09646,-0.03307 z" gorn="0.3.0.0.19.1" id="path3432" stroke-width="0.0746712"/>
                    <path  style="font-style:normal;font-variant:normal;font-weight:normal;font-stretch:normal;font-family:Droid Sans;-inkscape-font-specification:'OCR-A BT, Normal';font-variant-ligatures:normal;font-variant-caps:normal;font-variant-numeric:normal;font-variant-east-asian:normal;" font-size="0.796493" d="m 52.086946,64.535044 v 0.07304 l 0.137803,-0.09371 0.0083,-0.0055 q 0.151584,-0.107487 0.285253,-0.107487 h 0.107487 q 0.180523,0 0.270095,0.108865 0.08957,0.108865 0.09646,0.333485 l 0.02618,0.757921 v 0.0055 q 0,0.05512 -0.03445,0.09095 -0.03307,0.03583 -0.08406,0.03583 -0.05237,0 -0.08406,-0.03583 -0.03169,-0.03445 -0.03445,-0.09646 l -0.02894,-0.766189 q -0.0041,-0.09922 -0.04134,-0.146072 -0.03583,-0.04823 -0.107486,-0.04823 h -0.07717 q -0.06339,0 -0.157096,0.06063 l -0.0083,0.0055 -0.274229,0.180522 v 0.713824 q 0,0.05925 -0.03307,0.09508 -0.03307,0.03721 -0.08544,0.03721 -0.05237,0 -0.08544,-0.03721 -0.03307,-0.03721 -0.03307,-0.09508 v -1.066601 q 0,-0.06063 0.0317,-0.09646 0.03307,-0.03721 0.08682,-0.03721 0.05099,0 0.08406,0.03721 0.03445,0.03721 0.03445,0.09646 z" gorn="0.3.0.0.19.2" id="path3434" stroke-width="0.0746712"/>
                </g>
                <g  aria-label="Vo" style="font-style:normal;font-variant:normal;font-weight:normal;font-stretch:normal;line-height:125%;font-family:Droid Sans;-inkscape-font-specification:'OCR-A BT, Normal';font-variant-ligatures:normal;font-variant-caps:normal;font-variant-numeric:normal;font-variant-east-asian:normal;text-align:start;letter-spacing:0px;word-spacing:0px;writing-mode:lr-tb;text-anchor:start;stroke-linecap:butt;stroke-linejoin:miter;" font-size="0.796493" fill-opacity="1" gorn="0.3.0.0.20" fill="#000000" id="text3352" stroke-opacity="1" stroke-width="0.0746712" stroke="none">
                    <path  style="font-style:normal;font-variant:normal;font-weight:normal;font-stretch:normal;font-family:Droid Sans;-inkscape-font-specification:'OCR-A BT, Normal';font-variant-ligatures:normal;font-variant-caps:normal;font-variant-numeric:normal;font-variant-east-asian:normal;" font-size="0.796493" d="m 29.550902,63.993429 v 0.35829 l 0.347265,0.91226 0.347265,-0.91226 v -0.35829 q 0,-0.05788 0.03307,-0.09508 0.03307,-0.03721 0.08544,-0.03721 0.05237,0 0.08544,0.03721 0.03307,0.03583 0.03307,0.09508 v 0.403765 l -0.465777,1.190624 q -0.02205,0.05926 -0.04961,0.07993 -0.02618,0.02205 -0.0689,0.02205 -0.0441,0 -0.07304,-0.02343 -0.02894,-0.02343 -0.04823,-0.07855 l -0.463021,-1.190624 v -0.403765 q 0,-0.06063 0.03169,-0.09646 0.03307,-0.03583 0.08682,-0.03583 0.05099,0 0.08406,0.03721 0.03445,0.03721 0.03445,0.09508 z" gorn="0.3.0.0.20.0" id="path3425" stroke-width="0.0746712"/>
                    <path  style="font-style:normal;font-variant:normal;font-weight:normal;font-stretch:normal;font-family:Droid Sans;-inkscape-font-specification:'OCR-A BT, Normal';font-variant-ligatures:normal;font-variant-caps:normal;font-variant-numeric:normal;font-variant-east-asian:normal;" font-size="0.796493" d="m 31.513226,64.591497 q -0.01791,0 -0.03721,0.0083 -0.01791,0.0069 -0.03721,0.02067 l -0.100596,0.08406 q -0.01929,0.01516 -0.03169,0.03996 -0.01102,0.02343 -0.01102,0.04823 v 0.463021 q 0,0.02481 0.01102,0.04823 0.0124,0.02343 0.03169,0.03858 l 0.101974,0.08544 q 0.01654,0.0124 0.03445,0.01929 0.01929,0.0055 0.03859,0.0055 h 0.259071 q 0.01929,0 0.03859,-0.0069 0.01929,-0.0069 0.03583,-0.01929 l 0.100597,-0.08406 q 0.01792,-0.01378 0.03032,-0.03858 0.0124,-0.0248 0.0124,-0.04823 V 64.79269 q 0,-0.0248 -0.0124,-0.04823 -0.01102,-0.02481 -0.02894,-0.03859 l -0.103353,-0.08544 q -0.01791,-0.01378 -0.03721,-0.02067 -0.01791,-0.0083 -0.03583,-0.0083 z m -0.0028,-0.234266 h 0.261827 q 0.05926,0 0.117134,0.02205 0.05926,0.02067 0.108865,0.06063 l 0.101974,0.0813 q 0.05788,0.04823 0.09233,0.121267 0.03445,0.07304 0.03445,0.150206 v 0.463021 q 0,0.07579 -0.03445,0.14745 -0.03307,0.07166 -0.09233,0.119889 l -0.101974,0.08544 q -0.04961,0.03859 -0.108865,0.05926 -0.05788,0.02205 -0.117134,0.02205 H 31.51047 q -0.05926,0 -0.115755,-0.02067 -0.0565,-0.02067 -0.107487,-0.06063 l -0.101974,-0.08544 q -0.05926,-0.04823 -0.09371,-0.119889 -0.03307,-0.07166 -0.03307,-0.14745 V 64.79269 q 0,-0.07717 0.03307,-0.150206 0.03445,-0.07304 0.09371,-0.121267 l 0.101974,-0.0813 q 0.05099,-0.04134 0.107487,-0.06201 0.0565,-0.02067 0.115755,-0.02067 z" gorn="0.3.0.0.20.1" id="path3427" stroke-width="0.0746712"/>
                </g>
                <g  aria-label="Rx" style="font-style:normal;font-variant:normal;font-weight:normal;font-stretch:normal;line-height:125%;font-family:Droid Sans;-inkscape-font-specification:'OCR-A BT, Normal';font-variant-ligatures:normal;font-variant-caps:normal;font-variant-numeric:normal;font-variant-east-asian:normal;text-align:start;letter-spacing:0px;word-spacing:0px;writing-mode:lr-tb;text-anchor:start;stroke-linecap:butt;stroke-linejoin:miter;" font-size="0.796493" fill-opacity="1" gorn="0.3.0.0.21" fill="#000000" id="text3356" stroke-opacity="1" stroke-width="0.0746712" stroke="none">
                    <path  style="font-style:normal;font-variant:normal;font-weight:normal;font-stretch:normal;font-family:Droid Sans;-inkscape-font-specification:'OCR-A BT, Normal';font-variant-ligatures:normal;font-variant-caps:normal;font-variant-numeric:normal;font-variant-east-asian:normal;" font-size="0.796493" d="m 29.550902,66.638168 v 0.361046 h 0.573263 q 0.04823,0 0.08268,-0.03721 0.03583,-0.03721 0.03583,-0.08406 v -0.121268 q 0,-0.04685 -0.03583,-0.08268 -0.03583,-0.03583 -0.08268,-0.03583 z m -0.237023,-0.237022 h 0.810286 q 0.146072,0 0.252181,0.104731 0.106109,0.104731 0.106109,0.250802 v 0.121268 q 0,0.14745 -0.104731,0.253559 -0.104731,0.10473 -0.253559,0.10473 h -0.126779 l 0.461642,0.804774 q 0.0124,0.02067 0.01791,0.03721 0.0055,0.01654 0.0055,0.03032 0,0.04961 -0.03445,0.08406 -0.03445,0.03445 -0.08406,0.03445 -0.03445,0 -0.06339,-0.01791 -0.02894,-0.01792 -0.04685,-0.04961 l -0.5333,-0.923285 H 29.55089 v 0.861274 q 0,0.05925 -0.03307,0.09508 -0.03307,0.03721 -0.08544,0.03721 -0.05237,0 -0.08544,-0.03721 -0.03307,-0.03721 -0.03307,-0.09508 z" gorn="0.3.0.0.21.0" id="path3420" stroke-width="0.0746712"/>
                    <path  style="font-style:normal;font-variant:normal;font-weight:normal;font-stretch:normal;font-family:Droid Sans;-inkscape-font-specification:'OCR-A BT, Normal';font-variant-ligatures:normal;font-variant-caps:normal;font-variant-numeric:normal;font-variant-east-asian:normal;" font-size="0.796493" d="m 31.301009,66.948227 0.344509,0.414789 0.336241,-0.414789 q 0.01929,-0.02481 0.04547,-0.03721 0.02756,-0.01378 0.05512,-0.01378 0.04823,0 0.0813,0.03445 0.03445,0.03445 0.03445,0.0813 0,0.02343 -0.0083,0.04548 -0.0083,0.02067 -0.02481,0.04272 l -0.367936,0.445106 0.392741,0.480935 q 0.01791,0.01929 0.02618,0.03996 0.0083,0.01929 0.0083,0.0441 0,0.04823 -0.03445,0.0813 -0.03307,0.03445 -0.08131,0.03445 -0.02756,0 -0.05512,-0.01378 -0.02756,-0.01378 -0.04685,-0.03721 l -0.363802,-0.44235 -0.366558,0.44235 q -0.02205,0.02618 -0.04823,0.03858 -0.0248,0.0124 -0.05374,0.0124 -0.04961,0 -0.08268,-0.03307 -0.03307,-0.03169 -0.03307,-0.07993 0,-0.02343 0.0083,-0.04547 0.0096,-0.02343 0.0248,-0.04134 L 31.4898,67.549051 31.11773,67.101189 q -0.01792,-0.02205 -0.02618,-0.0441 -0.0083,-0.02343 -0.0083,-0.05237 0,-0.03996 0.03445,-0.07304 0.03583,-0.03445 0.07855,-0.03445 0.03032,0 0.0565,0.01378 0.02756,0.0124 0.04823,0.03721 z" gorn="0.3.0.0.21.1" id="path3422" stroke-width="0.0746712"/>
                </g>
                <g  aria-label="Tx" style="font-style:normal;font-variant:normal;font-weight:normal;font-stretch:normal;line-height:125%;font-family:Droid Sans;-inkscape-font-specification:'OCR-A BT, Normal';font-variant-ligatures:normal;font-variant-caps:normal;font-variant-numeric:normal;font-variant-east-asian:normal;text-align:start;letter-spacing:0px;word-spacing:0px;writing-mode:lr-tb;text-anchor:start;stroke-linecap:butt;stroke-linejoin:miter;" font-size="0.796493" fill-opacity="1" gorn="0.3.0.0.22" fill="#000000" id="text3360" stroke-opacity="1" stroke-width="0.0746712" stroke="none">
                    <path  style="font-style:normal;font-variant:normal;font-weight:normal;font-stretch:normal;font-family:Droid Sans;-inkscape-font-specification:'OCR-A BT, Normal';font-variant-ligatures:normal;font-variant-caps:normal;font-variant-numeric:normal;font-variant-east-asian:normal;" font-size="0.796493" d="m 29.313879,68.941147 h 1.168576 v 0.304546 q 0,0.05926 -0.03307,0.09646 -0.03307,0.03583 -0.08544,0.03583 -0.05236,0 -0.08544,-0.03721 -0.03307,-0.03721 -0.03307,-0.09508 v -0.06752 h -0.228754 v 1.459342 q 0,0.05925 -0.03307,0.09508 -0.03307,0.03721 -0.08544,0.03721 -0.05237,0 -0.08544,-0.03721 -0.03307,-0.03721 -0.03307,-0.09508 v -1.459342 h -0.228754 v 0.06752 q 0,0.05926 -0.03307,0.09646 -0.03307,0.03583 -0.08544,0.03583 -0.05237,0 -0.08544,-0.03721 -0.03307,-0.03721 -0.03307,-0.09508 z" gorn="0.3.0.0.22.0" id="path3415" stroke-width="0.0746712"/>
                    <path  style="font-style:normal;font-variant:normal;font-weight:normal;font-stretch:normal;font-family:Droid Sans;-inkscape-font-specification:'OCR-A BT, Normal';font-variant-ligatures:normal;font-variant-caps:normal;font-variant-numeric:normal;font-variant-east-asian:normal;" font-size="0.796493" d="m 31.301009,69.488228 0.344509,0.414789 0.336241,-0.414789 q 0.01929,-0.02481 0.04547,-0.03721 0.02756,-0.01378 0.05512,-0.01378 0.04823,0 0.0813,0.03445 0.03445,0.03445 0.03445,0.0813 0,0.02343 -0.0083,0.04548 -0.0083,0.02067 -0.02481,0.04272 l -0.367936,0.445106 0.392741,0.480935 q 0.01791,0.01929 0.02618,0.03996 0.0083,0.01929 0.0083,0.0441 0,0.04823 -0.03445,0.0813 -0.03307,0.03445 -0.08131,0.03445 -0.02756,0 -0.05512,-0.01378 -0.02756,-0.01378 -0.04685,-0.03721 l -0.363802,-0.44235 -0.366558,0.44235 q -0.02205,0.02618 -0.04823,0.03858 -0.0248,0.0124 -0.05374,0.0124 -0.04961,0 -0.08268,-0.03307 -0.03307,-0.03169 -0.03307,-0.07993 0,-0.02343 0.0083,-0.04548 0.0096,-0.02343 0.0248,-0.04134 L 31.4898,70.089052 31.11773,69.64119 q -0.01792,-0.02205 -0.02618,-0.0441 -0.0083,-0.02343 -0.0083,-0.05237 0,-0.03996 0.03445,-0.07304 0.03583,-0.03445 0.07855,-0.03445 0.03032,0 0.0565,0.01378 0.02756,0.0124 0.04823,0.03721 z" gorn="0.3.0.0.22.1" id="path3417" stroke-width="0.0746712"/>
                </g>
                <g  aria-label="SR" style="font-style:normal;font-variant:normal;font-weight:normal;font-stretch:normal;line-height:125%;font-family:Droid Sans;-inkscape-font-specification:'OCR-A BT, Normal';font-variant-ligatures:normal;font-variant-caps:normal;font-variant-numeric:normal;font-variant-east-asian:normal;text-align:start;letter-spacing:0px;word-spacing:0px;writing-mode:lr-tb;text-anchor:start;stroke-linecap:butt;stroke-linejoin:miter;" font-size="0.796493" fill-opacity="1" gorn="0.3.0.0.23" fill="#000000" id="text3364" stroke-opacity="1" stroke-width="0.0746712" stroke="none">
                    <path  style="font-style:normal;font-variant:normal;font-weight:normal;font-stretch:normal;font-family:Droid Sans;-inkscape-font-specification:'OCR-A BT, Normal';font-variant-ligatures:normal;font-variant-caps:normal;font-variant-numeric:normal;font-variant-east-asian:normal;" font-size="0.796493" d="m 29.578462,71.481148 h 0.584288 q 0.128157,0 0.223242,0.09371 0.09646,0.09233 0.09646,0.21084 0,0.05926 -0.03307,0.09646 -0.03307,0.03583 -0.08544,0.03583 -0.05099,0 -0.07855,-0.02618 -0.02756,-0.02756 -0.04547,-0.114377 -0.0041,-0.02205 -0.02756,-0.03996 -0.02343,-0.01929 -0.04961,-0.01929 h -0.584288 q -0.0096,0 -0.01929,0.0096 -0.0083,0.0083 -0.0083,0.01792 0,0.0041 0.0014,0.0096 0.0028,0.0041 0.0069,0.01102 l 0.850249,1.091406 q 0.03721,0.04961 0.05512,0.09508 0.01792,0.04548 0.01792,0.09233 0,0.108865 -0.07855,0.186035 -0.07717,0.07855 -0.187414,0.07855 h -0.584287 q -0.12678,0 -0.223242,-0.09371 -0.09509,-0.09371 -0.09509,-0.210839 0,-0.05926 0.03307,-0.09508 0.03307,-0.03721 0.08544,-0.03721 0.04961,0 0.07717,0.02756 0.02756,0.02618 0.04685,0.112999 0.0041,0.02205 0.02756,0.04134 0.02343,0.01792 0.04823,0.01792 h 0.584287 q 0.0124,0 0.02067,-0.0083 0.0083,-0.0083 0.0083,-0.01929 0,-0.0041 -0.0028,-0.0083 -0.0014,-0.0055 -0.0055,-0.0124 l -0.850249,-1.091405 q -0.03721,-0.04961 -0.05512,-0.09508 -0.01791,-0.04547 -0.01791,-0.09233 0,-0.108865 0.07717,-0.186035 0.07855,-0.07855 0.187413,-0.07855 z" gorn="0.3.0.0.23.0" id="path3410" stroke-width="0.0746712"/>
                    <path  style="font-style:normal;font-variant:normal;font-weight:normal;font-stretch:normal;font-family:Droid Sans;-inkscape-font-specification:'OCR-A BT, Normal';font-variant-ligatures:normal;font-variant-caps:normal;font-variant-numeric:normal;font-variant-east-asian:normal;" font-size="0.796493" d="m 31.295497,71.71817 v 0.361046 h 0.573263 q 0.04823,0 0.08268,-0.03721 0.03583,-0.03721 0.03583,-0.08406 v -0.121268 q 0,-0.04685 -0.03583,-0.08268 -0.03583,-0.03583 -0.08268,-0.03583 z m -0.237023,-0.237022 h 0.810286 q 0.146072,0 0.252181,0.104731 0.106109,0.10473 0.106109,0.250802 v 0.121268 q 0,0.14745 -0.104731,0.253558 -0.104731,0.104731 -0.253559,0.104731 h -0.126779 l 0.461642,0.804774 q 0.0124,0.02067 0.01792,0.03721 0.0055,0.01654 0.0055,0.03032 0,0.04961 -0.03445,0.08406 -0.03445,0.03445 -0.08406,0.03445 -0.03445,0 -0.06339,-0.01792 -0.02894,-0.01791 -0.04685,-0.04961 l -0.533301,-0.923285 h -0.169498 v 0.861273 q 0,0.05926 -0.03307,0.09508 -0.03307,0.03721 -0.08544,0.03721 -0.05236,0 -0.08544,-0.03721 -0.03307,-0.03721 -0.03307,-0.09508 z" gorn="0.3.0.0.23.1" id="path3412" stroke-width="0.0746712"/>
                </g>
                <g  aria-label="Hd" style="font-style:normal;font-variant:normal;font-weight:normal;font-stretch:normal;line-height:125%;font-family:Droid Sans;-inkscape-font-specification:'OCR-A BT, Normal';font-variant-ligatures:normal;font-variant-caps:normal;font-variant-numeric:normal;font-variant-east-asian:normal;text-align:start;letter-spacing:0px;word-spacing:0px;writing-mode:lr-tb;text-anchor:start;stroke-linecap:butt;stroke-linejoin:miter;" font-size="0.796493" fill-opacity="1" gorn="0.3.0.0.24" fill="#000000" id="text3368" stroke-opacity="1" stroke-width="0.0746712" stroke="none">
                    <path  style="font-style:normal;font-variant:normal;font-weight:normal;font-stretch:normal;font-family:Droid Sans;-inkscape-font-specification:'OCR-A BT, Normal';font-variant-ligatures:normal;font-variant-caps:normal;font-variant-numeric:normal;font-variant-east-asian:normal;" font-size="0.796493" d="m 29.550902,74.15344 v 0.662836 h 0.69453 V 74.15344 q 0,-0.06063 0.03169,-0.09646 0.03307,-0.03583 0.08682,-0.03583 0.05099,0 0.08406,0.03721 0.03445,0.03721 0.03445,0.09508 v 1.564072 q 0,0.05926 -0.03307,0.09508 -0.03307,0.03721 -0.08544,0.03721 -0.05236,0 -0.08544,-0.03721 -0.03307,-0.03721 -0.03307,-0.09508 v -0.664214 h -0.69453 v 0.664214 q 0,0.05926 -0.03307,0.09508 -0.03307,0.03721 -0.08544,0.03721 -0.05237,0 -0.08544,-0.03721 -0.03307,-0.03721 -0.03307,-0.09508 V 74.15344 q 0,-0.06063 0.03169,-0.09646 0.03307,-0.03583 0.08682,-0.03583 0.05099,0 0.08406,0.03721 0.03445,0.03721 0.03445,0.09508 z" gorn="0.3.0.0.24.0" id="path3405" stroke-width="0.0746712"/>
                    <path  style="font-style:normal;font-variant:normal;font-weight:normal;font-stretch:normal;font-family:Droid Sans;-inkscape-font-specification:'OCR-A BT, Normal';font-variant-ligatures:normal;font-variant-caps:normal;font-variant-numeric:normal;font-variant-east-asian:normal;" font-size="0.796493" d="m 31.4898,74.754264 q -0.03721,0 -0.07717,0.03169 -0.0028,0.0014 -0.0041,0.0028 l -0.07855,0.06201 q -0.01516,0.0124 -0.02481,0.03445 -0.0096,0.02205 -0.0096,0.0441 v 0.50574 q 0,0.02343 0.0096,0.04685 0.0096,0.02343 0.02481,0.03445 l 0.07855,0.06201 q 0.0014,0.0014 0.0028,0.0028 0.04134,0.03169 0.07855,0.03169 h 0.183279 q 0.02067,0 0.03996,-0.0083 0.02067,-0.0083 0.04272,-0.02618 l 0.199815,-0.162609 q 0.01378,-0.01102 0.02205,-0.03445 0.0096,-0.02343 0.0096,-0.04823 v -0.30179 q 0,-0.02481 -0.0096,-0.04685 -0.0083,-0.02343 -0.02205,-0.03445 l -0.199815,-0.161231 q -0.02067,-0.01791 -0.03996,-0.02618 -0.01929,-0.0083 -0.04272,-0.0083 z m 0.73725,-0.600824 v 1.564072 q 0,0.05788 -0.03445,0.09508 -0.03445,0.03721 -0.08682,0.03721 -0.05374,0 -0.08682,-0.03583 -0.03169,-0.03583 -0.03169,-0.09646 v -0.02618 l -0.08819,0.07717 q -0.0441,0.03858 -0.104731,0.05925 -0.05926,0.02205 -0.121267,0.02205 H 31.4898 q -0.06063,0 -0.118511,-0.02067 -0.0565,-0.02067 -0.107487,-0.06063 l -0.0813,-0.06201 q -0.05788,-0.04547 -0.09233,-0.118511 -0.03445,-0.07441 -0.03445,-0.152962 v -0.514008 q 0,-0.0689 0.03583,-0.143316 0.03721,-0.07441 0.09095,-0.115755 l 0.0813,-0.06201 q 0.05237,-0.04134 0.107487,-0.06201 0.0565,-0.02067 0.118511,-0.02067 h 0.183279 q 0.06201,0 0.121267,0.02205 0.06063,0.02205 0.104731,0.06063 l 0.08819,0.07579 v -0.52228 q 0,-0.05788 0.03307,-0.09508 0.03307,-0.03721 0.08544,-0.03721 0.05237,0 0.08682,0.03721 0.03445,0.03583 0.03445,0.09508 z" gorn="0.3.0.0.24.1" id="path3407" stroke-width="0.0746712"/>
                </g>
            </g>
        </g>
    </g>
</svg>
