<?xml version='1.0' encoding='UTF-8' standalone='no'?>
<svg xmlns="http://www.w3.org/2000/svg" height="17mm" version="1.0" id="svg121"  width="12mm" gorn="0">
    <desc >
        <referenceFile >ky-006.svg</referenceFile>
    </desc>
    <g id="breadboard"  gorn="0.1">
        <metadata id="metadata125" >
            <rdf:RDF xmlns:rdf="http://www.w3.org/1999/02/22-rdf-syntax-ns#">
                <cc:Work xmlns:cc="http://creativecommons.org/ns#" xmlns:rdf="http://www.w3.org/1999/02/22-rdf-syntax-ns#" rdf:about="">
                    <dc:format xmlns:dc="http://purl.org/dc/elements/1.1/">image/svg+xml</dc:format>
                    <dc:type xmlns:rdf="http://www.w3.org/1999/02/22-rdf-syntax-ns#" rdf:resource="http://purl.org/dc/dcmitype/StillImage" xmlns:dc="http://purl.org/dc/elements/1.1/"/>
                    <dc:title xmlns:dc="http://purl.org/dc/elements/1.1/"/>
                </cc:Work>
            </rdf:RDF>
        </metadata>
        <defs id="defs3" />
        <path d="  M 0,0   L 0,52.399612   L 42.479685,52.399612   L 42.479685,0   z  M 6.879949,2.0799846   C 8.639936,2.0799846 9.9199265,3.5199739 9.9199265,5.1199621   L 9.9199265,5.1199621   C 9.9199265,6.7999496 8.4799372,8.0799401 6.879949,8.0799401   L 6.879949,8.0799401   C 5.1999615,8.0799401 3.919971,6.7199502 3.919971,5.1199621   L 3.919971,5.1199621   C 3.8399716,3.5199739 5.1999615,2.0799846 6.879949,2.0799846   z  M 35.679736,2.0799846   C 37.439723,2.0799846 38.719713,3.5199739 38.719713,5.1199621   L 38.719713,5.1199621   C 38.719713,6.7999496 37.279724,8.0799401 35.679736,8.0799401   L 35.679736,8.0799401   C 33.999748,8.0799401 32.719758,6.7199502 32.719758,5.1199621   C 32.719758,3.5199739 34.079748,2.0799846 35.679736,2.0799846   z " style="fill-rule:nonzero;" id="path5" stroke="none"  gorn="0.1.2" fill-opacity="1" fill="#333333"/>
        <path d="  M 10.319924,5.1999615   C 10.319924,7.1199473 8.7999348,8.639936 6.879949,8.639936   C 4.9599633,8.639936 3.3599751,7.1199473 3.3599751,5.1999615   C 3.3599751,3.2799757 4.9599633,1.6799876 6.879949,1.6799876   C 8.7999348,1.6799876 10.319924,3.2799757 10.319924,5.1999615   z " style="stroke-linecap:butt;stroke-linejoin:miter;stroke-miterlimit:4;stroke-dasharray:none;" id="path7" stroke="#8c8c8c"  gorn="0.1.3" stroke-opacity="1" fill="none" stroke-width="0.0903104"/>
        <path d="  M 39.19971,5.1999615   C 39.19971,7.1199473 37.679721,8.639936 35.759735,8.639936   C 33.839749,8.639936 32.319761,7.1199473 32.319761,5.1999615   C 32.319761,3.2799757 33.839749,1.6799876 35.759735,1.6799876   C 37.679721,1.6799876 39.19971,3.2799757 39.19971,5.1999615   z " style="stroke-linecap:butt;stroke-linejoin:miter;stroke-miterlimit:4;stroke-dasharray:none;" id="path9" stroke="#8c8c8c"  gorn="0.1.4" stroke-opacity="1" fill="none" stroke-width="0.0903104"/>
        <path d="  M 39.11971,25.359812   C 39.11971,35.199739 31.119769,43.19968 21.279842,43.19968   C 11.439915,43.19968 3.5199739,35.199739 3.5199739,25.359812   C 3.5199739,15.599884 11.439915,7.5999437 21.279842,7.5999437   C 31.119769,7.5999437 39.11971,15.599884 39.11971,25.359812   z " style="fill-rule:nonzero;" id="path11" stroke="none"  gorn="0.1.5" fill-opacity="1" fill="#666666"/>
        <path d="  M 25.279813,25.359812   C 25.279813,27.599796 23.519826,29.359783 21.279842,29.359783   C 19.119858,29.359783 17.279872,27.599796 17.279872,25.359812   C 17.279872,23.199828 19.119858,21.359842 21.279842,21.359842   C 23.519826,21.359842 25.279813,23.199828 25.279813,25.359812   z " style="fill-rule:nonzero;" id="path13" stroke="none"  gorn="0.1.6" fill-opacity="1" fill="#808080"/>
        <path d="  M 25.199813,13.5199   C 25.199813,15.679884 23.439826,17.439871 21.359842,17.439871   C 19.199858,17.439871 17.439871,15.679884 17.439871,13.5199   C 17.439871,11.439915 19.199858,9.6799283 21.359842,9.6799283   C 23.439826,9.6799283 25.199813,11.439915 25.199813,13.5199   z " style="stroke-linecap:butt;stroke-linejoin:miter;stroke-miterlimit:4;stroke-dasharray:none;" id="path15" stroke="#4d4d4d"  gorn="0.1.7" stroke-opacity="1" fill="none" stroke-width="0.0677328"/>
        <path d="  M 21.359842,11.039918   L 21.359842,15.999881  " style="stroke-linecap:butt;stroke-linejoin:miter;stroke-miterlimit:4;stroke-dasharray:none;" id="path17" stroke="#4d4d4d"  gorn="0.1.8" stroke-opacity="1" fill="none" stroke-width="0.0903104"/>
        <path d="  M 18.87986,13.5199   L 23.839823,13.5199  " style="stroke-linecap:butt;stroke-linejoin:miter;stroke-miterlimit:4;stroke-dasharray:none;" id="path19" stroke="#4d4d4d"  gorn="0.1.9" stroke-opacity="1" fill="none" stroke-width="0.0903104"/>
        <path d="  M 25.199813,13.5199   C 25.199813,15.679884 23.439826,17.359871 21.359842,17.359871   C 19.199858,17.359871 17.439871,15.679884 17.439871,13.5199   C 17.439871,11.359916 19.199858,9.6799283 21.359842,9.6799283   C 23.439826,9.6799283 25.199813,11.359916 25.199813,13.5199   z " style="stroke-linecap:butt;stroke-linejoin:miter;stroke-miterlimit:4;stroke-dasharray:none;" id="path21" stroke="#4d4d4d"  gorn="0.1.10" stroke-opacity="1" fill="none" stroke-width="0.0677328"/>
        <path d="  M 21.359842,11.039918   L 21.359842,15.999881  " style="stroke-linecap:butt;stroke-linejoin:miter;stroke-miterlimit:4;stroke-dasharray:none;" id="path23" stroke="#4d4d4d"  gorn="0.1.11" stroke-opacity="1" fill="none" stroke-width="0.0903104"/>
        <path d="  M 18.799861,13.5199   L 23.839823,13.5199  " style="stroke-linecap:butt;stroke-linejoin:miter;stroke-miterlimit:4;stroke-dasharray:none;" id="path25" stroke="#4d4d4d"  gorn="0.1.12" stroke-opacity="1" fill="none" stroke-width="0.0903104"/>
        <path d="  M 17.59987,45.199665   L 16.079881,43.679676   L 12.079911,43.679676   L 10.559922,45.199665   L 10.559922,49.279635   L 12.079911,50.799624   L 16.079881,50.799624   L 17.59987,49.279635   z " style="fill-rule:nonzero;" id="path27" stroke="none"  gorn="0.1.13" fill-opacity="1" fill="#404040"/>
        <path d="  M 13.039903,46.079659   L 15.279887,46.079659   L 15.279887,48.399641   L 13.039903,48.399641   z " style="fill-rule:nonzero;" id="path29" stroke="none"  gorn="0.1.14" fill-opacity="1" fill="#8d8c8c"/>
        <path d="  M 13.5199,46.559655   L 14.719891,46.559655   L 14.719891,59.919556   L 13.5199,59.919556   z " style="fill-rule:nonzero;" id="path31" stroke="none"  gorn="0.1.15" fill-opacity="1" fill="#8c8663"/>
        <path d="  M 13.5199,47.839646   L 13.5199,46.639655   L 13.039903,46.079659   L 13.039903,48.399641   z " style="fill-rule:nonzero;" id="path33" stroke="none"  gorn="0.1.16" fill-opacity="1" fill="#b8af82"/>
        <path d="  M 13.039903,46.079659   L 15.199887,46.079659   L 14.719891,46.639655   L 13.5199,46.639655   z " style="fill-rule:nonzero;" id="path35" stroke="none"  gorn="0.1.17" fill-opacity="1" fill="#80795b"/>
        <path d="  M 14.719891,47.839646   L 14.719891,46.639655   L 15.199887,46.079659   L 15.199887,48.399641   z " style="fill-rule:nonzero;" id="path37" stroke="none"  gorn="0.1.18" fill-opacity="1" fill="#5e5b43"/>
        <path d="  M 13.039903,62.239539   L 13.5199,61.599544   L 14.719891,61.599544   L 15.199887,62.239539   z " style="fill-rule:nonzero;" id="path39" stroke="none"  gorn="0.1.19" fill-opacity="1" fill="#9a916c"/>
        <path d="  M 13.039903,62.239539   L 13.5199,61.599544   L 13.5199,60.479552   L 13.039903,59.919556   z " style="fill-rule:nonzero;" id="path41" stroke="none"  gorn="0.1.20" fill-opacity="1" fill="#b8af82"/>
        <path d="  M 14.719891,61.599544   L 14.719891,60.479552   L 15.279887,59.919556   L 15.279887,62.239539   z " style="fill-rule:nonzero;" id="path43" stroke="none"  gorn="0.1.21" fill-opacity="1" fill="#5e5b43"/>
        <path d="  M 13.039903,47.519648   L 13.599899,47.519648   L 13.599899,61.279546   L 13.039903,61.279546   z " style="fill-rule:nonzero;" id="path45" stroke="none"  gorn="0.1.22" fill-opacity="1" fill="#b8af82"/>
        <path d="  M 14.719891,47.19965   L 15.279887,47.19965   L 15.279887,61.039548   L 14.719891,61.039548   z " style="fill-rule:nonzero;" id="path47" stroke="none"  gorn="0.1.23" fill-opacity="1" fill="#5e5b43"/>
        <path d="  M 14.719891,47.19965   L 15.279887,47.19965   L 15.279887,61.039548   L 14.719891,61.039548   z " style="fill-rule:nonzero;" id="path49" stroke="none"  gorn="0.1.24" fill-opacity="1" fill="#5e5b43"/>
        <path d="  M 23.279828,43.679676   L 19.279857,43.679676   L 17.759868,45.199665   L 17.759868,49.279635   L 19.279857,50.799624   L 23.279828,50.799624   L 24.799816,49.279635   L 24.799816,45.199665   z " style="fill-rule:nonzero;" id="path51" stroke="none"  gorn="0.1.25" fill-opacity="1" fill="#404040"/>
        <path d="  M 20.23985,46.079659   L 22.479833,46.079659   L 22.479833,48.399641   L 20.23985,48.399641   z " style="fill-rule:nonzero;" id="path53" stroke="none"  gorn="0.1.26" fill-opacity="1" fill="#8d8c8c"/>
        <path d="  M 20.719847,46.559655   L 21.919838,46.559655   L 21.919838,59.919556   L 20.719847,59.919556   z " style="fill-rule:nonzero;" id="path55" stroke="none"  gorn="0.1.27" fill-opacity="1" fill="#8c8663"/>
        <path d="  M 20.23985,46.079659   L 20.23985,48.399641   L 20.719847,47.839646   L 20.719847,46.639655   z " style="fill-rule:nonzero;" id="path57" stroke="none"  gorn="0.1.28" fill-opacity="1" fill="#b8af82"/>
        <path d="  M 21.919838,46.639655   L 20.719847,46.639655   L 20.23985,46.079659   L 22.399834,46.079659   z " style="fill-rule:nonzero;" id="path59" stroke="none"  gorn="0.1.29" fill-opacity="1" fill="#80795b"/>
        <path d="  M 22.399834,46.079659   L 22.399834,48.399641   L 21.919838,47.839646   L 21.919838,46.639655   z " style="fill-rule:nonzero;" id="path61" stroke="none"  gorn="0.1.30" fill-opacity="1" fill="#5e5b43"/>
        <path d="  M 21.919838,61.599544   L 22.399834,62.239539   L 20.23985,62.239539   L 20.719847,61.599544   z " style="fill-rule:nonzero;" id="path63" stroke="none"  gorn="0.1.31" fill-opacity="1" fill="#9a916c"/>
        <path d="  M 20.719847,60.479552   L 20.23985,59.919556   L 20.23985,62.239539   L 20.719847,61.599544   z " style="fill-rule:nonzero;" id="path65" stroke="none"  gorn="0.1.32" fill-opacity="1" fill="#b8af82"/>
        <path d="  M 22.479833,59.919556   L 22.479833,62.239539   L 21.919838,61.599544   L 21.919838,60.479552   z " style="fill-rule:nonzero;" id="path67" stroke="none"  gorn="0.1.33" fill-opacity="1" fill="#5e5b43"/>
        <path d="  M 20.23985,47.519648   L 20.799846,47.519648   L 20.799846,61.279546   L 20.23985,61.279546   z " style="fill-rule:nonzero;" id="path69" stroke="none"  gorn="0.1.34" fill-opacity="1" fill="#b8af82"/>
        <path d="  M 21.919838,47.19965   L 22.479833,47.19965   L 22.479833,61.039548   L 21.919838,61.039548   z " style="fill-rule:nonzero;" id="path71" stroke="none"  gorn="0.1.35" fill-opacity="1" fill="#5e5b43"/>
        <path d="  M 21.919838,47.19965   L 22.479833,47.19965   L 22.479833,61.039548   L 21.919838,61.039548   z " style="fill-rule:nonzero;" id="path73" stroke="none"  gorn="0.1.36" fill-opacity="1" fill="#5e5b43"/>
        <path d="  M 26.479804,50.799624   L 30.479774,50.799624   L 31.999763,49.279635   L 31.999763,45.199665   L 30.479774,43.679676   L 26.479804,43.679676   L 24.959815,45.199665   L 24.959815,49.279635   z " style="fill-rule:nonzero;" id="path75" stroke="none"  gorn="0.1.37" fill-opacity="1" fill="#404040"/>
        <path d="  M 27.359797,46.079659   L 29.67978,46.079659   L 29.67978,48.399641   L 27.359797,48.399641   z " style="fill-rule:nonzero;" id="path77" stroke="none"  gorn="0.1.38" fill-opacity="1" fill="#8d8c8c"/>
        <path d="  M 27.919793,46.559655   L 29.119784,46.559655   L 29.119784,59.919556   L 27.919793,59.919556   z " style="fill-rule:nonzero;" id="path79" stroke="none"  gorn="0.1.39" fill-opacity="1" fill="#8c8663"/>
        <path d="  M 27.439797,46.079659   L 27.439797,48.399641   L 27.919793,47.839646   L 27.919793,46.639655   z " style="fill-rule:nonzero;" id="path81" stroke="none"  gorn="0.1.40" fill-opacity="1" fill="#b8af82"/>
        <path d="  M 29.119784,46.639655   L 27.919793,46.639655   L 27.439797,46.079659   L 29.599781,46.079659   z " style="fill-rule:nonzero;" id="path83" stroke="none"  gorn="0.1.41" fill-opacity="1" fill="#80795b"/>
        <path d="  M 29.599781,46.079659   L 29.599781,48.399641   L 29.119784,47.839646   L 29.119784,46.639655   z " style="fill-rule:nonzero;" id="path85" stroke="none"  gorn="0.1.42" fill-opacity="1" fill="#5e5b43"/>
        <path d="  M 29.119784,61.599544   L 29.599781,62.239539   L 27.439797,62.239539   L 27.919793,61.599544   z " style="fill-rule:nonzero;" id="path87" stroke="none"  gorn="0.1.43" fill-opacity="1" fill="#9a916c"/>
        <path d="  M 27.919793,60.479552   L 27.439797,59.919556   L 27.439797,62.239539   L 27.919793,61.599544   z " style="fill-rule:nonzero;" id="path89" stroke="none"  gorn="0.1.44" fill-opacity="1" fill="#b8af82"/>
        <path d="  M 29.67978,59.919556   L 29.67978,62.239539   L 29.119784,61.599544   L 29.119784,60.479552   z " style="fill-rule:nonzero;" id="path91" stroke="none"  gorn="0.1.45" fill-opacity="1" fill="#5e5b43"/>
        <path d="  M 27.359797,47.519648   L 27.999793,47.519648   L 27.999793,61.279546   L 27.359797,61.279546   z " style="fill-rule:nonzero;" id="path93" stroke="none"  gorn="0.1.46" fill-opacity="1" fill="#b8af82"/>
        <path d="  M 29.119784,47.19965   L 29.67978,47.19965   L 29.67978,61.039548   L 29.119784,61.039548   z " style="fill-rule:nonzero;" id="path95" stroke="none"  gorn="0.1.47" fill-opacity="1" fill="#5e5b43"/>
        <path d="  M 29.119784,47.19965   L 29.67978,47.19965   L 29.67978,61.039548   L 29.119784,61.039548   z " style="fill-rule:nonzero;" id="path97" stroke="none"  gorn="0.1.48" fill-opacity="1" fill="#5e5b43"/>
        <path d="  M 13.5199,59.919556   L 14.719891,59.919556   L 14.719891,61.599544   L 13.5199,61.599544   z " style="fill-rule:nonzero;" id="connector6pin" stroke="none"  gorn="0.1.49" fill-opacity="1" fill="#8c8663"/>
        <path d="  M 20.719847,59.919556   L 21.919838,59.919556   L 21.919838,61.599544   L 20.719847,61.599544   z " style="fill-rule:nonzero;" id="connector11pin" stroke="none"  gorn="0.1.50" fill-opacity="1" fill="#8c8663"/>
        <path d="  M 27.919793,59.919556   L 29.119784,59.919556   L 29.119784,61.599544   L 27.919793,61.599544   z " style="fill-rule:nonzero;" id="connector10pin" stroke="none"  gorn="0.1.51" fill-opacity="1" fill="#8c8663"/>
        <path d="  M 12.799905,5.0399627   L 12.799905,2.2399834   C 12.799905,2.0799846 12.799905,2.0799846 12.879905,2.0799846   C 13.039903,2.0799846 13.039903,1.9999852 13.039903,1.9999852   C 13.119903,1.9999852 13.119903,1.9999852 13.119903,2.0799846   L 13.199902,2.2399834   L 13.199902,3.1999763   L 14.479893,2.0799846   C 14.479893,2.0799846 14.639892,1.9999852 14.719891,1.9999852   C 14.79989,1.9999852 14.79989,1.9999852 14.79989,2.0799846   L 14.87989,2.2399834   C 14.87989,2.3199828 14.87989,2.3199828 14.79989,2.3199828   L 13.279902,3.5999733   L 14.79989,4.8799639   L 14.87989,5.0399627   C 14.87989,5.0399627 14.87989,5.1199621 14.79989,5.1199621   L 14.719891,5.1999615   C 14.639892,5.1999615 14.639892,5.1999615 14.639892,5.1199621   L 13.279902,3.9999704   L 13.279902,5.0399627   C 13.279902,5.1199621 13.279902,5.1199621 13.199902,5.1199621   L 13.119903,5.1999615   C 13.039903,5.1999615 13.039903,5.1999615 13.039903,5.1199621   C 12.799905,5.1199621 12.799905,5.0399627 12.799905,5.0399627   z " style="fill-rule:nonzero;" id="path105" stroke="none"  gorn="0.1.52" fill-opacity="1" fill="#ffffff"/>
        <path d="  M 17.039874,3.5999733   L 17.039874,5.0399627   C 17.039874,5.1199621 17.039874,5.1199621 16.879875,5.1199621   L 16.799876,5.1999615   C 16.719876,5.1999615 16.719876,5.1999615 16.719876,5.1199621   L 16.639877,5.0399627   L 16.639877,3.5999733   L 15.839883,2.6399804   L 15.839883,2.2399834   C 15.839883,2.0799846 15.839883,2.0799846 15.919882,2.0799846   C 15.999881,2.0799846 15.999881,1.9999852 15.999881,1.9999852   C 16.079881,1.9999852 16.079881,1.9999852 16.079881,2.0799846   L 16.23988,2.2399834   L 16.23988,2.4799816   L 16.799876,3.2799757   L 17.439871,2.4799816   L 17.439871,2.2399834   C 17.439871,2.0799846 17.439871,2.0799846 17.51987,2.0799846   C 17.59987,2.0799846 17.59987,1.9999852 17.59987,1.9999852   C 17.679869,1.9999852 17.679869,1.9999852 17.679869,2.0799846   C 17.679869,2.0799846 17.839868,2.2399834 17.839868,2.3199828   L 17.839868,2.7199799   z " style="fill-rule:nonzero;" id="path107" stroke="none"  gorn="0.1.53" fill-opacity="1" fill="#ffffff"/>
        <path d="  M 20.879845,3.5199739   L 20.879845,3.6799727   C 20.879845,3.8399716 20.879845,3.8399716 20.799846,3.8399716   L 20.719847,3.919971   L 19.039859,3.919971   C 18.87986,3.919971 18.87986,3.919971 18.87986,3.8399716   L 18.799861,3.6799727   L 18.799861,3.5199739   C 18.799861,3.4399745 18.799861,3.4399745 18.87986,3.4399745   L 19.039859,3.2799757   L 20.719847,3.2799757   C 20.799846,3.2799757 20.799846,3.2799757 20.799846,3.4399745   z " style="fill-rule:nonzero;" id="path109" stroke="none"  gorn="0.1.54" fill-opacity="1" fill="#ffffff"/>
        <path d="  M 21.839838,4.7999644   L 21.839838,2.3199828   C 21.839838,2.159984 21.839838,2.0799846 21.919838,1.9999852   C 21.999837,1.9199858 22.079836,1.9199858 22.239835,1.9199858   L 23.519826,1.9199858   C 23.599825,1.9199858 23.679825,1.9199858 23.839823,1.9999852   C 23.919823,2.0799846 23.919823,2.159984 23.919823,2.3199828   L 23.919823,4.7999644   C 23.919823,4.8799639 23.919823,5.0399627 23.839823,5.1199621   C 23.679825,5.1999615 23.599825,5.1999615 23.519826,5.1999615   L 22.239835,5.1999615   C 22.079836,5.1999615 21.999837,5.1999615 21.919838,5.1199621   C 21.839838,5.0399627 21.839838,4.8799639 21.839838,4.7999644   z  M 23.519826,4.7999644   L 23.519826,2.3999822   L 22.239835,2.3999822   L 22.239835,4.7999644   z " style="fill-rule:nonzero;" id="path111" stroke="none"  gorn="0.1.55" fill-opacity="1" fill="#ffffff"/>
        <path d="  M 24.799816,4.7999644   L 24.799816,2.3199828   C 24.799816,2.159984 24.799816,2.0799846 24.879816,1.9999852   C 25.039815,1.9199858 25.119814,1.9199858 25.199813,1.9199858   L 26.479804,1.9199858   C 26.639803,1.9199858 26.719802,1.9199858 26.799801,1.9999852   C 26.879801,2.0799846 26.879801,2.159984 26.879801,2.3199828   L 26.879801,4.7999644   C 26.879801,4.8799639 26.879801,5.0399627 26.799801,5.1199621   C 26.719802,5.1999615 26.639803,5.1999615 26.479804,5.1999615   L 25.199813,5.1999615   C 25.119814,5.1999615 25.039815,5.1999615 24.879816,5.1199621   C 24.879816,5.0399627 24.799816,4.8799639 24.799816,4.7999644   z  M 26.479804,4.7999644   L 26.479804,2.3999822   L 25.199813,2.3999822   L 25.199813,4.7999644   z " style="fill-rule:nonzero;" id="path113" stroke="none"  gorn="0.1.56" fill-opacity="1" fill="#ffffff"/>
        <path d="  M 28.079792,1.9199858   L 28.31979,1.9199858   C 28.39979,1.9199858 28.39979,1.9199858 28.39979,1.9999852   C 28.39979,2.0799846 28.479789,2.0799846 28.479789,2.0799846   C 28.479789,2.2399834 28.479789,2.2399834 28.39979,2.2399834   L 28.31979,2.3199828   L 28.31979,3.6799727   L 29.67978,3.6799727   C 29.839779,3.6799727 29.839779,3.6799727 29.839779,3.8399716   L 29.919778,3.919971   L 29.919778,5.0399627   C 29.919778,5.1199621 29.919778,5.1199621 29.839779,5.1199621   L 29.67978,5.1999615   L 28.079792,5.1999615   C 27.999793,5.1999615 27.999793,5.1999615 27.999793,5.1199621   L 27.919793,5.0399627   L 27.919793,2.2399834   C 27.919793,2.0799846 27.919793,2.0799846 27.999793,2.0799846   C 27.999793,1.9999852 27.999793,1.9199858 28.079792,1.9199858   z  M 28.31979,4.0799698   L 28.31979,4.719965   L 29.519781,4.719965   L 29.519781,4.0799698   z " style="fill-rule:nonzero;" id="path115" stroke="none"  gorn="0.1.57" fill-opacity="1" fill="#ffffff"/>
        <path d="  M 8.0799401,46.879653   L 8.0799401,47.27965   C 8.0799401,47.439649 8.0799401,47.599647 7.9999407,47.679647   C 7.9199413,47.839646 7.8399419,47.839646 7.6799431,47.839646   L 3.6799727,47.839646   C 3.5999733,47.839646 3.4399745,47.839646 3.4399745,47.679647   C 3.4399745,47.599647 3.2799757,47.519648 3.2799757,47.27965   L 3.2799757,46.879653   C 3.2799757,46.799653 3.2799757,46.639655 3.4399745,46.639655   C 3.5199739,46.639655 3.5999733,46.479656 3.6799727,46.479656   L 7.6799431,46.479656   C 7.8399419,46.479656 7.9199413,46.479656 7.9999407,46.639655   C 8.0799401,46.719654 8.0799401,46.719654 8.0799401,46.879653   z " style="fill-rule:nonzero;" id="path117" stroke="none"  gorn="0.1.58" fill-opacity="1" fill="#ffffff"/>
        <path d="  M 35.11974,43.039681   L 37.679721,43.039681   C 37.999719,43.039681 38.319716,43.119681 38.639714,43.439678   C 38.879712,43.679676 39.039711,43.999674 39.039711,44.399671   C 39.039711,44.479671 39.039711,44.719669 38.879712,44.799668   C 38.799713,44.879668 38.719713,44.879668 38.639714,44.879668   C 38.399716,44.879668 38.319716,44.879668 38.319716,44.799668   C 38.319716,44.719669 38.239717,44.55967 38.079718,44.399671   C 37.999719,44.239672 37.919719,44.079673 37.679721,44.079673   L 35.279739,44.079673   C 35.199739,44.079673 35.11974,44.079673 35.11974,44.239672   C 35.11974,44.239672 35.11974,44.319672 35.199739,44.399671   L 38.879712,49.119636   C 39.11971,49.279635 39.19971,49.599633 39.19971,49.839631   C 39.19971,50.079629 39.11971,50.399627 38.879712,50.639625   C 38.719713,50.799624 38.399716,50.879623 38.239717,50.879623   L 35.519737,50.879623   C 35.11974,50.879623 34.799742,50.799624 34.639743,50.479626   C 34.399745,50.239628 34.239746,49.91963 34.239746,49.599633   C 34.239746,49.199636 34.399745,49.039637 34.719743,49.039637   C 34.799742,49.039637 34.879742,49.039637 35.03974,49.119636   C 35.11974,49.199636 35.11974,49.279635 35.11974,49.439634   C 35.11974,49.519633 35.11974,49.599633 35.199739,49.679632   C 35.279739,49.839631 35.439737,49.839631 35.519737,49.839631   L 37.919719,49.839631   C 37.999719,49.839631 38.079718,49.839631 38.079718,49.679632   C 38.079718,49.679632 38.079718,49.599633 37.999719,49.519633   L 34.319746,44.799668   C 34.079748,44.55967 33.999748,44.319672 33.999748,44.079673   C 33.999748,43.839675 34.079748,43.519678 34.319746,43.279679   C 34.479745,43.119681 34.719743,43.039681 35.11974,43.039681   z " style="fill-rule:nonzero;" id="path119" stroke="none"  gorn="0.1.59" fill-opacity="1" fill="#ffffff"/>
    </g>
</svg>
