<?xml version='1.0' encoding='UTF-8' standalone='no'?>
<svg xmlns="http://www.w3.org/2000/svg"  height="9.9999056mm" gorn="0" id="svg8" viewBox="0 0 13.000241 9.9999056" width="13.000241mm" version="1.1">
    <desc >
        <referenceFile >sht31.svg</referenceFile>
    </desc>
    <defs  id="defs2"/>
    <metadata  id="metadata5">
        <rdf:RDF xmlns:rdf="http://www.w3.org/1999/02/22-rdf-syntax-ns#">
            <cc:Work rdf:about="" xmlns:rdf="http://www.w3.org/1999/02/22-rdf-syntax-ns#" xmlns:cc="http://creativecommons.org/ns#">
                <dc:format xmlns:dc="http://purl.org/dc/elements/1.1/">image/svg+xml</dc:format>
                <dc:type rdf:resource="http://purl.org/dc/dcmitype/StillImage" xmlns:rdf="http://www.w3.org/1999/02/22-rdf-syntax-ns#" xmlns:dc="http://purl.org/dc/elements/1.1/"/>
                <dc:title xmlns:dc="http://purl.org/dc/elements/1.1/"/>
            </cc:Work>
        </rdf:RDF>
    </metadata>
    <g  transform="translate(-40.639896,-167.63989)">
        <g >
            <g  gorn="0.3.0.0" id="breadboard">
                <g  transform="scale(0.26458333)">
                    <g >
                        <path  style="opacity:1;vector-effect:none;fill-rule:evenodd;stroke-linecap:round;stroke-linejoin:round;stroke-miterlimit:4;stroke-dasharray:none;stroke-dashoffset:0;paint-order:fill markers stroke" gorn="0.3.0.0.0.0.0" d="m 153.59961,633.59961 v 37.79492 h 49.13477 v -37.79492 z m 4.3125,1.76172 a 2.7360001,2.7360001 0 0 1 2.73437,2.73633 2.7360001,2.7360001 0 0 1 -2.73437,2.73632 2.7360001,2.7360001 0 0 1 -2.73633,-2.73632 2.7360001,2.7360001 0 0 1 2.73633,-2.73633 z m 37.13867,1.59961 a 4.5196524,4.5196524 0 0 1 4.51953,4.51953 4.5196524,4.5196524 0 0 1 -4.51953,4.51953 4.5196524,4.5196524 0 0 1 -4.52148,-4.51953 4.5196524,4.5196524 0 0 1 4.52148,-4.51953 z m -37.13867,8 a 2.7360001,2.7360001 0 0 1 2.73437,2.73633 2.7360001,2.7360001 0 0 1 -2.73437,2.73632 2.7360001,2.7360001 0 0 1 -2.73633,-2.73632 2.7360001,2.7360001 0 0 1 2.73633,-2.73633 z m 40.0293,8.60547 a 2.7360001,2.7360001 0 0 1 2.73437,2.73632 2.7360001,2.7360001 0 0 1 -2.73437,2.73633 2.7360001,2.7360001 0 0 1 -2.73633,-2.73633 2.7360001,2.7360001 0 0 1 2.73633,-2.73632 z m -40.0293,0.99609 a 2.7360001,2.7360001 0 0 1 2.73437,2.73438 2.7360001,2.7360001 0 0 1 -2.73437,2.73632 2.7360001,2.7360001 0 0 1 -2.73633,-2.73632 2.7360001,2.7360001 0 0 1 2.73633,-2.73438 z m 40.0293,8.60352 a 2.7360001,2.7360001 0 0 1 2.73437,2.73632 2.7360001,2.7360001 0 0 1 -2.73437,2.73633 2.7360001,2.7360001 0 0 1 -2.73633,-2.73633 2.7360001,2.7360001 0 0 1 2.73633,-2.73632 z m -40.0293,0.99609 a 2.7360001,2.7360001 0 0 1 2.73437,2.73633 2.7360001,2.7360001 0 0 1 -2.73437,2.73437 2.7360001,2.7360001 0 0 1 -2.73633,-2.73437 2.7360001,2.7360001 0 0 1 2.73633,-2.73633 z" id="rect4089" stroke="none" fill-opacity="1" fill="#7c386a" stroke-width="1.849" stroke-opacity="1"/>
                    </g>
                </g>
                <rect  height="4.0000062" gorn="0.3.0.0.1" y="172.56323" x="46.81953" stroke="none" id="rect1259" fill-opacity="1" fill="#333333" width="4.0000062" stroke-width="0"/>
                <circle  connectorname="SDA" gorn="0.3.0.0.2" stroke="#9a916c" id="connector8pin" cy="176.44986" fill="none" cx="41.79417" stroke-width="0.4318" r="0.72390002"/>
                <circle  connectorname="SCL" gorn="0.3.0.0.3" stroke="#9a916c" id="connector9pin" cy="173.90985" fill="none" cx="41.79417" stroke-width="0.4318" r="0.72390002"/>
                <circle  connectorname="INT1" gorn="0.3.0.0.4" stroke="#9a916c" id="connector7pin" cy="171.36986" fill="none" cx="41.79417" stroke-width="0.4318" r="0.72390002"/>
                <circle  connectorname="INT0" gorn="0.3.0.0.5" stroke="#9a916c" id="connector6pin" cy="168.82985" fill="none" cx="41.79417" stroke-width="0.4318" r="0.72390002"/>
                <circle  style="stroke-width:0.232;stroke-miterlimit:4;stroke-dasharray:none" connectorname="INT0" gorn="0.3.0.0.6" stroke="#9a916c" id="circle4347" cy="169.72487" fill="none" cx="51.606949" stroke-width="0.4318" r="1.1958247"/>
                <circle  style="stroke-width:0.232;stroke-miterlimit:4;stroke-dasharray:none" connectorname="INT1" gorn="0.3.0.0.7" stroke="#9a916c" id="connector11pin" cy="176.18674" fill="none" cx="52.371792" stroke-width="0.4318" r="0.72390002"/>
                <circle  style="stroke-width:0.232;stroke-miterlimit:4;stroke-dasharray:none" connectorname="INT0" gorn="0.3.0.0.8" stroke="#9a916c" id="connector10pin" cy="173.64673" fill="none" cx="52.371792" stroke-width="0.4318" r="0.72390002"/>
                <g  style="font-style:normal;font-variant:normal;font-weight:normal;font-stretch:normal;line-height:125%;font-family:Droid Sans;-inkscape-font-specification:'Droid Sans, Normal';font-variant-ligatures:normal;font-variant-caps:normal;font-variant-numeric:normal;font-feature-settings:normal;text-align:start;letter-spacing:0px;word-spacing:0px;writing-mode:lr-tb;text-anchor:start;stroke-linecap:butt;stroke-linejoin:miter;" gorn="0.3.0.0.9" aria-label="SDA" id="text4367" stroke="none" fill-opacity="1" fill="#000000" font-size="3.18598" stroke-width="0.0746712" stroke-opacity="1">
                    <path  style="font-style:normal;font-variant:normal;font-weight:normal;font-stretch:normal;font-family:Droid Sans;-inkscape-font-specification:'Droid Sans, Normal';font-variant-ligatures:normal;font-variant-caps:normal;font-variant-numeric:normal;font-variant-east-asian:normal;" gorn="0.3.0.0.9.0" d="m 43.228156,175.76308 h 0.451653 q 0.08268,0 0.156063,0.0703 0.07441,0.0693 0.07441,0.16847 0,0.0372 -0.02687,0.063 -0.02584,0.0258 -0.05788,0.0258 -0.04444,0 -0.06098,-0.0196 -0.01654,-0.0207 -0.03204,-0.0754 -0.01447,-0.0548 -0.06615,-0.0548 h -0.428915 q -0.03101,0 -0.03101,0.0196 0,0.0124 0.01344,0.0289 l 0.643889,0.82373 q 0.04651,0.0599 0.04651,0.12816 0,0.0775 -0.05684,0.13642 -0.05581,0.0589 -0.125057,0.0589 h -0.46819 q -0.09302,0 -0.162264,-0.0703 -0.06821,-0.0713 -0.06821,-0.15606 0,-0.0971 0.09095,-0.0971 0.03514,0 0.05994,0.0258 0.02481,0.0248 0.02481,0.0589 0,0.0279 0.0186,0.0465 0.01964,0.0186 0.04858,0.0186 h 0.432015 q 0.02791,0 0.02791,-0.0217 0,-0.0103 -0.01344,-0.0269 l -0.642856,-0.82372 q -0.04548,-0.0589 -0.04548,-0.12816 0,-0.0806 0.05788,-0.13952 0.05788,-0.0599 0.139527,-0.0599 z" id="path4393" fill="#ffffff" font-size="0.597371" stroke-width="0.0746712"/>
                    <path  style="font-style:normal;font-variant:normal;font-weight:normal;font-stretch:normal;font-family:Droid Sans;-inkscape-font-specification:'Droid Sans, Normal';font-variant-ligatures:normal;font-variant-caps:normal;font-variant-numeric:normal;font-variant-east-asian:normal;" gorn="0.3.0.0.9.1" d="m 44.395011,175.76308 h 0.343132 q 0.06718,0.001 0.130225,0.0434 0.06408,0.0424 0.09405,0.10232 l 0.171566,0.34726 q 0.04857,0.0941 0.04857,0.19638 0,0.0951 -0.05168,0.19533 l -0.1726,0.34313 q -0.03307,0.0661 -0.09508,0.10646 -0.06201,0.0393 -0.138493,0.0393 h -0.331764 q -0.03617,0 -0.06201,-0.0258 -0.02481,-0.0258 -0.02481,-0.061 0,-0.0362 0.02481,-0.062 0.02584,-0.0269 0.06201,-0.0269 h 0.09095 v -1.02216 h -0.08888 q -0.03617,0 -0.06201,-0.0258 -0.02481,-0.0269 -0.02481,-0.063 0,-0.0351 0.02481,-0.061 0.02584,-0.0258 0.06201,-0.0258 z m 0.262517,0.1757 v 1.02423 h 0.06098 q 0.05788,0 0.08682,-0.0568 l 0.171566,-0.34107 q 0.03204,-0.0672 0.03204,-0.11265 0,-0.0568 -0.02584,-0.10749 l -0.177767,-0.35347 q -0.02791,-0.0527 -0.09095,-0.0527 z" id="path4395" fill="#ffffff" font-size="0.597371" stroke-width="0.0746712"/>
                    <path  style="font-style:normal;font-variant:normal;font-weight:normal;font-stretch:normal;font-family:Droid Sans;-inkscape-font-specification:'Droid Sans, Normal';font-variant-ligatures:normal;font-variant-caps:normal;font-variant-numeric:normal;font-variant-east-asian:normal;" gorn="0.3.0.0.9.2" d="m 45.593906,177.01572 0.351401,-1.18753 q 0.02067,-0.0651 0.08682,-0.0651 0.06408,0 0.08062,0.0548 l 0.346232,1.20613 q 0.0041,0.0134 0.0041,0.0258 0,0.0362 -0.0248,0.062 -0.02481,0.0248 -0.05685,0.0248 -0.06821,0 -0.08682,-0.063 l -0.07028,-0.23565 h -0.395842 l -0.07648,0.25218 q -0.0031,0.0165 -0.02584,0.032 -0.02274,0.0145 -0.04961,0.0145 -0.03824,0 -0.06305,-0.0258 -0.02481,-0.0258 -0.02481,-0.063 0,-0.0155 0.0052,-0.032 z m 0.43615,-0.8506 -0.148828,0.49713 h 0.292489 z" id="path4397" fill="#ffffff" font-size="0.597371" stroke-width="0.0746712"/>
                </g>
                <g  style="font-style:normal;font-variant:normal;font-weight:normal;font-stretch:normal;line-height:125%;font-family:Droid Sans;-inkscape-font-specification:'Droid Sans, Normal';font-variant-ligatures:normal;font-variant-caps:normal;font-variant-numeric:normal;font-feature-settings:normal;text-align:start;letter-spacing:0px;word-spacing:0px;writing-mode:lr-tb;text-anchor:start;stroke-linecap:butt;stroke-linejoin:miter;" gorn="0.3.0.0.10" aria-label="SCL" id="text4371" stroke="none" fill-opacity="1" fill="#000000" font-size="3.18598" stroke-width="0.0746712" stroke-opacity="1">
                    <path  style="font-style:normal;font-variant:normal;font-weight:normal;font-stretch:normal;font-family:Droid Sans;-inkscape-font-specification:'Droid Sans, Normal';font-variant-ligatures:normal;font-variant-caps:normal;font-variant-numeric:normal;font-variant-east-asian:normal;" gorn="0.3.0.0.10.0" d="m 43.228156,173.22307 h 0.451653 q 0.08268,0 0.156063,0.0703 0.07441,0.0692 0.07441,0.16847 0,0.0372 -0.02687,0.063 -0.02584,0.0258 -0.05788,0.0258 -0.04444,0 -0.06098,-0.0196 -0.01654,-0.0207 -0.03204,-0.0754 -0.01447,-0.0548 -0.06615,-0.0548 h -0.428915 q -0.03101,0 -0.03101,0.0196 0,0.0124 0.01344,0.0289 l 0.643889,0.82372 q 0.04651,0.0599 0.04651,0.12816 0,0.0775 -0.05684,0.13642 -0.05581,0.0589 -0.125057,0.0589 h -0.46819 q -0.09302,0 -0.162264,-0.0703 -0.06821,-0.0713 -0.06821,-0.15606 0,-0.0971 0.09095,-0.0971 0.03514,0 0.05994,0.0258 0.02481,0.0248 0.02481,0.0589 0,0.0279 0.0186,0.0465 0.01964,0.0186 0.04858,0.0186 h 0.432015 q 0.02791,0 0.02791,-0.0217 0,-0.0103 -0.01344,-0.0269 l -0.642856,-0.82372 q -0.04548,-0.0589 -0.04548,-0.12816 0,-0.0806 0.05788,-0.13952 0.05788,-0.0599 0.139527,-0.0599 z" id="path4400" fill="#ffffff" font-size="0.597371" stroke-width="0.0746712"/>
                    <path  style="font-style:normal;font-variant:normal;font-weight:normal;font-stretch:normal;font-family:Droid Sans;-inkscape-font-specification:'Droid Sans, Normal';font-variant-ligatures:normal;font-variant-caps:normal;font-variant-numeric:normal;font-variant-east-asian:normal;" gorn="0.3.0.0.10.1" d="m 44.786719,174.423 h 0.31316 q 0.03617,0 0.06201,0.0258 0.02687,0.0248 0.02687,0.061 0,0.0362 -0.02687,0.062 -0.02584,0.0248 -0.06201,0.0248 h -0.324528 q -0.06201,0 -0.128158,-0.0393 -0.06615,-0.0393 -0.09198,-0.0878 l -0.200505,-0.38757 q -0.04031,-0.0837 -0.04031,-0.17157 0,-0.0971 0.03824,-0.16847 l 0.202572,-0.38344 q 0.02894,-0.0537 0.08992,-0.0941 0.06098,-0.0413 0.117822,-0.0413 h 0.343132 q 0.03617,0 0.06098,0.0258 0.02584,0.0258 0.02584,0.061 0,0.0362 -0.02584,0.063 -0.02481,0.0258 -0.06098,0.0258 h -0.330729 q -0.04134,0 -0.06718,0.0486 l -0.192237,0.35967 q -0.02274,0.0424 -0.02274,0.10025 0,0.061 0.02481,0.10749 l 0.183968,0.35346 q 0.02584,0.0548 0.08475,0.0548 z" id="path4402" fill="#ffffff" font-size="0.597371" stroke-width="0.0746712"/>
                    <path  style="font-style:normal;font-variant:normal;font-weight:normal;font-stretch:normal;font-family:Droid Sans;-inkscape-font-specification:'Droid Sans, Normal';font-variant-ligatures:normal;font-variant-caps:normal;font-variant-numeric:normal;font-variant-east-asian:normal;" gorn="0.3.0.0.10.2" d="m 45.588739,174.59663 v -1.28674 q 0,-0.0351 0.02584,-0.061 0.02584,-0.0258 0.06098,-0.0258 0.03514,0 0.06098,0.0258 0.02584,0.0258 0.02584,0.061 v 1.11311 h 0.613917 q 0.03617,0 0.06201,0.0258 0.02687,0.0248 0.02687,0.061 0,0.0362 -0.02687,0.062 -0.02584,0.0248 -0.06201,0.0248 z" id="path4404" fill="#ffffff" font-size="0.597371" stroke-width="0.0746712"/>
                </g>
                <g  style="font-style:normal;font-variant:normal;font-weight:normal;font-stretch:normal;line-height:125%;font-family:Droid Sans;-inkscape-font-specification:'Droid Sans, Normal';font-variant-ligatures:normal;font-variant-caps:normal;font-variant-numeric:normal;font-feature-settings:normal;text-align:start;letter-spacing:0px;word-spacing:0px;writing-mode:lr-tb;text-anchor:start;stroke-linecap:butt;stroke-linejoin:miter;" gorn="0.3.0.0.11" aria-label="GND" id="text4375" stroke="none" fill-opacity="1" fill="#000000" font-size="3.18598" stroke-width="0.0746712" stroke-opacity="1">
                    <path  style="font-style:normal;font-variant:normal;font-weight:normal;font-stretch:normal;font-family:Droid Sans;-inkscape-font-specification:'Droid Sans, Normal';font-variant-ligatures:normal;font-variant-caps:normal;font-variant-numeric:normal;font-variant-east-asian:normal;" gorn="0.3.0.0.11.0" d="m 43.537182,170.68308 h 0.288355 q 0.03617,0 0.06098,0.0258 0.02584,0.0248 0.02584,0.061 0,0.0382 -0.02791,0.0641 -0.02687,0.0248 -0.05891,0.0248 h -0.274919 q -0.04031,0 -0.07028,0.0382 l -0.243913,0.31316 q -0.03101,0.0372 -0.03101,0.10335 v 0.48059 q 0,0.0372 0.0248,0.0631 0.02584,0.0258 0.06201,0.0258 h 0.353468 q 0.03514,0 0.06098,-0.0258 0.02584,-0.0258 0.02584,-0.061 v -0.1881 h -0.179834 q -0.03721,0 -0.06201,-0.0248 -0.02481,-0.0258 -0.02481,-0.062 0,-0.0362 0.02481,-0.061 0.02481,-0.0258 0.06201,-0.0258 h 0.353467 v 0.36173 q 0,0.10749 -0.07648,0.18397 -0.07648,0.0765 -0.183968,0.0765 H 43.29223 q -0.10852,0 -0.186035,-0.0765 -0.07648,-0.0765 -0.07648,-0.18397 v -0.48059 q 0,-0.12919 0.06925,-0.21808 l 0.256316,-0.32556 q 0.02791,-0.0372 0.07751,-0.063 0.05064,-0.0258 0.104387,-0.0258 z" id="path4407" fill="#ffffff" font-size="0.597371" stroke-width="0.0746712"/>
                    <path  style="font-style:normal;font-variant:normal;font-weight:normal;font-stretch:normal;font-family:Droid Sans;-inkscape-font-specification:'Droid Sans, Normal';font-variant-ligatures:normal;font-variant-caps:normal;font-variant-numeric:normal;font-variant-east-asian:normal;" gorn="0.3.0.0.11.1" d="m 45.186696,170.77196 v 1.28468 h -0.233578 l -0.467155,-1.0666 v 0.97978 q 0,0.0362 -0.02584,0.062 -0.0248,0.0248 -0.06098,0.0248 -0.03617,0 -0.06201,-0.0248 -0.0248,-0.0258 -0.0248,-0.062 v -1.28674 h 0.230477 l 0.468189,1.06454 v -0.97566 q 0,-0.0362 0.02584,-0.062 0.02687,-0.0269 0.06305,-0.0269 0.03617,0 0.06098,0.0258 0.02584,0.0258 0.02584,0.063 z" id="path4409" fill="#ffffff" font-size="0.597371" stroke-width="0.0746712"/>
                    <path  style="font-style:normal;font-variant:normal;font-weight:normal;font-stretch:normal;font-family:Droid Sans;-inkscape-font-specification:'Droid Sans, Normal';font-variant-ligatures:normal;font-variant-caps:normal;font-variant-numeric:normal;font-variant-east-asian:normal;" gorn="0.3.0.0.11.2" d="m 45.675556,170.68308 h 0.343132 q 0.06718,0.001 0.130225,0.0434 0.06408,0.0424 0.09405,0.10232 l 0.171566,0.34726 q 0.04858,0.094 0.04858,0.19637 0,0.0951 -0.05168,0.19534 l -0.172599,0.34313 q -0.03307,0.0661 -0.09508,0.10646 -0.06201,0.0393 -0.138493,0.0393 h -0.331763 q -0.03617,0 -0.06201,-0.0258 -0.02481,-0.0258 -0.02481,-0.061 0,-0.0362 0.02481,-0.062 0.02584,-0.0269 0.06201,-0.0269 h 0.09095 v -1.02216 h -0.08888 q -0.03617,0 -0.06201,-0.0258 -0.02481,-0.0269 -0.02481,-0.063 0,-0.0351 0.02481,-0.061 0.02584,-0.0258 0.06201,-0.0258 z m 0.262517,0.1757 v 1.02423 h 0.06098 q 0.05788,0 0.08682,-0.0569 l 0.171566,-0.34106 q 0.03204,-0.0672 0.03204,-0.11266 0,-0.0568 -0.02584,-0.10748 l -0.177768,-0.35347 q -0.0279,-0.0527 -0.09095,-0.0527 z" id="path4411" fill="#ffffff" font-size="0.597371" stroke-width="0.0746712"/>
                </g>
                <g  style="font-style:normal;font-variant:normal;font-weight:normal;font-stretch:normal;line-height:125%;font-family:Droid Sans;-inkscape-font-specification:'Droid Sans, Normal';font-variant-ligatures:normal;font-variant-caps:normal;font-variant-numeric:normal;font-feature-settings:normal;text-align:start;letter-spacing:0px;word-spacing:0px;writing-mode:lr-tb;text-anchor:start;stroke-linecap:butt;stroke-linejoin:miter;" gorn="0.3.0.0.12" aria-label="VIN" id="text4379" stroke="none" fill-opacity="1" fill="#000000" font-size="3.18598" stroke-width="0.0746712" stroke-opacity="1">
                    <path  style="font-style:normal;font-variant:normal;font-weight:normal;font-stretch:normal;font-family:Droid Sans;-inkscape-font-specification:'Droid Sans, Normal';font-variant-ligatures:normal;font-variant-caps:normal;font-variant-numeric:normal;font-variant-east-asian:normal;" gorn="0.3.0.0.12.0" d="m 43.906151,168.23195 v 0.31936 l -0.353468,0.90021 q -0.02687,0.0651 -0.08475,0.0651 -0.06098,0 -0.08682,-0.0651 l -0.3514,-0.90021 v -0.31936 q 0,-0.0372 0.02481,-0.063 0.02584,-0.0258 0.06201,-0.0258 0.03617,0 0.06098,0.0258 0.02584,0.0258 0.02584,0.063 v 0.28319 l 0.264584,0.67386 0.264584,-0.67179 v -0.28526 q 0,-0.0372 0.0248,-0.063 0.02584,-0.0258 0.06201,-0.0258 0.03617,0 0.06098,0.0258 0.02584,0.0258 0.02584,0.063 z" id="path4414" fill="#ffffff" font-size="0.597371" stroke-width="0.0746712"/>
                    <path  style="font-style:normal;font-variant:normal;font-weight:normal;font-stretch:normal;font-family:Droid Sans;-inkscape-font-specification:'Droid Sans, Normal';font-variant-ligatures:normal;font-variant-caps:normal;font-variant-numeric:normal;font-variant-east-asian:normal;" gorn="0.3.0.0.12.1" d="m 44.390876,168.14307 h 0.702801 q 0.03411,0 0.05994,0.0258 0.02687,0.0258 0.02687,0.061 0,0.0362 -0.02584,0.063 -0.02584,0.0258 -0.06098,0.0258 H 44.83116 v 1.02423 h 0.262517 q 0.03617,0 0.06098,0.0258 0.02584,0.0248 0.02584,0.061 0,0.0362 -0.02584,0.062 -0.02584,0.0248 -0.06098,0.0248 h -0.702801 q -0.03617,0 -0.06201,-0.0248 -0.02481,-0.0258 -0.02481,-0.062 0,-0.0362 0.02481,-0.061 0.02584,-0.0258 0.06201,-0.0258 h 0.266651 v -1.02423 h -0.266651 q -0.03617,0 -0.06201,-0.0258 -0.02481,-0.0258 -0.02481,-0.061 0,-0.0372 0.02481,-0.063 0.02584,-0.0258 0.06201,-0.0258 z" id="path4416" fill="#ffffff" font-size="0.597371" stroke-width="0.0746712"/>
                    <path  style="font-style:normal;font-variant:normal;font-weight:normal;font-stretch:normal;font-family:Droid Sans;-inkscape-font-specification:'Droid Sans, Normal';font-variant-ligatures:normal;font-variant-caps:normal;font-variant-numeric:normal;font-variant-east-asian:normal;" gorn="0.3.0.0.12.2" d="m 46.45897,168.23195 v 1.28468 h -0.233578 l -0.467155,-1.0666 v 0.97979 q 0,0.0362 -0.02584,0.062 -0.02481,0.0248 -0.06098,0.0248 -0.03617,0 -0.06201,-0.0248 -0.0248,-0.0258 -0.0248,-0.062 v -1.28675 h 0.230477 l 0.468189,1.06454 v -0.97566 q 0,-0.0362 0.02584,-0.062 0.02687,-0.0269 0.06305,-0.0269 0.03617,0 0.06098,0.0258 0.02584,0.0258 0.02584,0.063 z" id="path4418" fill="#ffffff" font-size="0.597371" stroke-width="0.0746712"/>
                </g>
                <g  transform="rotate(90)">
                    <g >
                        <g  style="font-style:normal;font-variant:normal;font-weight:normal;font-stretch:normal;line-height:125%;font-family:Droid Sans;-inkscape-font-specification:'Droid Sans, Normal';font-variant-ligatures:normal;font-variant-caps:normal;font-variant-numeric:normal;font-variant-east-asian:normal;text-align:start;letter-spacing:0px;word-spacing:0px;writing-mode:lr-tb;text-anchor:start;stroke-linecap:butt;stroke-linejoin:miter;" gorn="0.3.0.0.13.0.0" aria-label="SHT3x" id="text4383" stroke="none" fill-opacity="1" fill="#000000" font-size="0.398247" stroke-width="0.0746712" stroke-opacity="1">
                            <path  style="font-style:normal;font-variant:normal;font-weight:normal;font-stretch:normal;font-family:Droid Sans;-inkscape-font-specification:'Droid Sans, Normal';font-variant-ligatures:normal;font-variant-caps:normal;font-variant-numeric:normal;font-variant-east-asian:normal;" gorn="0.3.0.0.13.0.0.0" d="m 168.30453,-48.812488 h 0.3011 q 0.0551,0 0.10404,0.04685 0.0496,0.04616 0.0496,0.11231 0,0.0248 -0.0179,0.04203 -0.0172,0.01723 -0.0386,0.01723 -0.0296,0 -0.0406,-0.01309 -0.011,-0.01378 -0.0214,-0.0503 -0.01,-0.03652 -0.0441,-0.03652 h -0.28594 q -0.0207,0 -0.0207,0.01309 0,0.0083 0.009,0.01929 l 0.42926,0.549148 q 0.031,0.03996 0.031,0.08544 0,0.05168 -0.0379,0.09095 -0.0372,0.03927 -0.0834,0.03927 h -0.31213 q -0.062,0 -0.10818,-0.04685 -0.0455,-0.04754 -0.0455,-0.104042 0,-0.06477 0.0606,-0.06477 0.0234,0 0.04,0.01723 0.0165,0.01654 0.0165,0.03927 0,0.0186 0.0124,0.03101 0.0131,0.0124 0.0324,0.0124 h 0.28801 q 0.0186,0 0.0186,-0.01447 0,-0.0069 -0.009,-0.01792 l -0.42856,-0.549148 q -0.0303,-0.03927 -0.0303,-0.08544 0,-0.05374 0.0386,-0.09302 0.0386,-0.03996 0.093,-0.03996 z" id="path4421" fill="#ffffff" font-size="0.398247" stroke-width="0.0746712"/>
                            <path  style="font-style:normal;font-variant:normal;font-weight:normal;font-stretch:normal;font-family:Droid Sans;-inkscape-font-specification:'Droid Sans, Normal';font-variant-ligatures:normal;font-variant-caps:normal;font-variant-numeric:normal;font-variant-east-asian:normal;" gorn="0.3.0.0.13.0.0.1" d="m 169.02318,-47.954659 v -0.799951 q 0,-0.02343 0.0165,-0.04065 0.0172,-0.01723 0.0413,-0.01723 0.0234,0 0.0407,0.01723 0.0172,0.01723 0.0172,0.04065 v 0.341064 h 0.35278 v -0.341064 q 0,-0.02343 0.0165,-0.04065 0.0172,-0.01723 0.0413,-0.01723 0.0241,0 0.0406,0.01723 0.0172,0.01723 0.0172,0.04203 v 0.798573 q 0,0.02343 -0.0179,0.04065 -0.0172,0.01722 -0.04,0.01722 -0.0248,0 -0.0413,-0.01654 -0.0165,-0.01723 -0.0165,-0.04134 v -0.343132 h -0.3514 v 0.343132 q 0,0.02343 -0.0179,0.04065 -0.0172,0.01722 -0.0413,0.01722 -0.0234,0 -0.0406,-0.01654 -0.0172,-0.01723 -0.0172,-0.04134 z" id="path4423" fill="#ffffff" font-size="0.398247" stroke-width="0.0746712"/>
                            <path  style="font-style:normal;font-variant:normal;font-weight:normal;font-stretch:normal;font-family:Droid Sans;-inkscape-font-specification:'Droid Sans, Normal';font-variant-ligatures:normal;font-variant-caps:normal;font-variant-numeric:normal;font-variant-east-asian:normal;" gorn="0.3.0.0.13.0.0.2" d="m 169.87687,-48.654702 v -0.156408 h 0.58429 v 0.157786 q 0,0.02411 -0.0172,0.04134 -0.0172,0.01654 -0.0406,0.01654 -0.0241,0 -0.042,-0.01723 -0.0172,-0.01723 -0.0172,-0.04065 v -0.04203 h -0.11714 v 0.740695 q 0,0.02412 -0.0172,0.04134 -0.0172,0.01654 -0.0406,0.01654 -0.0248,0 -0.042,-0.01654 -0.0172,-0.01723 -0.0172,-0.04134 v -0.740695 h -0.11713 v 0.04065 q 0,0.02412 -0.0172,0.04134 -0.0165,0.01654 -0.0406,0.01654 -0.0241,0 -0.0413,-0.01654 -0.0165,-0.01723 -0.0165,-0.04134 z" id="path4425" fill="#ffffff" font-size="0.398247" stroke-width="0.0746712"/>
                            <path  style="font-style:normal;font-variant:normal;font-weight:normal;font-stretch:normal;font-family:Droid Sans;-inkscape-font-specification:'Droid Sans, Normal';font-variant-ligatures:normal;font-variant-caps:normal;font-variant-numeric:normal;font-variant-east-asian:normal;" gorn="0.3.0.0.13.0.0.3" d="m 171.31348,-48.696732 v 0.21704 q 0,0.07579 -0.0469,0.122646 0.0482,0.05374 0.0482,0.117133 v 0.225998 q 0,0.04754 -0.0345,0.08199 -0.0344,0.03376 -0.0827,0.03376 h -0.40928 q -0.0241,0 -0.0413,-0.01654 -0.0165,-0.01723 -0.0165,-0.04134 0,-0.02412 0.0165,-0.04065 0.0172,-0.01722 0.0413,-0.01722 h 0.4079 v -0.225998 q 0,-0.02412 -0.0172,-0.04134 -0.0165,-0.01792 -0.0407,-0.01792 h -0.23288 q -0.0241,0 -0.0413,-0.01654 -0.0165,-0.01654 -0.0165,-0.04134 0,-0.02412 0.0165,-0.04065 0.0172,-0.01723 0.0413,-0.01723 h 0.23426 q 0.0234,0 0.0406,-0.01654 0.0172,-0.01723 0.0172,-0.04134 v -0.223931 h -0.41341 q -0.0241,0 -0.0413,-0.01654 -0.0165,-0.01723 -0.0165,-0.04134 0,-0.02412 0.0165,-0.04065 0.0172,-0.01723 0.0413,-0.01723 h 0.41341 q 0.0482,0 0.082,0.03445 0.0338,0.03376 0.0338,0.08131 z" id="path4427" fill="#ffffff" font-size="0.398247" stroke-width="0.0746712"/>
                            <path  style="font-style:normal;font-variant:normal;font-weight:normal;font-stretch:normal;font-family:Droid Sans;-inkscape-font-specification:'Droid Sans, Normal';font-variant-ligatures:normal;font-variant-caps:normal;font-variant-numeric:normal;font-variant-east-asian:normal;" gorn="0.3.0.0.13.0.0.4" d="m 171.88467,-48.146207 -0.18948,0.225309 q -0.0186,0.02412 -0.0462,0.02412 -0.0248,0 -0.0413,-0.01722 -0.0165,-0.01723 -0.0165,-0.04203 0,-0.02205 0.011,-0.03514 l 0.2074,-0.248736 -0.19155,-0.228065 q -0.0131,-0.01516 -0.0131,-0.03445 0,-0.02274 0.0159,-0.04065 0.0165,-0.0186 0.042,-0.0186 0.0289,0 0.0469,0.02136 l 0.17501,0.21015 0.17915,-0.211528 q 0.0165,-0.01998 0.0413,-0.01998 0.022,0 0.04,0.01585 0.0179,0.01516 0.0179,0.03927 0,0.02343 -0.008,0.03238 l -0.195,0.235644 0.20464,0.247358 q 0.0117,0.01309 0.0117,0.03238 0,0.02618 -0.0179,0.0441 -0.0172,0.01722 -0.04,0.01722 -0.0269,0 -0.0469,-0.02343 z" id="path4429" fill="#ffffff" font-size="0.398247" stroke-width="0.0746712"/>
                        </g>
                    </g>
                </g>
                <g  style="font-style:normal;font-variant:normal;font-weight:normal;font-stretch:normal;line-height:125%;font-family:Droid Sans;-inkscape-font-specification:'Droid Sans, Normal';font-variant-ligatures:normal;font-variant-caps:normal;font-variant-numeric:normal;font-variant-east-asian:normal;text-align:start;letter-spacing:0px;word-spacing:0px;writing-mode:lr-tb;text-anchor:start;stroke-linecap:butt;stroke-linejoin:miter;" gorn="0.3.0.0.14" aria-label="AL" id="text4387" stroke="none" fill-opacity="1" fill="#000000" font-size="0.398247" stroke-width="0.0746712" stroke-opacity="1">
                    <path  style="font-style:normal;font-variant:normal;font-weight:normal;font-stretch:normal;font-family:Droid Sans;-inkscape-font-specification:'Droid Sans, Normal';font-variant-ligatures:normal;font-variant-caps:normal;font-variant-numeric:normal;font-variant-east-asian:normal;" gorn="0.3.0.0.14.0" d="m 51.656936,172.48494 0.234267,-0.79169 q 0.01378,-0.0434 0.05788,-0.0434 0.04272,0 0.05374,0.0365 l 0.230821,0.80409 q 0.0028,0.009 0.0028,0.0172 0,0.0241 -0.01654,0.0414 -0.01654,0.0165 -0.0379,0.0165 -0.04547,0 -0.05788,-0.042 l -0.04685,-0.15709 h -0.263895 l -0.05099,0.16812 q -0.0021,0.011 -0.01722,0.0214 -0.01516,0.01 -0.03307,0.01 -0.02549,0 -0.04203,-0.0172 -0.01654,-0.0172 -0.01654,-0.042 0,-0.0103 0.0034,-0.0214 z m 0.290766,-0.56707 -0.09922,0.33142 h 0.194993 z" id="path4432" fill="#ffffff" font-size="0.398247" stroke-width="0.0746712"/>
                    <path  style="font-style:normal;font-variant:normal;font-weight:normal;font-stretch:normal;font-family:Droid Sans;-inkscape-font-specification:'Droid Sans, Normal';font-variant-ligatures:normal;font-variant-caps:normal;font-variant-numeric:normal;font-variant-east-asian:normal;" gorn="0.3.0.0.14.1" d="m 52.505807,172.56555 v -0.85783 q 0,-0.0234 0.01723,-0.0406 0.01723,-0.0172 0.04065,-0.0172 0.02343,0 0.04065,0.0172 0.01722,0.0172 0.01722,0.0406 v 0.74208 h 0.409277 q 0.02412,0 0.04134,0.0172 0.01791,0.0165 0.01791,0.0406 0,0.0241 -0.01791,0.0414 -0.01723,0.0165 -0.04134,0.0165 z" id="path4434" fill="#ffffff" font-size="0.398247" stroke-width="0.0746712"/>
                </g>
                <g  style="font-style:normal;font-variant:normal;font-weight:normal;font-stretch:normal;line-height:125%;font-family:Droid Sans;-inkscape-font-specification:'Droid Sans, Normal';font-variant-ligatures:normal;font-variant-caps:normal;font-variant-numeric:normal;font-variant-east-asian:normal;text-align:start;letter-spacing:0px;word-spacing:0px;writing-mode:lr-tb;text-anchor:start;stroke-linecap:butt;stroke-linejoin:miter;" gorn="0.3.0.0.15" aria-label="AD" id="text4391" stroke="none" fill-opacity="1" fill="#000000" font-size="0.398247" stroke-width="0.0746712" stroke-opacity="1">
                    <path  style="font-style:normal;font-variant:normal;font-weight:normal;font-stretch:normal;font-family:Droid Sans;-inkscape-font-specification:'Droid Sans, Normal';font-variant-ligatures:normal;font-variant-caps:normal;font-variant-numeric:normal;font-variant-east-asian:normal;" gorn="0.3.0.0.15.0" d="m 50.253253,177.50337 0.234267,-0.79168 q 0.01378,-0.0434 0.05788,-0.0434 0.04272,0 0.05374,0.0365 l 0.230821,0.80408 q 0.0028,0.009 0.0028,0.0172 0,0.0241 -0.01654,0.0413 -0.01654,0.0165 -0.0379,0.0165 -0.04548,0 -0.05788,-0.042 l -0.04685,-0.15709 h -0.263894 l -0.05099,0.16812 q -0.0021,0.011 -0.01723,0.0214 -0.01516,0.01 -0.03307,0.01 -0.02549,0 -0.04203,-0.0172 -0.01654,-0.0172 -0.01654,-0.042 0,-0.0103 0.0034,-0.0214 z m 0.290766,-0.56706 -0.09922,0.33141 h 0.194992 z" id="path4437" fill="#ffffff" font-size="0.398247" stroke-width="0.0746712"/>
                    <path  style="font-style:normal;font-variant:normal;font-weight:normal;font-stretch:normal;font-family:Droid Sans;-inkscape-font-specification:'Droid Sans, Normal';font-variant-ligatures:normal;font-variant-caps:normal;font-variant-numeric:normal;font-variant-east-asian:normal;" gorn="0.3.0.0.15.1" d="m 51.158624,176.66828 h 0.228754 q 0.04479,6.9e-4 0.08682,0.0289 0.04272,0.0283 0.0627,0.0682 l 0.114377,0.23151 q 0.03238,0.0627 0.03238,0.13091 0,0.0634 -0.03445,0.13023 l -0.115066,0.22875 q -0.02205,0.0441 -0.06339,0.071 -0.04134,0.0262 -0.09233,0.0262 h -0.221175 q -0.02412,0 -0.04134,-0.0172 -0.01654,-0.0172 -0.01654,-0.0406 0,-0.0241 0.01654,-0.0413 0.01723,-0.0179 0.04134,-0.0179 h 0.06063 v -0.68144 h -0.05926 q -0.02412,0 -0.04134,-0.0172 -0.01654,-0.0179 -0.01654,-0.042 0,-0.0234 0.01654,-0.0407 0.01722,-0.0172 0.04134,-0.0172 z m 0.175011,0.11713 v 0.68282 h 0.04065 q 0.03858,0 0.05788,-0.0379 l 0.114377,-0.22737 q 0.02136,-0.0448 0.02136,-0.0751 0,-0.0379 -0.01723,-0.0717 l -0.118511,-0.23565 q -0.0186,-0.0351 -0.06063,-0.0351 z" id="path4439" fill="#ffffff" font-size="0.398247" stroke-width="0.0746712"/>
                </g>
            </g>
        </g>
    </g>
</svg>
