<?xml version='1.0' encoding='UTF-8' standalone='no'?>
<svg xmlns="http://www.w3.org/2000/svg" version="1.1" id="svg8" height="20.320206mm" gorn="0"  width="15.239897mm" viewBox="0 0 15.239897 20.320206">
    <desc >
        <referenceFile >tmc2209_v31.svg</referenceFile>
    </desc>
    <defs id="defs2" >
        <filter y="-0.30605662" id="filter1697" height="1.6312416" x="-0.26780009"  width="1.5547286" style="color-interpolation-filters:sRGB">
            <feGaussianBlur id="feGaussianBlur1699" stdDeviation="1.8177306e-06" />
        </filter>
    </defs>
    <metadata id="metadata5" >
        <rdf:RDF xmlns:rdf="http://www.w3.org/1999/02/22-rdf-syntax-ns#">
            <cc:Work xmlns:cc="http://creativecommons.org/ns#" rdf:about="" xmlns:rdf="http://www.w3.org/1999/02/22-rdf-syntax-ns#">
                <dc:format xmlns:dc="http://purl.org/dc/elements/1.1/">image/svg+xml</dc:format>
                <dc:type xmlns:dc="http://purl.org/dc/elements/1.1/" rdf:resource="http://purl.org/dc/dcmitype/StillImage" xmlns:rdf="http://www.w3.org/1999/02/22-rdf-syntax-ns#"/>
                <dc:title xmlns:dc="http://purl.org/dc/elements/1.1/"/>
            </cc:Work>
        </rdf:RDF>
    </metadata>
    <g transform="translate(-52.070206,-125.72979)" >
        <g >
            <g id="breadboard" gorn="0.3.0.0" >
                <g transform="scale(0.26458333)" >
                    <g >
                        <path id="upper" d="M 196.80078,475.19922 V 552 h 57.59961 v -76.80078 z m 4.79883,2.06445 A 2.7360001,2.7360001 0 0 1 204.33594,480 2.7360001,2.7360001 0 0 1 201.59961,482.73633 2.7360001,2.7360001 0 0 1 198.86328,480 a 2.7360001,2.7360001 0 0 1 2.73633,-2.73633 z m 9.59961,0 A 2.7360001,2.7360001 0 0 1 213.93555,480 2.7360001,2.7360001 0 0 1 211.19922,482.73633 2.7360001,2.7360001 0 0 1 208.46484,480 a 2.7360001,2.7360001 0 0 1 2.73438,-2.73633 z m 9.60156,0 A 2.7360001,2.7360001 0 0 1 223.53516,480 2.7360001,2.7360001 0 0 1 220.80078,482.73633 2.7360001,2.7360001 0 0 1 218.06445,480 a 2.7360001,2.7360001 0 0 1 2.73633,-2.73633 z m 28.79883,0 A 2.7360001,2.7360001 0 0 1 252.33594,480 2.7360001,2.7360001 0 0 1 249.59961,482.73633 2.7360001,2.7360001 0 0 1 246.86328,480 a 2.7360001,2.7360001 0 0 1 2.73633,-2.73633 z m -33.65234,6.83399 a 1.7175407,1.7175407 0 0 1 0.0527,0 1.7175407,1.7175407 0 0 1 1.7168,1.71679 1.7175407,1.7175407 0 0 1 -1.7168,1.71875 1.7175407,1.7175407 0 0 1 -1.7168,-1.71875 1.7175407,1.7175407 0 0 1 1.66407,-1.71679 z m 2.10156,2.13867 a 2.7360001,2.7360001 0 0 1 0.0801,0.0957 2.7360001,2.7360001 0 0 0 -0.0801,-0.0957 z m -16.44922,0.62695 a 2.7360001,2.7360001 0 0 1 2.73633,2.73633 2.7360001,2.7360001 0 0 1 -2.73633,2.73633 2.7360001,2.7360001 0 0 1 -2.73633,-2.73633 2.7360001,2.7360001 0 0 1 2.73633,-2.73633 z m 48,0 a 2.7360001,2.7360001 0 0 1 2.73633,2.73633 2.7360001,2.7360001 0 0 1 -2.73633,2.73633 2.7360001,2.7360001 0 0 1 -2.73633,-2.73633 2.7360001,2.7360001 0 0 1 2.73633,-2.73633 z m -35.72852,2.90039 a 2.7360001,2.7360001 0 0 0 0.0801,0.0957 2.7360001,2.7360001 0 0 1 -0.0801,-0.0957 z m -12.27148,6.70117 a 2.7360001,2.7360001 0 0 1 2.73633,2.73438 2.7360001,2.7360001 0 0 1 -2.73633,2.73633 2.7360001,2.7360001 0 0 1 -2.73633,-2.73633 2.7360001,2.7360001 0 0 1 2.73633,-2.73438 z m 48,0 a 2.7360001,2.7360001 0 0 1 2.73633,2.73438 2.7360001,2.7360001 0 0 1 -2.73633,2.73633 2.7360001,2.7360001 0 0 1 -2.73633,-2.73633 2.7360001,2.7360001 0 0 1 2.73633,-2.73438 z m -48,9.59961 a 2.7360001,2.7360001 0 0 1 2.73633,2.73633 2.7360001,2.7360001 0 0 1 -2.73633,2.73438 2.7360001,2.7360001 0 0 1 -2.73633,-2.73438 2.7360001,2.7360001 0 0 1 2.73633,-2.73633 z m 48,0 a 2.7360001,2.7360001 0 0 1 2.73633,2.73633 2.7360001,2.7360001 0 0 1 -2.73633,2.73438 2.7360001,2.7360001 0 0 1 -2.73633,-2.73438 2.7360001,2.7360001 0 0 1 2.73633,-2.73633 z m -48,9.59961 a 2.7360001,2.7360001 0 0 1 2.73633,2.73633 2.7360001,2.7360001 0 0 1 -2.73633,2.73633 2.7360001,2.7360001 0 0 1 -2.73633,-2.73633 2.7360001,2.7360001 0 0 1 2.73633,-2.73633 z m 48,0 a 2.7360001,2.7360001 0 0 1 2.73633,2.73633 2.7360001,2.7360001 0 0 1 -2.73633,2.73633 2.7360001,2.7360001 0 0 1 -2.73633,-2.73633 2.7360001,2.7360001 0 0 1 2.73633,-2.73633 z m -48,9.59961 A 2.7360001,2.7360001 0 0 1 204.33594,528 2.7360001,2.7360001 0 0 1 201.59961,530.73633 2.7360001,2.7360001 0 0 1 198.86328,528 a 2.7360001,2.7360001 0 0 1 2.73633,-2.73633 z m 48,0 A 2.7360001,2.7360001 0 0 1 252.33594,528 2.7360001,2.7360001 0 0 1 249.59961,530.73633 2.7360001,2.7360001 0 0 1 246.86328,528 a 2.7360001,2.7360001 0 0 1 2.73633,-2.73633 z m -48,9.59961 a 2.7360001,2.7360001 0 0 1 2.73633,2.73633 2.7360001,2.7360001 0 0 1 -2.73633,2.73633 2.7360001,2.7360001 0 0 1 -2.73633,-2.73633 2.7360001,2.7360001 0 0 1 2.73633,-2.73633 z m 48,0 a 2.7360001,2.7360001 0 0 1 2.73633,2.73633 2.7360001,2.7360001 0 0 1 -2.73633,2.73633 2.7360001,2.7360001 0 0 1 -2.73633,-2.73633 2.7360001,2.7360001 0 0 1 2.73633,-2.73633 z m -48,9.60156 a 2.7360001,2.7360001 0 0 1 2.73633,2.73438 2.7360001,2.7360001 0 0 1 -2.73633,2.73633 2.7360001,2.7360001 0 0 1 -2.73633,-2.73633 2.7360001,2.7360001 0 0 1 2.73633,-2.73438 z m 48,0 a 2.7360001,2.7360001 0 0 1 2.73633,2.73438 2.7360001,2.7360001 0 0 1 -2.73633,2.73633 2.7360001,2.7360001 0 0 1 -2.73633,-2.73633 2.7360001,2.7360001 0 0 1 2.73633,-2.73438 z" stroke-width="0" gorn="0.3.0.0.0.0.0"  fill="#ececec"/>
                    </g>
                </g>
                <path id="path1719" stroke="#808080" d="m 59.236099,129.09289 c 0.05018,-0.39263 -0.908388,-0.57883 -1.702531,-0.56188" stroke-width="0.1" gorn="0.3.0.0.1"  fill="none" stroke-opacity="1" style="fill-rule:evenodd;stroke-linecap:butt;stroke-linejoin:miter;stroke-miterlimit:4;stroke-dasharray:none;"/>
                <g id="text3685" stroke-width="0.0254" aria-label="GND" gorn="0.3.0.0.2"  fill="#000000" style="font-style:normal;font-variant:normal;font-weight:normal;font-stretch:normal;font-family:Droid Sans;-inkscape-font-specification:'Droid Sans, Normal';font-variant-ligatures:normal;font-variant-caps:normal;font-variant-numeric:normal;font-variant-east-asian:normal;opacity:0.995;" font-size="0.398247">
                    <path id="path1769" d="m 62.898261,144.32215 h 0.192236 q 0.02412,0 0.04065,0.0172 0.01723,0.0165 0.01723,0.0407 0,0.0255 -0.0186,0.0427 -0.01791,0.0165 -0.03927,0.0165 h -0.183279 q -0.02687,0 -0.04685,0.0255 l -0.162608,0.20877 q -0.02067,0.0248 -0.02067,0.0689 v 0.32039 q 0,0.0248 0.01654,0.042 0.01723,0.0172 0.04134,0.0172 h 0.235644 q 0.02343,0 0.04065,-0.0172 0.01723,-0.0172 0.01723,-0.0406 v -0.1254 h -0.119889 q -0.0248,0 -0.04134,-0.0165 -0.01654,-0.0172 -0.01654,-0.0413 0,-0.0241 0.01654,-0.0406 0.01654,-0.0172 0.04134,-0.0172 h 0.235645 v 0.24116 q 0,0.0717 -0.05099,0.12265 -0.05099,0.051 -0.122645,0.051 h -0.235644 q -0.07235,0 -0.124024,-0.051 -0.05099,-0.051 -0.05099,-0.12265 v -0.32039 q 0,-0.0861 0.04616,-0.14539 l 0.170877,-0.21704 q 0.0186,-0.0248 0.05168,-0.042 0.03376,-0.0172 0.06959,-0.0172 z" stroke-width="0.0254" gorn="0.3.0.0.2.0"  fill="#000000" style="font-style:normal;font-variant:normal;font-weight:normal;font-stretch:normal;font-family:Droid Sans;-inkscape-font-specification:'Droid Sans, Normal';font-variant-ligatures:normal;font-variant-caps:normal;font-variant-numeric:normal;font-variant-east-asian:normal;opacity:0.995;" font-size="0.398247"/>
                    <path id="path1771" d="m 63.997935,144.3814 v 0.85645 h -0.155719 l -0.311436,-0.71106 v 0.65319 q 0,0.0241 -0.01723,0.0413 -0.01654,0.0165 -0.04065,0.0165 -0.02411,0 -0.04134,-0.0165 -0.01654,-0.0172 -0.01654,-0.0413 v -0.85783 h 0.153651 l 0.312125,0.70969 v -0.65044 q 0,-0.0241 0.01723,-0.0413 0.01791,-0.0179 0.04203,-0.0179 0.02412,0 0.04065,0.0172 0.01723,0.0172 0.01723,0.042 z" stroke-width="0.0254" gorn="0.3.0.0.2.1"  fill="#000000" style="font-style:normal;font-variant:normal;font-weight:normal;font-stretch:normal;font-family:Droid Sans;-inkscape-font-specification:'Droid Sans, Normal';font-variant-ligatures:normal;font-variant-caps:normal;font-variant-numeric:normal;font-variant-east-asian:normal;opacity:0.995;" font-size="0.398247"/>
                    <path id="path1773" d="m 64.32384,144.32215 h 0.228755 q 0.04479,6.9e-4 0.08682,0.0289 0.04272,0.0283 0.0627,0.0682 l 0.114377,0.23151 q 0.03238,0.0627 0.03238,0.13091 0,0.0634 -0.03445,0.13023 l -0.115066,0.22875 q -0.02205,0.0441 -0.06339,0.071 -0.04134,0.0262 -0.09233,0.0262 h -0.221175 q -0.02411,0 -0.04134,-0.0172 -0.01654,-0.0172 -0.01654,-0.0406 0,-0.0241 0.01654,-0.0413 0.01723,-0.0179 0.04134,-0.0179 h 0.06063 v -0.68144 h -0.05926 q -0.02412,0 -0.04134,-0.0172 -0.01654,-0.0179 -0.01654,-0.042 0,-0.0234 0.01654,-0.0407 0.01723,-0.0172 0.04134,-0.0172 z m 0.175011,0.11713 v 0.68282 h 0.04065 q 0.03858,0 0.05788,-0.0379 l 0.114377,-0.22737 q 0.02136,-0.0448 0.02136,-0.0751 0,-0.0379 -0.01722,-0.0717 l -0.118511,-0.23565 q -0.0186,-0.0351 -0.06063,-0.0351 z" stroke-width="0.0254" gorn="0.3.0.0.2.2"  fill="#000000" style="font-style:normal;font-variant:normal;font-weight:normal;font-stretch:normal;font-family:Droid Sans;-inkscape-font-specification:'Droid Sans, Normal';font-variant-ligatures:normal;font-variant-caps:normal;font-variant-numeric:normal;font-variant-east-asian:normal;opacity:0.995;" font-size="0.398247"/>
                </g>
                <g id="text4045" stroke-width="0.0254" aria-label="VIO" gorn="0.3.0.0.3"  fill="#000000" style="font-style:normal;font-variant:normal;font-weight:normal;font-stretch:normal;font-family:Droid Sans;-inkscape-font-specification:'Droid Sans, Normal';font-variant-ligatures:normal;font-variant-caps:normal;font-variant-numeric:normal;font-variant-east-asian:normal;opacity:0.995;" font-size="0.398247">
                    <path id="path1776" d="m 63.146998,141.84141 v 0.21291 l -0.235645,0.60013 q -0.01791,0.0434 -0.0565,0.0434 -0.04065,0 -0.05788,-0.0434 l -0.234266,-0.60013 v -0.21291 q 0,-0.0248 0.01654,-0.042 0.01723,-0.0172 0.04134,-0.0172 0.02412,0 0.04065,0.0172 0.01723,0.0172 0.01723,0.042 v 0.18879 l 0.176389,0.44924 0.176389,-0.44786 v -0.19017 q 0,-0.0248 0.01654,-0.042 0.01723,-0.0172 0.04134,-0.0172 0.02412,0 0.04065,0.0172 0.01723,0.0172 0.01723,0.042 z" stroke-width="0.0254" gorn="0.3.0.0.3.0"  fill="#000000" style="font-style:normal;font-variant:normal;font-weight:normal;font-stretch:normal;font-family:Droid Sans;-inkscape-font-specification:'Droid Sans, Normal';font-variant-ligatures:normal;font-variant-caps:normal;font-variant-numeric:normal;font-variant-east-asian:normal;opacity:0.995;" font-size="0.398247"/>
                    <path id="path1778" d="m 63.470147,141.78216 h 0.468533 q 0.02274,0 0.03996,0.0172 0.01792,0.0172 0.01792,0.0406 0,0.0241 -0.01723,0.042 -0.01722,0.0172 -0.04065,0.0172 h -0.175011 v 0.68282 h 0.175011 q 0.02412,0 0.04065,0.0172 0.01723,0.0165 0.01723,0.0406 0,0.0241 -0.01723,0.0413 -0.01722,0.0165 -0.04065,0.0165 h -0.468533 q -0.02411,0 -0.04134,-0.0165 -0.01654,-0.0172 -0.01654,-0.0413 0,-0.0241 0.01654,-0.0406 0.01723,-0.0172 0.04134,-0.0172 h 0.177767 v -0.68282 h -0.177767 q -0.02411,0 -0.04134,-0.0172 -0.01654,-0.0172 -0.01654,-0.0406 0,-0.0248 0.01654,-0.042 0.01723,-0.0172 0.04134,-0.0172 z" stroke-width="0.0254" gorn="0.3.0.0.3.1"  fill="#000000" style="font-style:normal;font-variant:normal;font-weight:normal;font-stretch:normal;font-family:Droid Sans;-inkscape-font-specification:'Droid Sans, Normal';font-variant-ligatures:normal;font-variant-caps:normal;font-variant-numeric:normal;font-variant-east-asian:normal;opacity:0.995;" font-size="0.398247"/>
                    <path id="path1780" d="m 64.694533,141.8669 0.127469,0.25976 q 0.02687,0.0531 0.02687,0.11507 0,0.0606 -0.02687,0.11438 l -0.127469,0.257 q -0.04065,0.0847 -0.137803,0.0847 -0.04617,0 -0.08337,-0.0241 -0.03652,-0.0241 -0.05512,-0.0606 l -0.128158,-0.257 q -0.02549,-0.0503 -0.02549,-0.11438 0,-0.0641 0.02549,-0.11507 l 0.128158,-0.25976 q 0.04341,-0.0847 0.138493,-0.0847 0.09646,0 0.137803,0.0847 z m -0.176388,0.0579 -0.11989,0.24391 q -0.01654,0.0365 -0.01654,0.0717 0,0.0379 0.01654,0.0724 l 0.123335,0.24667 q 0.0096,0.0227 0.03514,0.0227 0.02205,0 0.03376,-0.0227 l 0.124023,-0.24667 q 0.01722,-0.0365 0.01722,-0.0724 0,-0.0379 -0.01722,-0.0717 l -0.121267,-0.24391 q -0.01171,-0.0269 -0.03652,-0.0269 -0.02481,0 -0.03858,0.0269 z" stroke-width="0.0254" gorn="0.3.0.0.3.2"  fill="#000000" style="font-style:normal;font-variant:normal;font-weight:normal;font-stretch:normal;font-family:Droid Sans;-inkscape-font-specification:'Droid Sans, Normal';font-variant-ligatures:normal;font-variant-caps:normal;font-variant-numeric:normal;font-variant-east-asian:normal;opacity:0.995;" font-size="0.398247"/>
                </g>
                <g id="text4047" stroke-width="0.0254" aria-label="B2" gorn="0.3.0.0.4"  fill="#000000" style="font-style:normal;font-variant:normal;font-weight:normal;font-stretch:normal;font-family:Droid Sans;-inkscape-font-specification:'Droid Sans, Normal';font-variant-ligatures:normal;font-variant-caps:normal;font-variant-numeric:normal;font-variant-east-asian:normal;opacity:0.995;" font-size="0.398247">
                    <path id="path1783" d="m 63.996559,139.87398 v 0.051 q 0,0.0958 -0.06821,0.16468 -0.06752,0.0682 -0.163298,0.0682 h -0.354155 v -0.9157 h 0.354155 q 0.09577,0 0.163298,0.0682 0.06821,0.0682 0.06821,0.16467 v 0.0489 q 0,0.10266 -0.07924,0.17501 0.07924,0.0737 0.07924,0.17501 z m -0.118511,-0.3514 v -0.0476 q 0,-0.0482 -0.03445,-0.0827 -0.03376,-0.0344 -0.0813,-0.0344 h -0.235644 v 0.28043 h 0.235644 q 0.04685,0 0.0813,-0.0338 0.03445,-0.0344 0.03445,-0.082 z m 0,0.40238 v -0.0482 q 0,-0.0482 -0.03445,-0.0827 -0.03376,-0.0344 -0.0813,-0.0344 h -0.234266 v 0.28112 h 0.234266 q 0.04685,0 0.0813,-0.0338 0.03445,-0.0344 0.03445,-0.082 z" stroke-width="0.0254" gorn="0.3.0.0.4.0"  fill="#000000" style="font-style:normal;font-variant:normal;font-weight:normal;font-stretch:normal;font-family:Droid Sans;-inkscape-font-specification:'Droid Sans, Normal';font-variant-ligatures:normal;font-variant-caps:normal;font-variant-numeric:normal;font-variant-east-asian:normal;opacity:0.995;" font-size="0.398247"/>
                    <path id="path1785" d="m 64.790998,140.15647 h -0.52641 v -0.39963 q 0,-0.0482 0.03376,-0.0827 0.03445,-0.0344 0.08199,-0.0344 h 0.351399 v -0.28181 h -0.413411 q -0.02481,0 -0.04134,-0.0165 -0.01654,-0.0172 -0.01654,-0.0414 0,-0.0241 0.01654,-0.0406 0.01654,-0.0172 0.04134,-0.0172 h 0.413411 q 0.04823,0 0.08268,0.0344 0.03445,0.0338 0.03445,0.0813 v 0.28181 q 0,0.0489 -0.03445,0.0834 -0.03445,0.0338 -0.08268,0.0338 h -0.351399 v 0.28388 h 0.410655 q 0.02343,0 0.04065,0.0172 0.01723,0.0165 0.01723,0.0407 0,0.0241 -0.01723,0.0413 -0.01723,0.0165 -0.04065,0.0165 z" stroke-width="0.0254" gorn="0.3.0.0.4.1"  fill="#000000" style="font-style:normal;font-variant:normal;font-weight:normal;font-stretch:normal;font-family:Droid Sans;-inkscape-font-specification:'Droid Sans, Normal';font-variant-ligatures:normal;font-variant-caps:normal;font-variant-numeric:normal;font-variant-east-asian:normal;opacity:0.995;" font-size="0.398247"/>
                </g>
                <g id="text4049" stroke-width="0.0254" aria-label="B1" gorn="0.3.0.0.5"  fill="#000000" style="font-style:normal;font-variant:normal;font-weight:normal;font-stretch:normal;font-family:Droid Sans;-inkscape-font-specification:'Droid Sans, Normal';font-variant-ligatures:normal;font-variant-caps:normal;font-variant-numeric:normal;font-variant-east-asian:normal;opacity:0.995;" font-size="0.398247">
                    <path id="path1788" d="m 64.000691,137.33398 v 0.051 q 0,0.0958 -0.06821,0.16468 -0.06752,0.0682 -0.163298,0.0682 h -0.354155 v -0.91571 h 0.354155 q 0.09577,0 0.163298,0.0682 0.06821,0.0682 0.06821,0.16467 v 0.0489 q 0,0.10267 -0.07924,0.17501 0.07924,0.0737 0.07924,0.17501 z m -0.118512,-0.3514 v -0.0475 q 0,-0.0482 -0.03445,-0.0827 -0.03376,-0.0344 -0.08131,-0.0344 H 63.53078 v 0.28043 h 0.235644 q 0.04685,0 0.08131,-0.0338 0.03445,-0.0344 0.03445,-0.082 z m 0,0.40239 v -0.0482 q 0,-0.0482 -0.03445,-0.0827 -0.03376,-0.0345 -0.08131,-0.0345 h -0.234266 v 0.28112 h 0.234266 q 0.04685,0 0.08131,-0.0338 0.03445,-0.0344 0.03445,-0.082 z" stroke-width="0.0254" gorn="0.3.0.0.5.0"  fill="#000000" style="font-style:normal;font-variant:normal;font-weight:normal;font-stretch:normal;font-family:Droid Sans;-inkscape-font-specification:'Droid Sans, Normal';font-variant-ligatures:normal;font-variant-caps:normal;font-variant-numeric:normal;font-variant-east-asian:normal;opacity:0.995;" font-size="0.398247"/>
                    <path id="path1790" d="m 64.32384,137.50073 h 0.177767 v -0.68282 h -0.175011 q -0.02411,0 -0.04134,-0.0165 -0.01654,-0.0172 -0.01654,-0.0413 0,-0.0241 0.01654,-0.0406 0.01723,-0.0172 0.04134,-0.0172 h 0.290766 v 0.79858 h 0.115755 v -0.24116 q 0,-0.0234 0.01654,-0.0406 0.01722,-0.0172 0.04134,-0.0172 0.02412,0 0.04065,0.0172 0.01723,0.0165 0.01723,0.0406 v 0.29903 q 0,0.0241 -0.01723,0.0413 -0.01654,0.0165 -0.04065,0.0165 H 64.32384 q -0.02412,0 -0.04134,-0.0172 -0.01654,-0.0179 -0.01654,-0.042 0,-0.0234 0.01654,-0.04 0.01723,-0.0165 0.04134,-0.0165 z" stroke-width="0.0254" gorn="0.3.0.0.5.1"  fill="#000000" style="font-style:normal;font-variant:normal;font-weight:normal;font-stretch:normal;font-family:Droid Sans;-inkscape-font-specification:'Droid Sans, Normal';font-variant-ligatures:normal;font-variant-caps:normal;font-variant-numeric:normal;font-variant-east-asian:normal;opacity:0.995;" font-size="0.398247"/>
                </g>
                <g id="text4051" stroke-width="0.0254" aria-label="A1" gorn="0.3.0.0.6"  fill="#000000" style="font-style:normal;font-variant:normal;font-weight:normal;font-stretch:normal;font-family:Droid Sans;-inkscape-font-specification:'Droid Sans, Normal';font-variant-ligatures:normal;font-variant-caps:normal;font-variant-numeric:normal;font-variant-east-asian:normal;opacity:0.995;" font-size="0.398247">
                    <path id="path1793" d="m 63.421226,134.99724 0.234266,-0.79169 q 0.01378,-0.0434 0.05788,-0.0434 0.04272,0 0.05374,0.0365 l 0.230822,0.80409 q 0.0028,0.009 0.0028,0.0172 0,0.0241 -0.01654,0.0413 -0.01654,0.0165 -0.0379,0.0165 -0.04548,0 -0.05788,-0.042 l -0.04685,-0.1571 h -0.263894 l -0.05099,0.16812 q -0.0021,0.011 -0.01723,0.0214 -0.01516,0.01 -0.03307,0.01 -0.02549,0 -0.04203,-0.0172 -0.01654,-0.0172 -0.01654,-0.042 0,-0.0103 0.0034,-0.0213 z m 0.290766,-0.56707 -0.09922,0.33142 h 0.194992 z" stroke-width="0.0254" gorn="0.3.0.0.6.0"  fill="#000000" style="font-style:normal;font-variant:normal;font-weight:normal;font-stretch:normal;font-family:Droid Sans;-inkscape-font-specification:'Droid Sans, Normal';font-variant-ligatures:normal;font-variant-caps:normal;font-variant-numeric:normal;font-variant-east-asian:normal;opacity:0.995;" font-size="0.398247"/>
                    <path id="path1795" d="m 64.32384,134.96072 h 0.177767 v -0.68282 h -0.175011 q -0.02411,0 -0.04134,-0.0165 -0.01654,-0.0172 -0.01654,-0.0413 0,-0.0241 0.01654,-0.0406 0.01723,-0.0172 0.04134,-0.0172 h 0.290766 v 0.79858 h 0.115755 v -0.24116 q 0,-0.0234 0.01654,-0.0406 0.01722,-0.0172 0.04134,-0.0172 0.02412,0 0.04065,0.0172 0.01723,0.0165 0.01723,0.0406 v 0.29903 q 0,0.0241 -0.01723,0.0414 -0.01654,0.0165 -0.04065,0.0165 H 64.32384 q -0.02412,0 -0.04134,-0.0172 -0.01654,-0.0179 -0.01654,-0.042 0,-0.0234 0.01654,-0.04 0.01723,-0.0165 0.04134,-0.0165 z" stroke-width="0.0254" gorn="0.3.0.0.6.1"  fill="#000000" style="font-style:normal;font-variant:normal;font-weight:normal;font-stretch:normal;font-family:Droid Sans;-inkscape-font-specification:'Droid Sans, Normal';font-variant-ligatures:normal;font-variant-caps:normal;font-variant-numeric:normal;font-variant-east-asian:normal;opacity:0.995;" font-size="0.398247"/>
                </g>
                <g id="text4053" stroke-width="0.0254" aria-label="A2" gorn="0.3.0.0.7"  fill="#000000" style="font-style:normal;font-variant:normal;font-weight:normal;font-stretch:normal;font-family:Droid Sans;-inkscape-font-specification:'Droid Sans, Normal';font-variant-ligatures:normal;font-variant-caps:normal;font-variant-numeric:normal;font-variant-east-asian:normal;opacity:0.995;" font-size="0.398247">
                    <path id="path1798" d="m 63.417095,132.45724 0.234266,-0.79168 q 0.01378,-0.0434 0.05788,-0.0434 0.04272,0 0.05374,0.0365 l 0.230821,0.80408 q 0.0028,0.009 0.0028,0.0172 0,0.0241 -0.01654,0.0413 -0.01654,0.0165 -0.0379,0.0165 -0.04547,0 -0.05788,-0.042 l -0.04685,-0.1571 h -0.263894 l -0.05099,0.16812 q -0.0021,0.011 -0.01723,0.0214 -0.01516,0.01 -0.03307,0.01 -0.02549,0 -0.04203,-0.0172 -0.01654,-0.0172 -0.01654,-0.042 0,-0.0103 0.0034,-0.0214 z m 0.290766,-0.56706 -0.09922,0.33142 h 0.194992 z" stroke-width="0.0254" gorn="0.3.0.0.7.0"  fill="#000000" style="font-style:normal;font-variant:normal;font-weight:normal;font-stretch:normal;font-family:Droid Sans;-inkscape-font-specification:'Droid Sans, Normal';font-variant-ligatures:normal;font-variant-caps:normal;font-variant-numeric:normal;font-variant-east-asian:normal;opacity:0.995;" font-size="0.398247"/>
                    <path id="path1800" d="m 64.790998,132.53648 h -0.52641 v -0.39963 q 0,-0.0482 0.03376,-0.0827 0.03445,-0.0344 0.08199,-0.0344 h 0.351399 v -0.28181 h -0.413411 q -0.02481,0 -0.04134,-0.0165 -0.01654,-0.0172 -0.01654,-0.0413 0,-0.0241 0.01654,-0.0406 0.01654,-0.0172 0.04134,-0.0172 h 0.413411 q 0.04823,0 0.08268,0.0344 0.03445,0.0338 0.03445,0.0813 v 0.28181 q 0,0.0489 -0.03445,0.0834 -0.03445,0.0338 -0.08268,0.0338 h -0.351399 v 0.28387 h 0.410655 q 0.02343,0 0.04065,0.0172 0.01723,0.0165 0.01723,0.0406 0,0.0241 -0.01723,0.0413 -0.01723,0.0165 -0.04065,0.0165 z" stroke-width="0.0254" gorn="0.3.0.0.7.1"  fill="#000000" style="font-style:normal;font-variant:normal;font-weight:normal;font-stretch:normal;font-family:Droid Sans;-inkscape-font-specification:'Droid Sans, Normal';font-variant-ligatures:normal;font-variant-caps:normal;font-variant-numeric:normal;font-variant-east-asian:normal;opacity:0.995;" font-size="0.398247"/>
                </g>
                <g id="text4055" stroke-width="0.0254" aria-label="GND" gorn="0.3.0.0.8"  fill="#000000" style="font-style:normal;font-variant:normal;font-weight:normal;font-stretch:normal;font-family:Droid Sans;-inkscape-font-specification:'Droid Sans, Normal';font-variant-ligatures:normal;font-variant-caps:normal;font-variant-numeric:normal;font-variant-east-asian:normal;opacity:0.995;" font-size="0.398247">
                    <path id="path1803" d="m 62.898261,129.08214 h 0.192236 q 0.02412,0 0.04065,0.0172 0.01723,0.0165 0.01723,0.0406 0,0.0255 -0.0186,0.0427 -0.01791,0.0165 -0.03927,0.0165 h -0.183279 q -0.02687,0 -0.04685,0.0255 l -0.162608,0.20877 q -0.02067,0.0248 -0.02067,0.0689 v 0.3204 q 0,0.0248 0.01654,0.042 0.01723,0.0172 0.04134,0.0172 h 0.235644 q 0.02343,0 0.04065,-0.0172 0.01723,-0.0172 0.01723,-0.0406 v -0.12541 h -0.119889 q -0.0248,0 -0.04134,-0.0165 -0.01654,-0.0172 -0.01654,-0.0413 0,-0.0241 0.01654,-0.0407 0.01654,-0.0172 0.04134,-0.0172 h 0.235645 v 0.24116 q 0,0.0717 -0.05099,0.12264 -0.05099,0.051 -0.122645,0.051 h -0.235644 q -0.07235,0 -0.124024,-0.051 -0.05099,-0.051 -0.05099,-0.12264 v -0.3204 q 0,-0.0861 0.04616,-0.14538 l 0.170877,-0.21704 q 0.0186,-0.0248 0.05168,-0.042 0.03376,-0.0172 0.06959,-0.0172 z" stroke-width="0.0254" gorn="0.3.0.0.8.0"  fill="#000000" style="font-style:normal;font-variant:normal;font-weight:normal;font-stretch:normal;font-family:Droid Sans;-inkscape-font-specification:'Droid Sans, Normal';font-variant-ligatures:normal;font-variant-caps:normal;font-variant-numeric:normal;font-variant-east-asian:normal;opacity:0.995;" font-size="0.398247"/>
                    <path id="path1805" d="m 63.997935,129.1414 v 0.85645 h -0.155719 l -0.311436,-0.71107 v 0.65319 q 0,0.0241 -0.01723,0.0413 -0.01654,0.0165 -0.04065,0.0165 -0.02411,0 -0.04134,-0.0165 -0.01654,-0.0172 -0.01654,-0.0413 v -0.85783 h 0.153651 l 0.312125,0.70969 v -0.65043 q 0,-0.0241 0.01723,-0.0413 0.01791,-0.0179 0.04203,-0.0179 0.02412,0 0.04065,0.0172 0.01723,0.0172 0.01723,0.042 z" stroke-width="0.0254" gorn="0.3.0.0.8.1"  fill="#000000" style="font-style:normal;font-variant:normal;font-weight:normal;font-stretch:normal;font-family:Droid Sans;-inkscape-font-specification:'Droid Sans, Normal';font-variant-ligatures:normal;font-variant-caps:normal;font-variant-numeric:normal;font-variant-east-asian:normal;opacity:0.995;" font-size="0.398247"/>
                    <path id="path1807" d="m 64.32384,129.08214 h 0.228755 q 0.04479,6.9e-4 0.08682,0.0289 0.04272,0.0283 0.0627,0.0682 l 0.114377,0.23151 q 0.03238,0.0627 0.03238,0.13092 0,0.0634 -0.03445,0.13022 l -0.115066,0.22876 q -0.02205,0.0441 -0.06339,0.071 -0.04134,0.0262 -0.09233,0.0262 h -0.221175 q -0.02411,0 -0.04134,-0.0172 -0.01654,-0.0172 -0.01654,-0.0406 0,-0.0241 0.01654,-0.0413 0.01723,-0.0179 0.04134,-0.0179 h 0.06063 v -0.68144 h -0.05926 q -0.02412,0 -0.04134,-0.0172 -0.01654,-0.0179 -0.01654,-0.042 0,-0.0234 0.01654,-0.0406 0.01723,-0.0172 0.04134,-0.0172 z m 0.175011,0.11714 v 0.68281 h 0.04065 q 0.03858,0 0.05788,-0.0379 l 0.114377,-0.22738 q 0.02136,-0.0448 0.02136,-0.0751 0,-0.0379 -0.01722,-0.0717 l -0.118511,-0.23564 q -0.0186,-0.0351 -0.06063,-0.0351 z" stroke-width="0.0254" gorn="0.3.0.0.8.2"  fill="#000000" style="font-style:normal;font-variant:normal;font-weight:normal;font-stretch:normal;font-family:Droid Sans;-inkscape-font-specification:'Droid Sans, Normal';font-variant-ligatures:normal;font-variant-caps:normal;font-variant-numeric:normal;font-variant-east-asian:normal;opacity:0.995;" font-size="0.398247"/>
                </g>
                <g id="text4057" stroke-width="0.0254" aria-label="VM" gorn="0.3.0.0.9"  fill="#000000" style="font-style:normal;font-variant:normal;font-weight:normal;font-stretch:normal;font-family:Droid Sans;-inkscape-font-specification:'Droid Sans, Normal';font-variant-ligatures:normal;font-variant-caps:normal;font-variant-numeric:normal;font-variant-east-asian:normal;opacity:0.995;" font-size="0.398247">
                    <path id="path1810" d="m 64.14683,125.92504 v 0.2129 l -0.235645,0.60014 q -0.01791,0.0434 -0.0565,0.0434 -0.04065,0 -0.05788,-0.0434 l -0.234266,-0.60014 v -0.2129 q 0,-0.0248 0.01654,-0.042 0.01723,-0.0172 0.04134,-0.0172 0.02411,0 0.04065,0.0172 0.01723,0.0172 0.01723,0.042 v 0.18879 l 0.176389,0.44924 0.176389,-0.44786 v -0.19017 q 0,-0.0248 0.01654,-0.042 0.01723,-0.0172 0.04134,-0.0172 0.02412,0 0.04065,0.0172 0.01723,0.0172 0.01723,0.042 z" stroke-width="0.0254" gorn="0.3.0.0.9.0"  fill="#000000" style="font-style:normal;font-variant:normal;font-weight:normal;font-stretch:normal;font-family:Droid Sans;-inkscape-font-specification:'Droid Sans, Normal';font-variant-ligatures:normal;font-variant-caps:normal;font-variant-numeric:normal;font-variant-east-asian:normal;opacity:0.995;" font-size="0.398247"/>
                    <path id="path1812" d="m 64.646368,126.22545 v -0.0296 l -0.119889,-0.17088 v 0.69867 q 0,0.0241 -0.01722,0.0413 -0.01654,0.0165 -0.04065,0.0165 -0.02412,0 -0.04134,-0.0172 -0.01654,-0.0172 -0.01654,-0.0406 v -0.85783 h 0.149517 l 0.142627,0.2074 0.146761,-0.2074 h 0.146761 v 0.85783 q 0,0.0241 -0.01792,0.0413 -0.01722,0.0165 -0.04134,0.0165 -0.02343,0 -0.04065,-0.0172 -0.01723,-0.0172 -0.01723,-0.0406 v -0.69591 l -0.117134,0.16536 v 0.0324 q 0,0.0234 -0.01722,0.0406 -0.01723,0.0172 -0.04065,0.0172 -0.02412,0 -0.04134,-0.0172 -0.01654,-0.0172 -0.01654,-0.0406 z" stroke-width="0.0254" gorn="0.3.0.0.9.1"  fill="#000000" style="font-style:normal;font-variant:normal;font-weight:normal;font-stretch:normal;font-family:Droid Sans;-inkscape-font-specification:'Droid Sans, Normal';font-variant-ligatures:normal;font-variant-caps:normal;font-variant-numeric:normal;font-variant-east-asian:normal;opacity:0.995;" font-size="0.398247"/>
                </g>
                <g transform="scale(1.0015689,0.99843355)" >
                    <g >
                        <g id="text4073" stroke-width="0.0254" aria-label="EN" gorn="0.3.0.0.10.0.0"  fill="#000000" style="font-style:normal;font-variant:normal;font-weight:normal;font-stretch:normal;font-family:Droid Sans;-inkscape-font-specification:'Droid Sans, Normal';font-variant-ligatures:normal;font-variant-caps:normal;font-variant-numeric:normal;font-variant-east-asian:normal;text-anchor:end;opacity:0.995;" font-size="0.398247">
                            <path id="path1815" d="m 54.57788,128.28831 h -0.409277 v 0.28181 h 0.176389 q 0.02343,0 0.04065,0.0172 0.01723,0.0172 0.01723,0.0406 0,0.0248 -0.01723,0.042 -0.01654,0.0172 -0.04065,0.0172 h -0.176389 v 0.28388 h 0.410655 q 0.02343,0 0.04065,0.0172 0.01723,0.0165 0.01723,0.0407 0,0.0241 -0.01791,0.0413 -0.01723,0.0165 -0.04134,0.0165 h -0.525032 v -0.9157 h 0.525032 q 0.02412,0 0.04134,0.0179 0.01791,0.0172 0.01791,0.0413 0,0.0234 -0.01791,0.0407 -0.01723,0.0172 -0.04134,0.0172 z" stroke-width="0.0254" gorn="0.3.0.0.10.0.0.0"  fill="#000000" style="font-style:normal;font-variant:normal;font-weight:normal;font-stretch:normal;font-family:Droid Sans;-inkscape-font-specification:'Droid Sans, Normal';font-variant-ligatures:normal;font-variant-caps:normal;font-variant-numeric:normal;font-variant-east-asian:normal;text-anchor:end;opacity:0.995;" font-size="0.398247"/>
                            <path id="path1817" d="m 55.488073,128.23043 v 0.85645 h -0.155718 l -0.311436,-0.71106 v 0.65319 q 0,0.0241 -0.01723,0.0413 -0.01654,0.0165 -0.04065,0.0165 -0.02411,0 -0.04134,-0.0165 -0.01654,-0.0172 -0.01654,-0.0413 v -0.85783 h 0.153651 l 0.312125,0.70969 v -0.65044 q 0,-0.0241 0.01723,-0.0413 0.01791,-0.0179 0.04203,-0.0179 0.02412,0 0.04065,0.0172 0.01723,0.0172 0.01723,0.042 z" stroke-width="0.0254" gorn="0.3.0.0.10.0.0.1"  fill="#000000" style="font-style:normal;font-variant:normal;font-weight:normal;font-stretch:normal;font-family:Droid Sans;-inkscape-font-specification:'Droid Sans, Normal';font-variant-ligatures:normal;font-variant-caps:normal;font-variant-numeric:normal;font-variant-east-asian:normal;text-anchor:end;opacity:0.995;" font-size="0.398247"/>
                        </g>
                    </g>
                </g>
                <g id="text4075" stroke-width="0.0254" aria-label="S2209" gorn="0.3.0.0.11"  fill="#000000" style="font-style:normal;font-variant:normal;font-weight:normal;font-stretch:normal;font-family:Droid Sans;-inkscape-font-specification:'Droid Sans, Normal';font-variant-ligatures:normal;font-variant-caps:normal;font-variant-numeric:normal;font-variant-east-asian:normal;opacity:0.995;" font-size="0.398247">
                    <path id="path1820" d="m 59.162727,139.58531 q 0,0.0668 -0.02412,0.11989 -0.02343,0.0524 -0.06752,0.0889 -0.0441,0.0365 -0.107487,0.0558 -0.06339,0.0186 -0.142627,0.0186 -0.07648,0 -0.143315,-0.0124 -0.06615,-0.0117 -0.110932,-0.0351 v -0.12265 q 0.02343,0.011 0.05305,0.0221 0.03032,0.0103 0.06339,0.0186 0.03307,0.008 0.06821,0.0138 0.03514,0.005 0.06959,0.005 0.110243,0 0.162609,-0.0413 0.05305,-0.0413 0.05305,-0.11851 0,-0.0372 -0.01034,-0.0648 -0.0096,-0.0276 -0.03514,-0.0503 -0.02481,-0.0234 -0.06683,-0.0448 -0.04203,-0.022 -0.106109,-0.0475 -0.06132,-0.0241 -0.106798,-0.0524 -0.04479,-0.0289 -0.07441,-0.0648 -0.02894,-0.0358 -0.04341,-0.0813 -0.01378,-0.0455 -0.01378,-0.10336 0,-0.0606 0.02205,-0.10817 0.02205,-0.0476 0.06201,-0.0799 0.03996,-0.0331 0.09508,-0.0503 0.05581,-0.0172 0.122645,-0.0172 0.08199,0 0.14745,0.0158 0.06546,0.0152 0.116444,0.0393 l -0.04616,0.10748 q -0.04479,-0.02 -0.101975,-0.0344 -0.0565,-0.0152 -0.117133,-0.0152 -0.08406,0 -0.130225,0.0393 -0.04616,0.0386 -0.04616,0.10473 0,0.0393 0.01034,0.0682 0.01033,0.0283 0.03445,0.0517 0.02412,0.0227 0.06339,0.0434 0.03996,0.02 0.09784,0.0427 0.0627,0.0248 0.109554,0.051 0.04754,0.0262 0.07924,0.0593 0.0317,0.0331 0.04754,0.0765 0.01654,0.0434 0.01654,0.10266 z" gorn="0.3.0.0.11.0" />
                    <path id="path1822" d="M 59.922025,139.85472 H 59.29364 v -0.10749 l 0.241157,-0.26251 q 0.05168,-0.0558 0.09233,-0.10198 0.04065,-0.0462 0.0689,-0.0903 0.02894,-0.0441 0.0441,-0.0882 0.01516,-0.0448 0.01516,-0.0971 0,-0.0407 -0.01171,-0.0717 -0.01171,-0.031 -0.03376,-0.0524 -0.02136,-0.0221 -0.05099,-0.0331 -0.02963,-0.011 -0.06615,-0.011 -0.06546,0 -0.118511,0.0269 -0.05236,0.0262 -0.09991,0.0675 l -0.07028,-0.082 q 0.02756,-0.0248 0.05926,-0.0462 0.03169,-0.0221 0.06821,-0.0379 0.03652,-0.0159 0.07717,-0.0248 0.04065,-0.01 0.08544,-0.01 0.06615,0 0.1192,0.0186 0.05374,0.0186 0.09095,0.0537 0.03721,0.0344 0.05719,0.0848 0.02067,0.0496 0.02067,0.11231 0,0.0586 -0.0186,0.11162 -0.01792,0.0531 -0.0503,0.10473 -0.0317,0.051 -0.07648,0.10267 -0.0441,0.0517 -0.09577,0.10749 l -0.193615,0.20601 v 0.006 h 0.474734 z" gorn="0.3.0.0.11.1" />
                    <path id="path1824" d="m 60.699238,139.85472 h -0.628385 v -0.10749 l 0.241157,-0.26251 q 0.05168,-0.0558 0.09233,-0.10198 0.04065,-0.0462 0.0689,-0.0903 0.02894,-0.0441 0.0441,-0.0882 0.01516,-0.0448 0.01516,-0.0971 0,-0.0407 -0.01171,-0.0717 -0.01171,-0.031 -0.03376,-0.0524 -0.02136,-0.0221 -0.05099,-0.0331 -0.02963,-0.011 -0.06615,-0.011 -0.06546,0 -0.118511,0.0269 -0.05237,0.0262 -0.09991,0.0675 l -0.07028,-0.082 q 0.02756,-0.0248 0.05926,-0.0462 0.03169,-0.0221 0.06821,-0.0379 0.03652,-0.0159 0.07717,-0.0248 0.04065,-0.01 0.08544,-0.01 0.06615,0 0.1192,0.0186 0.05374,0.0186 0.09095,0.0537 0.03721,0.0344 0.05719,0.0848 0.02067,0.0496 0.02067,0.11231 0,0.0586 -0.0186,0.11162 -0.01791,0.0531 -0.0503,0.10473 -0.03169,0.051 -0.07648,0.10267 -0.0441,0.0517 -0.09577,0.10749 l -0.193614,0.20601 v 0.006 h 0.474734 z" gorn="0.3.0.0.11.2" />
                    <path id="path1826" d="m 61.492988,139.34967 q 0,0.12196 -0.01791,0.21842 -0.01723,0.0965 -0.0565,0.1633 -0.03858,0.0668 -0.09991,0.10197 -0.06132,0.0351 -0.148828,0.0351 -0.0813,0 -0.141938,-0.0351 -0.05994,-0.0351 -0.09991,-0.10197 -0.03927,-0.0668 -0.05926,-0.1633 -0.01929,-0.0965 -0.01929,-0.21842 0,-0.12196 0.01723,-0.21842 0.01791,-0.0965 0.05581,-0.16261 0.03858,-0.0668 0.09922,-0.10197 0.06132,-0.0351 0.148139,-0.0351 0.08199,0 0.142627,0.0351 0.06063,0.0344 0.100596,0.10128 0.03996,0.0661 0.05994,0.16261 0.01998,0.0965 0.01998,0.21911 z m -0.516075,0 q 0,0.10335 0.01033,0.18052 0.01033,0.0772 0.03307,0.12885 0.02274,0.051 0.05926,0.0772 0.03721,0.0255 0.09026,0.0255 0.05305,0 0.09026,-0.0255 0.03721,-0.0255 0.06063,-0.0765 0.02412,-0.051 0.03445,-0.12816 0.01102,-0.0779 0.01102,-0.1819 0,-0.10335 -0.01102,-0.18052 -0.01033,-0.0772 -0.03445,-0.12816 -0.02343,-0.051 -0.06063,-0.0765 -0.03721,-0.0255 -0.09026,-0.0255 -0.05306,0 -0.09026,0.0255 -0.03652,0.0255 -0.05926,0.0765 -0.02274,0.051 -0.03307,0.12816 -0.01033,0.0772 -0.01033,0.18052 z" gorn="0.3.0.0.11.3" />
                    <path id="path1828" d="m 62.267444,139.27732 q 0,0.0724 -0.0076,0.1447 -0.0069,0.0717 -0.02549,0.13711 -0.01791,0.0655 -0.04961,0.12265 -0.03169,0.0565 -0.08062,0.0978 -0.04892,0.0413 -0.117133,0.0654 -0.06821,0.0234 -0.159852,0.0234 -0.01309,0 -0.02894,-6.9e-4 -0.01585,-6.9e-4 -0.03169,-0.003 -0.01585,-0.001 -0.03101,-0.003 -0.01516,-0.002 -0.02687,-0.006 v -0.10749 q 0.02412,0.009 0.05443,0.0131 0.03032,0.004 0.05994,0.004 0.09302,0 0.152963,-0.0324 0.05994,-0.0324 0.09508,-0.0875 0.03514,-0.0558 0.04961,-0.12954 0.01516,-0.0737 0.0186,-0.15572 h -0.009 q -0.01378,0.0248 -0.03307,0.0462 -0.01929,0.0214 -0.04547,0.0372 -0.02618,0.0158 -0.05926,0.0248 -0.03307,0.009 -0.07372,0.009 -0.06546,0 -0.118511,-0.02 -0.05305,-0.0207 -0.09026,-0.06 -0.03721,-0.0393 -0.05788,-0.0958 -0.01998,-0.0572 -0.01998,-0.13023 0,-0.0785 0.02136,-0.14125 0.02205,-0.0634 0.06132,-0.10679 0.03996,-0.0441 0.09646,-0.0675 0.05719,-0.0234 0.127469,-0.0234 0.06959,0 0.129535,0.0269 0.05994,0.0269 0.104042,0.082 0.0441,0.0551 0.06959,0.13918 0.02549,0.0834 0.02549,0.19637 z m -0.327283,-0.3383 q -0.04134,0 -0.07579,0.0138 -0.03376,0.0138 -0.05857,0.0427 -0.02481,0.0289 -0.03858,0.073 -0.01309,0.0434 -0.01309,0.10335 0,0.0482 0.01102,0.0868 0.01171,0.0379 0.03445,0.0648 0.02274,0.0269 0.0565,0.0413 0.03445,0.0145 0.07993,0.0145 0.04685,0 0.08475,-0.0159 0.0379,-0.0165 0.06477,-0.042 0.02687,-0.0262 0.04134,-0.0592 0.01516,-0.0331 0.01516,-0.0661 0,-0.0462 -0.01309,-0.0916 -0.0124,-0.0462 -0.0379,-0.0827 -0.02481,-0.0372 -0.0627,-0.06 -0.0379,-0.0227 -0.08819,-0.0227 z" gorn="0.3.0.0.11.4" />
                </g>
                <rect y="133.35001" id="rect1236" stroke="none" height="5.1045856" stroke-width="0.489215" x="57.149998" gorn="0.3.0.0.12"  width="5.1174459" fill="#2a7fff" stroke-opacity="1" fill-opacity="1" style="vector-effect:none;fill-rule:evenodd;stroke-linecap:round;stroke-linejoin:round;stroke-miterlimit:4;stroke-dasharray:none;stroke-dashoffset:0;paint-order:fill markers stroke"/>
                <g transform="translate(0.03744467,0.0245861)" >
                    <g >
                        <g id="g1635" stroke="#0055d4" stroke-width="1" gorn="0.3.0.0.13.0.0"  fill="#80b3ff">
                            <g transform="translate(14.17,3.8100056)" >
                                <g >
                                    <g id="g1601" stroke="#0055d4" gorn="0.3.0.0.13.0.0.0.0.0"  fill="#80b3ff">
                                        <path id="path1595" stroke="#0055d4" d="m 43.18,129.54 v 1.397" stroke-width="0.400002" gorn="0.3.0.0.13.0.0.0.0.0.0"  fill="#80b3ff" stroke-opacity="1" fill-opacity="1" style="fill-rule:evenodd;stroke-linecap:butt;stroke-linejoin:round;stroke-miterlimit:0;stroke-dasharray:none;stroke-dashoffset:0;"/>
                                        <path id="path1597" stroke="#0055d4" d="m 43.18,131.38151 v 1.397" stroke-width="0.400002" gorn="0.3.0.0.13.0.0.0.0.0.1"  fill="#80b3ff" stroke-opacity="1" fill-opacity="1" style="fill-rule:evenodd;stroke-linecap:butt;stroke-linejoin:round;stroke-miterlimit:0;stroke-dasharray:none;stroke-dashoffset:0;"/>
                                        <path id="path1599" stroke="#0055d4" d="m 43.18,133.223 v 1.397" stroke-width="0.400002" gorn="0.3.0.0.13.0.0.0.0.0.2"  fill="#80b3ff" stroke-opacity="1" fill-opacity="1" style="fill-rule:evenodd;stroke-linecap:butt;stroke-linejoin:round;stroke-miterlimit:0;stroke-dasharray:none;stroke-dashoffset:0;"/>
                                    </g>
                                </g>
                            </g>
                            <g transform="translate(18.849998,3.8100056)" >
                                <g >
                                    <g id="g1609" stroke="#0055d4" gorn="0.3.0.0.13.0.0.1.0.0"  fill="#80b3ff">
                                        <path id="path1603" stroke="#0055d4" d="m 43.18,129.54 v 1.397" stroke-width="0.400002" gorn="0.3.0.0.13.0.0.1.0.0.0"  fill="#80b3ff" stroke-opacity="1" fill-opacity="1" style="fill-rule:evenodd;stroke-linecap:butt;stroke-linejoin:round;stroke-miterlimit:0;stroke-dasharray:none;stroke-dashoffset:0;"/>
                                        <path id="path1605" stroke="#0055d4" d="m 43.18,131.38151 v 1.397" stroke-width="0.400002" gorn="0.3.0.0.13.0.0.1.0.0.1"  fill="#80b3ff" stroke-opacity="1" fill-opacity="1" style="fill-rule:evenodd;stroke-linecap:butt;stroke-linejoin:round;stroke-miterlimit:0;stroke-dasharray:none;stroke-dashoffset:0;"/>
                                        <path id="path1607" stroke="#0055d4" d="m 43.18,133.223 v 1.397" stroke-width="0.400002" gorn="0.3.0.0.13.0.0.1.0.0.2"  fill="#80b3ff" stroke-opacity="1" fill-opacity="1" style="fill-rule:evenodd;stroke-linecap:butt;stroke-linejoin:round;stroke-miterlimit:0;stroke-dasharray:none;stroke-dashoffset:0;"/>
                                    </g>
                                </g>
                            </g>
                            <g transform="translate(15.339996,3.8100056)" >
                                <g >
                                    <g id="g1617" stroke="#0055d4" gorn="0.3.0.0.13.0.0.2.0.0"  fill="#80b3ff">
                                        <path id="path1611" stroke="#0055d4" d="m 43.18,129.54 v 1.397" stroke-width="0.400002" gorn="0.3.0.0.13.0.0.2.0.0.0"  fill="#80b3ff" stroke-opacity="1" fill-opacity="1" style="fill-rule:evenodd;stroke-linecap:butt;stroke-linejoin:round;stroke-miterlimit:0;stroke-dasharray:none;stroke-dashoffset:0;"/>
                                        <path id="path1613" stroke="#0055d4" d="m 43.18,131.38151 v 1.397" stroke-width="0.400002" gorn="0.3.0.0.13.0.0.2.0.0.1"  fill="#80b3ff" stroke-opacity="1" fill-opacity="1" style="fill-rule:evenodd;stroke-linecap:butt;stroke-linejoin:round;stroke-miterlimit:0;stroke-dasharray:none;stroke-dashoffset:0;"/>
                                        <path id="path1615" stroke="#0055d4" d="m 43.18,133.223 v 1.397" stroke-width="0.400002" gorn="0.3.0.0.13.0.0.2.0.0.2"  fill="#80b3ff" stroke-opacity="1" fill-opacity="1" style="fill-rule:evenodd;stroke-linecap:butt;stroke-linejoin:round;stroke-miterlimit:0;stroke-dasharray:none;stroke-dashoffset:0;"/>
                                    </g>
                                </g>
                            </g>
                            <g transform="translate(17.679999,3.8100056)" >
                                <g >
                                    <g id="g1625" stroke="#0055d4" gorn="0.3.0.0.13.0.0.3.0.0"  fill="#80b3ff">
                                        <path id="path1619" stroke="#0055d4" d="m 43.18,129.54 v 1.397" stroke-width="0.400002" gorn="0.3.0.0.13.0.0.3.0.0.0"  fill="#80b3ff" stroke-opacity="1" fill-opacity="1" style="fill-rule:evenodd;stroke-linecap:butt;stroke-linejoin:round;stroke-miterlimit:0;stroke-dasharray:none;stroke-dashoffset:0;"/>
                                        <path id="path1621" stroke="#0055d4" d="m 43.18,131.38151 v 1.397" stroke-width="0.400002" gorn="0.3.0.0.13.0.0.3.0.0.1"  fill="#80b3ff" stroke-opacity="1" fill-opacity="1" style="fill-rule:evenodd;stroke-linecap:butt;stroke-linejoin:round;stroke-miterlimit:0;stroke-dasharray:none;stroke-dashoffset:0;"/>
                                        <path id="path1623" stroke="#0055d4" d="m 43.18,133.223 v 1.397" stroke-width="0.400002" gorn="0.3.0.0.13.0.0.3.0.0.2"  fill="#80b3ff" stroke-opacity="1" fill-opacity="1" style="fill-rule:evenodd;stroke-linecap:butt;stroke-linejoin:round;stroke-miterlimit:0;stroke-dasharray:none;stroke-dashoffset:0;"/>
                                    </g>
                                </g>
                            </g>
                            <g transform="translate(16.509998,3.8100056)" >
                                <g >
                                    <g id="g1633" stroke="#0055d4" gorn="0.3.0.0.13.0.0.4.0.0"  fill="#80b3ff">
                                        <path id="path1627" stroke="#0055d4" d="m 43.18,129.54 v 1.397" stroke-width="0.400002" gorn="0.3.0.0.13.0.0.4.0.0.0"  fill="#80b3ff" stroke-opacity="1" fill-opacity="1" style="fill-rule:evenodd;stroke-linecap:butt;stroke-linejoin:round;stroke-miterlimit:0;stroke-dasharray:none;stroke-dashoffset:0;"/>
                                        <path id="path1629" stroke="#0055d4" d="m 43.18,131.38151 v 1.397" stroke-width="0.400002" gorn="0.3.0.0.13.0.0.4.0.0.1"  fill="#80b3ff" stroke-opacity="1" fill-opacity="1" style="fill-rule:evenodd;stroke-linecap:butt;stroke-linejoin:round;stroke-miterlimit:0;stroke-dasharray:none;stroke-dashoffset:0;"/>
                                        <path id="path1631" stroke="#0055d4" d="m 43.18,133.223 v 1.397" stroke-width="0.400002" gorn="0.3.0.0.13.0.0.4.0.0.2"  fill="#80b3ff" stroke-opacity="1" fill-opacity="1" style="fill-rule:evenodd;stroke-linecap:butt;stroke-linejoin:round;stroke-miterlimit:0;stroke-dasharray:none;stroke-dashoffset:0;"/>
                                    </g>
                                </g>
                            </g>
                        </g>
                    </g>
                </g>
                <g id="g1593" stroke="#5599ff" stroke-width="1" gorn="0.3.0.0.14"  fill="#0044aa">
                    <g transform="translate(14.17,3.8100056)" >
                        <g >
                            <g id="g1249" stroke="#5599ff" gorn="0.3.0.0.14.0.0.0"  fill="#0044aa">
                                <path id="path1238" stroke="#5599ff" d="m 43.18,129.54 v 1.397" stroke-width="0.400002" gorn="0.3.0.0.14.0.0.0.0"  fill="#0044aa" stroke-opacity="1" fill-opacity="1" style="fill-rule:evenodd;stroke-linecap:butt;stroke-linejoin:round;stroke-miterlimit:0;stroke-dasharray:none;stroke-dashoffset:0;"/>
                                <path id="path1242" stroke="#5599ff" d="m 43.18,131.38151 v 1.397" stroke-width="0.400002" gorn="0.3.0.0.14.0.0.0.1"  fill="#0044aa" stroke-opacity="1" fill-opacity="1" style="fill-rule:evenodd;stroke-linecap:butt;stroke-linejoin:round;stroke-miterlimit:0;stroke-dasharray:none;stroke-dashoffset:0;"/>
                                <path id="path1244" stroke="#5599ff" d="m 43.18,133.223 v 1.397" stroke-width="0.400002" gorn="0.3.0.0.14.0.0.0.2"  fill="#0044aa" stroke-opacity="1" fill-opacity="1" style="fill-rule:evenodd;stroke-linecap:butt;stroke-linejoin:round;stroke-miterlimit:0;stroke-dasharray:none;stroke-dashoffset:0;"/>
                            </g>
                        </g>
                    </g>
                    <g transform="translate(18.849998,3.8100056)" >
                        <g >
                            <g id="g1257" stroke="#5599ff" gorn="0.3.0.0.14.1.0.0"  fill="#0044aa">
                                <path id="path1251" stroke="#5599ff" d="m 43.18,129.54 v 1.397" stroke-width="0.400002" gorn="0.3.0.0.14.1.0.0.0"  fill="#0044aa" stroke-opacity="1" fill-opacity="1" style="fill-rule:evenodd;stroke-linecap:butt;stroke-linejoin:round;stroke-miterlimit:0;stroke-dasharray:none;stroke-dashoffset:0;"/>
                                <path id="path1253" stroke="#5599ff" d="m 43.18,131.38151 v 1.397" stroke-width="0.400002" gorn="0.3.0.0.14.1.0.0.1"  fill="#0044aa" stroke-opacity="1" fill-opacity="1" style="fill-rule:evenodd;stroke-linecap:butt;stroke-linejoin:round;stroke-miterlimit:0;stroke-dasharray:none;stroke-dashoffset:0;"/>
                                <path id="path1255" stroke="#5599ff" d="m 43.18,133.223 v 1.397" stroke-width="0.400002" gorn="0.3.0.0.14.1.0.0.2"  fill="#0044aa" stroke-opacity="1" fill-opacity="1" style="fill-rule:evenodd;stroke-linecap:butt;stroke-linejoin:round;stroke-miterlimit:0;stroke-dasharray:none;stroke-dashoffset:0;"/>
                            </g>
                        </g>
                    </g>
                    <g transform="translate(15.339996,3.8100056)" >
                        <g >
                            <g id="g1265" stroke="#5599ff" gorn="0.3.0.0.14.2.0.0"  fill="#0044aa">
                                <path id="path1259" stroke="#5599ff" d="m 43.18,129.54 v 1.397" stroke-width="0.400002" gorn="0.3.0.0.14.2.0.0.0"  fill="#0044aa" stroke-opacity="1" fill-opacity="1" style="fill-rule:evenodd;stroke-linecap:butt;stroke-linejoin:round;stroke-miterlimit:0;stroke-dasharray:none;stroke-dashoffset:0;"/>
                                <path id="path1261" stroke="#5599ff" d="m 43.18,131.38151 v 1.397" stroke-width="0.400002" gorn="0.3.0.0.14.2.0.0.1"  fill="#0044aa" stroke-opacity="1" fill-opacity="1" style="fill-rule:evenodd;stroke-linecap:butt;stroke-linejoin:round;stroke-miterlimit:0;stroke-dasharray:none;stroke-dashoffset:0;"/>
                                <path id="path1263" stroke="#5599ff" d="m 43.18,133.223 v 1.397" stroke-width="0.400002" gorn="0.3.0.0.14.2.0.0.2"  fill="#0044aa" stroke-opacity="1" fill-opacity="1" style="fill-rule:evenodd;stroke-linecap:butt;stroke-linejoin:round;stroke-miterlimit:0;stroke-dasharray:none;stroke-dashoffset:0;"/>
                            </g>
                        </g>
                    </g>
                    <g transform="translate(17.679999,3.8100056)" >
                        <g >
                            <g id="g1273" stroke="#5599ff" gorn="0.3.0.0.14.3.0.0"  fill="#0044aa">
                                <path id="path1267" stroke="#5599ff" d="m 43.18,129.54 v 1.397" stroke-width="0.400002" gorn="0.3.0.0.14.3.0.0.0"  fill="#0044aa" stroke-opacity="1" fill-opacity="1" style="fill-rule:evenodd;stroke-linecap:butt;stroke-linejoin:round;stroke-miterlimit:0;stroke-dasharray:none;stroke-dashoffset:0;"/>
                                <path id="path1269" stroke="#5599ff" d="m 43.18,131.38151 v 1.397" stroke-width="0.400002" gorn="0.3.0.0.14.3.0.0.1"  fill="#0044aa" stroke-opacity="1" fill-opacity="1" style="fill-rule:evenodd;stroke-linecap:butt;stroke-linejoin:round;stroke-miterlimit:0;stroke-dasharray:none;stroke-dashoffset:0;"/>
                                <path id="path1271" stroke="#5599ff" d="m 43.18,133.223 v 1.397" stroke-width="0.400002" gorn="0.3.0.0.14.3.0.0.2"  fill="#0044aa" stroke-opacity="1" fill-opacity="1" style="fill-rule:evenodd;stroke-linecap:butt;stroke-linejoin:round;stroke-miterlimit:0;stroke-dasharray:none;stroke-dashoffset:0;"/>
                            </g>
                        </g>
                    </g>
                    <g transform="translate(16.509998,3.8100056)" >
                        <g >
                            <g id="g1281" stroke="#5599ff" gorn="0.3.0.0.14.4.0.0"  fill="#0044aa">
                                <path id="path1275" stroke="#5599ff" d="m 43.18,129.54 v 1.397" stroke-width="0.400002" gorn="0.3.0.0.14.4.0.0.0"  fill="#0044aa" stroke-opacity="1" fill-opacity="1" style="fill-rule:evenodd;stroke-linecap:butt;stroke-linejoin:round;stroke-miterlimit:0;stroke-dasharray:none;stroke-dashoffset:0;"/>
                                <path id="path1277" stroke="#5599ff" d="m 43.18,131.38151 v 1.397" stroke-width="0.400002" gorn="0.3.0.0.14.4.0.0.1"  fill="#0044aa" stroke-opacity="1" fill-opacity="1" style="fill-rule:evenodd;stroke-linecap:butt;stroke-linejoin:round;stroke-miterlimit:0;stroke-dasharray:none;stroke-dashoffset:0;"/>
                                <path id="path1279" stroke="#5599ff" d="m 43.18,133.223 v 1.397" stroke-width="0.400002" gorn="0.3.0.0.14.4.0.0.2"  fill="#0044aa" stroke-opacity="1" fill-opacity="1" style="fill-rule:evenodd;stroke-linecap:butt;stroke-linejoin:round;stroke-miterlimit:0;stroke-dasharray:none;stroke-dashoffset:0;"/>
                            </g>
                        </g>
                    </g>
                </g>
                <circle stroke="#9a916c" id="connector10pin" cy="134.62" r="0.72390002" stroke-width="0.4318" cx="53.34" connectorname="SDA" gorn="0.3.0.0.15"  fill="none"/>
                <circle stroke="#9a916c" id="connector14pin" cy="132.08" r="0.72390002" stroke-width="0.4318" cx="53.34" connectorname="SCL" gorn="0.3.0.0.16"  fill="none"/>
                <path id="path1713" stroke="#808080" d="m 54.654883,127.8108 c 0.02473,-0.52846 -0.461726,-0.683 -0.467137,-0.68841" stroke-width="0.1" gorn="0.3.0.0.17"  fill="none" stroke-opacity="1" style="fill-rule:evenodd;stroke-linecap:butt;stroke-linejoin:miter;stroke-miterlimit:4;stroke-dasharray:none;"/>
                <circle stroke="#9a916c" id="connector8pin" cy="144.78" r="0.72390002" stroke-width="0.4318" cx="53.34" connectorname="SDA" gorn="0.3.0.0.18"  fill="none"/>
                <circle stroke="#9a916c" id="connector9pin" cy="142.24001" r="0.72390002" stroke-width="0.4318" cx="53.34" connectorname="SCL" gorn="0.3.0.0.19"  fill="none"/>
                <circle stroke="#9a916c" id="connector12pin" cy="139.7" r="0.72390002" stroke-width="0.4318" cx="53.34" connectorname="INT1" gorn="0.3.0.0.20"  fill="none"/>
                <circle stroke="#9a916c" id="connector11pin" cy="137.16" r="0.72390002" stroke-width="0.4318" cx="53.34" connectorname="INT0" gorn="0.3.0.0.21"  fill="none"/>
                <circle stroke="#9a916c" id="connector3pin" cy="134.62" r="0.72390002" stroke-width="0.4318" cx="66.040001" connectorname="SDA" gorn="0.3.0.0.22"  fill="none"/>
                <circle stroke="#9a916c" id="connector4pin" cy="132.08" r="0.72390002" stroke-width="0.4318" cx="66.040001" connectorname="SCL" gorn="0.3.0.0.23"  fill="none"/>
                <circle stroke="#9a916c" id="connector6pin" cy="129.53999" r="0.72390002" stroke-width="0.4318" cx="66.040001" connectorname="INT1" gorn="0.3.0.0.24"  fill="none"/>
                <circle stroke="#9a916c" id="connector7pin" cy="127" r="0.72390002" stroke-width="0.4318" cx="66.040001" connectorname="INT0" gorn="0.3.0.0.25"  fill="none"/>
                <circle stroke="#9a916c" id="connector0pin" cy="144.78" r="0.72390002" stroke-width="0.4318" cx="66.040001" connectorname="SDA" gorn="0.3.0.0.26"  fill="none"/>
                <circle stroke="#9a916c" id="connector1pin" cy="142.24001" r="0.72390002" stroke-width="0.4318" cx="66.040001" connectorname="SCL" gorn="0.3.0.0.27"  fill="none"/>
                <circle stroke="#9a916c" id="connector5pin" cy="139.7" r="0.72390002" stroke-width="0.4318" cx="66.040001" connectorname="INT1" gorn="0.3.0.0.28"  fill="none"/>
                <circle stroke="#9a916c" id="connector2pin" cy="137.16" r="0.72390002" stroke-width="0.4318" cx="66.040001" connectorname="INT0" gorn="0.3.0.0.29"  fill="none"/>
                <path id="path1717" stroke="#808080" d="m 56.142341,129.00323 c 0.02473,-0.52846 0.312736,-0.52319 -0.01229,-1.25389" stroke-width="0.1" gorn="0.3.0.0.30"  fill="none" stroke-opacity="1" style="fill-rule:evenodd;stroke-linecap:butt;stroke-linejoin:miter;stroke-miterlimit:4;stroke-dasharray:none;"/>
                <path id="circle1659" stroke="#ac9d93" d="m 63.847478,127.70817 a 0.96633619,0.96633619 0 0 1 -0.966336,0.96633 0.96633619,0.96633619 0 0 1 -0.966337,-0.96633 0.96633619,0.96633619 0 0 1 0.966337,-0.96634 0.96633619,0.96633619 0 0 1 0.966336,0.96634 z" stroke-width="0.05" gorn="0.3.0.0.31"  fill="#917c6f" style="stroke-miterlimit:4;stroke-dasharray:none"/>
                <path id="path1663" stroke="#6c5d53" d="m 63.336674,126.85594 -0.965819,1.67285" stroke-width="0.165" gorn="0.3.0.0.32"  fill="none" stroke-opacity="1" style="fill-rule:evenodd;stroke-linecap:butt;stroke-linejoin:round;stroke-miterlimit:4;stroke-dasharray:none;"/>
                <g id="text4059" stroke-width="0.0254" aria-label="Dir" gorn="0.3.0.0.33"  fill="#000000" style="font-style:normal;font-variant:normal;font-weight:normal;font-stretch:normal;font-family:Droid Sans;-inkscape-font-specification:'Droid Sans, Normal';font-variant-ligatures:normal;font-variant-caps:normal;font-variant-numeric:normal;font-variant-east-asian:normal;text-anchor:end;opacity:0.995;" font-size="0.398247">
                    <path id="path1831" d="m 54.663289,144.34765 h 0.228754 q 0.04479,6.8e-4 0.08682,0.0289 0.04272,0.0283 0.0627,0.0682 l 0.114377,0.23151 q 0.03238,0.0627 0.03238,0.13091 0,0.0634 -0.03445,0.13023 l -0.115066,0.22875 q -0.02205,0.0441 -0.06339,0.071 -0.04134,0.0262 -0.09233,0.0262 h -0.221175 q -0.02412,0 -0.04134,-0.0172 -0.01654,-0.0172 -0.01654,-0.0407 0,-0.0241 0.01654,-0.0413 0.01722,-0.0179 0.04134,-0.0179 h 0.06063 v -0.68144 h -0.05926 q -0.02412,0 -0.04134,-0.0172 -0.01654,-0.0179 -0.01654,-0.042 0,-0.0234 0.01654,-0.0406 0.01722,-0.0172 0.04134,-0.0172 z m 0.175011,0.11713 v 0.68282 h 0.04065 q 0.03859,0 0.05788,-0.0379 l 0.114377,-0.22738 q 0.02136,-0.0448 0.02136,-0.0751 0,-0.0379 -0.01723,-0.0717 l -0.118512,-0.23564 q -0.0186,-0.0351 -0.06063,-0.0351 z" stroke-width="0.0254" gorn="0.3.0.0.33.0"  fill="#000000" style="font-style:normal;font-variant:normal;font-weight:normal;font-stretch:normal;font-family:Droid Sans;-inkscape-font-specification:'Droid Sans, Normal';font-variant-ligatures:normal;font-variant-caps:normal;font-variant-numeric:normal;font-variant-east-asian:normal;text-anchor:end;opacity:0.995;" font-size="0.398247"/>
                    <path id="path1833" d="m 55.690616,144.29666 h 0.06063 q 0.02412,0 0.04065,0.0172 0.01723,0.0165 0.01723,0.0407 v 0.0496 q 0,0.0241 -0.01723,0.042 -0.01654,0.0172 -0.04065,0.0172 h -0.06201 q -0.02481,0 -0.04203,-0.0179 -0.01654,-0.0179 -0.01585,-0.04 l 0.0014,-0.051 q 0,-0.0241 0.01654,-0.0407 0.01722,-0.0172 0.04134,-0.0172 z m 0.235644,0.96531 h -0.352778 q -0.02412,0 -0.04134,-0.0165 -0.01654,-0.0172 -0.01654,-0.0413 0,-0.0234 0.01654,-0.0407 0.01723,-0.0172 0.04134,-0.0172 h 0.118512 v -0.43202 h -0.117133 q -0.02412,0 -0.04134,-0.0172 -0.01654,-0.0172 -0.01654,-0.0406 0,-0.0241 0.01654,-0.0413 0.01723,-0.0179 0.04134,-0.0179 h 0.176388 q 0.02412,0 0.04065,0.0179 0.01723,0.0172 0.01723,0.0413 v 0.48989 h 0.115755 q 0.02412,0 0.04134,0.0172 0.01792,0.0165 0.01792,0.0407 0,0.0241 -0.01723,0.0413 -0.01723,0.0165 -0.04065,0.0165 z" stroke-width="0.0254" gorn="0.3.0.0.33.1"  fill="#000000" style="font-style:normal;font-variant:normal;font-weight:normal;font-stretch:normal;font-family:Droid Sans;-inkscape-font-specification:'Droid Sans, Normal';font-variant-ligatures:normal;font-variant-caps:normal;font-variant-numeric:normal;font-variant-east-asian:normal;text-anchor:end;opacity:0.995;" font-size="0.398247"/>
                    <path id="path1835" d="m 56.311421,145.20547 v -0.54914 q 0,-0.0241 0.01654,-0.0413 0.01722,-0.0179 0.04134,-0.0179 0.02412,0 0.04065,0.0172 0.01723,0.0172 0.01723,0.042 v 0.0723 l 0.0944,-0.0806 q 0.05857,-0.0496 0.114377,-0.0496 h 0.08475 q 0.07166,0 0.122646,0.051 0.05099,0.051 0.05099,0.12264 v 0.031 q 0,0.0248 -0.01723,0.042 -0.01654,0.0172 -0.04065,0.0172 -0.02412,0 -0.04134,-0.0165 -0.01654,-0.0172 -0.01654,-0.0413 v -0.0324 q 0,-0.0241 -0.01723,-0.0406 -0.01654,-0.0172 -0.04065,-0.0172 h -0.0751 q -0.02412,0 -0.05374,0.0255 l -0.164676,0.14262 v 0.32315 q 0,0.0241 -0.01723,0.0413 -0.01722,0.0165 -0.04065,0.0165 -0.02412,0 -0.04134,-0.0165 -0.01654,-0.0172 -0.01654,-0.0413 z" stroke-width="0.0254" gorn="0.3.0.0.33.2"  fill="#000000" style="font-style:normal;font-variant:normal;font-weight:normal;font-stretch:normal;font-family:Droid Sans;-inkscape-font-specification:'Droid Sans, Normal';font-variant-ligatures:normal;font-variant-caps:normal;font-variant-numeric:normal;font-variant-east-asian:normal;text-anchor:end;opacity:0.995;" font-size="0.398247"/>
                </g>
                <g id="text4061" stroke-width="0.0254" aria-label="Step" gorn="0.3.0.0.34"  fill="#000000" style="font-style:normal;font-variant:normal;font-weight:normal;font-stretch:normal;font-family:Droid Sans;-inkscape-font-specification:'Droid Sans, Normal';font-variant-ligatures:normal;font-variant-caps:normal;font-variant-numeric:normal;font-variant-east-asian:normal;text-anchor:end;opacity:0.995;" font-size="0.398247">
                    <path id="path1838" d="m 54.736324,141.65744 h 0.301101 q 0.05512,0 0.104042,0.0469 0.04961,0.0462 0.04961,0.11231 0,0.0248 -0.01791,0.042 -0.01723,0.0172 -0.03858,0.0172 -0.02963,0 -0.04065,-0.0131 -0.01102,-0.0138 -0.02136,-0.0503 -0.0096,-0.0365 -0.0441,-0.0365 h -0.285943 q -0.02067,0 -0.02067,0.0131 0,0.008 0.009,0.0193 l 0.429258,0.54915 q 0.03101,0.04 0.03101,0.0854 0,0.0517 -0.0379,0.091 -0.03721,0.0393 -0.08337,0.0393 h -0.312126 q -0.06201,0 -0.108175,-0.0469 -0.04548,-0.0475 -0.04548,-0.10404 0,-0.0648 0.06063,-0.0648 0.02343,0 0.03996,0.0172 0.01654,0.0165 0.01654,0.0393 0,0.0186 0.0124,0.031 0.01309,0.0124 0.03238,0.0124 h 0.288009 q 0.0186,0 0.0186,-0.0145 0,-0.007 -0.009,-0.0179 l -0.42857,-0.54915 q -0.03032,-0.0393 -0.03032,-0.0854 0,-0.0537 0.03859,-0.093 0.03858,-0.04 0.09302,-0.04 z" stroke-width="0.0254" gorn="0.3.0.0.34.0"  fill="#000000" style="font-style:normal;font-variant:normal;font-weight:normal;font-stretch:normal;font-family:Droid Sans;-inkscape-font-specification:'Droid Sans, Normal';font-variant-ligatures:normal;font-variant-caps:normal;font-variant-numeric:normal;font-variant-east-asian:normal;text-anchor:end;opacity:0.995;" font-size="0.398247"/>
                    <path id="path1840" d="m 55.864247,142.57315 h -0.115755 q -0.07166,0 -0.123334,-0.051 -0.05168,-0.051 -0.05168,-0.12264 V 142.024 h -0.05926 q -0.02412,0 -0.04134,-0.0165 -0.01654,-0.0165 -0.01654,-0.0413 0,-0.0241 0.01654,-0.0407 0.01723,-0.0172 0.04134,-0.0172 h 0.06063 v -0.14194 q 0,-0.0241 0.01654,-0.0406 0.01722,-0.0172 0.04134,-0.0172 0.02274,0 0.03996,0.0172 0.01792,0.0172 0.01792,0.0406 v 0.14194 h 0.232888 q 0.02343,0 0.04065,0.0172 0.01723,0.0172 0.01723,0.0407 0,0.0241 -0.01723,0.0413 -0.01722,0.0165 -0.04065,0.0165 h -0.234266 v 0.37552 q 0,0.0234 0.01723,0.0406 0.01791,0.0172 0.04203,0.0172 h 0.112999 q 0.04616,0 0.06132,-0.0496 0.01516,-0.0503 0.05857,-0.0503 0.02549,0 0.04134,0.0172 0.01654,0.0165 0.01654,0.042 0,0.0524 -0.04961,0.10473 -0.04892,0.0517 -0.125402,0.0517 z" stroke-width="0.0254" gorn="0.3.0.0.34.1"  fill="#000000" style="font-style:normal;font-variant:normal;font-weight:normal;font-stretch:normal;font-family:Droid Sans;-inkscape-font-specification:'Droid Sans, Normal';font-variant-ligatures:normal;font-variant-caps:normal;font-variant-numeric:normal;font-variant-east-asian:normal;text-anchor:end;opacity:0.995;" font-size="0.398247"/>
                    <path id="path1842" d="m 56.892952,142.12598 v 0.13987 q 0,0.0234 -0.01723,0.0406 -0.01723,0.0172 -0.04065,0.0172 h -0.409277 v 0.0338 q 0,0.0296 0.02549,0.0503 l 0.03376,0.0282 q 0.02756,0.0214 0.05237,0.0214 h 0.297656 q 0.02343,0 0.04065,0.0172 0.01723,0.0165 0.01723,0.0406 0,0.0234 -0.01791,0.0407 -0.01723,0.0172 -0.03996,0.0172 h -0.305235 q -0.03032,0 -0.06408,-0.0124 -0.03307,-0.0131 -0.04892,-0.0269 l -0.05168,-0.0455 q -0.02412,-0.0193 -0.04065,-0.0537 -0.01585,-0.0345 -0.01585,-0.0634 V 142.106 q 0,-0.0227 0.01723,-0.0613 0.01791,-0.0386 0.04479,-0.0599 l 0.04823,-0.0379 q 0.04754,-0.0386 0.10542,-0.0386 h 0.162608 q 0.06132,0 0.115756,0.051 l 0.04341,0.0413 q 0.04685,0.042 0.04685,0.1254 z m -0.465777,-0.009 v 0.0896 h 0.3514 v -0.0806 q 0,-0.0324 -0.01998,-0.0496 l -0.03376,-0.0296 q -0.02618,-0.0214 -0.04685,-0.0214 h -0.145383 q -0.02687,0 -0.04892,0.0186 l -0.03376,0.0282 q -0.02274,0.0172 -0.02274,0.0448 z" stroke-width="0.0254" gorn="0.3.0.0.34.2"  fill="#000000" style="font-style:normal;font-variant:normal;font-weight:normal;font-stretch:normal;font-family:Droid Sans;-inkscape-font-specification:'Droid Sans, Normal';font-variant-ligatures:normal;font-variant-caps:normal;font-variant-numeric:normal;font-variant-east-asian:normal;text-anchor:end;opacity:0.995;" font-size="0.398247"/>
                    <path id="path1844" d="m 57.279491,142.507 v 0.25632 q 0,0.0248 -0.01723,0.042 -0.01654,0.0172 -0.04065,0.0172 -0.02412,0 -0.04203,-0.0172 -0.01723,-0.0172 -0.01723,-0.042 v -0.82544 q 0,-0.0234 0.01723,-0.0407 0.01723,-0.0172 0.04203,-0.0172 0.02343,0 0.04065,0.0172 0.01723,0.0172 0.01723,0.0407 v 0.0372 q 0.08406,-0.0937 0.166054,-0.0937 h 0.02687 q 0.06132,0 0.112999,0.0455 l 0.09646,0.0834 q 0.06339,0.0551 0.06339,0.13987 v 0.18053 q 0,0.0854 -0.06821,0.144 l -0.0944,0.0813 q -0.04685,0.0427 -0.118512,0.0427 h -0.02549 q -0.06752,0 -0.114377,-0.0468 z m 0.163298,-0.0255 h 0.02963 q 0.02136,0 0.04548,-0.0214 l 0.09026,-0.0792 q 0.02274,-0.0179 0.02274,-0.0489 v -0.18672 q 0,-0.0276 -0.02549,-0.0489 l -0.09715,-0.0834 q -0.01654,-0.0145 -0.03583,-0.0145 h -0.03376 q -0.01929,0 -0.0503,0.0317 l -0.08613,0.0854 q -0.02274,0.0227 -0.02274,0.051 v 0.14814 q 0,0.0269 0.02549,0.0524 l 0.08337,0.0834 q 0.03101,0.031 0.05443,0.031 z" stroke-width="0.0254" gorn="0.3.0.0.34.3"  fill="#000000" style="font-style:normal;font-variant:normal;font-weight:normal;font-stretch:normal;font-family:Droid Sans;-inkscape-font-specification:'Droid Sans, Normal';font-variant-ligatures:normal;font-variant-caps:normal;font-variant-numeric:normal;font-variant-east-asian:normal;text-anchor:end;opacity:0.995;" font-size="0.398247"/>
                </g>
                <g id="text4063" stroke-width="0.0254" aria-label="CLK" gorn="0.3.0.0.35"  fill="#000000" style="font-style:normal;font-variant:normal;font-weight:normal;font-stretch:normal;font-family:Droid Sans;-inkscape-font-specification:'Droid Sans, Normal';font-variant-ligatures:normal;font-variant-caps:normal;font-variant-numeric:normal;font-variant-east-asian:normal;text-anchor:end;opacity:0.995;" font-size="0.398247">
                    <path id="path1847" d="m 54.921673,140.0421 h 0.208772 q 0.02412,0 0.04134,0.0172 0.01791,0.0165 0.01791,0.0406 0,0.0241 -0.01791,0.0413 -0.01723,0.0165 -0.04134,0.0165 h -0.216351 q -0.04134,0 -0.08544,-0.0262 -0.0441,-0.0262 -0.06132,-0.0586 l -0.13367,-0.25838 q -0.02687,-0.0558 -0.02687,-0.11438 0,-0.0648 0.02549,-0.11231 l 0.135048,-0.25562 q 0.01929,-0.0358 0.05994,-0.0627 0.04065,-0.0276 0.07855,-0.0276 h 0.228755 q 0.02412,0 0.04065,0.0172 0.01722,0.0172 0.01722,0.0406 0,0.0241 -0.01722,0.042 -0.01654,0.0172 -0.04065,0.0172 h -0.220486 q -0.02756,0 -0.04479,0.0324 l -0.128157,0.23978 q -0.01516,0.0283 -0.01516,0.0668 0,0.0406 0.01654,0.0716 l 0.122645,0.23565 q 0.01723,0.0365 0.0565,0.0365 z" stroke-width="0.0254" gorn="0.3.0.0.35.0"  fill="#000000" style="font-style:normal;font-variant:normal;font-weight:normal;font-stretch:normal;font-family:Droid Sans;-inkscape-font-specification:'Droid Sans, Normal';font-variant-ligatures:normal;font-variant-caps:normal;font-variant-numeric:normal;font-variant-east-asian:normal;text-anchor:end;opacity:0.995;" font-size="0.398247"/>
                    <path id="path1849" d="m 55.456351,140.15785 v -0.85783 q 0,-0.0234 0.01723,-0.0406 0.01723,-0.0172 0.04065,-0.0172 0.02343,0 0.04065,0.0172 0.01722,0.0172 0.01722,0.0406 v 0.74208 h 0.409277 q 0.02412,0 0.04134,0.0172 0.01792,0.0165 0.01792,0.0406 0,0.0241 -0.01792,0.0413 -0.01722,0.0165 -0.04134,0.0165 z" stroke-width="0.0254" gorn="0.3.0.0.35.1"  fill="#000000" style="font-style:normal;font-variant:normal;font-weight:normal;font-stretch:normal;font-family:Droid Sans;-inkscape-font-specification:'Droid Sans, Normal';font-variant-ligatures:normal;font-variant-caps:normal;font-variant-numeric:normal;font-variant-east-asian:normal;text-anchor:end;opacity:0.995;" font-size="0.398247"/>
                    <path id="path1851" d="m 56.307289,140.09997 v -0.79857 q 0,-0.0248 0.01654,-0.042 0.01723,-0.0172 0.04134,-0.0172 0.02412,0 0.04065,0.0172 0.01722,0.0165 0.01722,0.0406 v 0.27354 l 0.370692,-0.31626 q 0.01929,-0.0158 0.04341,-0.0158 0.02412,0 0.04065,0.0179 0.01654,0.0179 0.01654,0.0413 0,0.0241 -0.0186,0.04 l -0.420301,0.35691 0.420301,0.36311 q 0.01723,0.0145 0.01723,0.0372 0,0.0227 -0.01723,0.0413 -0.01654,0.0186 -0.04134,0.0186 -0.02343,0 -0.04203,-0.0159 l -0.369314,-0.31832 v 0.27629 q 0,0.0241 -0.01722,0.0413 -0.01654,0.0165 -0.04065,0.0165 -0.02343,0 -0.04065,-0.0165 -0.01723,-0.0172 -0.01723,-0.0413 z" stroke-width="0.0254" gorn="0.3.0.0.35.2"  fill="#000000" style="font-style:normal;font-variant:normal;font-weight:normal;font-stretch:normal;font-family:Droid Sans;-inkscape-font-specification:'Droid Sans, Normal';font-variant-ligatures:normal;font-variant-caps:normal;font-variant-numeric:normal;font-variant-east-asian:normal;text-anchor:end;opacity:0.995;" font-size="0.398247"/>
                </g>
                <g id="text4065" stroke-width="0.0254" aria-label="RX" gorn="0.3.0.0.36"  fill="#000000" style="font-style:normal;font-variant:normal;font-weight:normal;font-stretch:normal;font-family:Droid Sans;-inkscape-font-specification:'Droid Sans, Normal';font-variant-ligatures:normal;font-variant-caps:normal;font-variant-numeric:normal;font-variant-east-asian:normal;text-anchor:end;opacity:0.995;" font-size="0.398247">
                    <path id="path1854" d="m 54.606792,137.55998 v -0.85783 h 0.409277 q 0.07097,0 0.121957,0.0517 0.05168,0.0517 0.05168,0.12333 v 0.0661 q 0,0.0724 -0.05099,0.12402 -0.05099,0.051 -0.122646,0.051 h -0.07373 l 0.237023,0.40652 q 0.01102,0.0179 0.01102,0.0358 0,0.0234 -0.01791,0.0406 -0.01792,0.0165 -0.04065,0.0165 -0.03445,0 -0.05237,-0.031 l -0.272162,-0.46853 h -0.08337 v 0.44166 q 0,0.0241 -0.01792,0.0413 -0.01722,0.0165 -0.04134,0.0165 -0.02412,0 -0.04134,-0.0165 -0.01654,-0.0172 -0.01654,-0.0413 z m 0.115755,-0.55741 h 0.293522 q 0.02412,0 0.04065,-0.0165 0.01723,-0.0172 0.01723,-0.0413 v -0.0675 q 0,-0.0241 -0.01723,-0.0406 -0.01654,-0.0172 -0.04065,-0.0172 h -0.293522 z" stroke-width="0.0254" gorn="0.3.0.0.36.0"  fill="#000000" style="font-style:normal;font-variant:normal;font-weight:normal;font-stretch:normal;font-family:Droid Sans;-inkscape-font-specification:'Droid Sans, Normal';font-variant-ligatures:normal;font-variant-caps:normal;font-variant-numeric:normal;font-variant-east-asian:normal;text-anchor:end;opacity:0.995;" font-size="0.398247"/>
                    <path id="path1856" d="m 55.758831,137.27473 -0.183968,0.31488 q -0.01585,0.0276 -0.04892,0.0276 -0.02481,0 -0.04272,-0.0179 -0.01723,-0.0179 -0.01723,-0.0393 0,-0.0165 0.01034,-0.0338 l 0.215663,-0.36587 -0.211529,-0.3638 q -0.0124,-0.0214 -0.0124,-0.0393 0,-0.022 0.01722,-0.0386 0.01723,-0.0172 0.03996,-0.0172 0.03376,0 0.04961,0.0276 l 0.186724,0.3142 0.183279,-0.31282 q 0.01723,-0.0283 0.04892,-0.0283 0.02412,0 0.04203,0.0165 0.01791,0.0165 0.01791,0.04 0,0.0159 -0.009,0.031 l -0.217041,0.36931 0.215663,0.37138 q 0.0083,0.0138 0.0083,0.0296 0,0.0248 -0.01723,0.0413 -0.01654,0.0165 -0.04065,0.0165 -0.03376,0 -0.0503,-0.0283 z" stroke-width="0.0254" gorn="0.3.0.0.36.1"  fill="#000000" style="font-style:normal;font-variant:normal;font-weight:normal;font-stretch:normal;font-family:Droid Sans;-inkscape-font-specification:'Droid Sans, Normal';font-variant-ligatures:normal;font-variant-caps:normal;font-variant-numeric:normal;font-variant-east-asian:normal;text-anchor:end;opacity:0.995;" font-size="0.398247"/>
                </g>
                <g id="text4067" stroke-width="0.0254" aria-label="TX" gorn="0.3.0.0.37"  fill="#000000" style="font-style:normal;font-variant:normal;font-weight:normal;font-stretch:normal;font-family:Droid Sans;-inkscape-font-specification:'Droid Sans, Normal';font-variant-ligatures:normal;font-variant-caps:normal;font-variant-numeric:normal;font-variant-east-asian:normal;text-anchor:end;opacity:0.995;" font-size="0.398247">
                    <path id="path1859" d="m 54.60679,134.31993 v -0.15641 h 0.584288 v 0.15779 q 0,0.0241 -0.01722,0.0413 -0.01723,0.0165 -0.04065,0.0165 -0.02412,0 -0.04203,-0.0172 -0.01723,-0.0172 -0.01723,-0.0406 v -0.042 h -0.117133 v 0.74069 q 0,0.0241 -0.01723,0.0413 -0.01722,0.0165 -0.04065,0.0165 -0.0248,0 -0.04203,-0.0165 -0.01723,-0.0172 -0.01723,-0.0413 v -0.74069 h -0.117133 v 0.0406 q 0,0.0241 -0.01723,0.0413 -0.01654,0.0165 -0.04065,0.0165 -0.02412,0 -0.04134,-0.0165 -0.01654,-0.0172 -0.01654,-0.0413 z" stroke-width="0.0254" gorn="0.3.0.0.37.0"  fill="#000000" style="font-style:normal;font-variant:normal;font-weight:normal;font-stretch:normal;font-family:Droid Sans;-inkscape-font-specification:'Droid Sans, Normal';font-variant-ligatures:normal;font-variant-caps:normal;font-variant-numeric:normal;font-variant-east-asian:normal;text-anchor:end;opacity:0.995;" font-size="0.398247"/>
                    <path id="path1861" d="m 55.761586,134.73472 -0.183968,0.31488 q -0.01585,0.0276 -0.04892,0.0276 -0.0248,0 -0.04272,-0.0179 -0.01723,-0.0179 -0.01723,-0.0393 0,-0.0165 0.01033,-0.0338 l 0.215663,-0.36587 -0.211529,-0.3638 q -0.0124,-0.0214 -0.0124,-0.0393 0,-0.0221 0.01722,-0.0386 0.01723,-0.0172 0.03996,-0.0172 0.03376,0 0.04961,0.0276 l 0.186724,0.31419 0.183279,-0.31282 q 0.01723,-0.0283 0.04892,-0.0283 0.02412,0 0.04203,0.0165 0.01792,0.0165 0.01792,0.04 0,0.0159 -0.009,0.031 l -0.217041,0.36931 0.215663,0.37138 q 0.0083,0.0138 0.0083,0.0296 0,0.0248 -0.01723,0.0413 -0.01654,0.0165 -0.04065,0.0165 -0.03376,0 -0.0503,-0.0283 z" stroke-width="0.0254" gorn="0.3.0.0.37.1"  fill="#000000" style="font-style:normal;font-variant:normal;font-weight:normal;font-stretch:normal;font-family:Droid Sans;-inkscape-font-specification:'Droid Sans, Normal';font-variant-ligatures:normal;font-variant-caps:normal;font-variant-numeric:normal;font-variant-east-asian:normal;text-anchor:end;opacity:0.995;" font-size="0.398247"/>
                </g>
                <g id="text4069" stroke-width="0.0254" aria-label="MS2" gorn="0.3.0.0.38"  fill="#000000" style="font-style:normal;font-variant:normal;font-weight:normal;font-stretch:normal;font-family:Droid Sans;-inkscape-font-specification:'Droid Sans, Normal';font-variant-ligatures:normal;font-variant-caps:normal;font-variant-numeric:normal;font-variant-east-asian:normal;text-anchor:end;opacity:0.995;" font-size="0.398247">
                    <path id="path1864" d="m 54.839678,131.98182 v -0.0296 l -0.11989,-0.17088 v 0.69867 q 0,0.0241 -0.01723,0.0413 -0.01654,0.0165 -0.04065,0.0165 -0.02412,0 -0.04134,-0.0172 -0.01654,-0.0172 -0.01654,-0.0406 v -0.85783 h 0.149517 l 0.142627,0.2074 0.146761,-0.2074 h 0.146761 v 0.85783 q 0,0.0241 -0.01791,0.0413 -0.01723,0.0165 -0.04134,0.0165 -0.02343,0 -0.04065,-0.0172 -0.01722,-0.0172 -0.01722,-0.0406 v -0.69591 l -0.117133,0.16537 v 0.0324 q 0,0.0234 -0.01723,0.0406 -0.01722,0.0172 -0.04065,0.0172 -0.02411,0 -0.04134,-0.0172 -0.01654,-0.0172 -0.01654,-0.0406 z" stroke-width="0.0254" gorn="0.3.0.0.38.0"  fill="#000000" style="font-style:normal;font-variant:normal;font-weight:normal;font-stretch:normal;font-family:Droid Sans;-inkscape-font-specification:'Droid Sans, Normal';font-variant-ligatures:normal;font-variant-caps:normal;font-variant-numeric:normal;font-variant-east-asian:normal;text-anchor:end;opacity:0.995;" font-size="0.398247"/>
                    <path id="path1866" d="m 55.590019,131.62215 h 0.301101 q 0.05512,0 0.104042,0.0469 0.04961,0.0462 0.04961,0.11231 0,0.0248 -0.01791,0.042 -0.01723,0.0172 -0.03858,0.0172 -0.02963,0 -0.04065,-0.0131 -0.01103,-0.0138 -0.02136,-0.0503 -0.0096,-0.0365 -0.0441,-0.0365 H 55.59622 q -0.02067,0 -0.02067,0.0131 0,0.008 0.009,0.0193 l 0.429258,0.54914 q 0.03101,0.04 0.03101,0.0854 0,0.0517 -0.0379,0.0909 -0.03721,0.0393 -0.08337,0.0393 h -0.312125 q -0.06201,0 -0.108176,-0.0469 -0.04548,-0.0475 -0.04548,-0.10404 0,-0.0648 0.06063,-0.0648 0.02343,0 0.03996,0.0172 0.01654,0.0165 0.01654,0.0393 0,0.0186 0.0124,0.031 0.01309,0.0124 0.03238,0.0124 h 0.288009 q 0.0186,0 0.0186,-0.0145 0,-0.007 -0.009,-0.0179 l -0.42857,-0.54915 q -0.03032,-0.0393 -0.03032,-0.0854 0,-0.0537 0.03858,-0.093 0.03859,-0.04 0.09302,-0.04 z" stroke-width="0.0254" gorn="0.3.0.0.38.1"  fill="#000000" style="font-style:normal;font-variant:normal;font-weight:normal;font-stretch:normal;font-family:Droid Sans;-inkscape-font-specification:'Droid Sans, Normal';font-variant-ligatures:normal;font-variant-caps:normal;font-variant-numeric:normal;font-variant-east-asian:normal;text-anchor:end;opacity:0.995;" font-size="0.398247"/>
                    <path id="path1868" d="m 56.836454,132.53648 h -0.526411 v -0.39963 q 0,-0.0482 0.03376,-0.0827 0.03445,-0.0344 0.08199,-0.0344 h 0.3514 v -0.28181 h -0.413411 q -0.02481,0 -0.04134,-0.0165 -0.01654,-0.0172 -0.01654,-0.0413 0,-0.0241 0.01654,-0.0406 0.01654,-0.0172 0.04134,-0.0172 h 0.413411 q 0.04823,0 0.08268,0.0344 0.03445,0.0338 0.03445,0.0813 v 0.28181 q 0,0.0489 -0.03445,0.0834 -0.03445,0.0338 -0.08268,0.0338 h -0.3514 v 0.28387 h 0.410656 q 0.02343,0 0.04065,0.0172 0.01723,0.0165 0.01723,0.0406 0,0.0241 -0.01723,0.0413 -0.01723,0.0165 -0.04065,0.0165 z" stroke-width="0.0254" gorn="0.3.0.0.38.2"  fill="#000000" style="font-style:normal;font-variant:normal;font-weight:normal;font-stretch:normal;font-family:Droid Sans;-inkscape-font-specification:'Droid Sans, Normal';font-variant-ligatures:normal;font-variant-caps:normal;font-variant-numeric:normal;font-variant-east-asian:normal;text-anchor:end;opacity:0.995;" font-size="0.398247"/>
                </g>
                <g transform="scale(1.0012263,0.9987752)" >
                    <g >
                        <g id="text4071" stroke-width="0.0254" aria-label="MS1" gorn="0.3.0.0.39.0.0"  fill="#000000" style="font-style:normal;font-variant:normal;font-weight:normal;font-stretch:normal;font-family:Droid Sans;-inkscape-font-specification:'Droid Sans, Normal';font-variant-ligatures:normal;font-variant-caps:normal;font-variant-numeric:normal;font-variant-east-asian:normal;text-anchor:end;opacity:0.995;" font-size="0.398247">
                            <path id="path1871" d="m 54.306234,130.83149 v -0.0296 l -0.119889,-0.17087 v 0.69866 q 0,0.0241 -0.01723,0.0413 -0.01654,0.0165 -0.04065,0.0165 -0.02412,0 -0.04134,-0.0172 -0.01654,-0.0172 -0.01654,-0.0406 v -0.85783 h 0.149517 l 0.142627,0.2074 0.146761,-0.2074 h 0.146761 v 0.85783 q 0,0.0241 -0.01792,0.0413 -0.01722,0.0165 -0.04134,0.0165 -0.02343,0 -0.04065,-0.0172 -0.01723,-0.0172 -0.01723,-0.0406 v -0.69591 l -0.117134,0.16537 v 0.0324 q 0,0.0234 -0.01723,0.0406 -0.01723,0.0172 -0.04065,0.0172 -0.02412,0 -0.04134,-0.0172 -0.01654,-0.0172 -0.01654,-0.0406 z" stroke-width="0.0254" gorn="0.3.0.0.39.0.0.0"  fill="#000000" style="font-style:normal;font-variant:normal;font-weight:normal;font-stretch:normal;font-family:Droid Sans;-inkscape-font-specification:'Droid Sans, Normal';font-variant-ligatures:normal;font-variant-caps:normal;font-variant-numeric:normal;font-variant-east-asian:normal;text-anchor:end;opacity:0.995;" font-size="0.398247"/>
                            <path id="path1873" d="m 55.056575,130.47182 h 0.301102 q 0.05512,0 0.104041,0.0469 0.04961,0.0462 0.04961,0.11231 0,0.0248 -0.01792,0.042 -0.01722,0.0172 -0.03858,0.0172 -0.02963,0 -0.04065,-0.0131 -0.01102,-0.0138 -0.02136,-0.0503 -0.0096,-0.0365 -0.0441,-0.0365 h -0.285942 q -0.02067,0 -0.02067,0.0131 0,0.008 0.009,0.0193 l 0.429259,0.54914 q 0.03101,0.04 0.03101,0.0854 0,0.0517 -0.0379,0.091 -0.03721,0.0393 -0.08337,0.0393 h -0.312125 q -0.06201,0 -0.108176,-0.0469 -0.04548,-0.0475 -0.04548,-0.10404 0,-0.0648 0.06063,-0.0648 0.02343,0 0.03996,0.0172 0.01654,0.0165 0.01654,0.0393 0,0.0186 0.0124,0.031 0.01309,0.0124 0.03238,0.0124 h 0.28801 q 0.0186,0 0.0186,-0.0145 0,-0.007 -0.009,-0.0179 l -0.428569,-0.54915 q -0.03032,-0.0393 -0.03032,-0.0854 0,-0.0537 0.03858,-0.093 0.03858,-0.04 0.09302,-0.04 z" stroke-width="0.0254" gorn="0.3.0.0.39.0.0.1"  fill="#000000" style="font-style:normal;font-variant:normal;font-weight:normal;font-stretch:normal;font-family:Droid Sans;-inkscape-font-specification:'Droid Sans, Normal';font-variant-ligatures:normal;font-variant-caps:normal;font-variant-numeric:normal;font-variant-east-asian:normal;text-anchor:end;opacity:0.995;" font-size="0.398247"/>
                            <path id="path1875" d="m 55.831721,131.27039 h 0.177767 v -0.68281 h -0.175011 q -0.02412,0 -0.04134,-0.0165 -0.01654,-0.0172 -0.01654,-0.0413 0,-0.0241 0.01654,-0.0406 0.01723,-0.0172 0.04134,-0.0172 h 0.290766 v 0.79857 h 0.115755 v -0.24115 q 0,-0.0234 0.01654,-0.0406 0.01723,-0.0172 0.04134,-0.0172 0.02412,0 0.04065,0.0172 0.01723,0.0165 0.01723,0.0406 v 0.29903 q 0,0.0241 -0.01723,0.0413 -0.01654,0.0165 -0.04065,0.0165 h -0.467155 q -0.02412,0 -0.04134,-0.0172 -0.01654,-0.0179 -0.01654,-0.042 0,-0.0234 0.01654,-0.04 0.01723,-0.0165 0.04134,-0.0165 z" stroke-width="0.0254" gorn="0.3.0.0.39.0.0.2"  fill="#000000" style="font-style:normal;font-variant:normal;font-weight:normal;font-stretch:normal;font-family:Droid Sans;-inkscape-font-specification:'Droid Sans, Normal';font-variant-ligatures:normal;font-variant-caps:normal;font-variant-numeric:normal;font-variant-east-asian:normal;text-anchor:end;opacity:0.995;" font-size="0.398247"/>
                        </g>
                    </g>
                </g>
                <g transform="scale(1.0012263,0.9987752)" >
                    <g >
                        <g id="text1705" stroke-width="0.0254" aria-label="IDX" gorn="0.3.0.0.40.0.0"  fill="#000000" style="font-style:normal;font-variant:normal;font-weight:normal;font-stretch:normal;font-family:Droid Sans;-inkscape-font-specification:'Droid Sans, Normal';font-variant-ligatures:normal;font-variant-caps:normal;font-variant-numeric:normal;font-variant-east-asian:normal;text-anchor:end;opacity:0.995;" font-size="0.398247">
                            <path id="path1878" d="m 54.881436,129.28125 h 0.468533 q 0.02274,0 0.03996,0.0172 0.01791,0.0172 0.01791,0.0406 0,0.0241 -0.01722,0.042 -0.01723,0.0172 -0.04065,0.0172 h -0.175011 v 0.68282 h 0.175011 q 0.02412,0 0.04065,0.0172 0.01722,0.0165 0.01722,0.0406 0,0.0241 -0.01722,0.0413 -0.01723,0.0165 -0.04065,0.0165 h -0.468533 q -0.02412,0 -0.04134,-0.0165 -0.01654,-0.0172 -0.01654,-0.0413 0,-0.0241 0.01654,-0.0406 0.01723,-0.0172 0.04134,-0.0172 h 0.177767 v -0.68282 h -0.177767 q -0.02412,0 -0.04134,-0.0172 -0.01654,-0.0172 -0.01654,-0.0406 0,-0.0248 0.01654,-0.042 0.01723,-0.0172 0.04134,-0.0172 z" stroke-width="0.0254" gorn="0.3.0.0.40.0.0.0"  fill="#000000" style="font-style:normal;font-variant:normal;font-weight:normal;font-stretch:normal;font-family:Droid Sans;-inkscape-font-specification:'Droid Sans, Normal';font-variant-ligatures:normal;font-variant-caps:normal;font-variant-numeric:normal;font-variant-east-asian:normal;text-anchor:end;opacity:0.995;" font-size="0.398247"/>
                            <path id="path1880" d="m 55.733752,129.28125 h 0.228754 q 0.04479,6.9e-4 0.08682,0.0289 0.04272,0.0282 0.0627,0.0682 l 0.114377,0.23151 q 0.03238,0.0627 0.03238,0.13091 0,0.0634 -0.03445,0.13022 l -0.115066,0.22876 q -0.02205,0.0441 -0.06339,0.071 -0.04134,0.0262 -0.09233,0.0262 h -0.221175 q -0.02412,0 -0.04134,-0.0172 -0.01654,-0.0172 -0.01654,-0.0406 0,-0.0241 0.01654,-0.0413 0.01723,-0.0179 0.04134,-0.0179 h 0.06063 v -0.68144 h -0.05926 q -0.02412,0 -0.04134,-0.0172 -0.01654,-0.0179 -0.01654,-0.042 0,-0.0234 0.01654,-0.0406 0.01723,-0.0172 0.04134,-0.0172 z m 0.175011,0.11714 v 0.68282 h 0.04065 q 0.03858,0 0.05788,-0.0379 l 0.114377,-0.22738 q 0.02136,-0.0448 0.02136,-0.0751 0,-0.0379 -0.01722,-0.0717 l -0.118511,-0.23564 q -0.0186,-0.0351 -0.06063,-0.0351 z" stroke-width="0.0254" gorn="0.3.0.0.40.0.0.1"  fill="#000000" style="font-style:normal;font-variant:normal;font-weight:normal;font-stretch:normal;font-family:Droid Sans;-inkscape-font-specification:'Droid Sans, Normal';font-variant-ligatures:normal;font-variant-caps:normal;font-variant-numeric:normal;font-variant-east-asian:normal;text-anchor:end;opacity:0.995;" font-size="0.398247"/>
                            <path id="path1882" d="m 56.83067,129.85383 -0.183968,0.31488 q -0.01585,0.0276 -0.04892,0.0276 -0.0248,0 -0.04272,-0.0179 -0.01722,-0.0179 -0.01722,-0.0393 0,-0.0165 0.01033,-0.0338 l 0.215663,-0.36587 -0.211529,-0.3638 q -0.0124,-0.0214 -0.0124,-0.0393 0,-0.022 0.01723,-0.0386 0.01723,-0.0172 0.03996,-0.0172 0.03376,0 0.04961,0.0276 l 0.186724,0.31419 0.183279,-0.31282 q 0.01722,-0.0283 0.04892,-0.0283 0.02412,0 0.04203,0.0165 0.01792,0.0165 0.01792,0.04 0,0.0159 -0.009,0.031 l -0.21704,0.36931 0.215662,0.37139 q 0.0083,0.0138 0.0083,0.0296 0,0.0248 -0.01723,0.0413 -0.01654,0.0165 -0.04065,0.0165 -0.03376,0 -0.0503,-0.0282 z" stroke-width="0.0254" gorn="0.3.0.0.40.0.0.2"  fill="#000000" style="font-style:normal;font-variant:normal;font-weight:normal;font-stretch:normal;font-family:Droid Sans;-inkscape-font-specification:'Droid Sans, Normal';font-variant-ligatures:normal;font-variant-caps:normal;font-variant-numeric:normal;font-variant-east-asian:normal;text-anchor:end;opacity:0.995;" font-size="0.398247"/>
                        </g>
                    </g>
                </g>
                <g transform="scale(1.0012263,0.9987752)" >
                    <g >
                        <g id="text1707" stroke-width="0.0254" aria-label="DIA" gorn="0.3.0.0.41.0.0"  fill="#000000" style="font-style:normal;font-variant:normal;font-weight:normal;font-stretch:normal;font-family:Droid Sans;-inkscape-font-specification:'Droid Sans, Normal';font-variant-ligatures:normal;font-variant-caps:normal;font-variant-numeric:normal;font-variant-east-asian:normal;text-anchor:end;opacity:0.995;" font-size="0.398247">
                            <path id="path1885" d="m 59.456422,126.06343 h 0.228754 q 0.04479,6.9e-4 0.08682,0.0289 0.04272,0.0282 0.0627,0.0682 l 0.114377,0.23151 q 0.03238,0.0627 0.03238,0.13091 0,0.0634 -0.03445,0.13023 l -0.115066,0.22875 q -0.02205,0.0441 -0.06339,0.071 -0.04134,0.0262 -0.09233,0.0262 h -0.221175 q -0.02412,0 -0.04134,-0.0172 -0.01654,-0.0172 -0.01654,-0.0406 0,-0.0241 0.01654,-0.0414 0.01723,-0.0179 0.04134,-0.0179 h 0.06063 v -0.68144 h -0.05925 q -0.02412,0 -0.04134,-0.0172 -0.01654,-0.0179 -0.01654,-0.042 0,-0.0234 0.01654,-0.0407 0.01722,-0.0172 0.04134,-0.0172 z m 0.17501,0.11713 v 0.68282 h 0.04065 q 0.03858,0 0.05788,-0.0379 l 0.114377,-0.22737 q 0.02136,-0.0448 0.02136,-0.0751 0,-0.0379 -0.01723,-0.0716 l -0.118511,-0.23565 q -0.0186,-0.0351 -0.06063,-0.0351 z" stroke-width="0.0254" gorn="0.3.0.0.41.0.0.0"  fill="#000000" style="font-style:normal;font-variant:normal;font-weight:normal;font-stretch:normal;font-family:Droid Sans;-inkscape-font-specification:'Droid Sans, Normal';font-variant-ligatures:normal;font-variant-caps:normal;font-variant-numeric:normal;font-variant-east-asian:normal;text-anchor:end;opacity:0.995;" font-size="0.398247"/>
                            <path id="path1887" d="m 60.308738,126.06343 h 0.468532 q 0.02274,0 0.03996,0.0172 0.01791,0.0172 0.01791,0.0407 0,0.0241 -0.01723,0.042 -0.01723,0.0172 -0.04065,0.0172 h -0.17501 v 0.68282 h 0.17501 q 0.02412,0 0.04065,0.0172 0.01723,0.0165 0.01723,0.0407 0,0.0241 -0.01723,0.0413 -0.01723,0.0165 -0.04065,0.0165 h -0.468532 q -0.02412,0 -0.04134,-0.0165 -0.01654,-0.0172 -0.01654,-0.0413 0,-0.0241 0.01654,-0.0407 0.01722,-0.0172 0.04134,-0.0172 h 0.177767 v -0.68282 h -0.177767 q -0.02412,0 -0.04134,-0.0172 -0.01654,-0.0172 -0.01654,-0.0407 0,-0.0248 0.01654,-0.042 0.01722,-0.0172 0.04134,-0.0172 z" stroke-width="0.0254" gorn="0.3.0.0.41.0.0.1"  fill="#000000" style="font-style:normal;font-variant:normal;font-weight:normal;font-stretch:normal;font-family:Droid Sans;-inkscape-font-specification:'Droid Sans, Normal';font-variant-ligatures:normal;font-variant-caps:normal;font-variant-numeric:normal;font-variant-east-asian:normal;text-anchor:end;opacity:0.995;" font-size="0.398247"/>
                            <path id="path1889" d="m 61.107999,126.89852 0.234267,-0.79168 q 0.01378,-0.0434 0.05788,-0.0434 0.04272,0 0.05374,0.0365 l 0.230821,0.80408 q 0.0028,0.009 0.0028,0.0172 0,0.0241 -0.01654,0.0413 -0.01654,0.0165 -0.0379,0.0165 -0.04548,0 -0.05788,-0.042 l -0.04685,-0.15709 h -0.263895 l -0.05099,0.16812 q -0.0021,0.011 -0.01723,0.0214 -0.01516,0.01 -0.03307,0.01 -0.02549,0 -0.04203,-0.0172 -0.01654,-0.0172 -0.01654,-0.042 0,-0.0103 0.0034,-0.0214 z m 0.290766,-0.56706 -0.09922,0.33141 h 0.194993 z" stroke-width="0.0254" gorn="0.3.0.0.41.0.0.2"  fill="#000000" style="font-style:normal;font-variant:normal;font-weight:normal;font-stretch:normal;font-family:Droid Sans;-inkscape-font-specification:'Droid Sans, Normal';font-variant-ligatures:normal;font-variant-caps:normal;font-variant-numeric:normal;font-variant-east-asian:normal;text-anchor:end;opacity:0.995;" font-size="0.398247"/>
                        </g>
                    </g>
                </g>
                <g transform="scale(1.0012263,0.9987752)" >
                    <g >
                        <g id="text1709" stroke-width="0.0254" aria-label="VREF" gorn="0.3.0.0.42.0.0"  fill="#000000" style="font-style:normal;font-variant:normal;font-weight:normal;font-stretch:normal;font-family:Droid Sans;-inkscape-font-specification:'Droid Sans, Normal';font-variant-ligatures:normal;font-variant-caps:normal;font-variant-numeric:normal;font-variant-east-asian:normal;text-anchor:end;opacity:0.995;" font-size="0.398247">
                            <path id="path1892" d="m 58.329565,129.4033 v 0.21291 l -0.235644,0.60013 q -0.01792,0.0434 -0.0565,0.0434 -0.04065,0 -0.05788,-0.0434 l -0.234266,-0.60013 v -0.21291 q 0,-0.0248 0.01654,-0.042 0.01722,-0.0172 0.04134,-0.0172 0.02412,0 0.04065,0.0172 0.01723,0.0172 0.01723,0.042 v 0.18879 l 0.176389,0.44924 0.176389,-0.44786 v -0.19017 q 0,-0.0248 0.01654,-0.042 0.01723,-0.0172 0.04134,-0.0172 0.02412,0 0.04065,0.0172 0.01723,0.0172 0.01723,0.042 z" stroke-width="0.0254" gorn="0.3.0.0.42.0.0.0"  fill="#000000" style="font-style:normal;font-variant:normal;font-weight:normal;font-stretch:normal;font-family:Droid Sans;-inkscape-font-specification:'Droid Sans, Normal';font-variant-ligatures:normal;font-variant-caps:normal;font-variant-numeric:normal;font-variant-east-asian:normal;text-anchor:end;opacity:0.995;" font-size="0.398247"/>
                            <path id="path1894" d="m 58.597593,130.20187 v -0.85783 h 0.409277 q 0.07097,0 0.121956,0.0517 0.05168,0.0517 0.05168,0.12334 v 0.0661 q 0,0.0724 -0.05099,0.12402 -0.05099,0.051 -0.122645,0.051 h -0.07372 l 0.237023,0.40652 q 0.01102,0.0179 0.01102,0.0358 0,0.0234 -0.01792,0.0406 -0.01791,0.0165 -0.04065,0.0165 -0.03445,0 -0.05237,-0.031 l -0.272162,-0.46853 h -0.08337 v 0.44166 q 0,0.0241 -0.01791,0.0413 -0.01723,0.0165 -0.04134,0.0165 -0.02412,0 -0.04134,-0.0165 -0.01654,-0.0172 -0.01654,-0.0413 z m 0.115755,-0.55741 h 0.293522 q 0.02412,0 0.04065,-0.0165 0.01723,-0.0172 0.01723,-0.0413 v -0.0675 q 0,-0.0241 -0.01723,-0.0407 -0.01654,-0.0172 -0.04065,-0.0172 h -0.293522 z" stroke-width="0.0254" gorn="0.3.0.0.42.0.0.1"  fill="#000000" style="font-style:normal;font-variant:normal;font-weight:normal;font-stretch:normal;font-family:Droid Sans;-inkscape-font-specification:'Droid Sans, Normal';font-variant-ligatures:normal;font-variant-caps:normal;font-variant-numeric:normal;font-variant-east-asian:normal;text-anchor:end;opacity:0.995;" font-size="0.398247"/>
                            <path id="path1896" d="m 59.973563,129.46118 h -0.409277 v 0.28181 h 0.176389 q 0.02343,0 0.04065,0.0172 0.01723,0.0172 0.01723,0.0406 0,0.0248 -0.01723,0.042 -0.01654,0.0172 -0.04065,0.0172 h -0.176389 v 0.28388 h 0.410655 q 0.02343,0 0.04065,0.0172 0.01723,0.0165 0.01723,0.0407 0,0.0241 -0.01792,0.0413 -0.01723,0.0165 -0.04134,0.0165 h -0.525032 v -0.91571 h 0.525032 q 0.02412,0 0.04134,0.0179 0.01792,0.0172 0.01792,0.0413 0,0.0234 -0.01792,0.0406 -0.01723,0.0172 -0.04134,0.0172 z" stroke-width="0.0254" gorn="0.3.0.0.42.0.0.2"  fill="#000000" style="font-style:normal;font-variant:normal;font-weight:normal;font-stretch:normal;font-family:Droid Sans;-inkscape-font-specification:'Droid Sans, Normal';font-variant-ligatures:normal;font-variant-caps:normal;font-variant-numeric:normal;font-variant-east-asian:normal;text-anchor:end;opacity:0.995;" font-size="0.398247"/>
                            <path id="path1898" d="m 60.300847,130.20187 v -0.85783 h 0.525032 q 0.02274,0 0.03996,0.0172 0.01792,0.0172 0.01792,0.0406 0,0.0241 -0.01723,0.042 -0.01723,0.0172 -0.04065,0.0172 h -0.409277 v 0.1819 h 0.293522 q 0.02412,0 0.04065,0.0172 0.01723,0.0165 0.01723,0.0407 0,0.0241 -0.01723,0.0413 -0.01654,0.0165 -0.04065,0.0165 h -0.293522 v 0.44304 q 0,0.0241 -0.01722,0.0413 -0.01654,0.0165 -0.04065,0.0165 -0.02412,0 -0.04134,-0.0165 -0.01654,-0.0172 -0.01654,-0.0413 z" stroke-width="0.0254" gorn="0.3.0.0.42.0.0.3"  fill="#000000" style="font-style:normal;font-variant:normal;font-weight:normal;font-stretch:normal;font-family:Droid Sans;-inkscape-font-specification:'Droid Sans, Normal';font-variant-ligatures:normal;font-variant-caps:normal;font-variant-numeric:normal;font-variant-east-asian:normal;text-anchor:end;opacity:0.995;" font-size="0.398247"/>
                        </g>
                    </g>
                </g>
                <path id="path1715" stroke="#808080" d="m 54.654883,127.8108 c 0.02473,-0.52846 -0.461726,-0.683 -0.467137,-0.68841" stroke-width="0.1" gorn="0.3.0.0.43"  fill="none" stroke-opacity="1" style="fill-rule:evenodd;stroke-linecap:butt;stroke-linejoin:miter;stroke-miterlimit:4;stroke-dasharray:none;"/>
                <path id="connector18pin" stroke="#ffcc00" d="m 57.613124,128.46468 a 0.45443264,0.45443264 0 0 1 -0.454433,0.45443 0.45443264,0.45443264 0 0 1 -0.454432,-0.45443 0.45443264,0.45443264 0 0 1 0.454432,-0.45444 0.45443264,0.45443264 0 0 1 0.454433,0.45444 z" stroke-width="0.3" gorn="0.3.0.0.44"  fill="none" style="stroke-miterlimit:0;stroke-dasharray:none;filter:url(#filter1697)"/>
                <g id="text1749" stroke-width="0.0254" aria-label="V3.1" gorn="0.3.0.0.45"  fill="#000000" style="font-style:normal;font-variant:normal;font-weight:normal;font-stretch:normal;font-family:Droid Sans;-inkscape-font-specification:'Droid Sans, Normal';font-variant-ligatures:normal;font-variant-caps:normal;font-variant-numeric:normal;font-variant-east-asian:normal;opacity:0.995;" font-size="0.398247">
                    <path id="path1901" d="m 60.485643,140.14564 h 0.136425 l -0.33693,1.00734 h -0.128846 l -0.335552,-1.00734 h 0.135736 l 0.203261,0.63872 q 0.01998,0.0627 0.03445,0.12127 0.01447,0.0579 0.02618,0.10886 0.01033,-0.051 0.02618,-0.10886 0.01585,-0.0586 0.03721,-0.1254 z" gorn="0.3.0.0.45.0" />
                    <path id="path1903" d="m 61.284215,140.38128 q 0,0.0503 -0.01585,0.0916 -0.01585,0.0413 -0.04479,0.0717 -0.02825,0.0303 -0.06821,0.0503 -0.03996,0.0193 -0.08888,0.0276 v 0.004 q 0.121957,0.0152 0.185346,0.0779 0.06339,0.062 0.06339,0.16192 0,0.0661 -0.02274,0.12127 -0.02205,0.0551 -0.06752,0.0951 -0.04548,0.04 -0.115067,0.062 -0.06959,0.022 -0.164675,0.022 -0.0751,0 -0.141938,-0.0117 -0.06615,-0.0117 -0.124712,-0.0427 v -0.11713 q 0.05994,0.0317 0.129535,0.0489 0.07028,0.0172 0.134359,0.0172 0.06339,0 0.109554,-0.0138 0.04616,-0.0138 0.07579,-0.0393 0.03032,-0.0255 0.0441,-0.0627 0.01447,-0.0372 0.01447,-0.0834 0,-0.0469 -0.0186,-0.0799 -0.01791,-0.0338 -0.05168,-0.0551 -0.03376,-0.0221 -0.08268,-0.0324 -0.04823,-0.0103 -0.109554,-0.0103 h -0.09164 v -0.10404 h 0.09164 q 0.05581,0 0.09922,-0.0138 0.04341,-0.0138 0.07235,-0.0393 0.02963,-0.0255 0.04479,-0.0606 0.01516,-0.0351 0.01516,-0.0772 0,-0.0358 -0.0124,-0.0641 -0.0124,-0.0282 -0.03514,-0.0475 -0.02274,-0.02 -0.05443,-0.0303 -0.03169,-0.0103 -0.07028,-0.0103 -0.07373,0 -0.130224,0.0234 -0.05581,0.0227 -0.106798,0.0599 l -0.06339,-0.0861 q 0.02618,-0.0214 0.05788,-0.04 0.03238,-0.0186 0.07028,-0.0324 0.0379,-0.0145 0.08062,-0.0227 0.04341,-0.008 0.09164,-0.008 0.07441,0 0.130225,0.0186 0.0565,0.0186 0.09439,0.0524 0.0379,0.0331 0.05719,0.0792 0.01929,0.0455 0.01929,0.0999 z" gorn="0.3.0.0.45.1" />
                    <path id="path1905" d="m 61.500567,141.0765 q 0,-0.0262 0.0069,-0.0441 0.0069,-0.0186 0.0186,-0.0296 0.01171,-0.0117 0.02756,-0.0165 0.01585,-0.006 0.03445,-0.006 0.01792,0 0.03376,0.006 0.01654,0.005 0.02825,0.0165 0.01171,0.011 0.0186,0.0296 0.0069,0.0179 0.0069,0.0441 0,0.0255 -0.0069,0.0441 -0.0069,0.0179 -0.0186,0.0296 -0.01171,0.0117 -0.02825,0.0172 -0.01585,0.006 -0.03376,0.006 -0.0186,0 -0.03445,-0.006 -0.01585,-0.006 -0.02756,-0.0172 -0.01171,-0.0117 -0.0186,-0.0296 -0.0069,-0.0186 -0.0069,-0.0441 z" gorn="0.3.0.0.45.2" />
                    <path id="path1907" d="m 62.267445,141.15298 h -0.121268 v -0.62907 q 0,-0.0296 0,-0.0634 6.89e-4,-0.0338 0.0014,-0.0668 0.0014,-0.0338 0.0021,-0.0641 0.0014,-0.031 0.0021,-0.0544 -0.01171,0.0124 -0.02067,0.0214 -0.009,0.009 -0.0186,0.0172 -0.009,0.008 -0.01929,0.0179 -0.01033,0.009 -0.02481,0.0214 l -0.101974,0.0834 -0.06615,-0.0847 0.263894,-0.20602 h 0.103353 z" gorn="0.3.0.0.45.3" />
                </g>
                <path id="path1767" d="m 59.377451,145.0181 c -0.167743,-0.0342 -0.345181,-0.11395 -0.532476,-0.23921 -0.151826,-0.10155 -0.403654,-0.32376 -0.403654,-0.35619 0,-0.008 0.184797,-0.0141 0.41066,-0.0146 0.349804,-6.8e-4 0.419723,-0.005 0.471801,-0.0309 0.05338,-0.0262 0.114078,-0.12126 0.478516,-0.74906 0.229557,-0.39545 0.427556,-0.73126 0.439999,-0.74625 0.01783,-0.0215 0.06299,-0.0272 0.213305,-0.0272 0.214605,0 0.246561,0.007 0.246561,0.0551 0,0.0185 -0.185405,0.34951 -0.41201,0.73554 -0.226605,0.38602 -0.417115,0.71577 -0.423354,0.73277 -0.01025,0.0279 0.0034,0.0309 0.141491,0.0309 0.274035,0 0.232482,0.0464 0.730791,-0.81634 l 0.430184,-0.7448 0.0483,0.14913 c 0.02656,0.082 0.04864,0.17747 0.04905,0.21211 4.01e-4,0.0347 0.0091,0.10837 0.0194,0.16384 0.01241,0.0671 0.01286,0.11988 0.0014,0.15779 -0.0095,0.0313 -0.03073,0.14371 -0.04715,0.24974 -0.02362,0.1526 -0.04533,0.22463 -0.104153,0.34548 -0.09948,0.2044 -0.15971,0.28853 -0.321942,0.44971 -0.121893,0.12111 -0.340594,0.29258 -0.373168,0.29258 -0.0068,0 -0.06795,0.0274 -0.136038,0.0609 -0.213654,0.10505 -0.645617,0.14651 -0.927456,0.089 z m -1.173808,-0.98151 c -0.05976,-0.16227 -0.08551,-0.26223 -0.10197,-0.39595 -0.02585,-0.21003 -0.02422,-0.25113 0.01822,-0.45923 0.07372,-0.36144 0.189955,-0.58981 0.424848,-0.83467 0.263753,-0.27495 0.544481,-0.41923 0.921028,-0.47337 0.217929,-0.0314 0.328536,-0.0271 0.582873,0.0222 0.217219,0.0421 0.479678,0.18743 0.718452,0.3978 0.0582,0.0513 0.128991,0.11066 0.157326,0.13198 l 0.05152,0.0387 -0.388583,0.001 c -0.213719,6e-4 -0.418271,0.009 -0.454558,0.0194 -0.03629,0.0101 -0.08872,0.0398 -0.116507,0.0661 -0.02779,0.0263 -0.231643,0.36178 -0.453001,0.7455 -0.221357,0.38373 -0.418192,0.71159 -0.437411,0.72859 -0.04708,0.0416 -0.38529,0.0458 -0.419033,0.005 -0.01755,-0.0212 0.05555,-0.15883 0.405555,-0.76392 0.31824,-0.55017 0.422746,-0.74487 0.410406,-0.76462 -0.0207,-0.0331 -0.204043,-0.0447 -0.299809,-0.0189 -0.03817,0.0103 -0.09489,0.0469 -0.131208,0.0847 -0.03573,0.0372 -0.23683,0.37459 -0.455572,0.7643 -0.215382,0.38373 -0.398747,0.70497 -0.407478,0.71389 -0.0096,0.01 -0.01954,0.006 -0.0251,-0.009 z" stroke-width="0.999999" gorn="0.3.0.0.46"  fill="#333333"/>
                <g id="g1653" gorn="0.3.0.0.47" >
                    <circle stroke="#9a916c" id="connector16pin" cy="127" r="0.72390002" stroke-width="0.4318" cx="55.880001" connectorname="INT0" gorn="0.3.0.0.47.0"  fill="none"/>
                    <circle stroke="#9a916c" id="connector17pin" cy="127" r="0.72390002" stroke-width="0.4318" cx="58.419998" connectorname="INT0" gorn="0.3.0.0.47.1"  fill="none"/>
                </g>
                <g id="g1914" gorn="0.3.0.0.48" >
                    <circle stroke="#9a916c" id="connector13pin" cy="129.53999" r="0.72390002" stroke-width="0.4318" cx="53.34" connectorname="INT1" gorn="0.3.0.0.48.0"  fill="none"/>
                    <circle stroke="#9a916c" id="connector15pin" cy="127" r="0.72390002" stroke-width="0.4318" cx="53.34" connectorname="INT0" gorn="0.3.0.0.48.1"  fill="none"/>
                </g>
            </g>
        </g>
    </g>
</svg>
