<?xml version='1.0' encoding='UTF-8' standalone='no'?>
<svg xmlns="http://www.w3.org/2000/svg" xml:space="preserve" viewBox="0 0 150.66133 177.00267" width="150.66133" id="svg2" xmlns:xml="http://www.w3.org/XML/1998/namespace" gorn="0" height="177.00267"  version="1.1">
    <desc >
        <referenceFile >Computer Fan.svg</referenceFile>
    </desc>
    <metadata id="metadata8" >
        <rdf:RDF xmlns:rdf="http://www.w3.org/1999/02/22-rdf-syntax-ns#">
            <cc:Work rdf:about="" xmlns:rdf="http://www.w3.org/1999/02/22-rdf-syntax-ns#" xmlns:cc="http://creativecommons.org/ns#">
                <dc:format xmlns:dc="http://purl.org/dc/elements/1.1/">image/svg+xml</dc:format>
                <dc:type rdf:resource="http://purl.org/dc/dcmitype/StillImage" xmlns:rdf="http://www.w3.org/1999/02/22-rdf-syntax-ns#" xmlns:dc="http://purl.org/dc/elements/1.1/"/>
            </cc:Work>
        </rdf:RDF>
    </metadata>
    <defs id="defs6" />
    <g transform="matrix(1.3333333,0,0,-1.3333333,0,177.00267)" >
        <g >
            <g id="g10" gorn="0.3.0.0" >
                <g id="g12" gorn="0.3.0.0.0" >
                    <g id="g14" gorn="0.3.0.0.0.0"  clip-path="url(#clipPath18)">
                        <g transform="translate(23.2217,0.8931)" >
                            <g >
                                <g id="g20" gorn="0.3.0.0.0.0.0.0.0" >
                                    <path stroke-width="2" stroke-opacity="1" style="stroke-linecap:round;stroke-linejoin:miter;stroke-miterlimit:10;stroke-dasharray:none;" d="M 0,0 V 18.477" id="path22" stroke="#ce3843" gorn="0.3.0.0.0.0.0.0.0.0"  fill="none"/>
                                </g>
                            </g>
                        </g>
                        <g transform="translate(29.9902,0.8931)" >
                            <g >
                                <g id="g24" gorn="0.3.0.0.0.0.1.0.0" >
                                    <path stroke-width="2" stroke-opacity="1" style="stroke-linecap:round;stroke-linejoin:miter;stroke-miterlimit:10;stroke-dasharray:none;" d="M 0,0 V 18.477" id="path26" stroke="#000000" gorn="0.3.0.0.0.0.1.0.0.0"  fill="none"/>
                                </g>
                            </g>
                        </g>
                        <g transform="translate(36.7354,0.8931)" >
                            <g >
                                <g id="g28" gorn="0.3.0.0.0.0.2.0.0" >
                                    <path stroke-width="2" stroke-opacity="1" style="stroke-linecap:round;stroke-linejoin:miter;stroke-miterlimit:10;stroke-dasharray:none;" d="M 0,0 V 18.477" id="path30" stroke="#f9e95d" gorn="0.3.0.0.0.0.2.0.0.0"  fill="none"/>
                                </g>
                            </g>
                        </g>
                        <g transform="translate(23.2334,-0.1069)" >
                            <g >
                                <g id="g32" gorn="0.3.0.0.0.0.3.0.0" >
                                    <path stroke-width="2" stroke-opacity="1" style="stroke-linecap:round;stroke-linejoin:miter;stroke-miterlimit:10;stroke-dasharray:none;" d="M 0,0 V 3" id="connector0pin" stroke="#777777" gorn="0.3.0.0.0.0.3.0.0.0"  fill="none"/>
                                </g>
                            </g>
                        </g>
                        <g transform="translate(30.002,-0.1069)" >
                            <g >
                                <g id="g36" gorn="0.3.0.0.0.0.4.0.0" >
                                    <path stroke-width="2" stroke-opacity="1" style="stroke-linecap:round;stroke-linejoin:miter;stroke-miterlimit:10;stroke-dasharray:none;" d="M 0,0 V 3" id="connector1pin" stroke="#777777" gorn="0.3.0.0.0.0.4.0.0.0"  fill="none"/>
                                </g>
                            </g>
                        </g>
                        <g transform="translate(36.7471,-0.1069)" >
                            <g >
                                <g id="g40" gorn="0.3.0.0.0.0.5.0.0" >
                                    <path stroke-width="2" stroke-opacity="1" style="stroke-linecap:round;stroke-linejoin:miter;stroke-miterlimit:10;stroke-dasharray:none;" d="M 0,0 V 3" id="connector2pin" stroke="#777777" gorn="0.3.0.0.0.0.5.0.0.0"  fill="none"/>
                                </g>
                            </g>
                        </g>
                        <g transform="translate(55.5688,77.7252)" >
                            <g >
                                <g id="g44" gorn="0.3.0.0.0.0.6.0.0" >
                                    <path stroke-width="8" stroke-opacity="1" style="stroke-linecap:butt;stroke-linejoin:miter;stroke-miterlimit:10;stroke-dasharray:none;" d="M 0,0 -45.59,31.923" id="path46" stroke="#191919" gorn="0.3.0.0.0.0.6.0.0.0"  fill="none"/>
                                </g>
                            </g>
                        </g>
                        <g transform="translate(56.9629,76.7496)" >
                            <g >
                                <g id="g48" gorn="0.3.0.0.0.0.7.0.0" >
                                    <path stroke-width="8" stroke-opacity="1" style="stroke-linecap:butt;stroke-linejoin:miter;stroke-miterlimit:10;stroke-dasharray:none;" d="M 0,0 50.44,23.521" id="path50" stroke="#191919" gorn="0.3.0.0.0.0.7.0.0.0"  fill="none"/>
                                </g>
                            </g>
                        </g>
                    </g>
                </g>
                <g transform="translate(56.2661,77.2374)" >
                    <g >
                        <g id="g52" gorn="0.3.0.0.1.0.0" >
                            <path stroke-width="8" stroke-opacity="1" style="stroke-linecap:butt;stroke-linejoin:miter;stroke-miterlimit:10;stroke-dasharray:none;" d="M 0,0 -4.851,-55.443" id="path54" stroke="#191919" gorn="0.3.0.0.1.0.0.0"  fill="none"/>
                        </g>
                    </g>
                </g>
                <g id="g56" gorn="0.3.0.0.2" >
                    <g id="g58" gorn="0.3.0.0.2.0"  clip-path="url(#clipPath62)">
                        <g transform="translate(13.1543,29.2066)" >
                            <g >
                                <g id="g64" gorn="0.3.0.0.2.0.0.0.0" >
                                    <path style="fill-rule:nonzero;" fill-opacity="1" d="M 0,0 C -0.106,1.969 -1.063,3.229 -3.04,3.324 -5.013,3.421 -6.239,2.282 -6.344,0.339 -6.45,-1.621 -5.299,-2.854 -3.351,-2.957 -1.391,-3.062 -0.287,-1.915 0,0 M 90.014,3.391 C 88.102,3.146 86.868,2.14 86.89,0.151 c 0.02,-1.984 1.247,-3.118 3.195,-3.114 1.976,0.003 3.175,1.244 3.156,3.168 -0.018,1.926 -1.281,2.983 -3.227,3.186 M -6.392,93.547 c 0.012,-1.949 0.947,-3.181 2.876,-3.494 1.668,-0.27 3.355,1.139 3.46,2.858 0.121,1.983 -0.891,3.25 -2.826,3.461 -1.966,0.213 -3.096,-0.927 -3.51,-2.825 m 96.319,2.896 c -1.899,-0.274 -3.023,-1.339 -3.063,-3.31 -0.035,-1.702 1.592,-3.178 3.288,-3.124 1.695,0.055 3.269,1.64 3.106,3.316 -0.187,1.922 -1.324,2.993 -3.331,3.118 M 94.185,46.695 C 94.243,74.474 71.487,97.312 43.692,97.371 15.593,97.431 -7.209,74.889 -7.292,46.969 -7.375,18.992 15.181,-3.859 42.912,-3.895 c 28.52,-0.036 51.213,22.356 51.273,50.59 m 5.918,-0.143 c 0,-15.681 0.003,-31.362 -0.002,-47.042 -0.003,-6.438 -2.972,-9.378 -9.463,-9.379 -31.531,-0.002 -63.061,-0.002 -94.592,0.003 -6.279,10e-4 -9.316,3.008 -9.318,9.301 -0.013,31.53 -0.013,63.06 0,94.59 0.002,6.242 3.066,9.279 9.368,9.282 31.614,0.013 63.229,0.014 94.843,-0.002 6.117,-0.003 9.159,-3.093 9.162,-9.205 0.006,-15.85 0.002,-31.699 0.002,-47.548" id="path66" stroke="none" gorn="0.3.0.0.2.0.0.0.0.0"  fill="#222222"/>
                                </g>
                            </g>
                        </g>
                        <g transform="translate(79.3013,75.9019)" >
                            <g >
                                <g id="g68" gorn="0.3.0.0.2.0.1.0.0" >
                                    <path style="fill-rule:nonzero;" fill-opacity="1" d="m 0,0 c -0.442,-2.727 -0.845,-5.209 -1.3,-8.013 4.485,-1.764 9.315,-2.76 14.298,-2.253 3.154,0.321 6.26,1.226 9.352,2.011 2.245,0.569 2.854,0.152 2.352,-2.137 -1.465,-6.677 -4.264,-12.754 -8.297,-18.28 -1.442,-1.975 -3.225,-2.137 -5.365,-1.46 -7.461,2.356 -14.051,6.093 -19.237,12.143 -2.417,-1.361 -4.731,-2.665 -7.247,-4.083 2.411,-7.058 6.508,-12.917 12.82,-17.155 0.56,-0.376 1.157,-0.696 1.715,-1.073 1.814,-1.223 1.882,-2.234 -0.171,-2.938 -5.073,-1.74 -10.166,-3.684 -15.415,-4.592 -7.51,-1.299 -7.938,-0.78 -10.043,6.588 -0.851,2.98 -1.431,6.081 -1.722,9.166 -0.291,3.076 -0.064,6.201 -0.064,9.476 -2.1,0.892 -4.555,1.935 -7.23,3.071 -4.283,-6.614 -6.127,-13.831 -5.312,-21.751 0.094,-0.909 -0.226,-1.861 -0.353,-2.792 -0.857,0.194 -1.784,0.238 -2.558,0.606 -5.549,2.633 -10.382,6.257 -14.537,10.776 -2.804,3.049 -2.872,3.833 -0.803,7.313 3.823,6.428 8.846,11.654 15.419,15.215 -0.715,2.717 -1.394,5.295 -2.127,8.08 -7.821,-0.804 -14.658,-3.782 -20.348,-9.364 -0.678,-0.664 -1.593,-1.088 -2.397,-1.623 -0.453,0.937 -1.097,1.829 -1.326,2.817 -1.448,6.242 -1.43,12.529 -0.409,18.837 0.371,2.296 1.572,3.554 3.934,3.905 7.302,1.084 14.456,0.762 21.416,-1.9 0.539,-0.206 1.092,-0.379 1.608,-0.557 1.638,2.139 3.215,4.199 4.95,6.466 -5.588,5.74 -12.268,9.388 -20.374,10.35 -0.939,0.112 -1.838,0.568 -2.756,0.863 0.45,0.937 0.742,2 1.375,2.791 3.946,4.932 8.765,8.834 14.268,11.93 2.303,1.296 4.191,1.082 6.151,-0.779 5.746,-5.456 10.062,-11.76 12.092,-19.603 h 8.041 c 0.74,4.408 0.807,8.792 -0.454,12.974 -1.082,3.586 -2.925,6.94 -4.39,10.415 -0.302,0.715 -0.678,1.574 -0.51,2.237 0.087,0.344 1.286,0.554 1.989,0.573 6.587,0.175 12.904,-1.122 18.978,-3.636 2.947,-1.22 3.549,-2.306 3.278,-5.448 -0.686,-7.965 -3.026,-15.329 -7.926,-21.692 1.827,-2.065 3.542,-4.003 5.341,-6.035 7.029,4.309 12.331,10.039 15.017,18.002 0.271,0.802 0.942,1.469 1.427,2.199 0.713,-0.511 1.579,-0.897 2.113,-1.554 4.154,-5.102 7.01,-10.877 8.82,-17.197 C 24.761,10.523 24.111,8.864 22.061,7.495 15.408,3.05 8.229,0.2 0,0" id="path70" stroke="none" gorn="0.3.0.0.2.0.1.0.0.0"  fill="#222222"/>
                                </g>
                            </g>
                        </g>
                        <g transform="translate(31.1543,24.6783)" >
                            <g >
                                <g id="g72" gorn="0.3.0.0.2.0.2.0.0" >
                                    <path style="fill-rule:nonzero;" fill-opacity="1" d="m 0,0 h 0.384 v -1.315 h 0.009 c 0.061,0.108 0.156,0.204 0.274,0.269 0.113,0.066 0.249,0.109 0.392,0.109 0.283,0 0.737,-0.174 0.737,-0.902 V -3.094 H 1.412 v 1.211 c 0,0.341 -0.126,0.628 -0.488,0.628 C 0.676,-1.255 0.479,-1.43 0.41,-1.639 0.388,-1.69 0.384,-1.747 0.384,-1.821 V -3.094 H 0 Z" id="path74" stroke="none" gorn="0.3.0.0.2.0.2.0.0.0"  fill="#fcfcfc"/>
                                </g>
                            </g>
                        </g>
                        <g transform="translate(34.019,24.2994)" >
                            <g >
                                <g id="g76" gorn="0.3.0.0.2.0.3.0.0" >
                                    <path style="fill-rule:nonzero;" fill-opacity="1" d="M 0,0 V -0.605 H 0.549 V -0.897 H 0 v -1.138 c 0,-0.262 0.074,-0.41 0.288,-0.41 0.1,0 0.174,0.013 0.222,0.026 l 0.017,-0.287 c -0.074,-0.03 -0.192,-0.053 -0.34,-0.053 -0.178,0 -0.322,0.057 -0.414,0.162 -0.109,0.113 -0.148,0.3 -0.148,0.549 v 1.151 h -0.327 v 0.292 h 0.327 V -0.1 Z" id="path78" stroke="none" gorn="0.3.0.0.2.0.3.0.0.0"  fill="#fcfcfc"/>
                                </g>
                            </g>
                        </g>
                        <g transform="translate(35.4619,24.2994)" >
                            <g >
                                <g id="g80" gorn="0.3.0.0.2.0.4.0.0" >
                                    <path style="fill-rule:nonzero;" fill-opacity="1" d="M 0,0 V -0.605 H 0.549 V -0.897 H 0 v -1.138 c 0,-0.262 0.074,-0.41 0.288,-0.41 0.1,0 0.174,0.013 0.222,0.026 l 0.017,-0.287 c -0.074,-0.03 -0.191,-0.053 -0.34,-0.053 -0.178,0 -0.322,0.057 -0.414,0.162 -0.108,0.113 -0.148,0.3 -0.148,0.549 v 1.151 h -0.327 v 0.292 h 0.327 V -0.1 Z" id="path82" stroke="none" gorn="0.3.0.0.2.0.4.0.0.0"  fill="#fcfcfc"/>
                                </g>
                            </g>
                        </g>
                        <g transform="translate(36.8223,22.4429)" >
                            <g >
                                <g id="g84" gorn="0.3.0.0.2.0.5.0.0" >
                                    <path style="fill-rule:nonzero;" fill-opacity="1" d="m 0,0 c 0,-0.057 0.009,-0.109 0.018,-0.157 0.069,-0.266 0.3,-0.448 0.575,-0.448 0.405,0 0.64,0.331 0.64,0.814 0,0.423 -0.222,0.785 -0.627,0.785 C 0.344,0.994 0.101,0.806 0.026,0.519 0.013,0.471 0,0.414 0,0.361 Z m -0.379,0.562 c 0,0.27 -0.009,0.488 -0.017,0.689 h 0.344 l 0.017,-0.362 h 0.009 c 0.157,0.257 0.405,0.41 0.75,0.41 0.509,0 0.893,-0.432 0.893,-1.072 0,-0.758 -0.462,-1.133 -0.959,-1.133 -0.279,0 -0.523,0.122 -0.649,0.331 H 0 v -1.147 h -0.379 z" id="path86" stroke="none" gorn="0.3.0.0.2.0.5.0.0.0"  fill="#fcfcfc"/>
                                </g>
                            </g>
                        </g>
                        <g transform="translate(38.8325,21.8062)" >
                            <g >
                                <g id="g88" gorn="0.3.0.0.2.0.6.0.0" >
                                    <path style="fill-rule:nonzero;" fill-opacity="1" d="M 0,0 C 0,0.162 0.109,0.275 0.262,0.275 0.414,0.275 0.515,0.162 0.519,0 0.519,-0.152 0.418,-0.27 0.257,-0.27 0.105,-0.27 0,-0.152 0,0 M 0,1.539 C 0,1.7 0.109,1.813 0.262,1.813 0.414,1.813 0.515,1.7 0.519,1.539 0.519,1.387 0.418,1.269 0.257,1.269 0.105,1.269 0,1.387 0,1.539" id="path90" stroke="none" gorn="0.3.0.0.2.0.6.0.0.0"  fill="#fcfcfc"/>
                                </g>
                            </g>
                        </g>
                        <g transform="translate(39.5044,21.4097)" >
                            <g >
                                <g id="g92" gorn="0.3.0.0.2.0.7.0.0" >
                                    <path style="fill-rule:nonzero;" fill-opacity="1" d="M 0,0 1.216,3.16 H 1.512 L 0.292,0 Z" id="path94" stroke="none" gorn="0.3.0.0.2.0.7.0.0.0"  fill="#fcfcfc"/>
                                </g>
                            </g>
                        </g>
                        <g transform="translate(40.9995,21.4097)" >
                            <g >
                                <g id="g96" gorn="0.3.0.0.2.0.8.0.0" >
                                    <path style="fill-rule:nonzero;" fill-opacity="1" d="M 0,0 1.216,3.16 H 1.513 L 0.292,0 Z" id="path98" stroke="none" gorn="0.3.0.0.2.0.8.0.0.0"  fill="#fcfcfc"/>
                                </g>
                            </g>
                        </g>
                        <g transform="translate(42.9702,23.6939)" >
                            <g >
                                <g id="g100" gorn="0.3.0.0.2.0.9.0.0" >
                                    <path style="fill-rule:nonzero;" fill-opacity="1" d="M 0,0 0.279,-1.072 C 0.34,-1.308 0.396,-1.525 0.436,-1.743 h 0.013 c 0.048,0.213 0.117,0.439 0.187,0.667 L 0.98,0 H 1.303 L 1.63,-1.055 C 1.708,-1.308 1.77,-1.53 1.817,-1.743 h 0.014 c 0.034,0.213 0.091,0.435 0.161,0.683 L 2.292,0 H 2.671 L 1.992,-2.109 H 1.643 L 1.32,-1.103 C 1.247,-0.867 1.186,-0.658 1.133,-0.41 H 1.125 C 1.072,-0.663 1.007,-0.881 0.933,-1.107 L 0.593,-2.109 H 0.244 L -0.392,0 Z" id="path102" stroke="none" gorn="0.3.0.0.2.0.9.0.0.0"  fill="#fcfcfc"/>
                                </g>
                            </g>
                        </g>
                        <g transform="translate(46.2319,23.6939)" >
                            <g >
                                <g id="g104" gorn="0.3.0.0.2.0.10.0.0" >
                                    <path style="fill-rule:nonzero;" fill-opacity="1" d="M 0,0 0.279,-1.072 C 0.34,-1.308 0.396,-1.525 0.436,-1.743 h 0.013 c 0.048,0.213 0.117,0.439 0.187,0.667 L 0.98,0 H 1.303 L 1.629,-1.055 C 1.708,-1.308 1.769,-1.53 1.817,-1.743 H 1.83 c 0.035,0.213 0.092,0.435 0.161,0.683 L 2.292,0 H 2.671 L 1.991,-2.109 H 1.643 L 1.32,-1.103 C 1.246,-0.867 1.185,-0.658 1.133,-0.41 H 1.124 C 1.072,-0.663 1.006,-0.881 0.932,-1.107 L 0.592,-2.109 H 0.244 L -0.393,0 Z" id="path106" stroke="none" gorn="0.3.0.0.2.0.10.0.0.0"  fill="#fcfcfc"/>
                                </g>
                            </g>
                        </g>
                        <g transform="translate(49.4932,23.6939)" >
                            <g >
                                <g id="g108" gorn="0.3.0.0.2.0.11.0.0" >
                                    <path style="fill-rule:nonzero;" fill-opacity="1" d="M 0,0 0.279,-1.072 C 0.34,-1.308 0.396,-1.525 0.436,-1.743 h 0.013 c 0.048,0.213 0.118,0.439 0.187,0.667 L 0.98,0 H 1.303 L 1.63,-1.055 C 1.708,-1.308 1.77,-1.53 1.817,-1.743 h 0.014 c 0.034,0.213 0.091,0.435 0.161,0.683 L 2.292,0 h 0.38 L 1.992,-2.109 H 1.643 L 1.321,-1.103 C 1.247,-0.867 1.186,-0.658 1.133,-0.41 H 1.125 C 1.072,-0.663 1.007,-0.881 0.933,-1.107 L 0.593,-2.109 H 0.244 L -0.392,0 Z" id="path110" stroke="none" gorn="0.3.0.0.2.0.11.0.0.0"  fill="#fcfcfc"/>
                                </g>
                            </g>
                        </g>
                        <g transform="translate(52.2886,21.8111)" >
                            <g >
                                <g id="g112" gorn="0.3.0.0.2.0.12.0.0" >
                                    <path style="fill-rule:nonzero;" fill-opacity="1" d="M 0,0 C 0,0.161 0.109,0.274 0.261,0.274 0.414,0.274 0.519,0.161 0.519,0 0.519,-0.157 0.418,-0.274 0.257,-0.274 0.104,-0.274 0,-0.157 0,0" id="path114" stroke="none" gorn="0.3.0.0.2.0.12.0.0.0"  fill="#fcfcfc"/>
                                </g>
                            </g>
                        </g>
                        <g transform="translate(53.2305,21.9761)" >
                            <g >
                                <g id="g116" gorn="0.3.0.0.2.0.13.0.0" >
                                    <path style="fill-rule:nonzero;" fill-opacity="1" d="m 0,0 c 0.113,-0.073 0.313,-0.152 0.505,-0.152 0.279,0 0.41,0.139 0.41,0.314 0,0.183 -0.109,0.283 -0.392,0.388 -0.379,0.135 -0.558,0.344 -0.558,0.596 0,0.34 0.274,0.62 0.728,0.62 0.213,0 0.401,-0.062 0.518,-0.131 L 1.115,1.355 C 1.033,1.408 0.88,1.478 0.684,1.478 0.458,1.478 0.331,1.347 0.331,1.19 0.331,1.016 0.458,0.937 0.732,0.833 1.098,0.693 1.285,0.511 1.285,0.196 c 0,-0.37 -0.287,-0.632 -0.788,-0.632 -0.231,0 -0.445,0.057 -0.593,0.144 z" id="path118" stroke="none" gorn="0.3.0.0.2.0.13.0.0.0"  fill="#fcfcfc"/>
                                </g>
                            </g>
                        </g>
                        <g transform="translate(55.4712,24.2994)" >
                            <g >
                                <g id="g120" gorn="0.3.0.0.2.0.14.0.0" >
                                    <path style="fill-rule:nonzero;" fill-opacity="1" d="M 0,0 V -0.605 H 0.549 V -0.897 H 0 v -1.138 c 0,-0.262 0.074,-0.41 0.288,-0.41 0.1,0 0.174,0.013 0.222,0.026 l 0.017,-0.287 c -0.074,-0.03 -0.192,-0.053 -0.34,-0.053 -0.178,0 -0.322,0.057 -0.414,0.162 -0.108,0.113 -0.148,0.3 -0.148,0.549 v 1.151 h -0.327 v 0.292 h 0.327 V -0.1 Z" id="path122" stroke="none" gorn="0.3.0.0.2.0.14.0.0.0"  fill="#fcfcfc"/>
                                </g>
                            </g>
                        </g>
                        <g transform="translate(58.2178,22.1597)" >
                            <g >
                                <g id="g124" gorn="0.3.0.0.2.0.15.0.0" >
                                    <path style="fill-rule:nonzero;" fill-opacity="1" d="m 0,0 c 0,-0.218 0.004,-0.409 0.017,-0.575 h -0.34 l -0.022,0.344 h -0.008 c -0.101,-0.17 -0.323,-0.392 -0.697,-0.392 -0.331,0 -0.728,0.183 -0.728,0.924 v 1.233 h 0.383 V 0.366 c 0,-0.401 0.123,-0.672 0.471,-0.672 0.257,0 0.436,0.18 0.506,0.35 0.022,0.057 0.034,0.126 0.034,0.196 v 1.294 l 0.384,0 z" id="path126" stroke="none" gorn="0.3.0.0.2.0.15.0.0.0"  fill="#fcfcfc"/>
                                </g>
                            </g>
                        </g>
                        <g transform="translate(60.2935,22.8355)" >
                            <g >
                                <g id="g128" gorn="0.3.0.0.2.0.16.0.0" >
                                    <path style="fill-rule:nonzero;" fill-opacity="1" d="m 0,0 c 0,0.048 -0.004,0.113 -0.018,0.161 -0.056,0.244 -0.266,0.444 -0.553,0.444 -0.397,0 -0.632,-0.348 -0.632,-0.815 0,-0.427 0.209,-0.779 0.623,-0.779 0.257,0 0.493,0.17 0.562,0.457 C -0.004,-0.479 0,-0.428 0,-0.366 Z m 0.383,1.843 v -2.549 c 0,-0.188 0.005,-0.401 0.018,-0.545 H 0.057 L 0.039,-0.885 H 0.03 c -0.117,-0.235 -0.375,-0.414 -0.719,-0.414 -0.51,0 -0.902,0.432 -0.902,1.072 -0.004,0.702 0.431,1.133 0.946,1.133 0.322,0 0.54,-0.152 0.636,-0.323 H 0 v 1.26 z" id="path130" stroke="none" gorn="0.3.0.0.2.0.16.0.0.0"  fill="#fcfcfc"/>
                                </g>
                            </g>
                        </g>
                        <path style="fill-rule:nonzero;" fill-opacity="1" d="m 61.314,23.694 h 0.383 v -2.109 h -0.383 z m 0.427,0.593 c 0.005,-0.131 -0.091,-0.236 -0.243,-0.236 -0.136,0 -0.231,0.105 -0.231,0.236 0,0.134 0.1,0.239 0.239,0.239 0.144,0 0.235,-0.105 0.235,-0.239" id="path132" stroke="none" gorn="0.3.0.0.2.0.17"  fill="#fcfcfc"/>
                        <g transform="translate(62.5698,22.6343)" >
                            <g >
                                <g id="g134" gorn="0.3.0.0.2.0.18.0.0" >
                                    <path style="fill-rule:nonzero;" fill-opacity="1" d="m 0,0 c 0,-0.462 0.266,-0.811 0.641,-0.811 0.366,0 0.641,0.345 0.641,0.82 0,0.357 -0.179,0.81 -0.633,0.81 C 0.196,0.819 0,0.401 0,0 m 1.674,0.022 c 0,-0.78 -0.541,-1.12 -1.05,-1.12 -0.571,0 -1.012,0.418 -1.012,1.085 0,0.706 0.462,1.12 1.046,1.12 0.606,0 1.016,-0.44 1.016,-1.085" id="path136" stroke="none" gorn="0.3.0.0.2.0.18.0.0.0"  fill="#fcfcfc"/>
                                </g>
                            </g>
                        </g>
                        <g transform="translate(65.1079,22.4429)" >
                            <g >
                                <g id="g138" gorn="0.3.0.0.2.0.19.0.0" >
                                    <path style="fill-rule:nonzero;" fill-opacity="1" d="m 0,0 c 0,-0.057 0.008,-0.109 0.017,-0.157 0.07,-0.266 0.301,-0.448 0.575,-0.448 0.406,0 0.641,0.331 0.641,0.814 0,0.423 -0.222,0.785 -0.628,0.785 C 0.344,0.994 0.1,0.806 0.026,0.519 0.013,0.471 0,0.414 0,0.361 Z m -0.379,0.562 c 0,0.27 -0.009,0.488 -0.018,0.689 h 0.344 l 0.018,-0.362 h 0.009 c 0.156,0.257 0.405,0.41 0.749,0.41 0.51,0 0.894,-0.432 0.894,-1.072 0,-0.758 -0.462,-1.133 -0.959,-1.133 -0.279,0 -0.523,0.122 -0.65,0.331 H 0 v -1.147 h -0.379 z" id="path140" stroke="none" gorn="0.3.0.0.2.0.19.0.0.0"  fill="#fcfcfc"/>
                                </g>
                            </g>
                        </g>
                        <path style="fill-rule:nonzero;" fill-opacity="1" d="m 67.209,23.694 h 0.384 v -2.109 h -0.384 z m 0.428,0.593 c 0.004,-0.131 -0.092,-0.236 -0.244,-0.236 -0.136,0 -0.231,0.105 -0.231,0.236 0,0.134 0.1,0.239 0.239,0.239 0.144,0 0.236,-0.105 0.236,-0.239" id="path142" stroke="none" gorn="0.3.0.0.2.0.20"  fill="#fcfcfc"/>
                        <g transform="translate(69.5679,22.8433)" >
                            <g >
                                <g id="g144" gorn="0.3.0.0.2.0.21.0.0" >
                                    <path style="fill-rule:nonzero;" fill-opacity="1" d="M 0,0 C 0.004,0.244 -0.1,0.624 -0.532,0.624 -0.919,0.624 -1.09,0.267 -1.12,0 Z m -1.125,-0.273 c 0.009,-0.52 0.34,-0.733 0.724,-0.733 0.275,0 0.44,0.048 0.584,0.109 l 0.066,-0.275 c -0.136,-0.06 -0.367,-0.131 -0.703,-0.131 -0.649,0 -1.037,0.428 -1.037,1.064 0,0.636 0.375,1.137 0.99,1.137 0.688,0 0.872,-0.605 0.872,-0.994 0,-0.078 -0.01,-0.138 -0.014,-0.177 z" id="path146" stroke="none" gorn="0.3.0.0.2.0.21.0.0.0"  fill="#fcfcfc"/>
                                </g>
                            </g>
                        </g>
                        <g transform="translate(70.8765,24.2994)" >
                            <g >
                                <g id="g148" gorn="0.3.0.0.2.0.22.0.0" >
                                    <path style="fill-rule:nonzero;" fill-opacity="1" d="M 0,0 V -0.605 H 0.549 V -0.897 H 0 v -1.138 c 0,-0.262 0.074,-0.41 0.288,-0.41 0.1,0 0.173,0.013 0.222,0.026 l 0.017,-0.287 c -0.074,-0.03 -0.192,-0.053 -0.34,-0.053 -0.179,0 -0.322,0.057 -0.414,0.162 -0.109,0.113 -0.148,0.3 -0.148,0.549 v 1.151 h -0.327 v 0.292 h 0.327 V -0.1 Z" id="path150" stroke="none" gorn="0.3.0.0.2.0.22.0.0.0"  fill="#fcfcfc"/>
                                </g>
                            </g>
                        </g>
                        <g transform="translate(73.1694,22.8433)" >
                            <g >
                                <g id="g152" gorn="0.3.0.0.2.0.23.0.0" >
                                    <path style="fill-rule:nonzero;" fill-opacity="1" d="M 0,0 C 0.004,0.244 -0.101,0.624 -0.531,0.624 -0.919,0.624 -1.089,0.267 -1.12,0 Z m -1.125,-0.273 c 0.009,-0.52 0.34,-0.733 0.724,-0.733 0.275,0 0.44,0.048 0.584,0.109 l 0.066,-0.275 c -0.136,-0.06 -0.367,-0.131 -0.702,-0.131 -0.65,0 -1.037,0.428 -1.037,1.064 0,0.636 0.374,1.137 0.989,1.137 0.688,0 0.872,-0.605 0.872,-0.994 0,-0.078 -0.009,-0.138 -0.014,-0.177 z" id="path154" stroke="none" gorn="0.3.0.0.2.0.23.0.0.0"  fill="#fcfcfc"/>
                                </g>
                            </g>
                        </g>
                        <g transform="translate(74.0161,23.0357)" >
                            <g >
                                <g id="g156" gorn="0.3.0.0.2.0.24.0.0" >
                                    <path style="fill-rule:nonzero;" fill-opacity="1" d="M 0,0 C 0,0.248 -0.004,0.462 -0.018,0.658 H 0.318 L 0.331,0.244 h 0.018 c 0.095,0.283 0.326,0.462 0.584,0.462 0.043,0 0.073,-0.005 0.109,-0.014 V 0.331 C 1.002,0.34 0.963,0.345 0.911,0.345 0.641,0.345 0.449,0.14 0.396,-0.148 0.388,-0.2 0.379,-0.262 0.379,-0.327 V -1.451 H 0 Z" id="path158" stroke="none" gorn="0.3.0.0.2.0.24.0.0.0"  fill="#fcfcfc"/>
                                </g>
                            </g>
                        </g>
                        <g transform="translate(75.3896,21.9761)" >
                            <g >
                                <g id="g160" gorn="0.3.0.0.2.0.25.0.0" >
                                    <path style="fill-rule:nonzero;" fill-opacity="1" d="m 0,0 c 0.113,-0.073 0.313,-0.152 0.505,-0.152 0.279,0 0.41,0.139 0.41,0.314 0,0.183 -0.109,0.283 -0.392,0.388 -0.379,0.135 -0.558,0.344 -0.558,0.596 0,0.34 0.275,0.62 0.728,0.62 0.213,0 0.401,-0.062 0.518,-0.131 L 1.115,1.355 C 1.033,1.408 0.88,1.478 0.684,1.478 0.458,1.478 0.331,1.347 0.331,1.19 0.331,1.016 0.458,0.937 0.732,0.833 1.098,0.693 1.285,0.511 1.285,0.196 c 0,-0.37 -0.287,-0.632 -0.788,-0.632 -0.231,0 -0.445,0.057 -0.593,0.144 z" id="path162" stroke="none" gorn="0.3.0.0.2.0.25.0.0.0"  fill="#fcfcfc"/>
                                </g>
                            </g>
                        </g>
                        <g transform="translate(77.0293,21.8111)" >
                            <g >
                                <g id="g164" gorn="0.3.0.0.2.0.26.0.0" >
                                    <path style="fill-rule:nonzero;" fill-opacity="1" d="M 0,0 C 0,0.161 0.109,0.274 0.261,0.274 0.414,0.274 0.519,0.161 0.519,0 0.519,-0.157 0.418,-0.274 0.257,-0.274 0.104,-0.274 0,-0.157 0,0" id="path166" stroke="none" gorn="0.3.0.0.2.0.26.0.0.0"  fill="#fcfcfc"/>
                                </g>
                            </g>
                        </g>
                        <g transform="translate(78.0229,23.1226)" >
                            <g >
                                <g id="g168" gorn="0.3.0.0.2.0.27.0.0" >
                                    <path style="fill-rule:nonzero;" fill-opacity="1" d="m 0,0 c 0,0.218 -0.004,0.396 -0.018,0.571 h 0.34 L 0.344,0.223 h 0.009 c 0.105,0.2 0.349,0.396 0.697,0.396 0.292,0 0.745,-0.175 0.745,-0.898 V -1.538 H 1.412 v 1.216 c 0,0.34 -0.126,0.623 -0.488,0.623 C 0.671,0.301 0.475,0.122 0.41,-0.092 0.392,-0.14 0.383,-0.205 0.383,-0.27 V -1.538 H 0 Z" id="path170" stroke="none" gorn="0.3.0.0.2.0.27.0.0.0"  fill="#fcfcfc"/>
                                </g>
                            </g>
                        </g>
                        <path style="fill-rule:nonzero;" fill-opacity="1" d="m 80.443,24.678 h 0.383 v -3.094 h -0.383 z" id="path172" stroke="none" gorn="0.3.0.0.2.0.28"  fill="#fcfcfc"/>
                    </g>
                </g>
            </g>
        </g>
    </g>
</svg>
