<?xml version='1.0' encoding='UTF-8'?>
<svg xmlns="http://www.w3.org/2000/svg"  height="1.254in" gorn="0" id="breadboard" viewBox="0 0 72 90.288" width="1in" version="1.2">
    <desc >
        <referenceFile >Joystick2.svg</referenceFile>
    </desc>
    <desc >Fritzing breadboard generated by brd2svg</desc>
    <g  stroke-width="0">
        <path  d="m0 90h72v-90h-72v90m2.52-7.2a4.68 4.68 0 1 1 9.36 0 4.68 4.68 0 1 1-9.36 0zm57.6 0a4.68 4.68 0 1 1 9.36 0 4.68 4.68 0 1 1-9.36 0zm-57.6-75.6a4.68 4.68 0 1 1 9.36 0 4.68 4.68 0 1 1-9.36 0zm57.6 0a4.68 4.68 0 1 1 9.36 0 4.68 4.68 0 1 1-9.36 0zm-11.16 79.2a1.44 1.44 0 1 1 2.88 0 1.44 1.44 0 1 1-2.88 0zm-7.2 0a1.44 1.44 0 1 1 2.88 0 1.44 1.44 0 1 1-2.88 0zm-7.2 0a1.44 1.44 0 1 1 2.88 0 1.44 1.44 0 1 1-2.88 0zm-7.2 0a1.44 1.44 0 1 1 2.88 0 1.44 1.44 0 1 1-2.88 0zm-7.2 0a1.44 1.44 0 1 1 2.88 0 1.44 1.44 0 1 1-2.88 0z" fill="#1a1a1a"/>
        <circle  cy="39.325" fill="#666" cx="36" r="30.142"/>
        <g  transform="matrix(.78478 0 0 .78478 5.8579 9.1815)">
            <g >
                <g  opacity=".5">
                    <circle  cy="38.41" fill="#161616" cx="38.408" stroke-width="0" r="35.97"/>
                </g>
            </g>
        </g>
        <circle  cy="39.325" fill="#161616" cx="36" r="26.715"/>
        <circle  cy="39.325" cx="35.999" r="24.193"/>
        <circle  cy="39.325" fill="#313131" cx="35.999" r="22.827"/>
        <g  transform="matrix(.78478 0 0 .78478 5.8579 9.1815)">
            <g >
                <g  opacity=".3">
                    <path  d="m42.342 9.588c-15.917-2.173-30.582 8.967-32.755 24.885-2.1739 15.92 8.9686 30.584 24.886 32.758 15.916 2.173 30.581-8.969 32.755-24.888 2.1719-15.919-8.9687-30.582-24.886-32.755zm13.3 51.505c-11.85 9.002-29.168 6.142-38.686-6.386-9.5186-12.529-7.6317-29.982 4.2178-38.984 11.848-9.002 29.166-6.142 38.684 6.388 9.5176 12.527 7.6306 29.979-4.2158 38.982z" fill="#fff" stroke-width="0"/>
                </g>
            </g>
        </g>
        <g  transform="matrix(.78478 0 0 .78478 5.8579 9.1815)">
            <g >
                <g  opacity=".05" fill="#fff">
                    <path  d="m54.41 23.918c7.8657 8.168 10.59 19.312 8.1487 29.187 5.1658-9.311 4.4738-21.55-2.6999-30.993-9.5176-12.528-26.837-15.388-38.685-6.386-0.19399 0.147-0.37798 0.303-0.56698 0.456 11.08-4.491 24.606-1.814 33.804 7.736z"/>
                    <path  d="m57.865 22.915c7.0557 9.288 8.3406 21.067 4.3688 30.75 5.5128-9.376 4.9438-21.918-2.3749-31.553-5.8547-7.706-14.66-11.747-23.33-11.627 8.0677 0.995 15.881 5.25 21.336 12.43z"/>
                </g>
            </g>
        </g>
        <g  transform="matrix(.78478 0 0 .78478 5.8579 9.1815)">
            <g >
                <g  opacity=".2">
                    <path  d="m10.953 35.076c-0.43898 6.703 1.5099 13.716 6.0038 19.632 5.3768 7.077 13.242 11.066 21.206 11.577-15.326-2.98-26.186-15.7-27.21-31.209z" stroke-width="0"/>
                </g>
            </g>
        </g>
    </g>
    <g  stroke="#fff" stroke-linecap="round" stroke-width="1.152">
        <line  x2="7.2" y2="14.4" x1="7.2" y1="21.6"/>
        <line  x2="10.8" y2="18" x1="7.2" y1="14.4"/>
        <line  x2="3.6" y2="18" x1="7.2" y1="14.4"/>
        <line  x2="61.2" y2="18" x1="68.4" y1="18"/>
        <line  x2="64.8" y2="14.4" x1="61.2" y1="18"/>
        <line  x2="64.8" y2="21.6" x1="61.2" y1="18"/>
    </g>
    <g  stroke-width="0">
        <g >
            <title >element:JP1</title>
            <g  stroke-width="0">
                <title >package:1X05</title>
                <g  stroke="#fff" stroke-linecap="round" stroke-width=".576">
                    <line  x2="27" y2="90" x1="30.6" y1="90"/>
                    <line  x2="25.2" y2="88.2" x1="27" y1="90"/>
                    <line  x2="27" y2="82.8" x1="25.2" y1="84.6"/>
                    <line  x2="23.4" y2="90" x1="25.2" y1="88.2"/>
                    <line  x2="19.8" y2="90" x1="23.4" y1="90"/>
                    <line  x2="18" y2="88.2" x1="19.8" y1="90"/>
                    <line  x2="19.8" y2="82.8" x1="18" y1="84.6"/>
                    <line  x2="23.4" y2="82.8" x1="19.8" y1="82.8"/>
                    <line  x2="25.2" y2="84.6" x1="23.4" y1="82.8"/>
                    <line  x2="37.8" y2="90" x1="39.6" y1="88.2"/>
                    <line  x2="34.2" y2="90" x1="37.8" y1="90"/>
                    <line  x2="32.4" y2="88.2" x1="34.2" y1="90"/>
                    <line  x2="34.2" y2="82.8" x1="32.4" y1="84.6"/>
                    <line  x2="37.8" y2="82.8" x1="34.2" y1="82.8"/>
                    <line  x2="39.6" y2="84.6" x1="37.8" y1="82.8"/>
                    <line  x2="32.4" y2="88.2" x1="30.6" y1="90"/>
                    <line  x2="30.6" y2="82.8" x1="32.4" y1="84.6"/>
                    <line  x2="30.6" y2="82.8" x1="27" y1="82.8"/>
                    <line  x2="48.6" y2="90" x1="52.2" y1="90"/>
                    <line  x2="46.8" y2="88.2" x1="48.6" y1="90"/>
                    <line  x2="48.6" y2="82.8" x1="46.8" y1="84.6"/>
                    <line  x2="45" y2="90" x1="46.8" y1="88.2"/>
                    <line  x2="41.4" y2="90" x1="45" y1="90"/>
                    <line  x2="39.6" y2="88.2" x1="41.4" y1="90"/>
                    <line  x2="41.4" y2="82.8" x1="39.6" y1="84.6"/>
                    <line  x2="45" y2="82.8" x1="41.4" y1="82.8"/>
                    <line  x2="46.8" y2="84.6" x1="45" y1="82.8"/>
                    <line  x2="54" y2="84.6" x1="54" y1="88.2"/>
                    <line  x2="54" y2="88.2" x1="52.2" y1="90"/>
                    <line  x2="52.2" y2="82.8" x1="54" y1="84.6"/>
                    <line  x2="52.2" y2="82.8" x1="48.6" y1="82.8"/>
                    <line  x2="18" y2="84.6" x1="18" y1="88.2"/>
                </g>
            </g>
        </g>
        <g >
            <title >element:U$1</title>
            <g  stroke-width="0">
                <title >package:SFE-NEW-WEBLOGO</title>
            </g>
        </g>
        <g >
            <title >element:U$3</title>
            <g  stroke-width="0">
                <title >package:STAND-OFF</title>
            </g>
        </g>
        <g >
            <title >element:U$4</title>
            <g  stroke-width="0">
                <title >package:STAND-OFF</title>
            </g>
        </g>
        <g >
            <title >element:U$5</title>
            <g  stroke-width="0">
                <title >package:STAND-OFF</title>
            </g>
        </g>
        <g >
            <title >element:U$6</title>
            <g  stroke-width="0">
                <title >package:STAND-OFF</title>
            </g>
        </g>
    </g>
    <g  stroke="#9a916c" fill="none" stroke-width=".864">
        <circle  connectorname="GND" gorn="0.5.0" id="connector3pin" cy="86.4" cx="50.4" r="1.872"/>
        <circle  connectorname="SEL" gorn="0.5.1" id="connector2pin" cy="86.4" cx="43.2" r="1.872"/>
        <circle  connectorname="HORZ" gorn="0.5.2" id="connector1pin" cy="86.4" cx="36" r="1.872"/>
        <circle  connectorname="VERT" gorn="0.5.3" id="connector4pin" cy="86.4" cx="28.8" r="1.872"/>
        <circle  connectorname="VCC" gorn="0.5.4" id="connector0pin" cy="86.4" cx="21.6" r="1.872"/>
    </g>
    <g  fill="#fff" stroke-width="0.6">
        <g  transform="rotate(-90)">
            <g >
                <g  style="font-feature-settings:normal;font-variant-caps:normal;font-variant-ligatures:normal;font-variant-numeric:normal" aria-label="GND">
                    <path  style="font-variant-caps:normal;font-variant-east-asian:normal;font-variant-ligatures:normal;font-variant-numeric:normal" d="m-79.939 19.653h0.81738q0.10254 0 0.17285 0.07324 0.07324 0.07031 0.07324 0.17285 0 0.1084-0.0791 0.18164-0.07617 0.07031-0.16699 0.07031h-0.7793q-0.11426 0-0.19922 0.1084l-0.69141 0.8877q-0.08789 0.10547-0.08789 0.29297v1.3623q0 0.10547 0.07031 0.17871 0.07324 0.07324 0.17578 0.07324h1.002q0.09961 0 0.17285-0.07324 0.07324-0.07324 0.07324-0.17285v-0.5332h-0.50977q-0.10547 0-0.17578-0.07031-0.07031-0.07324-0.07031-0.17578 0-0.10254 0.07031-0.17285 0.07031-0.07324 0.17578-0.07324h1.002v1.0254q0 0.30469-0.2168 0.52148t-0.52148 0.2168h-1.002q-0.30762 0-0.52734-0.2168-0.2168-0.2168-0.2168-0.52148v-1.3623q0-0.36621 0.19629-0.61816l0.72656-0.92285q0.0791-0.10547 0.21973-0.17871 0.14356-0.07324 0.2959-0.07324z"/>
                    <path  style="font-variant-caps:normal;font-variant-east-asian:normal;font-variant-ligatures:normal;font-variant-numeric:normal" d="m-75.263 19.905v3.6416h-0.66211l-1.3242-3.0234v2.7773q0 0.10254-0.07324 0.17578-0.07031 0.07031-0.17285 0.07031-0.10254 0-0.17578-0.07031-0.07031-0.07324-0.07031-0.17578v-3.6475h0.65332l1.3271 3.0176v-2.7656q0-0.10254 0.07324-0.17578 0.07617-0.07617 0.17871-0.07617 0.10254 0 0.17285 0.07324 0.07324 0.07324 0.07324 0.17871z"/>
                    <path  style="font-variant-caps:normal;font-variant-east-asian:normal;font-variant-ligatures:normal;font-variant-numeric:normal" d="m-73.877 19.653h0.97266q0.19043 0.0029 0.36914 0.12305 0.18164 0.12012 0.2666 0.29004l0.48633 0.98438q0.1377 0.2666 0.1377 0.55664 0 0.26953-0.14648 0.55371l-0.48926 0.97266q-0.09375 0.1875-0.26953 0.30176-0.17578 0.11133-0.39258 0.11133h-0.94043q-0.10254 0-0.17578-0.07324-0.07031-0.07324-0.07031-0.17285 0-0.10254 0.07031-0.17578 0.07324-0.07617 0.17578-0.07617h0.25781v-2.8975h-0.25195q-0.10254 0-0.17578-0.07324-0.07031-0.07617-0.07031-0.17871 0-0.09961 0.07031-0.17285 0.07324-0.07324 0.17578-0.07324zm0.74414 0.49805v2.9033h0.17285q0.16406 0 0.24609-0.16113l0.48633-0.9668q0.09082-0.19043 0.09082-0.31934 0-0.16113-0.07324-0.30469l-0.50391-1.002q-0.0791-0.14941-0.25781-0.14941z"/>
                </g>
            </g>
        </g>
        <g  transform="rotate(-90)">
            <g >
                <g  style="font-feature-settings:normal;font-variant-caps:normal;font-variant-ligatures:normal;font-variant-numeric:normal" aria-label="+5V">
                    <path  style="font-variant-caps:normal;font-variant-east-asian:normal;font-variant-ligatures:normal;font-variant-numeric:normal" d="m-80.375 28.544v-0.75586q0-0.09961 0.07324-0.16992 0.07324-0.07031 0.17871-0.07031 0.09961 0 0.16992 0.07031 0.07031 0.07031 0.07031 0.16992v0.75586h0.75586q0.10254 0 0.17578 0.07324 0.07617 0.07031 0.07617 0.17285 0 0.10254-0.07617 0.17578-0.07324 0.07031-0.17578 0.07031h-0.75v0.75586q0 0.10547-0.07617 0.17871-0.07324 0.07324-0.17578 0.07324-0.10254 0-0.17578-0.07324-0.07031-0.07324-0.07031-0.17871v-0.75586h-0.75586q-0.09961 0-0.17285-0.07031-0.07324-0.07324-0.07324-0.17578 0-0.09961 0.07324-0.17285 0.07324-0.07324 0.17285-0.07324z"/>
                    <path  style="font-variant-caps:normal;font-variant-east-asian:normal;font-variant-ligatures:normal;font-variant-numeric:normal" d="m-76.842 30.249h1.1396v-1.207h-1.4883v-2.1885h1.7344q0.09961 0 0.17285 0.07324 0.07324 0.07324 0.07324 0.17285 0 0.10254-0.07324 0.17578-0.07031 0.07031-0.17285 0.07031h-1.2363v1.2041h0.99023q0.19922 0 0.3457 0.14648 0.14648 0.14648 0.14648 0.3457v1.207q0 0.20215-0.14648 0.34863-0.14356 0.14355-0.3457 0.14355h-1.1396q-0.15234 0-0.3252-0.07324l-0.37207-0.15527q-0.14941-0.06152-0.14941-0.23438 0-0.10254 0.06738-0.17285 0.06738-0.07324 0.16406-0.07324 0.07324 0 0.16992 0.04395l0.3252 0.1377q0.05859 0.03516 0.12012 0.03516z"/>
                    <path  style="font-variant-caps:normal;font-variant-east-asian:normal;font-variant-ligatures:normal;font-variant-numeric:normal" d="m-71.627 27.105v0.90527l-1.002 2.5518q-0.07617 0.18457-0.24023 0.18457-0.17285 0-0.24609-0.18457l-0.99609-2.5518v-0.90527q0-0.10547 0.07031-0.17871 0.07324-0.07324 0.17578-0.07324 0.10254 0 0.17285 0.07324 0.07324 0.07324 0.07324 0.17871v0.80273l0.75 1.9102 0.75-1.9043v-0.80859q0-0.10547 0.07031-0.17871 0.07324-0.07324 0.17578-0.07324 0.10254 0 0.17285 0.07324 0.07324 0.07324 0.07324 0.17871z"/>
                </g>
            </g>
        </g>
        <g  transform="rotate(-90)">
            <g >
                <g  style="font-feature-settings:normal;font-variant-caps:normal;font-variant-ligatures:normal;font-variant-numeric:normal" aria-label="VRx">
                    <path  style="font-variant-caps:normal;font-variant-east-asian:normal;font-variant-ligatures:normal;font-variant-numeric:normal" d="m-78.893 34.305v0.90527l-1.002 2.5518q-0.07617 0.18457-0.24023 0.18457-0.17285 0-0.24609-0.18457l-0.99609-2.5518v-0.90527q0-0.10547 0.07031-0.17871 0.07324-0.07324 0.17578-0.07324 0.10254 0 0.17285 0.07324 0.07324 0.07324 0.07324 0.17871v0.80273l0.75 1.9102 0.75-1.9043v-0.80859q0-0.10547 0.07031-0.17871 0.07324-0.07324 0.17578-0.07324 0.10254 0 0.17285 0.07324 0.07324 0.07324 0.07324 0.17871z"/>
                    <path  style="font-variant-caps:normal;font-variant-east-asian:normal;font-variant-ligatures:normal;font-variant-numeric:normal" d="m-77.753 37.701v-3.6475h1.7402q0.30176 0 0.51856 0.21973 0.21973 0.21973 0.21973 0.52441v0.28125q0 0.30762-0.2168 0.52734-0.2168 0.2168-0.52148 0.2168h-0.31348l1.0078 1.7285q0.04687 0.07617 0.04687 0.15234 0 0.09961-0.07617 0.17285-0.07617 0.07031-0.17285 0.07031-0.14648 0-0.22266-0.13184l-1.1572-1.9922h-0.35449v1.8779q0 0.10254-0.07617 0.17578-0.07324 0.07031-0.17578 0.07031-0.10254 0-0.17578-0.07031-0.07031-0.07324-0.07031-0.17578zm0.49219-2.3701h1.248q0.10254 0 0.17285-0.07031 0.07324-0.07324 0.07324-0.17578v-0.28711q0-0.10254-0.07324-0.17285-0.07031-0.07324-0.17285-0.07324h-1.248z"/>
                    <path  style="font-variant-caps:normal;font-variant-east-asian:normal;font-variant-ligatures:normal;font-variant-numeric:normal" d="m-72.852 36.886-0.80566 0.95801q-0.0791 0.10254-0.19629 0.10254-0.10547 0-0.17578-0.07324-0.07031-0.07324-0.07031-0.17871 0-0.09375 0.04687-0.14941l0.88184-1.0576-0.81445-0.96973q-0.05566-0.06445-0.05566-0.14648 0-0.09668 0.06738-0.17285 0.07031-0.0791 0.17871-0.0791 0.12305 0 0.19922 0.09082l0.74414 0.89356 0.76172-0.89941q0.07031-0.08496 0.17578-0.08496 0.09375 0 0.16992 0.06738 0.07617 0.06445 0.07617 0.16699 0 0.09961-0.03223 0.1377l-0.8291 1.002 0.87012 1.0518q0.0498 0.05566 0.0498 0.1377 0 0.11133-0.07617 0.1875-0.07324 0.07324-0.16992 0.07324-0.11426 0-0.19922-0.09961z"/>
                </g>
            </g>
        </g>
        <g  transform="rotate(-90)">
            <g >
                <g  style="font-feature-settings:normal;font-variant-caps:normal;font-variant-ligatures:normal;font-variant-numeric:normal" aria-label="VRy">
                    <path  style="font-variant-caps:normal;font-variant-east-asian:normal;font-variant-ligatures:normal;font-variant-numeric:normal" d="m-78.893 40.978v0.90527l-1.002 2.5518q-0.07617 0.18457-0.24023 0.18457-0.17285 0-0.24609-0.18457l-0.99609-2.5518v-0.90527q0-0.10547 0.07031-0.17871 0.07324-0.07324 0.17578-0.07324 0.10254 0 0.17285 0.07324 0.07324 0.07324 0.07324 0.17871v0.80273l0.75 1.9102 0.75-1.9043v-0.80859q0-0.10547 0.07031-0.17871 0.07324-0.07324 0.17578-0.07324 0.10254 0 0.17285 0.07324 0.07324 0.07324 0.07324 0.17871z"/>
                    <path  style="font-variant-caps:normal;font-variant-east-asian:normal;font-variant-ligatures:normal;font-variant-numeric:normal" d="m-77.753 44.373v-3.6475h1.7402q0.30176 0 0.51856 0.21973 0.21973 0.21973 0.21973 0.52441v0.28125q0 0.30762-0.2168 0.52734-0.2168 0.2168-0.52148 0.2168h-0.31348l1.0078 1.7285q0.04687 0.07617 0.04687 0.15234 0 0.09961-0.07617 0.17285-0.07617 0.07031-0.17285 0.07031-0.14648 0-0.22266-0.13184l-1.1572-1.9922h-0.35449v1.8779q0 0.10254-0.07617 0.17578-0.07324 0.07031-0.17578 0.07031-0.10254 0-0.17578-0.07031-0.07031-0.07324-0.07031-0.17578zm0.49219-2.3701h1.248q0.10254 0 0.17285-0.07031 0.07324-0.07324 0.07324-0.17578v-0.28711q0-0.10254-0.07324-0.17285-0.07031-0.07324-0.17285-0.07324h-1.248z"/>
                    <path  style="font-variant-caps:normal;font-variant-east-asian:normal;font-variant-ligatures:normal;font-variant-numeric:normal" d="m-71.651 42.513-1.3271 3q-0.06738 0.16113-0.23438 0.16113h-0.68262q-0.10254 0-0.17578-0.07031-0.07031-0.07031-0.07031-0.17578 0-0.10254 0.07031-0.17285 0.07324-0.07031 0.17578-0.07031h0.52734l0.33691-0.78223h-0.12012q-0.16699 0-0.24024-0.17285l-0.73828-1.7168v-0.47462q0-0.10254 0.07031-0.17285 0.07031-0.07324 0.16992-0.07324 0.10254 0 0.17578 0.07324 0.07617 0.07031 0.07617 0.17285v0.36621l0.64746 1.5h0.17285l0.66797-1.4941v-0.37793q0-0.09668 0.07324-0.16992 0.07617-0.07617 0.17871-0.07617 0.09961 0 0.17285 0.07324 0.07324 0.07324 0.07324 0.17285z"/>
                </g>
            </g>
        </g>
        <g  transform="rotate(-90)">
            <g >
                <g  style="font-feature-settings:normal;font-variant-caps:normal;font-variant-ligatures:normal;font-variant-numeric:normal" aria-label="SW">
                    <path  style="font-variant-caps:normal;font-variant-east-asian:normal;font-variant-ligatures:normal;font-variant-numeric:normal" d="m-80.815 48.453h1.2803q0.23438 0 0.44238 0.19922 0.21094 0.19629 0.21094 0.47754 0 0.10547-0.07617 0.17871-0.07324 0.07324-0.16406 0.07324-0.12598 0-0.17285-0.05566-0.04687-0.05859-0.09082-0.21387-0.04102-0.15527-0.1875-0.15527h-1.2158q-0.08789 0-0.08789 0.05566 0 0.03516 0.03809 0.08203l1.8252 2.335q0.13184 0.16992 0.13184 0.36328 0 0.21973-0.16113 0.38672-0.1582 0.16699-0.35449 0.16699h-1.3271q-0.26367 0-0.45996-0.19922-0.19336-0.20215-0.19336-0.44238 0-0.27539 0.25781-0.27539 0.09961 0 0.16992 0.07324 0.07031 0.07031 0.07031 0.16699 0 0.0791 0.05273 0.13184 0.05566 0.05273 0.1377 0.05273h1.2246q0.0791 0 0.0791-0.06152 0-0.0293-0.03809-0.07617l-1.8223-2.335q-0.12891-0.16699-0.12891-0.36328 0-0.22852 0.16406-0.39551 0.16406-0.16992 0.39551-0.16992z"/>
                    <path  style="font-variant-caps:normal;font-variant-east-asian:normal;font-variant-ligatures:normal;font-variant-numeric:normal" d="m-76.259 49.977v1.6377l0.14356 0.24023h0.20508l0.14941-0.24609v-2.9033q0-0.10254 0.07324-0.17578 0.07617-0.07617 0.17871-0.07617 0.09961 0 0.17285 0.07324 0.07324 0.07324 0.07324 0.17285v2.9883q0 0.05566-0.06152 0.15527l-0.22852 0.37793q-0.07031 0.12598-0.21387 0.12598h-0.46289q-0.21973 0-0.28125-0.19922-0.06738 0.19922-0.26953 0.19922h-0.43359q-0.1875 0-0.26953-0.1377l-0.21094-0.35449q-0.05859-0.09668-0.05859-0.16699v-2.9824q0-0.10254 0.07324-0.17578 0.07617-0.07617 0.17871-0.07617 0.09668 0 0.16699 0.07617 0.07324 0.07324 0.07324 0.17578v2.915l0.14356 0.23438h0.21094l0.15527-0.24609v-1.6318q0-0.10254 0.07031-0.17285 0.07324-0.07324 0.17578-0.07324 0.10254 0 0.17285 0.07324 0.07324 0.07031 0.07324 0.17285z"/>
                </g>
            </g>
        </g>
        <g  style="font-feature-settings:normal;font-variant-caps:normal;font-variant-ligatures:normal;font-variant-numeric:normal" aria-label="Joystick">
            <path  style="font-variant-caps:normal;font-variant-east-asian:normal;font-variant-ligatures:normal;font-variant-numeric:normal" d="m22.192 5.614v-0.7793q0-0.10254 0.07031-0.17285 0.07324-0.073242 0.17578-0.073242 0.10254 0 0.17285 0.073242 0.07324 0.070312 0.07324 0.17285v0.78516q0 0.099609 0.07324 0.16992 0.07324 0.070312 0.17871 0.070312h0.49805q0.10254 0 0.17578-0.070312 0.07617-0.073242 0.07617-0.17578v-2.9033q0-0.10254 0.07031-0.17285 0.07031-0.073242 0.16992-0.073242 0.09961 0 0.17578 0.079102 0.07617 0.079102 0.07617 0.17871v2.8916q0 0.31055-0.22559 0.52734t-0.51856 0.2168h-0.49805q-0.30762 0-0.52734-0.21973-0.2168-0.21973-0.2168-0.52441z"/>
            <path  style="font-variant-caps:normal;font-variant-east-asian:normal;font-variant-ligatures:normal;font-variant-numeric:normal" d="m28.055 4.4187v1.04q0 0.33105-0.31348 0.6123-0.31055 0.28125-0.6416 0.28125h-0.57715q-0.33691 0-0.64453-0.28418-0.30762-0.28711-0.30762-0.60938v-1.04q0-0.32227 0.29883-0.60645 0.30176-0.28711 0.65332-0.28711h0.57715q0.33106-0.00586 0.6416 0.27539 0.31348 0.28125 0.31348 0.61816zm-1.9863 0.020508v0.99609q0 0.13477 0.09668 0.21387l0.18457 0.1582q0.06152 0.052734 0.17285 0.052734h0.57129q0.12598 0 0.22852-0.09082l0.14941-0.13184q0.09082-0.070312 0.09082-0.19629v-0.99609q0-0.14648-0.09082-0.2168l-0.17285-0.1377q-0.08789-0.073242-0.20508-0.073242h-0.50977q-0.16699 0-0.25781 0.079102l-0.16699 0.14355q-0.09082 0.076172-0.09082 0.19922z"/>
            <path  style="font-variant-caps:normal;font-variant-east-asian:normal;font-variant-ligatures:normal;font-variant-numeric:normal" d="m31.685 4.2517-1.3271 3q-0.06738 0.16113-0.23438 0.16113h-0.68262q-0.10254 0-0.17578-0.070312-0.07031-0.070312-0.07031-0.17578 0-0.10254 0.07031-0.17285 0.07324-0.070312 0.17578-0.070312h0.52734l0.33691-0.78223h-0.12012q-0.16699 0-0.24023-0.17285l-0.73828-1.7168v-0.47461q0-0.10254 0.07031-0.17285 0.07031-0.073242 0.16992-0.073242 0.10254 0 0.17578 0.073242 0.07617 0.070312 0.07617 0.17285v0.36621l0.64746 1.5h0.17285l0.66797-1.4941v-0.37793q0-0.09668 0.07324-0.16992 0.07617-0.076172 0.17871-0.076172 0.09961 0 0.17285 0.073242 0.07324 0.073242 0.07324 0.17285z"/>
            <path  style="font-variant-caps:normal;font-variant-east-asian:normal;font-variant-ligatures:normal;font-variant-numeric:normal" d="m33.513 3.531h1.1279q0.26367 0 0.46582 0.1582 0.20215 0.15527 0.20215 0.30469 0 0.10547-0.07617 0.17285-0.07324 0.067383-0.16406 0.067383-0.11719 0-0.21387-0.10547-0.09668-0.10547-0.20215-0.10547h-1.1133q-0.16406 0-0.16406 0.1377 0 0.09668 0.1084 0.14648l1.3096 0.58008q0.19922 0.087891 0.3252 0.28418 0.12891 0.19336 0.12891 0.43066 0 0.31641-0.22559 0.53613-0.22266 0.21973-0.50684 0.21973h-0.99609q-0.25781 0-0.48047-0.15527-0.21973-0.15527-0.21973-0.30176 0-0.09668 0.07031-0.16992 0.07324-0.076172 0.1875-0.076172 0.09375 0 0.19922 0.10547 0.1084 0.10547 0.31055 0.10547h0.91699q0.1084 0 0.18164-0.082031 0.07324-0.084961 0.07324-0.19336 0-0.16699-0.16406-0.24023l-1.3213-0.59473q-0.19043-0.084961-0.29297-0.24609t-0.10254-0.32812q0-0.26367 0.18164-0.45703 0.18457-0.19336 0.4541-0.19336z"/>
            <path  style="font-variant-caps:normal;font-variant-east-asian:normal;font-variant-ligatures:normal;font-variant-numeric:normal" d="m38.177 6.3581h-0.49219q-0.30469 0-0.52441-0.2168-0.21973-0.2168-0.21973-0.52148v-1.5967h-0.25195q-0.10254 0-0.17578-0.070312-0.07031-0.070312-0.07031-0.17578 0-0.10254 0.07031-0.17285 0.07324-0.073242 0.17578-0.073242h0.25781v-0.60352q0-0.10254 0.07031-0.17285 0.07324-0.073242 0.17578-0.073242 0.09668 0 0.16992 0.073242 0.07617 0.073242 0.07617 0.17285v0.60352h0.99023q0.09961 0 0.17285 0.073242 0.07324 0.073242 0.07324 0.17285 0 0.10254-0.07324 0.17578-0.07324 0.070312-0.17285 0.070312h-0.99609v1.5967q0 0.099609 0.07324 0.17285 0.07617 0.073242 0.17871 0.073242h0.48047q0.19629 0 0.26074-0.21094 0.06445-0.21387 0.24902-0.21387 0.1084 0 0.17578 0.073242 0.07031 0.070312 0.07031 0.17871 0 0.22266-0.21094 0.44531-0.20801 0.21973-0.5332 0.21973z"/>
            <path  style="font-variant-caps:normal;font-variant-east-asian:normal;font-variant-ligatures:normal;font-variant-numeric:normal" d="m41.057 2.2478h0.25781q0.10254 0 0.17285 0.073242 0.07324 0.070312 0.07324 0.17285v0.21094q0 0.10254-0.07324 0.17871-0.07031 0.073242-0.17285 0.073242h-0.26367q-0.10547 0-0.17871-0.076172-0.07031-0.076172-0.06738-0.16992l0.0059-0.2168q0-0.10254 0.07031-0.17285 0.07324-0.073242 0.17578-0.073242zm1.002 4.1045h-1.5q-0.10254 0-0.17578-0.070312-0.07031-0.073242-0.07031-0.17578 0-0.099609 0.07031-0.17285 0.07324-0.073242 0.17578-0.073242h0.50391v-1.8369h-0.49805q-0.10254 0-0.17578-0.073242-0.07031-0.073242-0.07031-0.17285 0-0.10254 0.07031-0.17578 0.07324-0.076172 0.17578-0.076172h0.75q0.10254 0 0.17285 0.076172 0.07324 0.073242 0.07324 0.17578v2.083h0.49219q0.10254 0 0.17578 0.073242 0.07617 0.070312 0.07617 0.17285 0 0.10254-0.07324 0.17578-0.07324 0.070312-0.17285 0.070312z"/>
            <path  style="font-variant-caps:normal;font-variant-east-asian:normal;font-variant-ligatures:normal;font-variant-numeric:normal" d="m45.935 6.3581h-1.0518q-0.27832 0-0.47461-0.16699l-0.47754-0.41602q-0.22852-0.19043-0.22852-0.51562v-0.6416q-0.011718-0.31348 0.25781-0.54492l0.43066-0.37207q0.20801-0.16992 0.44531-0.16992h1.1045q0.10254 0 0.17285 0.073242 0.07324 0.070312 0.07324 0.17285 0 0.10547-0.07324 0.17578-0.07031 0.070312-0.17285 0.070312h-1.0576q-0.09961 0-0.19043 0.079102l-0.39551 0.33691q-0.09668 0.082031-0.09668 0.21973v0.60059q0 0.09668 0.07617 0.16406l0.43359 0.36914q0.08203 0.073242 0.2168 0.073242h1.0078q0.09961 0 0.17285 0.073242 0.07324 0.070312 0.07324 0.17285 0 0.10254-0.07324 0.17578-0.07031 0.070312-0.17285 0.070312z"/>
            <path  style="font-variant-caps:normal;font-variant-east-asian:normal;font-variant-ligatures:normal;font-variant-numeric:normal" d="m47.32 6.112v-3.3955q0-0.10547 0.07031-0.17871 0.07324-0.073242 0.17578-0.073242 0.10254 0 0.17285 0.073242 0.07324 0.073242 0.07324 0.17871v2.0098l1.3242-1.1279q0.08496-0.070312 0.18457-0.070312 0.10547 0 0.17578 0.076172 0.07031 0.073242 0.07031 0.17578 0 0.1084-0.07617 0.17285l-1.0312 0.87598 1.2715 1.1162q0.07617 0.061524 0.07617 0.16113 0 0.09668-0.07031 0.17578-0.07031 0.076172-0.17285 0.076172-0.10254 0-0.18164-0.067383l-1.3125-1.1396-0.25781 0.2168v0.74414q0 0.10254-0.07324 0.17578-0.07031 0.070312-0.17285 0.070312-0.10254 0-0.17578-0.070312-0.07031-0.073242-0.07031-0.17578z"/>
        </g>
    </g>
</svg>
