<?xml version='1.0' encoding='UTF-8' standalone='no'?>
<svg xmlns="http://www.w3.org/2000/svg" gorn="0" version="1.1"  width="22.99962mm" id="svg8" height="11.999785mm" viewBox="0 0 22.99962 11.999785">
    <desc >
        <referenceFile >vl503lox.svg</referenceFile>
    </desc>
    <defs  id="defs2"/>
    <metadata  id="metadata5">
        <rdf:RDF xmlns:rdf="http://www.w3.org/1999/02/22-rdf-syntax-ns#">
            <cc:Work rdf:about="" xmlns:cc="http://creativecommons.org/ns#" xmlns:rdf="http://www.w3.org/1999/02/22-rdf-syntax-ns#">
                <dc:format xmlns:dc="http://purl.org/dc/elements/1.1/">image/svg+xml</dc:format>
                <dc:type xmlns:dc="http://purl.org/dc/elements/1.1/" rdf:resource="http://purl.org/dc/dcmitype/StillImage" xmlns:rdf="http://www.w3.org/1999/02/22-rdf-syntax-ns#"/>
            </cc:Work>
        </rdf:RDF>
    </metadata>
    <g transform="translate(-49.17891,-132.78001)" >
        <g >
            <g >
                <g gorn="0.3.0.0.0"  id="breadboard">
                    <g transform="scale(0.26458333)" >
                        <g >
                            <g >
                                <path fill-opacity="1" fill="#7c386a" gorn="0.3.0.0.0.0.0.0.0" d="m 201.59961,501.8457 c -0.33732,0 -0.60938,0.27213 -0.60938,0.60938 v 14.50781 h -7.55859 a 7.5590542,7.5590542 0 0 0 -7.55859,7.56055 7.5590542,7.5590542 0 0 0 7.55859,7.55859 7.5590542,7.5590542 0 0 0 0.082,0 h 7.47656 v 14.50781 c 0,0.33752 0.27206,0.60938 0.60938,0.60938 h 55.47461 c 0.33732,0 0.60937,-0.27175 0.60937,-0.60938 v -14.50781 h 7.5586 a 7.5590542,7.5590542 0 0 0 7.55859,-7.55859 7.5590542,7.5590542 0 0 0 -7.55859,-7.56055 h -7.5586 v -14.50781 c 0,-0.33714 -0.27204,-0.60938 -0.60937,-0.60938 z m -8.30664,16.44141 a 6.2362196,6.2362196 0 0 1 0.002,0 6.2362196,6.2362196 0 0 1 0.13672,0 6.2362196,6.2362196 0 0 1 6.23633,6.23633 6.2362196,6.2362196 0 0 1 -6.23633,6.23437 6.2362196,6.2362196 0 0 1 -6.23633,-6.23437 6.2362196,6.2362196 0 0 1 6.09766,-6.23633 z m 71.81055,0 a 6.23622,6.23622 0 0 1 0.002,0 6.23622,6.23622 0 0 1 0.13672,0 6.23622,6.23622 0 0 1 6.23633,6.23633 6.23622,6.23622 0 0 1 -6.23633,6.23437 6.23622,6.23622 0 0 1 -6.23633,-6.23437 6.23622,6.23622 0 0 1 6.09766,-6.23633 z m -59.76563,21.76172 a 2.7360001,2.7360001 0 0 1 2.73633,2.73633 2.7360001,2.7360001 0 0 1 -2.73633,2.73632 2.7360001,2.7360001 0 0 1 -2.73633,-2.73632 2.7360001,2.7360001 0 0 1 2.73633,-2.73633 z m 9.59961,0 a 2.7360001,2.7360001 0 0 1 2.73633,2.73633 2.7360001,2.7360001 0 0 1 -2.73633,2.73632 2.7360001,2.7360001 0 0 1 -2.73633,-2.73632 2.7360001,2.7360001 0 0 1 2.73633,-2.73633 z m 9.59961,0 a 2.7360001,2.7360001 0 0 1 2.73633,2.73633 2.7360001,2.7360001 0 0 1 -2.73633,2.73632 2.7360001,2.7360001 0 0 1 -2.73633,-2.73632 2.7360001,2.7360001 0 0 1 2.73633,-2.73633 z m 9.59961,0 a 2.7360001,2.7360001 0 0 1 2.73633,2.73633 2.7360001,2.7360001 0 0 1 -2.73633,2.73632 2.7360001,2.7360001 0 0 1 -2.73633,-2.73632 2.7360001,2.7360001 0 0 1 2.73633,-2.73633 z m 9.60156,0 a 2.7360001,2.7360001 0 0 1 2.73438,2.73633 2.7360001,2.7360001 0 0 1 -2.73438,2.73632 2.7360001,2.7360001 0 0 1 -2.73633,-2.73632 2.7360001,2.7360001 0 0 1 2.73633,-2.73633 z m 9.59961,0 a 2.7360001,2.7360001 0 0 1 2.73633,2.73633 2.7360001,2.7360001 0 0 1 -2.73633,2.73632 2.7360001,2.7360001 0 0 1 -2.73633,-2.73632 2.7360001,2.7360001 0 0 1 2.73633,-2.73633 z"  stroke="none" stroke-width="1.849" id="rect916" stroke-opacity="1" style="opacity:1;vector-effect:none;fill-rule:evenodd;stroke-linecap:round;stroke-linejoin:round;stroke-miterlimit:4;stroke-dasharray:none;stroke-dashoffset:0;paint-order:fill markers stroke"/>
                            </g>
                        </g>
                    </g>
                    <g transform="rotate(-90)" >
                        <g >
                            <g >
                                <circle fill="none" cy="59.40884" gorn="0.3.0.0.0.1.0.0.0"  r="0.72390002" stroke="#9a916c" stroke-width="0.4318" id="connector5pin" cx="-143.6118" connectorname="SDA"/>
                            </g>
                        </g>
                    </g>
                    <g transform="rotate(-90)" >
                        <g >
                            <g >
                                <circle fill="none" cy="56.868832" gorn="0.3.0.0.0.2.0.0.0"  r="0.72390002" stroke="#9a916c" stroke-width="0.4318" id="connector4pin" cx="-143.6118" connectorname="SCL"/>
                            </g>
                        </g>
                    </g>
                    <g transform="rotate(-90)" >
                        <g >
                            <g >
                                <circle fill="none" cy="54.328838" gorn="0.3.0.0.0.3.0.0.0"  r="0.72390002" stroke="#9a916c" stroke-width="0.4318" id="connector3pin" cx="-143.6118" connectorname="INT1"/>
                            </g>
                        </g>
                    </g>
                    <g transform="rotate(-90)" >
                        <g >
                            <g >
                                <circle fill="none" cy="64.488838" gorn="0.3.0.0.0.4.0.0.0"  r="0.72390002" stroke="#9a916c" stroke-width="0.4318" id="connector7pin" cx="-143.6118" connectorname="SDA"/>
                            </g>
                        </g>
                    </g>
                    <g transform="rotate(-90)" >
                        <g >
                            <g >
                                <circle fill="none" cy="61.948833" gorn="0.3.0.0.0.5.0.0.0"  r="0.72390002" stroke="#9a916c" stroke-width="0.4318" id="connector6pin" cx="-143.6118" connectorname="SCL"/>
                            </g>
                        </g>
                    </g>
                    <g transform="rotate(-90)" >
                        <g >
                            <g >
                                <circle fill="none" cy="67.028831" gorn="0.3.0.0.0.6.0.0.0"  r="0.72390002" stroke="#9a916c" stroke-width="0.4318" id="connector8pin" cx="-143.6118" connectorname="SCL"/>
                            </g>
                        </g>
                    </g>
                    <path fill-opacity="1" fill="#353535" gorn="0.3.0.0.0.7" d="m 58.455238,136.03499 h 5.178121 v 2.39344 h -5.178121 z"  stroke="none" stroke-width="0.489215" id="rect1086" stroke-opacity="1" style="opacity:1;vector-effect:none;fill-rule:evenodd;stroke-linecap:round;stroke-linejoin:round;stroke-miterlimit:4;stroke-dasharray:none;stroke-dashoffset:0;paint-order:fill markers stroke"/>
                    <path fill-opacity="1" fill="#808080" gorn="0.3.0.0.0.8" d="m 62.781847,137.2317 a 0.27616647,0.27616647 0 0 1 -0.276167,0.27617 0.27616647,0.27616647 0 0 1 -0.276166,-0.27617 0.27616647,0.27616647 0 0 1 0.276166,-0.27616 0.27616647,0.27616647 0 0 1 0.276167,0.27616 z"  stroke="none" stroke-width="0.232" id="path1088" style="fill-rule:evenodd;stroke-linecap:round;stroke-linejoin:round;paint-order:markers fill stroke;stop-color:#000000"/>
                    <path fill-opacity="1" fill="#808080" gorn="0.3.0.0.0.9" d="m 59.974152,137.2317 a 0.41424972,0.41424972 0 0 1 -0.41425,0.41425 0.41424972,0.41424972 0 0 1 -0.41425,-0.41425 0.41424972,0.41424972 0 0 1 0.41425,-0.41425 0.41424972,0.41424972 0 0 1 0.41425,0.41425 z"  stroke="none" stroke-width="0.232" id="path1090" style="fill-rule:evenodd;stroke-linecap:round;stroke-linejoin:round;paint-order:markers fill stroke;stop-color:#000000"/>
                    <g transform="rotate(-90)" >
                        <g >
                            <g >
                                <g fill-opacity="1" fill="#000000" gorn="0.3.0.0.0.10.0.0.0" aria-label="VCC"  font-size="3.18598" stroke="none" stroke-width="0.0746712" id="text1094" stroke-opacity="1" style="font-style:normal;font-variant:normal;font-weight:normal;font-stretch:normal;line-height:125%;font-family:Droid Sans;-inkscape-font-specification:'Droid Sans, Normal';font-variant-ligatures:normal;font-variant-caps:normal;font-variant-numeric:normal;font-feature-settings:normal;text-align:start;letter-spacing:0px;word-spacing:0px;writing-mode:lr-tb;text-anchor:start;stroke-linecap:butt;stroke-linejoin:miter;">
                                    <path fill="#ffffff" gorn="0.3.0.0.0.10.0.0.0.0" d="M -141.47259,53.730939 V 54.0503 l -0.35347,0.900205 q -0.0269,0.06511 -0.0847,0.06511 -0.061,0 -0.0868,-0.06511 l -0.35141,-0.900205 v -0.319361 q 0,-0.03721 0.0248,-0.06305 0.0258,-0.02584 0.062,-0.02584 0.0362,0 0.061,0.02584 0.0258,0.02584 0.0258,0.06305 v 0.283188 l 0.26458,0.673861 0.26459,-0.671794 v -0.285255 q 0,-0.03721 0.0248,-0.06305 0.0258,-0.02584 0.062,-0.02584 0.0362,0 0.061,0.02584 0.0258,0.02584 0.0258,0.06305 z"  font-size="0.597371" stroke-width="0.0746712" id="path1123" style="font-style:normal;font-variant:normal;font-weight:normal;font-stretch:normal;font-family:Droid Sans;-inkscape-font-specification:'Droid Sans, Normal';font-variant-ligatures:normal;font-variant-caps:normal;font-variant-numeric:normal;font-variant-east-asian:normal;"/>
                                    <path fill="#ffffff" gorn="0.3.0.0.0.10.0.0.0.1" d="m -140.59616,54.841984 h 0.31316 q 0.0362,0 0.062,0.02584 0.0269,0.0248 0.0269,0.06098 0,0.03617 -0.0269,0.06201 -0.0258,0.0248 -0.062,0.0248 h -0.32453 q -0.062,0 -0.12815,-0.03927 -0.0661,-0.03927 -0.092,-0.08785 l -0.2005,-0.387574 q -0.0403,-0.08372 -0.0403,-0.171566 0,-0.09715 0.0382,-0.168465 l 0.20257,-0.38344 q 0.0289,-0.05374 0.0899,-0.09405 0.061,-0.04134 0.11782,-0.04134 h 0.34313 q 0.0362,0 0.061,0.02584 0.0258,0.02584 0.0258,0.06098 0,0.03617 -0.0258,0.06305 -0.0248,0.02584 -0.061,0.02584 h -0.33073 q -0.0413,0 -0.0672,0.04858 l -0.19223,0.359668 q -0.0227,0.04237 -0.0227,0.100253 0,0.06098 0.0248,0.107487 l 0.18397,0.353467 q 0.0258,0.05478 0.0848,0.05478 z"  font-size="0.597371" stroke-width="0.0746712" id="path1125" style="font-style:normal;font-variant:normal;font-weight:normal;font-stretch:normal;font-family:Droid Sans;-inkscape-font-specification:'Droid Sans, Normal';font-variant-ligatures:normal;font-variant-caps:normal;font-variant-numeric:normal;font-variant-east-asian:normal;"/>
                                    <path fill="#ffffff" gorn="0.3.0.0.0.10.0.0.0.2" d="m -139.31768,54.841984 h 0.31316 q 0.0362,0 0.062,0.02584 0.0269,0.0248 0.0269,0.06098 0,0.03617 -0.0269,0.06201 -0.0258,0.0248 -0.062,0.0248 h -0.32453 q -0.062,0 -0.12816,-0.03927 -0.0661,-0.03927 -0.092,-0.08785 l -0.20051,-0.387574 q -0.0403,-0.08372 -0.0403,-0.171566 0,-0.09715 0.0382,-0.168465 l 0.20257,-0.38344 q 0.0289,-0.05374 0.0899,-0.09405 0.061,-0.04134 0.11782,-0.04134 h 0.34313 q 0.0362,0 0.061,0.02584 0.0258,0.02584 0.0258,0.06098 0,0.03617 -0.0258,0.06305 -0.0248,0.02584 -0.061,0.02584 h -0.33073 q -0.0413,0 -0.0672,0.04858 l -0.19224,0.359668 q -0.0227,0.04237 -0.0227,0.100253 0,0.06098 0.0248,0.107487 l 0.18397,0.353467 q 0.0258,0.05478 0.0848,0.05478 z"  font-size="0.597371" stroke-width="0.0746712" id="path1127" style="font-style:normal;font-variant:normal;font-weight:normal;font-stretch:normal;font-family:Droid Sans;-inkscape-font-specification:'Droid Sans, Normal';font-variant-ligatures:normal;font-variant-caps:normal;font-variant-numeric:normal;font-variant-east-asian:normal;"/>
                                </g>
                            </g>
                        </g>
                    </g>
                    <g transform="rotate(-90)" >
                        <g >
                            <g >
                                <g fill-opacity="1" fill="#000000" gorn="0.3.0.0.0.11.0.0.0" aria-label="GND"  font-size="3.18598" stroke="none" stroke-width="0.0746712" id="text1098" stroke-opacity="1" style="font-style:normal;font-variant:normal;font-weight:normal;font-stretch:normal;line-height:125%;font-family:Droid Sans;-inkscape-font-specification:'Droid Sans, Normal';font-variant-ligatures:normal;font-variant-caps:normal;font-variant-numeric:normal;font-feature-settings:normal;text-align:start;letter-spacing:0px;word-spacing:0px;writing-mode:lr-tb;text-anchor:start;stroke-linecap:butt;stroke-linejoin:miter;">
                                    <path fill="#ffffff" gorn="0.3.0.0.0.11.0.0.0.0" d="m -141.84776,56.182049 h 0.28835 q 0.0362,0 0.061,0.02584 0.0258,0.02481 0.0258,0.06098 0,0.03824 -0.0279,0.06408 -0.0269,0.02481 -0.0589,0.02481 h -0.27492 q -0.0403,0 -0.0703,0.03824 l -0.24391,0.313159 q -0.031,0.03721 -0.031,0.103353 v 0.480592 q 0,0.03721 0.0248,0.06304 0.0258,0.02584 0.062,0.02584 h 0.35347 q 0.0351,0 0.061,-0.02584 0.0258,-0.02584 0.0258,-0.06098 v -0.188102 h -0.17983 q -0.0372,0 -0.062,-0.02481 -0.0248,-0.02584 -0.0248,-0.06201 0,-0.03617 0.0248,-0.06098 0.0248,-0.02584 0.062,-0.02584 h 0.35347 v 0.361736 q 0,0.107487 -0.0765,0.183968 -0.0765,0.07648 -0.18397,0.07648 h -0.35347 q -0.10852,0 -0.18604,-0.07648 -0.0765,-0.07648 -0.0765,-0.183968 v -0.480592 q 0,-0.129191 0.0693,-0.218074 l 0.25632,-0.325562 q 0.0279,-0.03721 0.0775,-0.06305 0.0506,-0.02584 0.10439,-0.02584 z"  font-size="0.597371" stroke-width="0.0746712" id="path1130" style="font-style:normal;font-variant:normal;font-weight:normal;font-stretch:normal;font-family:Droid Sans;-inkscape-font-specification:'Droid Sans, Normal';font-variant-ligatures:normal;font-variant-caps:normal;font-variant-numeric:normal;font-variant-east-asian:normal;"/>
                                    <path fill="#ffffff" gorn="0.3.0.0.0.11.0.0.0.1" d="m -140.19825,56.270933 v 1.284678 h -0.23358 l -0.46715,-1.066604 v 0.979787 q 0,0.03617 -0.0258,0.06201 -0.0248,0.02481 -0.061,0.02481 -0.0362,0 -0.062,-0.02481 -0.0248,-0.02584 -0.0248,-0.06201 v -1.286745 h 0.23048 l 0.46819,1.064536 v -0.975652 q 0,-0.03617 0.0258,-0.06201 0.0269,-0.02687 0.063,-0.02687 0.0362,0 0.061,0.02584 0.0258,0.02584 0.0258,0.06305 z"  font-size="0.597371" stroke-width="0.0746712" id="path1132" style="font-style:normal;font-variant:normal;font-weight:normal;font-stretch:normal;font-family:Droid Sans;-inkscape-font-specification:'Droid Sans, Normal';font-variant-ligatures:normal;font-variant-caps:normal;font-variant-numeric:normal;font-variant-east-asian:normal;"/>
                                    <path fill="#ffffff" gorn="0.3.0.0.0.11.0.0.0.2" d="m -139.70939,56.182049 h 0.34313 q 0.0672,10e-4 0.13023,0.04341 0.0641,0.04237 0.0941,0.10232 l 0.17157,0.347266 q 0.0486,0.09405 0.0486,0.196371 0,0.09508 -0.0517,0.195337 l -0.1726,0.343132 q -0.0331,0.06615 -0.0951,0.106454 -0.062,0.03927 -0.13849,0.03927 h -0.33177 q -0.0362,0 -0.062,-0.02584 -0.0248,-0.02584 -0.0248,-0.06098 0,-0.03617 0.0248,-0.06201 0.0258,-0.02687 0.062,-0.02687 h 0.0909 v -1.022162 h -0.0889 q -0.0362,0 -0.062,-0.02584 -0.0248,-0.02687 -0.0248,-0.06304 0,-0.03514 0.0248,-0.06098 0.0258,-0.02584 0.062,-0.02584 z m 0.26252,0.1757 v 1.024229 h 0.061 q 0.0579,0 0.0868,-0.05684 l 0.17157,-0.341065 q 0.032,-0.06718 0.032,-0.112654 0,-0.05685 -0.0258,-0.107487 l -0.17777,-0.353468 q -0.0279,-0.05271 -0.0909,-0.05271 z"  font-size="0.597371" stroke-width="0.0746712" id="path1134" style="font-style:normal;font-variant:normal;font-weight:normal;font-stretch:normal;font-family:Droid Sans;-inkscape-font-specification:'Droid Sans, Normal';font-variant-ligatures:normal;font-variant-caps:normal;font-variant-numeric:normal;font-variant-east-asian:normal;"/>
                                </g>
                            </g>
                        </g>
                    </g>
                    <g transform="rotate(-90)" >
                        <g >
                            <g >
                                <g fill-opacity="1" fill="#000000" gorn="0.3.0.0.0.12.0.0.0" aria-label="SCL"  font-size="3.18598" stroke="none" stroke-width="0.0746712" id="text1102" stroke-opacity="1" style="font-style:normal;font-variant:normal;font-weight:normal;font-stretch:normal;line-height:125%;font-family:Droid Sans;-inkscape-font-specification:'Droid Sans, Normal';font-variant-ligatures:normal;font-variant-caps:normal;font-variant-numeric:normal;font-feature-settings:normal;text-align:start;letter-spacing:0px;word-spacing:0px;writing-mode:lr-tb;text-anchor:start;stroke-linecap:butt;stroke-linejoin:miter;">
                                    <path fill="#ffffff" gorn="0.3.0.0.0.12.0.0.0.0" d="m -142.15472,58.722058 h 0.45165 q 0.0827,0 0.15606,0.07028 0.0744,0.06925 0.0744,0.168465 0,0.03721 -0.0269,0.06305 -0.0258,0.02584 -0.0579,0.02584 -0.0444,0 -0.061,-0.01964 -0.0165,-0.02067 -0.032,-0.07545 -0.0145,-0.05478 -0.0661,-0.05478 h -0.42892 q -0.031,0 -0.031,0.01964 0,0.0124 0.0134,0.02894 l 0.64389,0.823723 q 0.0465,0.05994 0.0465,0.128158 0,0.07752 -0.0568,0.136426 -0.0558,0.05891 -0.12505,0.05891 h -0.46819 q -0.093,0 -0.16227,-0.07028 -0.0682,-0.07131 -0.0682,-0.156063 0,-0.09715 0.0909,-0.09715 0.0351,0 0.06,0.02584 0.0248,0.02481 0.0248,0.05891 0,0.02791 0.0186,0.04651 0.0196,0.0186 0.0486,0.0186 h 0.43202 q 0.0279,0 0.0279,-0.0217 0,-0.01033 -0.0134,-0.02687 l -0.64286,-0.823723 q -0.0455,-0.05891 -0.0455,-0.128158 0,-0.08062 0.0579,-0.139527 0.0579,-0.05994 0.13953,-0.05994 z"  font-size="0.597371" stroke-width="0.0746712" id="path1137" style="font-style:normal;font-variant:normal;font-weight:normal;font-stretch:normal;font-family:Droid Sans;-inkscape-font-specification:'Droid Sans, Normal';font-variant-ligatures:normal;font-variant-caps:normal;font-variant-numeric:normal;font-variant-east-asian:normal;"/>
                                    <path fill="#ffffff" gorn="0.3.0.0.0.12.0.0.0.1" d="m -140.59616,59.921986 h 0.31316 q 0.0362,0 0.062,0.02584 0.0269,0.02481 0.0269,0.06098 0,0.03617 -0.0269,0.06201 -0.0258,0.02481 -0.062,0.02481 h -0.32453 q -0.062,0 -0.12815,-0.03927 -0.0661,-0.03927 -0.092,-0.08785 l -0.2005,-0.387574 q -0.0403,-0.08372 -0.0403,-0.171566 0,-0.09715 0.0382,-0.168465 l 0.20257,-0.38344 q 0.0289,-0.05374 0.0899,-0.09405 0.061,-0.04134 0.11782,-0.04134 h 0.34313 q 0.0362,0 0.061,0.02584 0.0258,0.02584 0.0258,0.06098 0,0.03617 -0.0258,0.06304 -0.0248,0.02584 -0.061,0.02584 h -0.33073 q -0.0413,0 -0.0672,0.04858 l -0.19223,0.359668 q -0.0227,0.04237 -0.0227,0.100253 0,0.06098 0.0248,0.107487 l 0.18397,0.353467 q 0.0258,0.05478 0.0848,0.05478 z"  font-size="0.597371" stroke-width="0.0746712" id="path1139" style="font-style:normal;font-variant:normal;font-weight:normal;font-stretch:normal;font-family:Droid Sans;-inkscape-font-specification:'Droid Sans, Normal';font-variant-ligatures:normal;font-variant-caps:normal;font-variant-numeric:normal;font-variant-east-asian:normal;"/>
                                    <path fill="#ffffff" gorn="0.3.0.0.0.12.0.0.0.2" d="m -139.79414,60.095619 v -1.286745 q 0,-0.03514 0.0258,-0.06098 0.0258,-0.02584 0.061,-0.02584 0.0351,0 0.061,0.02584 0.0258,0.02584 0.0258,0.06098 v 1.113112 h 0.61392 q 0.0362,0 0.062,0.02584 0.0269,0.02481 0.0269,0.06098 0,0.03617 -0.0269,0.06201 -0.0258,0.02481 -0.062,0.02481 z"  font-size="0.597371" stroke-width="0.0746712" id="path1141" style="font-style:normal;font-variant:normal;font-weight:normal;font-stretch:normal;font-family:Droid Sans;-inkscape-font-specification:'Droid Sans, Normal';font-variant-ligatures:normal;font-variant-caps:normal;font-variant-numeric:normal;font-variant-east-asian:normal;"/>
                                </g>
                            </g>
                        </g>
                    </g>
                    <g transform="rotate(-90)" >
                        <g >
                            <g >
                                <g fill-opacity="1" fill="#000000" gorn="0.3.0.0.0.13.0.0.0" aria-label="SDA"  font-size="3.18598" stroke="none" stroke-width="0.0746712" id="text1106" stroke-opacity="1" style="font-style:normal;font-variant:normal;font-weight:normal;font-stretch:normal;line-height:125%;font-family:Droid Sans;-inkscape-font-specification:'Droid Sans, Normal';font-variant-ligatures:normal;font-variant-caps:normal;font-variant-numeric:normal;font-feature-settings:normal;text-align:start;letter-spacing:0px;word-spacing:0px;writing-mode:lr-tb;text-anchor:start;stroke-linecap:butt;stroke-linejoin:miter;">
                                    <path fill="#ffffff" gorn="0.3.0.0.0.13.0.0.0.0" d="m -142.15472,61.262051 h 0.45165 q 0.0827,0 0.15606,0.07028 0.0744,0.06925 0.0744,0.168465 0,0.03721 -0.0269,0.06305 -0.0258,0.02584 -0.0579,0.02584 -0.0444,0 -0.061,-0.01964 -0.0165,-0.02067 -0.032,-0.07545 -0.0145,-0.05478 -0.0661,-0.05478 h -0.42892 q -0.031,0 -0.031,0.01964 0,0.0124 0.0134,0.02894 l 0.64389,0.823724 q 0.0465,0.05994 0.0465,0.128157 0,0.07751 -0.0568,0.136426 -0.0558,0.05891 -0.12505,0.05891 h -0.46819 q -0.093,0 -0.16227,-0.07028 -0.0682,-0.07131 -0.0682,-0.156063 0,-0.09715 0.0909,-0.09715 0.0351,0 0.06,0.02584 0.0248,0.02481 0.0248,0.05891 0,0.0279 0.0186,0.04651 0.0196,0.0186 0.0486,0.0186 h 0.43202 q 0.0279,0 0.0279,-0.0217 0,-0.01033 -0.0134,-0.02687 l -0.64286,-0.823723 q -0.0455,-0.05891 -0.0455,-0.128158 0,-0.08062 0.0579,-0.139526 0.0579,-0.05994 0.13953,-0.05994 z"  font-size="0.597371" stroke-width="0.0746712" id="path1144" style="font-style:normal;font-variant:normal;font-weight:normal;font-stretch:normal;font-family:Droid Sans;-inkscape-font-specification:'Droid Sans, Normal';font-variant-ligatures:normal;font-variant-caps:normal;font-variant-numeric:normal;font-variant-east-asian:normal;"/>
                                    <path fill="#ffffff" gorn="0.3.0.0.0.13.0.0.0.1" d="m -140.98787,61.262051 h 0.34314 q 0.0672,10e-4 0.13022,0.04341 0.0641,0.04237 0.0941,0.10232 l 0.17157,0.347266 q 0.0486,0.09405 0.0486,0.19637 0,0.09509 -0.0517,0.195338 l -0.1726,0.343132 q -0.0331,0.06615 -0.0951,0.106453 -0.062,0.03927 -0.13849,0.03927 h -0.33176 q -0.0362,0 -0.062,-0.02584 -0.0248,-0.02584 -0.0248,-0.06098 0,-0.03617 0.0248,-0.06201 0.0258,-0.02687 0.062,-0.02687 h 0.0909 v -1.022161 h -0.0889 q -0.0362,0 -0.062,-0.02584 -0.0248,-0.02687 -0.0248,-0.06305 0,-0.03514 0.0248,-0.06098 0.0258,-0.02584 0.062,-0.02584 z m 0.26252,0.1757 v 1.024228 h 0.061 q 0.0579,0 0.0868,-0.05684 l 0.17156,-0.341065 q 0.032,-0.06718 0.032,-0.112655 0,-0.05684 -0.0258,-0.107487 l -0.17776,-0.353467 q -0.0279,-0.05271 -0.091,-0.05271 z"  font-size="0.597371" stroke-width="0.0746712" id="path1146" style="font-style:normal;font-variant:normal;font-weight:normal;font-stretch:normal;font-family:Droid Sans;-inkscape-font-specification:'Droid Sans, Normal';font-variant-ligatures:normal;font-variant-caps:normal;font-variant-numeric:normal;font-variant-east-asian:normal;"/>
                                    <path fill="#ffffff" gorn="0.3.0.0.0.13.0.0.0.2" d="m -139.78897,62.514689 0.3514,-1.187526 q 0.0207,-0.06511 0.0868,-0.06511 0.0641,0 0.0806,0.05478 l 0.34623,1.20613 q 0.004,0.01344 0.004,0.02584 0,0.03617 -0.0248,0.06201 -0.0248,0.0248 -0.0568,0.0248 -0.0682,0 -0.0868,-0.06305 l -0.0703,-0.235645 h -0.39584 l -0.0765,0.252182 q -0.003,0.01654 -0.0258,0.03204 -0.0227,0.01447 -0.0496,0.01447 -0.0382,0 -0.063,-0.02584 -0.0248,-0.02584 -0.0248,-0.06305 0,-0.0155 0.005,-0.03204 z m 0.43615,-0.850595 -0.14883,0.497128 h 0.29249 z"  font-size="0.597371" stroke-width="0.0746712" id="path1148" style="font-style:normal;font-variant:normal;font-weight:normal;font-stretch:normal;font-family:Droid Sans;-inkscape-font-specification:'Droid Sans, Normal';font-variant-ligatures:normal;font-variant-caps:normal;font-variant-numeric:normal;font-variant-east-asian:normal;"/>
                                </g>
                            </g>
                        </g>
                    </g>
                    <g transform="rotate(-90)" >
                        <g >
                            <g >
                                <g fill-opacity="1" fill="#000000" gorn="0.3.0.0.0.14.0.0.0" aria-label="GPIO1"  font-size="3.18598" stroke="none" stroke-width="0.0746712" id="text1110" stroke-opacity="1" style="font-style:normal;font-variant:normal;font-weight:normal;font-stretch:normal;line-height:125%;font-family:Droid Sans;-inkscape-font-specification:'Droid Sans, Normal';font-variant-ligatures:normal;font-variant-caps:normal;font-variant-numeric:normal;font-feature-settings:normal;text-align:start;letter-spacing:0px;word-spacing:0px;writing-mode:lr-tb;text-anchor:start;stroke-linecap:butt;stroke-linejoin:miter;">
                                    <path fill="#ffffff" gorn="0.3.0.0.0.14.0.0.0.0" d="m -141.84776,63.802059 h 0.28835 q 0.0362,0 0.061,0.02584 0.0258,0.0248 0.0258,0.06098 0,0.03824 -0.0279,0.06408 -0.0269,0.02481 -0.0589,0.02481 h -0.27492 q -0.0403,0 -0.0703,0.03824 l -0.24391,0.31316 q -0.031,0.03721 -0.031,0.103353 v 0.480591 q 0,0.03721 0.0248,0.06305 0.0258,0.02584 0.062,0.02584 h 0.35347 q 0.0351,0 0.061,-0.02584 0.0258,-0.02584 0.0258,-0.06098 v -0.188102 h -0.17983 q -0.0372,0 -0.062,-0.02481 -0.0248,-0.02584 -0.0248,-0.06201 0,-0.03617 0.0248,-0.06098 0.0248,-0.02584 0.062,-0.02584 h 0.35347 v 0.361735 q 0,0.107488 -0.0765,0.183969 -0.0765,0.07648 -0.18397,0.07648 h -0.35347 q -0.10852,0 -0.18604,-0.07648 -0.0765,-0.07648 -0.0765,-0.183969 V 64.43458 q 0,-0.129191 0.0693,-0.218075 l 0.25632,-0.325562 q 0.0279,-0.03721 0.0775,-0.06305 0.0506,-0.02584 0.10439,-0.02584 z"  font-size="0.597371" stroke-width="0.0746712" id="path1151" style="font-style:normal;font-variant:normal;font-weight:normal;font-stretch:normal;font-family:Droid Sans;-inkscape-font-specification:'Droid Sans, Normal';font-variant-ligatures:normal;font-variant-caps:normal;font-variant-numeric:normal;font-variant-east-asian:normal;"/>
                                    <path fill="#ffffff" gorn="0.3.0.0.0.14.0.0.0.1" d="m -141.07262,65.088804 v -1.286745 h 0.61599 q 0.10645,0 0.18293,0.07751 0.0775,0.07752 0.0775,0.185002 v 0.325562 q 0,0.107487 -0.0765,0.183968 -0.0765,0.07648 -0.18397,0.07648 h -0.44029 v 0.438216 q 0,0.03617 -0.0258,0.06201 -0.0248,0.02481 -0.061,0.02481 -0.0372,0 -0.0631,-0.02481 -0.0258,-0.02584 -0.0258,-0.06201 z m 0.1757,-0.611849 h 0.44029 q 0.0351,0 0.061,-0.02481 0.0258,-0.02584 0.0258,-0.06201 v -0.325562 q 0,-0.03617 -0.0258,-0.06098 -0.0258,-0.02584 -0.061,-0.02584 h -0.44029 z"  font-size="0.597371" stroke-width="0.0746712" id="path1153" style="font-style:normal;font-variant:normal;font-weight:normal;font-stretch:normal;font-family:Droid Sans;-inkscape-font-specification:'Droid Sans, Normal';font-variant-ligatures:normal;font-variant-caps:normal;font-variant-numeric:normal;font-variant-east-asian:normal;"/>
                                    <path fill="#ffffff" gorn="0.3.0.0.0.14.0.0.0.2" d="m -139.70939,63.802059 h 0.7028 q 0.0341,0 0.0599,0.02584 0.0269,0.02584 0.0269,0.06098 0,0.03617 -0.0258,0.06304 -0.0258,0.02584 -0.061,0.02584 h -0.26252 v 1.024228 h 0.26252 q 0.0362,0 0.061,0.02584 0.0258,0.02481 0.0258,0.06098 0,0.03617 -0.0258,0.06201 -0.0258,0.02481 -0.061,0.02481 h -0.7028 q -0.0362,0 -0.062,-0.02481 -0.0248,-0.02584 -0.0248,-0.06201 0,-0.03617 0.0248,-0.06098 0.0258,-0.02584 0.062,-0.02584 h 0.26665 V 63.97776 h -0.26665 q -0.0362,0 -0.062,-0.02584 -0.0248,-0.02584 -0.0248,-0.06098 0,-0.03721 0.0248,-0.06305 0.0258,-0.02584 0.062,-0.02584 z"  font-size="0.597371" stroke-width="0.0746712" id="path1155" style="font-style:normal;font-variant:normal;font-weight:normal;font-stretch:normal;font-family:Droid Sans;-inkscape-font-specification:'Droid Sans, Normal';font-variant-ligatures:normal;font-variant-caps:normal;font-variant-numeric:normal;font-variant-east-asian:normal;"/>
                                    <path fill="#ffffff" gorn="0.3.0.0.0.14.0.0.0.3" d="m -137.87281,63.929184 0.19121,0.38964 q 0.0403,0.07958 0.0403,0.1726 0,0.09095 -0.0403,0.171566 l -0.19121,0.385507 q -0.061,0.127124 -0.2067,0.127124 -0.0693,0 -0.12506,-0.03617 -0.0548,-0.03617 -0.0827,-0.09095 l -0.19224,-0.385507 q -0.0382,-0.07545 -0.0382,-0.171566 0,-0.09612 0.0382,-0.1726 l 0.19224,-0.38964 q 0.0651,-0.127125 0.20774,-0.127125 0.14469,0 0.2067,0.127125 z m -0.26458,0.08682 -0.17983,0.36587 q -0.0248,0.05478 -0.0248,0.107487 0,0.05684 0.0248,0.108521 l 0.185,0.370003 q 0.0145,0.03411 0.0527,0.03411 0.0331,0 0.0506,-0.03411 l 0.18604,-0.370003 q 0.0258,-0.05478 0.0258,-0.108521 0,-0.05684 -0.0258,-0.107487 l -0.1819,-0.36587 q -0.0176,-0.04031 -0.0548,-0.04031 -0.0372,0 -0.0579,0.04031 z"  font-size="0.597371" stroke-width="0.0746712" id="path1157" style="font-style:normal;font-variant:normal;font-weight:normal;font-stretch:normal;font-family:Droid Sans;-inkscape-font-specification:'Droid Sans, Normal';font-variant-ligatures:normal;font-variant-caps:normal;font-variant-numeric:normal;font-variant-east-asian:normal;"/>
                                    <path fill="#ffffff" gorn="0.3.0.0.0.14.0.0.0.4" d="m -137.15657,64.999921 h 0.26665 v -1.024229 h -0.26252 q -0.0362,0 -0.062,-0.0248 -0.0248,-0.02584 -0.0248,-0.06201 0,-0.03617 0.0248,-0.06098 0.0258,-0.02584 0.062,-0.02584 h 0.43615 v 1.197862 h 0.17364 v -0.361736 q 0,-0.03514 0.0248,-0.06098 0.0258,-0.02584 0.062,-0.02584 0.0362,0 0.061,0.02584 0.0258,0.02481 0.0258,0.06098 v 0.448552 q 0,0.03617 -0.0258,0.06201 -0.0248,0.02481 -0.061,0.02481 h -0.70073 q -0.0362,0 -0.062,-0.02584 -0.0248,-0.02687 -0.0248,-0.06305 0,-0.03514 0.0248,-0.05994 0.0258,-0.02481 0.062,-0.02481 z"  font-size="0.597371" stroke-width="0.0746712" id="path1159" style="font-style:normal;font-variant:normal;font-weight:normal;font-stretch:normal;font-family:Droid Sans;-inkscape-font-specification:'Droid Sans, Normal';font-variant-ligatures:normal;font-variant-caps:normal;font-variant-numeric:normal;font-variant-east-asian:normal;"/>
                                </g>
                            </g>
                        </g>
                    </g>
                    <g transform="rotate(-90)" >
                        <g >
                            <g >
                                <g fill-opacity="1" fill="#000000" gorn="0.3.0.0.0.15.0.0.0" aria-label="XSHUT"  font-size="3.18598" stroke="none" stroke-width="0.0746712" id="text1114" stroke-opacity="1" style="font-style:normal;font-variant:normal;font-weight:normal;font-stretch:normal;line-height:125%;font-family:Droid Sans;-inkscape-font-specification:'Droid Sans, Normal';font-variant-ligatures:normal;font-variant-caps:normal;font-variant-numeric:normal;font-feature-settings:normal;text-align:start;letter-spacing:0px;word-spacing:0px;writing-mode:lr-tb;text-anchor:start;stroke-linecap:butt;stroke-linejoin:miter;">
                                    <path fill="#ffffff" gorn="0.3.0.0.0.15.0.0.0.0" d="m -141.89944,67.201427 -0.27595,0.472324 q -0.0238,0.04134 -0.0734,0.04134 -0.0372,0 -0.0641,-0.02687 -0.0258,-0.02687 -0.0258,-0.05891 0,-0.02481 0.0155,-0.05064 l 0.3235,-0.548805 -0.3173,-0.545704 q -0.0186,-0.03204 -0.0186,-0.05891 0,-0.03307 0.0258,-0.05788 0.0258,-0.02584 0.0599,-0.02584 0.0506,0 0.0744,0.04134 l 0.28008,0.471289 0.27492,-0.469222 q 0.0258,-0.04238 0.0734,-0.04238 0.0362,0 0.0631,0.02481 0.0269,0.0248 0.0269,0.05994 0,0.02377 -0.0134,0.04651 l -0.32557,0.553972 0.3235,0.557073 q 0.0124,0.02067 0.0124,0.04444 0,0.03721 -0.0258,0.06201 -0.0248,0.0248 -0.061,0.0248 -0.0506,0 -0.0754,-0.04237 z"  font-size="0.597371" stroke-width="0.0746712" id="path1162" style="font-style:normal;font-variant:normal;font-weight:normal;font-stretch:normal;font-family:Droid Sans;-inkscape-font-specification:'Droid Sans, Normal';font-variant-ligatures:normal;font-variant-caps:normal;font-variant-numeric:normal;font-variant-east-asian:normal;"/>
                                    <path fill="#ffffff" gorn="0.3.0.0.0.15.0.0.0.1" d="m -140.87624,66.342564 h 0.45165 q 0.0827,0 0.15606,0.07028 0.0744,0.06925 0.0744,0.168465 0,0.03721 -0.0269,0.06305 -0.0258,0.02584 -0.0579,0.02584 -0.0444,0 -0.061,-0.01964 -0.0165,-0.02067 -0.032,-0.07545 -0.0145,-0.05478 -0.0661,-0.05478 h -0.42891 q -0.031,0 -0.031,0.01964 0,0.0124 0.0134,0.02894 l 0.64389,0.823724 q 0.0465,0.05994 0.0465,0.128157 0,0.07752 -0.0568,0.136426 -0.0558,0.05891 -0.12506,0.05891 h -0.46819 q -0.093,0 -0.16226,-0.07028 -0.0682,-0.07131 -0.0682,-0.156063 0,-0.09715 0.0909,-0.09715 0.0351,0 0.0599,0.02584 0.0248,0.02481 0.0248,0.05891 0,0.02791 0.0186,0.04651 0.0196,0.0186 0.0486,0.0186 h 0.43201 q 0.0279,0 0.0279,-0.0217 0,-0.01033 -0.0134,-0.02687 L -141.0282,66.6702 q -0.0455,-0.05891 -0.0455,-0.128158 0,-0.08061 0.0579,-0.139526 0.0579,-0.05994 0.13953,-0.05994 z"  font-size="0.597371" stroke-width="0.0746712" id="path1164" style="font-style:normal;font-variant:normal;font-weight:normal;font-stretch:normal;font-family:Droid Sans;-inkscape-font-specification:'Droid Sans, Normal';font-variant-ligatures:normal;font-variant-caps:normal;font-variant-numeric:normal;font-variant-east-asian:normal;"/>
                                    <path fill="#ffffff" gorn="0.3.0.0.0.15.0.0.0.2" d="M -139.79827,67.629309 V 66.42938 q 0,-0.03514 0.0248,-0.06098 0.0258,-0.02584 0.062,-0.02584 0.0351,0 0.061,0.02584 0.0258,0.02584 0.0258,0.06098 v 0.511598 h 0.52917 V 66.42938 q 0,-0.03514 0.0248,-0.06098 0.0258,-0.02584 0.062,-0.02584 0.0362,0 0.061,0.02584 0.0258,0.02584 0.0258,0.06305 v 1.197862 q 0,0.03514 -0.0269,0.06098 -0.0258,0.02584 -0.0599,0.02584 -0.0372,0 -0.062,-0.0248 -0.0248,-0.02584 -0.0248,-0.06201 v -0.514698 h -0.5271 v 0.514698 q 0,0.03514 -0.0269,0.06098 -0.0258,0.02584 -0.062,0.02584 -0.0351,0 -0.061,-0.0248 -0.0258,-0.02584 -0.0258,-0.06201 z"  font-size="0.597371" stroke-width="0.0746712" id="path1166" style="font-style:normal;font-variant:normal;font-weight:normal;font-stretch:normal;font-family:Droid Sans;-inkscape-font-specification:'Droid Sans, Normal';font-variant-ligatures:normal;font-variant-caps:normal;font-variant-numeric:normal;font-variant-east-asian:normal;"/>
                                    <path fill="#ffffff" gorn="0.3.0.0.0.15.0.0.0.3" d="m -138.51773,67.455676 v -1.024229 q 0,-0.03617 0.0258,-0.06201 0.0258,-0.02687 0.061,-0.02687 0.0351,0 0.061,0.02584 0.0258,0.02584 0.0258,0.06098 v 1.026296 q 0,0.03411 0.0258,0.05994 0.0258,0.0248 0.061,0.0248 h 0.35554 q 0.0362,0 0.061,-0.0248 0.0258,-0.02481 0.0258,-0.05994 v -1.024229 q 0,-0.03721 0.0248,-0.06305 0.0258,-0.02584 0.062,-0.02584 0.0362,0 0.061,0.02584 0.0258,0.02584 0.0258,0.06305 v 1.022162 q 0,0.107487 -0.0775,0.185002 -0.0765,0.07751 -0.18293,0.07751 h -0.35554 q -0.10749,0 -0.18397,-0.07648 -0.0765,-0.07648 -0.0765,-0.183968 z"  font-size="0.597371" stroke-width="0.0746712" id="path1168" style="font-style:normal;font-variant:normal;font-weight:normal;font-stretch:normal;font-family:Droid Sans;-inkscape-font-specification:'Droid Sans, Normal';font-variant-ligatures:normal;font-variant-caps:normal;font-variant-numeric:normal;font-variant-east-asian:normal;"/>
                                    <path fill="#ffffff" gorn="0.3.0.0.0.15.0.0.0.4" d="m -137.23925,66.579242 v -0.234611 h 0.87643 v 0.236678 q 0,0.03617 -0.0258,0.06201 -0.0258,0.02481 -0.061,0.02481 -0.0362,0 -0.063,-0.02584 -0.0258,-0.02584 -0.0258,-0.06098 v -0.06305 h -0.1757 v 1.111045 q 0,0.03617 -0.0258,0.06201 -0.0258,0.0248 -0.061,0.0248 -0.0372,0 -0.063,-0.0248 -0.0258,-0.02584 -0.0258,-0.06201 v -1.111045 h -0.1757 v 0.06098 q 0,0.03617 -0.0258,0.06201 -0.0248,0.02481 -0.061,0.02481 -0.0362,0 -0.062,-0.02481 -0.0248,-0.02584 -0.0248,-0.06201 z"  font-size="0.597371" stroke-width="0.0746712" id="path1170" style="font-style:normal;font-variant:normal;font-weight:normal;font-stretch:normal;font-family:Droid Sans;-inkscape-font-specification:'Droid Sans, Normal';font-variant-ligatures:normal;font-variant-caps:normal;font-variant-numeric:normal;font-variant-east-asian:normal;"/>
                                </g>
                            </g>
                        </g>
                    </g>
                    <g fill-opacity="1" fill="#000000" gorn="0.3.0.0.0.16" aria-label="VL53LOXV2"  font-size="3.18598" stroke="none" stroke-width="0.0746712" id="text1118" stroke-opacity="1" style="font-style:normal;font-variant:normal;font-weight:normal;font-stretch:normal;line-height:125%;font-family:Droid Sans;-inkscape-font-specification:'Droid Sans, Normal';font-variant-ligatures:normal;font-variant-caps:normal;font-variant-numeric:normal;font-feature-settings:normal;text-align:start;letter-spacing:0px;word-spacing:0px;writing-mode:lr-tb;text-anchor:start;stroke-linecap:butt;stroke-linejoin:miter;">
                        <path fill="#ffffff" gorn="0.3.0.0.0.16.0" d="m 57.164268,133.45797 v 0.31936 l -0.353467,0.9002 q -0.02687,0.0651 -0.08475,0.0651 -0.06098,0 -0.08682,-0.0651 l -0.3514,-0.9002 v -0.31936 q 0,-0.0372 0.0248,-0.063 0.02584,-0.0258 0.06201,-0.0258 0.03617,0 0.06098,0.0258 0.02584,0.0258 0.02584,0.063 v 0.28318 l 0.264584,0.67387 0.264583,-0.6718 v -0.28525 q 0,-0.0372 0.02481,-0.063 0.02584,-0.0258 0.06201,-0.0258 0.03617,0 0.06098,0.0258 0.02584,0.0258 0.02584,0.063 z"  font-size="0.597371" stroke-width="0.0746712" id="path1173" style="font-style:normal;font-variant:normal;font-weight:normal;font-stretch:normal;font-family:Droid Sans;-inkscape-font-specification:'Droid Sans, Normal';font-variant-ligatures:normal;font-variant-caps:normal;font-variant-numeric:normal;font-variant-east-asian:normal;"/>
                        <path fill="#ffffff" gorn="0.3.0.0.0.16.1" d="m 57.564245,134.74265 v -1.28675 q 0,-0.0351 0.02584,-0.061 0.02584,-0.0258 0.06098,-0.0258 0.03514,0 0.06098,0.0258 0.02584,0.0258 0.02584,0.061 v 1.11311 h 0.613917 q 0.03617,0 0.06201,0.0258 0.02687,0.0248 0.02687,0.061 0,0.0362 -0.02687,0.062 -0.02584,0.0248 -0.06201,0.0248 z"  font-size="0.597371" stroke-width="0.0746712" id="path1175" style="font-style:normal;font-variant:normal;font-weight:normal;font-stretch:normal;font-family:Droid Sans;-inkscape-font-specification:'Droid Sans, Normal';font-variant-ligatures:normal;font-variant-caps:normal;font-variant-numeric:normal;font-variant-east-asian:normal;"/>
                        <path fill="#ffffff" gorn="0.3.0.0.0.16.2" d="m 59.160015,134.56695 h 0.402043 v -0.42582 h -0.525033 v -0.77205 h 0.61185 q 0.03514,0 0.06098,0.0258 0.02584,0.0258 0.02584,0.061 0,0.0362 -0.02584,0.062 -0.02481,0.0248 -0.06098,0.0248 h -0.43615 v 0.42478 h 0.349333 q 0.07028,0 0.121957,0.0517 0.05168,0.0517 0.05168,0.12196 v 0.42582 q 0,0.0713 -0.05168,0.12299 -0.05064,0.0506 -0.121957,0.0506 h -0.402043 q -0.05374,0 -0.114722,-0.0258 l -0.131258,-0.0548 q -0.05271,-0.0217 -0.05271,-0.0827 0,-0.0362 0.02377,-0.061 0.02377,-0.0258 0.05788,-0.0258 0.02584,0 0.05994,0.0155 l 0.114721,0.0486 q 0.02067,0.0124 0.04237,0.0124 z"  font-size="0.597371" stroke-width="0.0746712" id="path1177" style="font-style:normal;font-variant:normal;font-weight:normal;font-stretch:normal;font-family:Droid Sans;-inkscape-font-specification:'Droid Sans, Normal';font-variant-ligatures:normal;font-variant-caps:normal;font-variant-numeric:normal;font-variant-east-asian:normal;"/>
                        <path fill="#ffffff" gorn="0.3.0.0.0.16.3" d="m 60.995565,133.54272 v 0.32556 q 0,0.11369 -0.07028,0.18397 0.07235,0.0806 0.07235,0.1757 v 0.339 q 0,0.0713 -0.05168,0.12299 -0.05168,0.0506 -0.124023,0.0506 h -0.613917 q -0.03617,0 -0.06201,-0.0248 -0.02481,-0.0258 -0.02481,-0.062 0,-0.0362 0.02481,-0.061 0.02584,-0.0258 0.06201,-0.0258 h 0.61185 v -0.339 q 0,-0.0362 -0.02584,-0.062 -0.0248,-0.0269 -0.06098,-0.0269 h -0.349333 q -0.03617,0 -0.06201,-0.0248 -0.02481,-0.0248 -0.02481,-0.062 0,-0.0362 0.02481,-0.061 0.02584,-0.0258 0.06201,-0.0258 h 0.3514 q 0.03514,0 0.06098,-0.0248 0.02584,-0.0258 0.02584,-0.062 v -0.33589 h -0.620118 q -0.03617,0 -0.06201,-0.0248 -0.02481,-0.0258 -0.02481,-0.062 0,-0.0362 0.02481,-0.061 0.02584,-0.0258 0.06201,-0.0258 h 0.620118 q 0.07235,0 0.12299,0.0517 0.05064,0.0506 0.05064,0.12196 z"  font-size="0.597371" stroke-width="0.0746712" id="path1179" style="font-style:normal;font-variant:normal;font-weight:normal;font-stretch:normal;font-family:Droid Sans;-inkscape-font-specification:'Droid Sans, Normal';font-variant-ligatures:normal;font-variant-caps:normal;font-variant-numeric:normal;font-variant-east-asian:normal;"/>
                        <path fill="#ffffff" gorn="0.3.0.0.0.16.4" d="m 61.399675,134.74265 v -1.28675 q 0,-0.0351 0.02584,-0.061 0.02584,-0.0258 0.06098,-0.0258 0.03514,0 0.06098,0.0258 0.02584,0.0258 0.02584,0.061 v 1.11311 h 0.613917 q 0.03617,0 0.06201,0.0258 0.02687,0.0248 0.02687,0.061 0,0.0362 -0.02687,0.062 -0.02584,0.0248 -0.06201,0.0248 z"  font-size="0.597371" stroke-width="0.0746712" id="path1181" style="font-style:normal;font-variant:normal;font-weight:normal;font-stretch:normal;font-family:Droid Sans;-inkscape-font-specification:'Droid Sans, Normal';font-variant-ligatures:normal;font-variant-caps:normal;font-variant-numeric:normal;font-variant-east-asian:normal;"/>
                        <path fill="#ffffff" gorn="0.3.0.0.0.16.5" d="m 63.321008,133.49621 0.191203,0.38964 q 0.04031,0.0796 0.04031,0.1726 0,0.091 -0.04031,0.17156 l -0.191203,0.38551 q -0.06098,0.12713 -0.206707,0.12713 -0.06925,0 -0.125057,-0.0362 -0.05478,-0.0362 -0.08268,-0.0909 l -0.192237,-0.38551 q -0.03824,-0.0754 -0.03824,-0.17156 0,-0.0961 0.03824,-0.1726 l 0.192237,-0.38964 q 0.06511,-0.12713 0.207739,-0.12713 0.144695,0 0.206707,0.12713 z m -0.264584,0.0868 -0.179834,0.36587 q -0.02481,0.0548 -0.02481,0.10749 0,0.0568 0.02481,0.10852 l 0.185001,0.37001 q 0.01447,0.0341 0.05271,0.0341 0.03307,0 0.05064,-0.0341 l 0.186036,-0.37001 q 0.02584,-0.0548 0.02584,-0.10852 0,-0.0568 -0.02584,-0.10749 l -0.181901,-0.36587 q -0.01757,-0.0403 -0.05478,-0.0403 -0.03721,0 -0.05788,0.0403 z"  font-size="0.597371" stroke-width="0.0746712" id="path1183" style="font-style:normal;font-variant:normal;font-weight:normal;font-stretch:normal;font-family:Droid Sans;-inkscape-font-specification:'Droid Sans, Normal';font-variant-ligatures:normal;font-variant-caps:normal;font-variant-numeric:normal;font-variant-east-asian:normal;"/>
                        <path fill="#ffffff" gorn="0.3.0.0.0.16.6" d="m 64.408282,134.22795 -0.275953,0.47232 q -0.02377,0.0413 -0.07338,0.0413 -0.03721,0 -0.06408,-0.0269 -0.02584,-0.0269 -0.02584,-0.0589 0,-0.0248 0.0155,-0.0506 l 0.323495,-0.54881 -0.317294,-0.5457 q -0.0186,-0.032 -0.0186,-0.0589 0,-0.0331 0.02584,-0.0579 0.02584,-0.0258 0.05994,-0.0258 0.05064,0 0.07441,0.0413 l 0.280087,0.47129 0.274919,-0.46922 q 0.02584,-0.0424 0.07338,-0.0424 0.03617,0 0.06305,0.0248 0.02687,0.0248 0.02687,0.0599 0,0.0238 -0.01344,0.0465 l -0.325562,0.55397 0.323495,0.55708 q 0.0124,0.0207 0.0124,0.0444 0,0.0372 -0.02584,0.062 -0.02481,0.0248 -0.06098,0.0248 -0.05064,0 -0.07545,-0.0424 z"  font-size="0.597371" stroke-width="0.0746712" id="path1185" style="font-style:normal;font-variant:normal;font-weight:normal;font-stretch:normal;font-family:Droid Sans;-inkscape-font-specification:'Droid Sans, Normal';font-variant-ligatures:normal;font-variant-caps:normal;font-variant-numeric:normal;font-variant-east-asian:normal;"/>
                        <path fill="#ffffff" gorn="0.3.0.0.0.16.7" d="m 66.113606,133.45797 v 0.31936 l -0.353467,0.9002 q -0.02687,0.0651 -0.08475,0.0651 -0.06098,0 -0.08682,-0.0651 l -0.3514,-0.9002 v -0.31936 q 0,-0.0372 0.0248,-0.063 0.02584,-0.0258 0.06201,-0.0258 0.03617,0 0.06098,0.0258 0.02584,0.0258 0.02584,0.063 v 0.28318 l 0.264584,0.67387 0.264583,-0.6718 v -0.28525 q 0,-0.0372 0.02481,-0.063 0.02584,-0.0258 0.06201,-0.0258 0.03617,0 0.06098,0.0258 0.02584,0.0258 0.02584,0.063 z"  font-size="0.597371" stroke-width="0.0746712" id="path1187" style="font-style:normal;font-variant:normal;font-weight:normal;font-stretch:normal;font-family:Droid Sans;-inkscape-font-specification:'Droid Sans, Normal';font-variant-ligatures:normal;font-variant-caps:normal;font-variant-numeric:normal;font-variant-east-asian:normal;"/>
                        <path fill="#ffffff" gorn="0.3.0.0.0.16.8" d="m 67.301132,134.74058 h -0.789617 v -0.59945 q 0,-0.0724 0.05064,-0.12402 0.05168,-0.0517 0.12299,-0.0517 h 0.527101 v -0.42271 h -0.620118 q -0.03721,0 -0.06201,-0.0248 -0.02481,-0.0258 -0.02481,-0.062 0,-0.0362 0.02481,-0.061 0.02481,-0.0258 0.06201,-0.0258 h 0.620118 q 0.07235,0 0.124023,0.0517 0.05168,0.0506 0.05168,0.12196 v 0.42271 q 0,0.0734 -0.05168,0.12506 -0.05168,0.0506 -0.124023,0.0506 h -0.527101 v 0.42582 h 0.615984 q 0.03514,0 0.06098,0.0258 0.02584,0.0248 0.02584,0.061 0,0.0362 -0.02584,0.062 -0.02584,0.0248 -0.06098,0.0248 z"  font-size="0.597371" stroke-width="0.0746712" id="path1189" style="font-style:normal;font-variant:normal;font-weight:normal;font-stretch:normal;font-family:Droid Sans;-inkscape-font-specification:'Droid Sans, Normal';font-variant-ligatures:normal;font-variant-caps:normal;font-variant-numeric:normal;font-variant-east-asian:normal;"/>
                    </g>
                </g>
            </g>
        </g>
    </g>
</svg>
